<svg width="890" height="477" xmlns="http://www.w3.org/2000/svg" xmlns:xlink="http://www.w3.org/1999/xlink" xml:space="preserve" overflow="hidden"><defs><clipPath id="clip0"><rect x="180" y="166" width="890" height="477"/></clipPath></defs><g clip-path="url(#clip0)" transform="translate(-180 -166)"><path d="M250.939 323.407C249.63 308.343 249.959 293.989 248.23 279.715 246.521 265.7 244.142 251.756 243.402 237.651 243.032 230.594 243.422 223.497 243.432 216.42 243.432 208.453 243.572 200.476 242.412 192.549 242.212 191.2 242.023 189.691 242.782 188.331 244.432 188.021 245.541 189.121 246.721 189.861 260.225 198.377 273.51 207.274 287.474 215.05 288.734 215.75 289.824 216.8 291.103 217.44 293.742 218.759 294.582 220.798 294.342 223.657 294.112 226.366 294.492 229.045 295.121 231.744 295.731 234.353 296.161 237.122 295.081 239.791 293.892 242.709 295.381 245.508 295.401 248.367 295.511 260.322 295.351 272.258 294.802 284.223 294.062 300.357 294.142 316.54 294.052 332.694 294.012 338.861 294.252 345.009 293.542 351.166 292.323 361.822 292.293 372.498 293.262 383.193 294.052 391.86 294.422 400.547 294.542 409.263 294.872 432.504 295.521 455.735 295.761 478.975 295.901 493.18 297.361 507.174 300.829 520.959 302.828 528.885 305.307 536.622 308.436 544.209 312.644 554.435 316.043 564.991 319.952 575.337 322.77 582.804 325.789 590.201 330.577 596.698 331.327 597.708 332.197 598.728 332.586 599.887 333.126 601.536 332.956 603.156 330.847 603.796 329.808 604.115 328.818 604.575 327.778 604.905 312.764 609.763 297.81 614.811 282.716 619.389 275.299 621.639 276.729 622.678 272.101 615.461 270.381 612.782 269.512 609.573 266.683 607.494 265.643 606.724 265.573 604.515 265.243 602.926 263.784 595.819 262.684 588.622 260.915 581.594 258.386 571.568 255.487 561.632 252.568 551.716 245.641 528.186 241.603 504.025 236.465 480.095 234.785 472.298 232.606 464.611 230.617 456.884 230.457 456.254 230.287 455.495 229.328 455.155 229.947 464.451 230.427 473.677 231.217 482.874 232.426 496.798 232.716 510.783 234.576 524.657 236.145 536.342 237.704 548.028 239.204 559.733 239.843 564.771 240.873 569.849 240.753 574.877 240.543 583.814 242.962 592.08 245.891 600.297 248.42 607.384 252.758 613.282 258.206 618.4 258.866 619.02 259.676 619.489 260.295 620.149 262.904 622.948 262.304 625.447 258.686 626.776 251.549 629.395 244.422 632.274 236.925 633.444 229.598 634.583 222.38 636.213 215.093 637.492 210.805 638.252 207.436 636.882 205.367 631.784 203.328 626.766 201.639 621.539 200.419 616.261 197.37 603.006 194.521 589.731 193.252 576.117 191.843 560.953 189.633 545.859 187.844 530.725 185.745 513.032 185.595 495.219 184.605 477.456 183.816 463.312 183.196 449.157 182.746 434.993 181.797 405.255 180.727 375.497 180.287 345.728 180.007 327.226 181.327 308.723 182.496 290.241 182.716 286.802 182.926 283.353 182.906 279.915 182.856 269.309 185.325 259.043 187.134 248.707 187.824 244.749 187.954 240.77 188.334 236.842 189.693 222.737 194.172 209.263 196.121 195.318 196.99 189.101 198.76 183.363 201.459 177.795 203.128 174.347 204.328 173.667 207.766 175.076 210.775 176.316 213.614 177.965 216.613 179.245 218.832 180.194 218.542 182.254 218.772 183.873 219.512 189.251 220.431 194.669 220.351 200.066 220.231 208.703 221.851 217.09 223.97 225.246 231.977 256.104 238.934 287.252 248.15 317.79 248.66 319.479 248.69 321.398 250.939 323.407Z" stroke="#FFFFFF" stroke-width="5.99761"/><path d="M1066.13 641.92C1061.65 641.92 1057.13 642.29 1052.69 641.81 1048.86 641.391 1045.12 641.051 1041.41 642.09 1034.17 644.12 1027 642.19 1019.79 641.96 1011.51 641.691 1003.83 638.952 995.992 636.703 962.855 627.196 930.258 616.051 897.711 604.735 892.703 602.996 889.295 600.327 887.505 595.339 884.377 586.592 879.279 578.796 875.27 570.469 875.05 570.009 874.741 569.589 873.471 569.459 873.471 574.237 873.471 579.016 873.471 583.804 873.471 586.702 873.381 589.591 872.661 592.44 871.782 595.939 869.802 597.848 866.124 598.628 856.698 600.607 847.132 601.596 837.595 602.576 831.738 603.186 825.67 602.186 819.742 601.487 810.196 600.367 800.77 598.458 791.424 596.259 785.576 594.889 780.168 592.68 775.83 588.022 773.361 585.383 772.441 582.554 772.151 579.295 770.902 565.231 769.592 551.187 769.343 537.032 769.213 529.695 768.623 522.248 767.583 514.871 766.384 506.284 766.064 497.568 765.214 488.931 764.504 481.744 764.385 474.507 762.585 467.42 761.796 464.311 762.695 460.753 761.796 457.714 760.236 452.446 762.045 448.527 764.375 443.899 766.823 439.041 766.974 433.084 768.533 427.726 771.652 417.02 770.092 406.644 767.013 396.278 766.094 393.169 765.854 389.831 763.235 387.422 761.855 386.152 762.175 384.593 762.745 382.914 768.433 366.19 776.01 350.387 785.166 335.273 796.312 316.88 810.146 300.556 823.841 284.113 827.889 279.245 832.427 274.777 836.876 270.248 841.804 265.24 846.852 266.37 849.451 272.897 850.95 276.656 851.15 280.674 851.45 284.603 852.07 292.939 853.729 301.056 855.488 309.193 857.098 316.62 857.697 324.207 858.207 331.794 858.887 341.89 859.487 352.016 861.826 361.922 862.425 364.451 861.976 366.99 862.206 369.509 863.485 383.583 863.975 397.698 864.765 411.792 865.394 422.998 866.024 434.203 867.014 445.369 867.493 450.767 868.753 456.084 869.213 461.512 870.262 473.957 872.911 486.282 872.361 498.857 872.172 503.206 874.511 506.834 875.36 510.903 876.68 517.25 877.749 523.648 879.539 529.935 882.407 540.001 888.405 547.198 897.222 552.336 905.988 557.434 914.895 562.292 923.731 567.25 934.607 573.348 945.802 579.075 955.698 586.832 970.093 598.118 986.236 606.435 1002.81 613.822 1022.99 622.818 1043.17 631.844 1063.75 639.951 1064.57 640.281 1065.37 640.681 1066.19 641.041L1066.1 641.93ZM833.557 453.286C833.467 446.618 832.118 442.28 831.488 437.842 830.108 428.186 828.709 418.519 827.799 408.813 827.159 401.976 826.5 395.159 825.34 388.381 824.91 385.872 823.591 385.063 821.382 384.823 818.663 384.523 816.514 385.313 814.574 387.352 810.446 391.69 806.438 396.228 801.81 399.967 796.492 404.255 794.762 409.523 795.842 415.84 797.411 424.987 796.862 434.263 797.831 443.449 798.441 449.197 797.991 455.055 798.431 460.833 799.051 469.119 800.32 477.366 800.07 485.713 799.76 496.238 801.34 506.694 801.18 517.21 801.15 518.929 801.91 520.309 802.639 521.798 805.008 526.646 809.606 529.115 813.645 532.074 820.662 537.222 827.799 542.22 836.376 544.649 838.875 545.359 840.234 545.019 841.484 542.44 844.862 535.483 844.163 528.536 842.933 521.239 841.644 513.582 839.175 511.602 831.498 511.043 830.418 510.963 829.309 510.913 828.239 511.043 826.75 511.212 825.82 510.583 825.16 509.353 821.962 503.386 819.593 497.198 819.513 490.281 819.483 487.822 820.492 486.952 822.771 487.362 826.85 488.082 831.028 488.232 834.976 489.741 837.325 490.641 838.355 489.841 838.175 487.532 838.125 486.832 837.765 486.162 837.565 485.473 834.337 474.267 834.996 462.592 833.557 453.306Z" stroke="#FFFFFF" stroke-width="5.99761"/><path d="M537.425 407.664C537.625 397.858 536.615 388.861 536.275 379.815 535.806 367.3 534.506 354.895 531.107 342.78 529.888 338.421 529.578 338.161 525.25 337.961 521.791 337.802 518.382 338.321 514.944 338.521 507.817 338.951 500.849 339.881 493.502 338.991 486.385 338.131 478.728 340.9 476.019 349.007 472.001 361.002 467.663 372.918 465.683 385.543 464.084 395.719 463.204 405.954 462.265 416.37 459.036 415.551 456.697 413.891 455.558 411.062 454.418 408.234 452.209 406.394 450.26 404.265 442.753 396.088 433.766 389.511 425.929 381.704 423.72 379.505 421.691 377.276 420.671 374.227 420.222 372.888 419.362 371.628 418.492 370.489 409.496 358.663 403.748 345.189 398.5 331.434 394.822 321.778 390.963 312.202 387.135 302.596 384.916 297.018 383.236 291.29 382.017 285.422 381.547 283.173 381.717 281.254 383.586 279.525 387.305 276.076 390.164 271.828 394.212 268.649 397.93 265.73 400.539 261.672 403.618 258.123 415.723 244.149 430.128 233.073 445.921 223.727 461.045 214.771 475.999 205.454 492.183 198.417 508.746 191.22 525.87 186.122 544.012 184.952 546.311 184.803 548.301 185.322 550.58 186.322 565.434 192.859 572.381 205.474 576.909 219.879 580.118 230.104 581.547 240.77 583.017 251.356 584.996 265.7 587.535 279.965 588.654 294.429 589.574 306.364 590.044 318.309 590.424 330.265 591.024 349.137 590.734 368.01 591.014 386.882 591.114 393.599 590.734 394.599 584.246 395.509 574.91 396.808 565.724 398.687 556.637 401.156 550.37 402.856 544.362 405.315 537.445 407.644ZM526.859 268.839C527.019 264.961 526.299 260.682 525.53 256.404 525.24 254.785 524.87 252.925 523.331 252.236 520.222 250.836 517.013 249.207 513.704 248.777 507.467 247.967 501.139 248.437 494.872 249.217 492.743 249.487 491.073 250.416 490.204 252.426 487.475 258.733 484.746 265.061 483.426 271.828 482.667 275.746 485.006 277.915 489.054 277.536 489.414 277.506 489.774 277.466 490.134 277.416 499.43 276.156 508.726 274.697 517.993 277.735 519.152 278.115 520.502 278.045 521.761 278.005 526.469 277.855 526.809 277.466 526.869 272.588 526.879 271.498 526.869 270.418 526.869 268.839Z" stroke="#FFFFFF" stroke-width="5.99761"/><path d="M1003.26 539.211C1010.69 537.532 1017.66 536.223 1024.47 534.333 1031.52 532.374 1038.81 532.194 1045.94 530.895 1050.28 530.105 1052.16 532.034 1053.03 536.323 1054.96 545.889 1055.88 555.595 1058.24 565.131 1061.79 579.505 1064.23 594.169 1066.79 608.774 1067.7 613.922 1067.71 619.219 1069.58 624.208 1069.88 625.007 1069.74 626.017 1069.66 626.916 1069.41 629.795 1068.54 630.575 1065.87 629.755 1060.69 628.156 1055.39 626.976 1050.36 624.797 1038.73 619.759 1026.59 616.001 1015.18 610.293 997.702 601.547 980.129 592.97 962.805 583.894 954.339 579.455 950.74 571.758 952.65 562.302 953.259 559.303 953.579 556.225 953.969 553.176 955.228 543.13 957.917 533.304 958.757 523.188 960.446 502.766 963.515 482.434 963.265 461.872 963.015 441.16 961.176 420.539 960.007 399.877 959.447 389.911 958.567 379.965 957.718 370.009 956.988 361.552 957.797 352.976 957.488 344.459 957.088 333.563 957.378 322.668 957.018 311.792 956.738 303.125 955.188 294.459 955.318 285.812 955.478 275.426 953.519 265.29 952.899 255.015 952.4 246.738 951.36 238.451 950.78 230.144 950.41 224.787 950.8 219.369 950.37 214.011 950.081 210.442 948.941 206.934 948.211 203.395 947.212 198.497 947.961 197.427 952.21 195.318 961.926 190.5 972.222 186.972 981.718 181.674 988.105 178.115 995.123 176.156 1002.19 174.517 1010.87 172.507 1019.37 170.018 1027.65 166.74 1031.52 165.21 1033.18 165.88 1033.63 169.968 1034.54 178.205 1038.1 186.102 1036.72 194.619 1036.54 195.698 1036.72 196.758 1037.25 197.787 1039.35 201.886 1038.71 206.124 1038.35 210.522 1037.82 217.02 1038.13 223.577 1038.11 230.114 1038.08 238.781 1037.62 239.161 1029.05 236.832 1025.53 235.882 1022.03 235.152 1018.32 235.462 1011.42 236.032 1004.65 233.913 997.712 234.353 995.333 234.503 992.993 234.703 990.754 235.432 987.885 236.372 985.436 239.761 985.716 242.829 986.696 253.455 986.656 264.151 988.325 274.737 989.475 282.054 990.165 289.471 990.135 296.918 990.105 304.725 991.004 312.452 991.854 320.209 992.744 328.315 993.553 336.422 994.693 344.499 995.193 348.067 995.282 348.087 998.811 347.338 1005.57 345.898 1012.5 346.038 1019.32 345.169 1020.73 344.989 1022.26 345.099 1023.64 345.439 1026.25 346.088 1027.78 347.348 1028.05 350.616 1029 361.862 1028.31 373.108 1028.08 384.323 1027.97 389.761 1025.66 394.449 1019.44 396.778 1013.03 399.187 1006.53 401.286 999.981 403.216 997.802 403.855 997.742 404.745 997.572 406.514 996.932 413.421 997.851 420.299 997.792 427.196 997.712 436.392 997.402 445.579 997.922 454.775 998.461 464.381 998.481 474.007 998.901 483.613 999.481 496.848 1000.22 510.073 1000.91 523.308 1001.18 528.556 1002.1 533.714 1003.26 539.191Z" stroke="#FFFFFF" stroke-width="5.99761"/><path d="M311.365 232.533C321.781 239.611 332.367 244.879 341.753 251.986 344.582 254.125 346.571 257.374 348.97 260.093 349.78 261.002 349.96 262.002 349.57 263.111 346.471 271.978 347.451 281.294 346.811 290.4 346.381 296.568 345.881 302.686 344.582 308.703 343.452 313.931 343.712 319.179 343.752 324.417 343.842 336.412 342.153 348.297 341.583 360.253 340.643 379.875 341.973 399.457 342.792 419.039 343.352 432.464 343.672 445.918 344.722 459.313 346.241 478.645 346.121 498.128 349.77 517.28 350.489 521.039 351.229 524.767 352.429 528.386 355.167 536.652 357.986 544.899 360.775 553.156 361.175 554.325 361.345 555.635 362.674 556.484 364.914 553.266 365.164 549.647 365.323 546.059 366.043 529.955 366.233 513.831 365.903 497.728 365.603 483.054 364.534 468.4 363.534 453.745 362.315 435.833 361.425 417.9 360.515 399.977 359.306 376.066 358.826 352.126 358.256 328.195 358.006 317.93 359.396 308.013 360.295 297.967 360.695 293.449 360.775 288.931 361.145 284.423 361.255 283.133 361.225 281.714 362.595 281.154 364.164 280.514 365.214 281.464 366.303 282.624 371.561 288.221 375.989 294.269 378.468 301.696 384.086 318.559 390.963 334.943 397.561 351.426 398.7 354.275 400.16 357.034 401.799 359.643 405.328 365.251 405.627 371.098 403.818 377.296 403.428 378.645 403.478 380.185 403.618 381.614 404.488 390.671 403.948 399.707 403.698 408.773 403.218 425.657 403.348 442.55 403.258 459.443 403.188 472.858 403.818 486.262 404.178 499.677 404.378 507.254 404.368 514.861 404.588 522.458 404.698 526.266 404.738 530.055 405.068 533.864 405.497 538.881 405.348 543.899 405.068 548.967 404.658 556.285 404.518 563.722 404.788 571.109 404.828 572.178 405.168 573.248 405.437 574.297 406.087 576.806 405.148 578.156 402.828 579.425 394.472 583.994 385.246 586.233 376.469 589.661 369.702 592.3 362.615 593.9 355.747 596.209 351.159 597.758 347.111 596.209 343.872 591.94 340.793 587.892 338.344 583.434 335.675 579.115 330.577 570.879 327.329 561.822 323.7 552.956 320.681 545.589 317.832 538.122 315.583 530.435 314.134 525.497 313.894 520.459 313.264 515.491 312.484 509.373 311.535 503.276 310.595 497.188 308.016 480.485 306.787 463.701 306.747 446.808 306.697 427.376 306.707 407.944 306.297 388.511 306.157 381.624 306.037 374.767 306.297 367.88 306.687 357.914 305.047 347.987 305.217 337.982 305.397 327.496 304.558 317.03 304.938 306.494 305.327 295.618 306.157 284.783 306.737 273.927 307.287 263.651 308.666 253.415 310.165 243.219 310.635 240.011 310.885 236.762 311.345 232.533Z" stroke="#FFFFFF" stroke-width="5.99761"/><path d="M940.234 568.84C932.598 564.061 924.861 559.403 917.324 554.435 913.985 552.226 910.756 549.847 906.948 548.558 900.88 546.508 897.162 542.05 893.863 536.882 888.335 528.206 887.955 518.46 887.226 508.644 886.066 493.14 886.206 477.456 881.138 462.442 879.809 458.493 879.799 454.235 879.469 450.077 878.589 439.271 876.63 428.595 875.51 417.81 874.581 408.843 872.751 399.947 871.992 390.92 871.082 380.085 869.952 369.279 868.903 358.453 867.863 347.838 866.414 337.242 865.864 326.596 865.354 316.8 864.195 307.054 862.325 297.538 860.156 286.482 860.436 275.236 858.367 264.211 857.647 260.372 858.187 256.304 858.107 252.336 858.077 250.876 858.827 249.967 859.916 249.207 868.103 243.529 875.39 236.592 884.397 232.054 888.085 230.194 889.025 230.564 889.765 234.743 892.783 251.646 895.902 268.539 898.751 285.472 900.01 292.949 900.8 300.516 901.61 308.053 902.39 315.301 905.438 322.038 906.238 329.265 907.278 338.611 908.547 347.938 909.277 357.304 910.186 369.039 912.056 380.674 912.935 392.41 913.535 400.497 914.705 408.493 914.545 416.73 914.375 425.347 915.724 434.083 916.264 442.78 916.594 448.208 916.824 453.585 916.424 459.063 915.974 465.181 918.223 471.178 919.113 477.256 919.223 478.026 919.693 478.605 920.452 478.815 921.482 479.095 922.292 478.576 922.651 477.706 923.141 476.546 923.501 475.317 923.721 474.077 925.31 465.291 925.9 456.454 925.161 447.528 923.321 425.467 921.422 403.415 919.773 381.344 918.953 370.309 918.653 359.223 918.083 348.167 917.863 343.829 916.864 339.491 916.644 335.273 915.904 321.338 911.446 307.933 911.496 293.879 911.516 287.632 909.007 281.484 909.227 275.057 909.407 269.789 908.077 264.631 907.667 259.443 906.898 249.727 904.309 240.28 903.959 230.534 903.949 230.174 903.959 229.775 903.809 229.465 901.04 223.617 904.808 220.808 909.007 218.189 914.395 214.821 919.753 211.422 925.17 208.103 926.87 207.064 928.649 206.114 930.508 205.404 934.437 203.905 935.436 204.505 936.696 208.663 938.175 213.551 939.265 218.489 938.915 223.647 938.755 226.006 938.995 228.335 939.625 230.634 940.694 234.513 940.924 238.471 940.754 242.49 940.464 249.227 941.804 255.834 942.494 262.492 942.714 264.651 943.423 266.85 943.183 268.959 942.054 278.835 944.223 288.461 945.382 298.137 946.532 307.734 946.032 317.35 946.442 326.946 946.672 332.204 947.791 337.312 947.971 342.61 948.251 351.136 947.692 359.673 948.471 368.179 950.81 393.679 951.79 419.269 953.599 444.799 954.989 464.431 954.019 483.973 951.5 503.486 950.57 510.673 950.25 517.94 949.651 525.167 949.611 525.707 949.701 526.297 949.521 526.786 946.322 535.313 947.502 544.329 946.502 553.106 945.912 558.264 944.013 563.452 940.284 568.859Z" stroke="#FFFFFF" stroke-width="5.99761"/><path d="M474.06 452.956C475.43 445.998 477.979 439.901 481.797 434.293 486.695 427.086 492.893 422.698 502.089 422.938 509.136 423.128 516.233 423.637 523.26 422.128 525.829 421.578 527.489 423.188 526.509 425.497 523.181 433.314 524.86 441.63 523.77 449.657 523.081 454.775 524.11 460.113 524.32 465.361 524.48 469.349 524.79 473.348 524.63 477.326 524.12 490.761 526.069 504.115 525.87 517.55 525.76 524.637 525.01 531.644 524.67 538.692 523.98 553.416 525.89 568 526.819 582.634 527.109 587.132 526.709 591.67 526.669 596.189 526.609 602.536 526.749 608.874 528.339 615.091 528.838 617.04 528.918 619.01 528.318 620.889 527.409 621.579 526.499 621.349 525.67 621.069 513.294 616.98 500.999 612.612 488.374 609.323 486.145 608.744 486.395 607.034 486.275 605.455 485.546 596.039 484.766 586.632 484.156 577.216 483.706 570.189 481.417 563.372 482.137 556.185 483.826 539.181 482.217 522.098 483.266 505.075 483.426 502.556 483.876 500.047 484.186 497.538 484.446 495.419 484.526 493.33 483.676 490.691 480.917 492.95 480.158 495.779 478.908 498.248 476.419 503.196 475.55 503.516 470.512 501.446 466.103 499.637 461.995 497.448 459.076 493.5 458.656 492.94 458.077 492.41 457.447 492.11 456.157 491.5 454.928 491.45 454.648 493.31 454.568 493.839 454.588 494.399 454.588 494.939 454.438 510.743 455.328 526.516 457.077 542.2 458.236 552.606 459.996 562.992 460.576 573.428 461.135 583.514 463.174 593.56 461.895 603.976 458.826 604.805 456.657 602.216 453.998 601.536 446.141 599.527 438.164 597.698 430.987 593.56 428.398 592.07 426.249 590.331 424.48 587.952 422.791 585.683 421.691 583.004 418.972 581.395 417.263 580.385 417.353 577.886 416.803 575.977 415.244 570.539 414.884 564.871 414.734 559.333 414.484 550.087 413.544 540.891 413.444 531.644 413.414 528.526 414.074 525.527 414.244 522.458 414.464 518.27 413.854 514.151 413.514 510.003 412.675 499.677 413.674 489.351 413.504 479.035 413.324 468.15 412.825 457.244 413.244 446.378 413.714 434.223 412.375 422.068 413.524 409.943 414.154 403.285 414.044 396.548 415.653 389.981 416.533 386.372 417.773 385.842 420.731 388.102 422.601 389.531 424.23 391.13 425.549 393.18 430.667 401.116 436.415 408.543 443.052 415.341 449.63 422.068 455.897 429.135 461.245 436.932 462.285 438.441 463.174 439.981 463.844 441.68 465.793 446.568 469.282 450.047 474.08 452.936Z" stroke="#FFFFFF" stroke-width="5.99761"/><path d="M666.703 629.455C663.625 630.415 660.746 631.015 658.147 632.204 654.628 633.814 651.02 633.134 647.441 633.314 645.752 633.394 645.372 632.154 644.872 630.995 643.223 627.146 641.983 623.128 641.423 619.02 640.694 613.652 638.844 608.514 638.775 602.976 638.715 598.558 637.325 597.608 632.777 597.358 623.681 596.858 614.874 594.949 606.148 592.45 603.179 591.6 601.939 590.331 601.409 587.002 599.25 573.598 599.9 560.373 601.449 546.948 602.389 538.792 601.419 530.345 600.2 522.118 599.83 519.609 599.71 517.08 599.31 514.581 598.63 510.393 596.331 506.894 594.792 503.076 591.563 495.029 588.884 486.802 587.735 478.096 586.765 470.759 585.836 463.482 586.455 456.064 587.325 445.599 592.703 436.112 603.858 432.984 606.128 432.344 608.357 431.554 610.626 430.944 617.973 428.975 625.47 427.596 632.827 425.637 638.585 424.097 644.612 423.747 650.64 423.777 657.347 423.817 664.074 424.287 670.742 423.068 676.619 421.998 680.858 424.417 684.196 429.105 689.604 436.692 694.073 444.589 695.452 454.065 697.001 464.681 697.211 475.367 697.991 486.023 698.531 493.44 695.482 499.767 692.473 506.194 687.775 516.23 680.668 524.297 672.351 531.434 670.072 533.384 670.062 534.423 672.371 536.053 684.646 544.789 693.063 556.644 699.86 569.829 701.44 572.888 703.029 575.947 704.758 578.926 707.227 583.184 708.957 587.632 710.046 592.5 711.466 598.838 713.755 604.985 715.624 611.223 717.113 616.211 717.073 616.191 712.115 618.22 703.879 621.589 695.482 624.457 686.675 625.927 682.387 626.646 682.357 626.617 680.738 622.578 680.198 621.239 679.718 619.859 679.438 618.45 675.64 599.657 666.863 583.144 656.188 567.5 656.038 567.29 655.568 567.3 654.808 567.09 655.508 574.277 654.298 581.445 657.367 588.302 659.686 593.49 659.586 599.287 660.256 604.805 660.926 610.273 663.355 615.061 664.534 620.289 665.214 623.278 666.284 626.197 666.723 629.465ZM658.727 474.437C658.367 470.109 658.037 465.771 657.657 461.442 657.277 457.154 656.318 455.964 652.059 455.785 647.381 455.595 642.693 455.325 638.035 456.614 633.227 457.944 633.207 457.744 633.127 462.442 632.957 472.238 634.066 481.964 634.736 491.72 635.026 495.939 637.585 498.498 641.633 499.747 644.022 500.487 646.312 499.797 648.641 499.827 653.329 499.877 654.188 499.267 655.708 494.739 657.917 488.172 659.196 481.434 658.727 474.447Z" stroke="#FFFFFF" stroke-width="5.99761"/><path d="M699.74 384.533C689.874 385.013 680.658 385.463 671.432 385.922 667.633 386.112 663.785 386.052 660.046 386.642 656.827 387.142 655.388 385.772 654.318 383.124 651.27 375.596 646.501 369.239 640.694 363.631 640.064 363.022 639.544 362.222 638.195 362.072 636.945 363.351 637.755 365.071 637.985 366.44 638.914 372.028 638.944 377.636 638.854 383.253 638.795 387.252 638.775 387.362 634.686 388.032 624.31 389.731 613.944 391.46 603.539 392.9 598.101 393.649 598.211 392.73 599.22 388.631 599.96 385.643 600.12 382.554 600.17 379.445 600.45 362.212 600.42 344.949 601.289 327.746 601.789 317.949 601.829 308.153 601.889 298.387 601.949 289.381 600.62 280.344 599.04 271.438 598.251 266.98 597.861 262.442 596.901 258.043 593.872 244.259 590.144 230.614 587.425 216.77 585.746 208.213 582.787 200.066 580.878 191.61 580.598 190.36 580.438 189.161 580.428 187.881 580.408 186.302 580.938 185.472 582.537 185.412 582.897 185.402 583.267 185.362 583.626 185.392 592.393 186.032 600.97 184.573 609.566 183.213 613.724 182.553 617.883 182.573 622.011 183.443 625.26 184.123 628.539 183.893 631.787 183.773 636.835 183.593 641.563 184.763 645.972 186.952 652.439 190.16 659.096 193.139 664.014 198.747 664.254 199.017 664.534 199.267 664.844 199.457 676.18 206.514 681.338 217.689 685.706 229.685 689.354 239.691 691.753 249.847 691.963 260.412 692.203 272.448 689.794 283.773 681.857 293.469 677.699 298.557 673.341 303.345 668.083 307.294 665.044 309.573 664.554 309.353 667.263 313.251 673.681 322.518 679.038 332.414 684.416 342.3 686.505 346.138 688.275 350.087 689.674 354.225 692.463 362.452 695.352 370.648 698.161 378.875 698.741 380.575 699.13 382.334 699.73 384.533ZM629.268 238.681C629.928 247.997 630.708 256.794 631.108 265.61 631.328 270.328 631.268 271.018 637.125 269.559 639.314 269.009 640.974 267.56 642.333 265.82 644.242 263.381 645.612 260.662 646.711 257.743 648.701 252.446 647.211 248.137 643.283 244.499 639.584 241.08 635.166 239.191 629.268 238.691Z" stroke="#FFFFFF" stroke-width="5.99761"/><path d="M790.854 308.013C787.915 306.334 784.836 304.755 781.958 302.875 777.679 300.087 772.771 299.717 767.973 298.847 765.984 298.487 765.574 299.827 765.064 301.276 762.585 308.283 760.296 315.361 759.087 322.698 756.238 340.011 754.349 357.434 753.539 374.967 753.479 376.236 753.309 377.496 753.089 378.745 752.859 380.025 752.079 380.685 750.77 380.135 738.395 374.927 725.91 376.956 713.405 379.515 713.095 379.575 712.735 379.415 712.405 379.355 711.046 366.2 713.125 353.375 715.984 340.63 720.122 322.108 721.132 303.375 720.282 284.463 720.122 281.004 718.853 279.865 715.854 278.865 711.686 277.476 707.327 277.296 703.119 276.226 700.33 275.516 699.81 274.147 699.96 271.658 700.79 257.983 698.301 244.919 693.853 231.924 690.494 222.108 686.346 212.861 681.587 203.675 679.218 199.097 676.879 194.379 674.59 189.701 673.041 186.522 673.451 185.642 676.939 185.242 677.649 185.162 678.389 185.192 679.108 185.222 698.061 186.032 716.284 190.1 734.307 196.028 753.329 202.296 770.672 211.632 786.366 223.647 795.912 230.954 805.838 238.061 814.015 247.168 817.983 251.586 822.891 255.154 827.209 259.283 830.628 262.562 830.528 263.241 827.289 266.86 821.002 273.887 814.425 280.564 807.267 286.752 801.11 292.09 796.832 299.177 792.723 306.224 792.353 306.854 792.103 307.544 790.874 308.043Z" stroke="#FFFFFF" stroke-width="5.99761"/><path d="M684.436 395.838C679.988 401.266 678.479 407.014 678.179 413.062 678.039 415.82 677.039 416.9 674.28 416.92 668.293 416.97 662.315 417.32 656.328 417.41 640.584 417.66 625.44 421.338 610.396 425.477 606.038 426.676 601.519 427.386 597.361 429.295 581.777 436.452 571.811 447.948 569.312 465.291 569.262 465.651 569.302 466.04 569.162 466.37 564.364 478.126 567.323 489.961 568.892 501.756 569.722 508.014 569.852 507.994 576.13 507.004 576.849 506.894 577.569 506.754 578.289 506.744 580.238 506.714 581.817 504.195 583.866 505.635 586.775 507.684 589.904 509.343 591.633 512.942 595.352 520.659 596.521 528.376 593.543 536.572 592.843 538.502 591.873 540.171 590.444 541.61 587.545 544.539 584.436 546.119 580.268 543.999 579.058 543.39 577.659 542.67 576.099 542.96 575.02 544.299 575.75 545.759 575.96 547.118 578.039 560.733 579.648 574.407 580.848 588.122 581.078 590.781 581.917 592.39 584.426 593.51 588.095 595.149 591.793 596.848 595.762 597.178 605.778 598.028 615.014 602.166 624.82 603.796 628.089 604.335 629.488 606.105 630.368 609.373 632.257 616.351 634.636 623.188 635.286 630.465 635.656 634.593 635.456 635.373 631.307 635.873 626.569 636.443 621.801 638.542 616.953 636.233 616.503 636.013 615.874 636.123 615.334 636.153 603.888 636.713 592.523 635.083 581.098 635.013 572.691 634.953 564.744 632.024 556.547 630.575 553.019 629.955 548.73 630.055 546.291 627.596 543.862 625.147 544.062 620.879 543.203 617.38 540.574 606.594 539.394 595.639 539.584 584.543 539.784 573.118 538.784 561.772 537.905 550.397 537.125 540.341 536.665 530.225 537.195 520.069 537.545 513.232 536.645 506.304 536.015 499.447 535.096 489.501 534.666 479.535 534.676 469.559 534.686 458.284 538.554 448.657 547.821 441.66 548.68 441.01 549.57 440.361 550.55 439.941 558.496 436.562 564.494 430.785 569.312 423.887 573.92 417.3 579.638 411.742 584.696 405.585 585.566 404.535 586.605 403.925 587.825 403.565 593.403 401.926 599.11 400.796 604.858 400.197 608.996 399.767 613.185 399.667 617.293 398.987 634.286 396.158 651.439 395.289 668.613 394.839 673.571 394.709 678.669 394.299 684.416 395.828Z" stroke="#FFFFFF" stroke-width="5.99761"/><path d="M709.127 463.142C724.72 467.25 739.354 468.32 752.959 458.663 754.538 460.023 754.179 461.952 754.249 463.631 755.188 487.022 757.717 510.313 758.887 533.684 759.526 546.418 762.115 558.774 764.155 571.259 765.094 576.986 765.734 582.754 766.584 588.492 766.884 590.551 766.164 591.82 764.375 592.93 753.119 599.927 741.484 606.165 729.229 611.243 727.029 612.152 725.81 612.082 724.82 609.383 722.331 602.586 719.852 595.799 718.153 588.752 716.813 583.184 713.345 578.646 710.656 573.728 705.238 563.822 698.291 555.025 691.154 546.368 688.155 542.73 684.496 539.711 680.918 536.632 677.379 533.584 677.559 532.964 681.058 530.215 695.942 518.52 706.388 503.945 710.116 485.043 710.736 481.924 710.186 478.905 709.876 475.847 709.456 471.728 708.537 467.64 709.136 463.142Z" stroke="#FFFFFF" stroke-width="5.99761"/><path d="M762.325 419.599C761.356 429.735 758.387 439.061 748.821 445.139 744.262 448.038 740.174 451.466 734.456 452.296 724.041 453.815 714.514 451.656 706.308 445.399 699.66 440.321 694.532 433.783 692.233 425.357 688.995 413.511 692.153 405.755 700.5 400.097 709.156 394.229 718.883 390.8 729.438 390.331 735.846 390.051 742.323 391.18 748.021 393.619 754.918 396.568 760.516 401.626 761.206 410.103 761.456 413.162 761.916 416.2 762.315 419.609Z" stroke="#FFFFFF" stroke-width="5.99761"/><path d="M570.672 408.154C568.063 414.301 564.154 419.029 559.846 423.288 556.937 426.176 553.638 428.775 549.84 430.675 545.602 432.804 541.523 431.214 538.564 427.136 537.225 425.297 538.774 419.579 541.233 417.29 544.302 414.441 547.761 411.722 551.669 410.603 557.507 408.933 563.435 406.744 570.672 408.154Z" stroke="#FFFFFF" stroke-width="5.99761"/></g></svg>