<?xml version="1.0" encoding="UTF-8"?><svg id="Layer_2" xmlns="http://www.w3.org/2000/svg" viewBox="0 0 889.86 477.19"><g id="Layer_1-2"><path d="m70.72,157.47c-1.31-15.07-.98-29.43-2.71-43.71-1.71-14.02-4.09-27.97-4.83-42.08-.37-7.06.02-14.16.03-21.24,0-7.97.14-15.95-1.02-23.88-.2-1.35-.39-2.86.37-4.22,1.65-.31,2.76.79,3.94,1.53,13.51,8.52,26.8,17.42,40.77,25.2,1.26.7,2.35,1.75,3.63,2.39,2.64,1.32,3.48,3.36,3.24,6.22-.23,2.71.15,5.39.78,8.09.61,2.61,1.04,5.38-.04,8.05-1.19,2.92.3,5.72.32,8.58.11,11.96-.05,23.9-.6,35.87-.74,16.14-.66,32.33-.75,48.49-.04,6.17.2,12.32-.51,18.48-1.22,10.66-1.25,21.34-.28,32.04.79,8.67,1.16,17.36,1.28,26.08.33,23.25.98,46.49,1.22,69.74.14,14.21,1.6,28.21,5.07,42,2,7.93,4.48,15.67,7.61,23.26,4.21,10.23,7.61,20.79,11.52,31.14,2.82,7.47,5.84,14.87,10.63,21.37.75,1.01,1.62,2.03,2.01,3.19.54,1.65.37,3.27-1.74,3.91-1.04.32-2.03.78-3.07,1.11-15.02,4.86-29.98,9.91-45.08,14.49-7.42,2.25-5.99,3.29-10.62-3.93-1.72-2.68-2.59-5.89-5.42-7.97-1.04-.77-1.11-2.98-1.44-4.57-1.46-7.11-2.56-14.31-4.33-21.34-2.53-10.03-5.43-19.97-8.35-29.89-6.93-23.54-10.97-47.71-16.11-71.65-1.68-7.8-3.86-15.49-5.85-23.22-.16-.63-.33-1.39-1.29-1.73.62,9.3,1.1,18.53,1.89,27.73,1.21,13.93,1.5,27.92,3.36,41.8,1.57,11.69,3.13,23.38,4.63,35.09.64,5.04,1.67,10.12,1.55,15.15-.21,8.94,2.21,17.21,5.14,25.43,2.53,7.09,6.87,12.99,12.32,18.11.66.62,1.47,1.09,2.09,1.75,2.61,2.8,2.01,5.3-1.61,6.63-7.14,2.62-14.27,5.5-21.77,6.67-7.33,1.14-14.55,2.77-21.84,4.05-4.29.76-7.66-.61-9.73-5.71-2.04-5.02-3.73-10.25-4.95-15.53-3.05-13.26-5.9-26.54-7.17-40.16-1.41-15.17-3.62-30.27-5.41-45.41-2.1-17.7-2.25-35.52-3.24-53.29-.79-14.15-1.41-28.31-1.86-42.48C1.55,239.35.48,209.58.04,179.8c-.28-18.51,1.04-37.02,2.21-55.51.22-3.44.43-6.89.41-10.33-.05-10.61,2.42-20.88,4.23-31.22.69-3.96.82-7.94,1.2-11.87,1.36-14.11,5.84-27.59,7.79-41.54.87-6.22,2.64-11.96,5.34-17.53,1.67-3.45,2.87-4.13,6.31-2.72,3.01,1.24,5.85,2.89,8.85,4.17,2.22.95,1.93,3.01,2.16,4.63.74,5.38,1.66,10.8,1.58,16.2-.12,8.64,1.5,17.03,3.62,25.19,8.01,30.87,14.97,62.03,24.19,92.58.51,1.69.54,3.61,2.79,5.62Z"/><path d="m886.24,476.11c-4.49,0-9.01.37-13.45-.11-3.83-.42-7.57-.76-11.28.28-7.25,2.03-14.42.1-21.63-.13-8.29-.27-15.97-3.01-23.81-5.26-33.15-9.51-65.76-20.66-98.32-31.98-5.01-1.74-8.42-4.41-10.21-9.4-3.13-8.75-8.23-16.55-12.24-24.88-.22-.46-.53-.88-1.8-1.01,0,4.78,0,9.56,0,14.35,0,2.9-.09,5.79-.81,8.64-.88,3.5-2.86,5.41-6.54,6.19-9.43,1.98-19,2.97-28.54,3.95-5.86.61-11.93-.39-17.86-1.09-9.55-1.12-18.98-3.03-28.33-5.23-5.85-1.37-11.26-3.58-15.6-8.24-2.47-2.64-3.39-5.47-3.68-8.73-1.25-14.07-2.56-28.12-2.81-42.28-.13-7.34-.72-14.79-1.76-22.17-1.2-8.59-1.52-17.31-2.37-25.95-.71-7.19-.83-14.43-2.63-21.52-.79-3.11.11-6.67-.79-9.71-1.56-5.27.25-9.19,2.58-13.82,2.45-4.86,2.6-10.82,4.16-16.18,3.12-10.71,1.56-21.09-1.52-31.46-.92-3.11-1.16-6.45-3.78-8.86-1.38-1.27-1.06-2.83-.49-4.51,5.69-16.73,13.27-32.54,22.43-47.66,11.15-18.4,24.99-34.73,38.69-51.18,4.05-4.87,8.59-9.34,13.04-13.87,4.93-5.01,9.98-3.88,12.58,2.65,1.5,3.76,1.7,7.78,2,11.71.62,8.34,2.28,16.46,4.04,24.6,1.61,7.43,2.21,15.02,2.72,22.61.68,10.1,1.28,20.23,3.62,30.14.6,2.53.15,5.07.38,7.59,1.28,14.08,1.77,28.2,2.56,42.3.63,11.21,1.26,22.42,2.25,33.59.48,5.4,1.74,10.72,2.2,16.15,1.05,12.45,3.7,24.78,3.15,37.36-.19,4.35,2.15,7.98,3,12.05,1.32,6.35,2.39,12.75,4.18,19.04,2.87,10.07,8.87,17.27,17.69,22.41,8.77,5.1,17.68,9.96,26.52,14.92,10.88,6.1,22.08,11.83,31.98,19.59,14.4,11.29,30.55,19.61,47.13,27,20.19,9,40.38,18.03,60.96,26.14.83.33,1.63.73,2.45,1.09l-.09.89Zm-232.67-188.71c-.09-6.67-1.44-11.01-2.07-15.45-1.38-9.66-2.78-19.33-3.69-29.04-.64-6.84-1.3-13.66-2.46-20.44-.43-2.51-1.75-3.32-3.96-3.56-2.72-.3-4.87.49-6.81,2.53-4.13,4.34-8.14,8.88-12.77,12.62-5.32,4.29-7.05,9.56-5.97,15.88,1.57,9.15,1.02,18.43,1.99,27.62.61,5.75.16,11.61.6,17.39.62,8.29,1.89,16.54,1.64,24.89-.31,10.53,1.27,20.99,1.11,31.51-.03,1.72.73,3.1,1.46,4.59,2.37,4.85,6.97,7.32,11.01,10.28,7.02,5.15,14.16,10.15,22.74,12.58,2.5.71,3.86.37,5.11-2.21,3.38-6.96,2.68-13.91,1.45-21.21-1.29-7.66-3.76-9.64-11.44-10.2-1.08-.08-2.19-.13-3.26,0-1.49.17-2.42-.46-3.08-1.69-3.2-5.97-5.57-12.16-5.65-19.08-.03-2.46.98-3.33,3.26-2.92,4.08.72,8.26.87,12.21,2.38,2.35.9,3.38.1,3.2-2.21-.05-.7-.41-1.37-.61-2.06-3.23-11.21-2.57-22.89-4.01-32.18Z"/><path d="m357.32,241.76c.2-9.81-.81-18.81-1.15-27.86-.47-12.52-1.77-24.93-5.17-37.05-1.22-4.36-1.53-4.62-5.86-4.82-3.46-.16-6.87.36-10.31.56-7.13.43-14.1,1.36-21.45.47-7.12-.86-14.78,1.91-17.49,10.02-4.02,12-8.36,23.92-10.34,36.55-1.6,10.18-2.48,20.42-3.42,30.84-3.23-.82-5.57-2.48-6.71-5.31-1.14-2.83-3.35-4.67-5.3-6.8-7.51-8.18-16.5-14.76-24.34-22.57-2.21-2.2-4.24-4.43-5.26-7.48-.45-1.34-1.31-2.6-2.18-3.74-9-11.83-14.75-25.31-20-39.07-3.68-9.66-7.54-19.24-11.37-28.85-2.22-5.58-3.9-11.31-5.12-17.18-.47-2.25-.3-4.17,1.57-5.9,3.72-3.45,6.58-7.7,10.63-10.88,3.72-2.92,6.33-6.98,9.41-10.53,12.11-13.98,26.52-25.06,42.32-34.41,15.13-8.96,30.09-18.28,46.28-25.32,16.57-7.2,33.7-12.3,51.85-13.47,2.3-.15,4.29.37,6.57,1.37,14.86,6.54,21.81,19.16,26.34,33.57,3.21,10.23,4.64,20.9,6.11,31.49,1.98,14.35,4.52,28.62,5.64,43.09.92,11.94,1.39,23.89,1.77,35.85.6,18.88.31,37.76.59,56.64.1,6.72-.28,7.72-6.77,8.63-9.34,1.3-18.53,3.18-27.62,5.65-6.27,1.7-12.28,4.16-19.2,6.49Zm-10.57-138.88c.16-3.88-.56-8.16-1.33-12.44-.29-1.62-.66-3.48-2.2-4.17-3.11-1.4-6.32-3.03-9.63-3.46-6.24-.81-12.57-.34-18.84.44-2.13.27-3.8,1.2-4.67,3.21-2.73,6.31-5.46,12.64-6.78,19.41-.76,3.92,1.58,6.09,5.63,5.71.36-.03.72-.07,1.08-.12,9.3-1.26,18.6-2.72,27.87.32,1.16.38,2.51.31,3.77.27,4.71-.15,5.05-.54,5.11-5.42.01-1.09,0-2.17,0-3.75Z"/><path d="m823.34,373.36c7.43-1.68,14.41-2.99,21.22-4.88,7.05-1.96,14.34-2.14,21.48-3.44,4.34-.79,6.22,1.14,7.09,5.43,1.93,9.57,2.85,19.28,5.21,28.82,3.55,14.38,5.99,29.05,8.56,43.66.91,5.15.92,10.45,2.79,15.44.3.8.16,1.81.08,2.71-.25,2.88-1.12,3.66-3.79,2.84-5.19-1.6-10.49-2.78-15.52-4.96-11.64-5.04-23.78-8.8-35.19-14.51-17.49-8.75-35.07-17.33-52.4-26.41-8.47-4.44-12.07-12.14-10.16-21.6.61-3,.93-6.08,1.32-9.13,1.26-10.05,3.95-19.88,4.79-30,1.69-20.43,4.76-40.77,4.51-61.34-.25-20.72-2.09-41.35-3.26-62.02-.56-9.97-1.44-19.92-2.29-29.88-.73-8.46.08-17.04-.23-25.56-.4-10.9-.11-21.8-.47-32.68-.28-8.67-1.83-17.34-1.7-25.99.16-10.39-1.8-20.53-2.42-30.81-.5-8.28-1.54-16.57-2.12-24.88-.37-5.36.02-10.78-.41-16.14-.29-3.57-1.43-7.08-2.16-10.62-1-4.9-.25-5.97,4-8.08,9.72-4.82,20.02-8.35,29.52-13.65,6.39-3.56,13.41-5.52,20.48-7.16,8.68-2.01,17.19-4.5,25.47-7.78,3.87-1.53,5.53-.86,5.98,3.23.91,8.24,4.47,16.14,3.09,24.66-.18,1.08,0,2.14.53,3.17,2.11,4.1,1.46,8.34,1.1,12.74-.53,6.5-.22,13.06-.24,19.6-.03,8.67-.49,9.05-9.06,6.72-3.52-.95-7.02-1.68-10.73-1.37-6.91.57-13.68-1.55-20.62-1.11-2.38.15-4.72.35-6.96,1.08-2.87.94-5.32,4.33-5.04,7.4.98,10.63.94,21.33,2.61,31.92,1.15,7.32,1.84,14.74,1.81,22.19-.03,7.81.87,15.54,1.72,23.3.89,8.11,1.7,16.22,2.84,24.3.5,3.57.59,3.59,4.12,2.84,6.76-1.44,13.69-1.3,20.52-2.17,1.41-.18,2.94-.07,4.32.27,2.61.65,4.14,1.91,4.41,5.18.95,11.25.26,22.5.03,33.72-.11,5.44-2.42,10.13-8.64,12.46-6.42,2.41-12.92,4.51-19.47,6.44-2.18.64-2.24,1.53-2.41,3.3-.64,6.91.28,13.79.22,20.69-.08,9.2-.39,18.39.13,27.59.54,9.61.56,19.24.98,28.85.58,13.24,1.32,26.47,2.01,39.71.27,5.25,1.19,10.41,2.35,15.89Z"/><path d="m131.17,66.56c10.42,7.08,21.01,12.35,30.4,19.46,2.83,2.14,4.82,5.39,7.22,8.11.81.91.99,1.91.6,3.02-3.1,8.87-2.12,18.19-2.76,27.3-.43,6.17-.93,12.29-2.23,18.31-1.13,5.23-.87,10.48-.83,15.72.09,12-1.6,23.89-2.17,35.85-.94,19.63.39,39.22,1.21,58.81.56,13.43.88,26.89,1.93,40.29,1.52,19.34,1.4,38.83,5.05,57.99.72,3.76,1.46,7.49,2.66,11.11,2.74,8.27,5.56,16.52,8.35,24.78.4,1.17.57,2.48,1.9,3.33,2.24-3.22,2.49-6.84,2.65-10.43.72-16.11.91-32.24.58-48.35-.3-14.68-1.37-29.34-2.37-44-1.22-17.92-2.11-35.86-3.02-53.79-1.21-23.92-1.69-47.87-2.26-71.81-.25-10.27,1.14-20.19,2.04-30.24.4-4.52.48-9.04.85-13.55.11-1.29.08-2.71,1.45-3.27,1.57-.64,2.62.31,3.71,1.47,5.26,5.6,9.69,11.65,12.17,19.08,5.62,16.87,12.5,33.26,19.1,49.75,1.14,2.85,2.6,5.61,4.24,8.22,3.53,5.61,3.83,11.46,2.02,17.66-.39,1.35-.34,2.89-.2,4.32.87,9.06.33,18.1.08,27.17-.48,16.89-.35,33.79-.44,50.69-.07,13.42.56,26.83.92,40.25.2,7.58.19,15.19.41,22.79.11,3.81.15,7.6.48,11.41.43,5.02.28,10.04,0,15.11-.41,7.32-.55,14.76-.28,22.15.04,1.07.38,2.14.65,3.19.65,2.51-.29,3.86-2.61,5.13-8.36,4.57-17.59,6.81-26.37,10.24-6.77,2.64-13.86,4.24-20.73,6.55-4.59,1.55-8.64,0-11.88-4.27-3.08-4.05-5.53-8.51-8.2-12.83-5.1-8.24-8.35-17.3-11.98-26.17-3.02-7.37-5.87-14.84-8.12-22.53-1.45-4.94-1.69-9.98-2.32-14.95-.78-6.12-1.73-12.22-2.67-18.31-2.58-16.71-3.81-33.5-3.85-50.4-.05-19.44-.04-38.88-.45-58.32-.14-6.89-.26-13.75,0-20.64.39-9.97-1.25-19.9-1.08-29.91.18-10.49-.66-20.96-.28-31.5.39-10.88,1.22-21.72,1.8-32.58.55-10.28,1.93-20.52,3.43-30.72.47-3.21.72-6.46,1.18-10.69Z"/><path d="m760.29,403c-7.64-4.78-15.38-9.44-22.92-14.41-3.34-2.21-6.57-4.59-10.38-5.88-6.07-2.05-9.79-6.51-13.09-11.68-5.53-8.68-5.91-18.43-6.64-28.25-1.16-15.51-1.02-31.2-6.09-46.22-1.33-3.95-1.34-8.21-1.67-12.37-.88-10.81-2.84-21.49-3.96-32.28-.93-8.97-2.76-17.87-3.52-26.9-.91-10.84-2.04-21.65-3.09-32.48-1.04-10.62-2.49-21.22-3.04-31.87-.51-9.8-1.67-19.55-3.54-29.07-2.17-11.06-1.89-22.31-3.96-33.34-.72-3.84-.18-7.91-.26-11.88-.03-1.46.72-2.37,1.81-3.13,8.19-5.68,15.48-12.62,24.49-17.16,3.69-1.86,4.63-1.49,5.37,2.69,3.02,16.91,6.14,33.81,8.99,50.75,1.26,7.48,2.05,15.05,2.86,22.59.78,7.25,3.83,13.99,4.63,21.22,1.04,9.35,2.31,18.68,3.04,28.05.91,11.74,2.78,23.38,3.66,35.12.6,8.09,1.77,16.09,1.61,24.33-.17,8.62,1.18,17.36,1.72,26.06.33,5.43.56,10.81.16,16.29-.45,6.12,1.8,12.12,2.69,18.2.11.77.58,1.35,1.34,1.56,1.03.28,1.84-.24,2.2-1.11.49-1.16.85-2.39,1.07-3.63,1.59-8.79,2.18-17.63,1.44-26.56-1.84-22.07-3.74-44.13-5.39-66.21-.82-11.04-1.12-22.13-1.69-33.19-.22-4.34-1.22-8.68-1.44-12.9-.74-13.94-5.2-27.35-5.15-41.41.02-6.25-2.49-12.4-2.27-18.83.18-5.27-1.15-10.43-1.56-15.62-.77-9.72-3.36-19.17-3.71-28.92-.01-.36,0-.76-.15-1.07-2.77-5.85,1-8.66,5.2-11.28,5.39-3.37,10.75-6.77,16.17-10.09,1.7-1.04,3.48-1.99,5.34-2.7,3.93-1.5,4.93-.9,6.19,3.26,1.48,4.89,2.57,9.83,2.22,14.99-.16,2.36.08,4.69.71,6.99,1.07,3.88,1.3,7.84,1.13,11.86-.29,6.74,1.05,13.35,1.74,20.01.22,2.16.93,4.36.69,6.47-1.13,9.88,1.04,19.51,2.2,29.19,1.15,9.6.65,19.22,1.06,28.82.23,5.26,1.35,10.37,1.53,15.67.28,8.53-.28,17.07.5,25.58,2.34,25.51,3.32,51.11,5.13,76.65,1.39,19.64.42,39.19-2.1,58.71-.93,7.19-1.25,14.46-1.85,21.69-.04.54.05,1.13-.13,1.62-3.2,8.53-2.02,17.55-3.02,26.33-.59,5.16-2.49,10.35-6.22,15.76Z"/><path d="m293.93,287.07c1.37-6.96,3.92-13.06,7.74-18.67,4.9-7.21,11.1-11.6,20.3-11.36,7.05.19,14.15.7,21.18-.81,2.57-.55,4.23,1.06,3.25,3.37-3.33,7.82-1.65,16.14-2.74,24.17-.69,5.12.34,10.46.55,15.71.16,3.99.47,7.99.31,11.97-.51,13.44,1.44,26.8,1.24,40.24-.11,7.09-.86,14.1-1.2,21.15-.69,14.73,1.22,29.32,2.15,43.96.29,4.5-.11,9.04-.15,13.56-.06,6.35.08,12.69,1.67,18.91.5,1.95.58,3.92-.02,5.8-.91.69-1.82.46-2.65.18-12.38-4.09-24.68-8.46-37.31-11.75-2.23-.58-1.98-2.29-2.1-3.87-.73-9.42-1.51-18.83-2.12-28.25-.45-7.03-2.74-13.85-2.02-21.04,1.69-17.01.08-34.1,1.13-51.13.16-2.52.61-5.03.92-7.54.26-2.12.34-4.21-.51-6.85-2.76,2.26-3.52,5.09-4.77,7.56-2.49,4.95-3.36,5.27-8.4,3.2-4.41-1.81-8.52-4-11.44-7.95-.42-.56-1-1.09-1.63-1.39-1.29-.61-2.52-.66-2.8,1.2-.08.53-.06,1.09-.06,1.63-.15,15.81.74,31.59,2.49,47.28,1.16,10.41,2.92,20.8,3.5,31.24.56,10.09,2.6,20.14,1.32,30.56-3.07.83-5.24-1.76-7.9-2.44-7.86-2.01-15.84-3.84-23.02-7.98-2.59-1.49-4.74-3.23-6.51-5.61-1.69-2.27-2.79-4.95-5.51-6.56-1.71-1.01-1.62-3.51-2.17-5.42-1.56-5.44-1.92-11.11-2.07-16.65-.25-9.25-1.19-18.45-1.29-27.7-.03-3.12.63-6.12.8-9.19.22-4.19-.39-8.31-.73-12.46-.84-10.33.16-20.66-.01-30.98-.18-10.89-.68-21.8-.26-32.67.47-12.16-.87-24.32.28-36.45.63-6.66.52-13.4,2.13-19.97.88-3.61,2.12-4.14,5.08-1.88,1.87,1.43,3.5,3.03,4.82,5.08,5.12,7.94,10.87,15.37,17.51,22.17,6.58,6.73,12.85,13.8,18.2,21.6,1.04,1.51,1.93,3.05,2.6,4.75,1.95,4.89,5.44,8.37,10.24,11.26Z"/><path d="m486.65,463.64c-3.08.96-5.96,1.56-8.56,2.75-3.52,1.61-7.13.93-10.71,1.11-1.69.08-2.07-1.16-2.57-2.32-1.65-3.85-2.89-7.87-3.45-11.98-.73-5.37-2.58-10.51-2.65-16.05-.06-4.42-1.45-5.37-6-5.62-9.1-.5-17.91-2.41-26.64-4.91-2.97-.85-4.21-2.12-4.74-5.45-2.16-13.41-1.51-26.64.04-40.07.94-8.16-.03-16.61-1.25-24.84-.37-2.51-.49-5.04-.89-7.54-.68-4.19-2.98-7.69-4.52-11.51-3.23-8.05-5.91-16.28-7.06-24.99-.97-7.34-1.9-14.62-1.28-22.04.87-10.47,6.25-19.96,17.41-23.09,2.27-.64,4.5-1.43,6.77-2.04,7.35-1.97,14.85-3.35,22.21-5.31,5.76-1.54,11.79-1.89,17.82-1.86,6.71.04,13.44.51,20.11-.71,5.88-1.07,10.12,1.35,13.46,6.04,5.41,7.59,9.88,15.49,11.26,24.97,1.55,10.62,1.76,21.31,2.54,31.97.54,7.42-2.51,13.75-5.52,20.18-4.7,10.04-11.81,18.11-20.13,25.25-2.28,1.95-2.29,2.99.02,4.62,12.28,8.74,20.7,20.6,27.5,33.79,1.58,3.06,3.17,6.12,4.9,9.1,2.47,4.26,4.2,8.71,5.29,13.58,1.42,6.34,3.71,12.49,5.58,18.73,1.49,4.99,1.45,4.97-3.51,7-8.24,3.37-16.64,6.24-25.45,7.71-4.29.72-4.32.69-5.94-3.35-.54-1.34-1.02-2.72-1.3-4.13-3.8-18.8-12.58-35.32-23.26-50.97-.15-.21-.62-.2-1.38-.41.7,7.19-.51,14.36,2.56,21.22,2.32,5.19,2.22,10.99,2.89,16.51.67,5.47,3.1,10.26,4.28,15.49.68,2.99,1.75,5.91,2.19,9.18Zm-7.98-155.08c-.36-4.33-.69-8.67-1.07-13-.38-4.29-1.34-5.48-5.6-5.66-4.68-.19-9.37-.46-14.03.83-4.81,1.33-4.83,1.13-4.91,5.83-.17,9.8.94,19.53,1.61,29.29.29,4.22,2.85,6.78,6.9,8.03,2.39.74,4.68.05,7.01.08,4.69.05,5.55-.56,7.07-5.09,2.21-6.57,3.49-13.31,3.02-20.3Z"/><path d="m519.7,218.62c-9.87.48-19.09.93-28.32,1.39-3.8.19-7.65.13-11.39.72-3.22.5-4.66-.87-5.73-3.52-3.05-7.53-7.82-13.89-13.63-19.5-.63-.61-1.15-1.41-2.5-1.56-1.25,1.28-.44,3-.21,4.37.93,5.59.96,11.2.87,16.82-.06,4-.08,4.11-4.17,4.78-10.38,1.7-20.75,3.43-31.16,4.87-5.44.75-5.33-.17-4.32-4.27.74-2.99.9-6.08.95-9.19.28-17.24.25-34.51,1.12-51.72.5-9.8.54-19.6.6-29.37.06-9.01-1.27-18.05-2.85-26.96-.79-4.46-1.18-9-2.14-13.4-3.03-13.79-6.76-27.44-9.48-41.29-1.68-8.56-4.64-16.71-6.55-25.17-.28-1.25-.44-2.45-.45-3.73-.02-1.58.51-2.41,2.11-2.47.36-.01.73-.05,1.09-.02,8.77.64,17.35-.82,25.95-2.18,4.16-.66,8.32-.64,12.45.23,3.25.68,6.53.45,9.78.33,5.05-.18,9.78.99,14.19,3.18,6.47,3.21,13.13,6.19,18.05,11.8.24.27.52.52.83.71,11.34,7.06,16.5,18.24,20.87,30.24,3.65,10.01,6.05,20.17,6.26,30.74.24,12.04-2.17,23.37-10.11,33.07-4.16,5.09-8.52,9.88-13.78,13.83-3.04,2.28-3.53,2.06-.82,5.96,6.42,9.27,11.78,19.17,17.16,29.06,2.09,3.84,3.86,7.79,5.26,11.93,2.79,8.23,5.68,16.43,8.49,24.66.58,1.7.97,3.46,1.57,5.66Zm-70.5-145.91c.66,9.32,1.44,18.12,1.84,26.94.22,4.72.16,5.41,6.02,3.95,2.19-.55,3.85-2,5.21-3.74,1.91-2.44,3.28-5.16,4.38-8.08,1.99-5.3.5-9.61-3.43-13.25-3.7-3.42-8.12-5.31-14.02-5.81Z"/><path d="m610.85,142.07c-2.94-1.68-6.02-3.26-8.9-5.14-4.28-2.79-9.19-3.16-13.99-4.03-1.99-.36-2.4.98-2.91,2.43-2.48,7.01-4.77,14.09-5.98,21.43-2.85,17.32-4.74,34.75-5.55,52.29-.06,1.27-.23,2.53-.45,3.78-.23,1.28-1.01,1.94-2.32,1.39-12.38-5.21-24.87-3.18-37.38-.62-.31.06-.67-.1-1-.16-1.36-13.16.72-25.99,3.58-38.74,4.14-18.53,5.15-37.27,4.3-56.19-.16-3.46-1.43-4.6-4.43-5.6-4.17-1.39-8.53-1.57-12.74-2.64-2.79-.71-3.31-2.08-3.16-4.57.83-13.68-1.66-26.75-6.11-39.75-3.36-9.82-7.51-19.07-12.27-28.26-2.37-4.58-4.71-9.3-7-13.98-1.55-3.18-1.14-4.06,2.35-4.46.71-.08,1.45-.05,2.17-.02,18.96.81,37.19,4.88,55.22,10.81,19.03,6.27,36.38,15.61,52.08,27.63,9.55,7.31,19.48,14.42,27.66,23.53,3.97,4.42,8.88,7.99,13.2,12.12,3.42,3.28,3.32,3.96.08,7.58-6.29,7.03-12.87,13.71-20.03,19.9-6.16,5.34-10.44,12.43-14.55,19.48-.37.63-.62,1.32-1.85,1.82Z"/><path d="m504.39,229.93c-4.45,5.43-5.96,11.18-6.26,17.23-.14,2.76-1.14,3.84-3.9,3.86-5.99.05-11.97.4-17.96.49-15.75.25-30.9,3.93-45.95,8.07-4.36,1.2-8.88,1.91-13.04,3.82-15.59,7.16-25.56,18.66-28.06,36.01-.05.36-.01.75-.15,1.08-4.8,11.76-1.84,23.6-.27,35.4.83,6.26.96,6.24,7.24,5.25.72-.11,1.44-.25,2.16-.26,1.95-.03,3.53-2.55,5.58-1.11,2.91,2.05,6.04,3.71,7.77,7.31,3.72,7.72,4.89,15.44,1.91,23.64-.7,1.93-1.67,3.6-3.1,5.04-2.9,2.93-6.01,4.51-10.18,2.39-1.21-.61-2.61-1.33-4.17-1.04-1.08,1.34-.35,2.8-.14,4.16,2.08,13.62,3.69,27.3,4.89,41.02.23,2.66,1.07,4.27,3.58,5.39,3.67,1.64,7.37,3.34,11.34,3.67,10.02.85,19.26,4.99,29.07,6.62,3.27.54,4.67,2.31,5.55,5.58,1.89,6.98,4.27,13.82,4.92,21.1.37,4.13.17,4.91-3.98,5.41-4.74.57-9.51,2.67-14.36.36-.45-.22-1.08-.11-1.62-.08-11.45.56-22.82-1.07-34.25-1.14-8.41-.06-16.36-2.99-24.56-4.44-3.53-.62-7.82-.52-10.26-2.98-2.43-2.45-2.23-6.72-3.09-10.22-2.63-10.79-3.81-21.75-3.62-32.85.2-11.43-.8-22.78-1.68-34.16-.78-10.06-1.24-20.18-.71-30.34.35-6.84-.55-13.77-1.18-20.63-.92-9.95-1.35-19.92-1.34-29.9.01-11.28,3.88-20.91,13.15-27.91.86-.65,1.75-1.3,2.73-1.72,7.95-3.38,13.95-9.16,18.77-16.06,4.61-6.59,10.33-12.15,15.39-18.31.87-1.05,1.91-1.66,3.13-2.02,5.58-1.64,11.29-2.77,17.04-3.37,4.14-.43,8.33-.53,12.44-1.21,17-2.83,34.16-3.7,51.34-4.15,4.96-.13,10.06-.54,15.81.99Z"/><path d="m529.09,297.26c15.6,4.11,30.24,5.18,43.85-4.48,1.58,1.36,1.22,3.29,1.29,4.97.94,23.4,3.47,46.7,4.64,70.08.64,12.74,3.23,25.1,5.27,37.59.94,5.73,1.58,11.5,2.43,17.24.3,2.06-.42,3.33-2.21,4.44-11.26,7-22.9,13.24-35.16,18.32-2.2.91-3.42.84-4.41-1.86-2.49-6.8-4.97-13.59-6.67-20.64-1.34-5.57-4.81-10.11-7.5-15.03-5.42-9.91-12.37-18.71-19.51-27.37-3-3.64-6.66-6.66-10.24-9.74-3.54-3.05-3.36-3.67.14-6.42,14.89-11.7,25.34-26.28,29.07-45.19.62-3.12.07-6.14-.24-9.2-.42-4.12-1.34-8.21-.74-12.71Z"/><path d="m582.31,253.7c-.97,10.14-3.94,19.47-13.51,25.55-4.56,2.9-8.65,6.33-14.37,7.16-10.42,1.52-19.95-.64-28.16-6.9-6.65-5.08-11.78-11.62-14.08-20.05-3.24-11.85-.08-19.61,8.27-25.27,8.66-5.87,18.39-9.3,28.95-9.77,6.41-.28,12.89.85,18.59,3.29,6.9,2.95,12.5,8.01,13.19,16.49.25,3.06.71,6.1,1.11,9.51Z"/><path d="m390.58,242.25c-2.61,6.15-6.52,10.88-10.83,15.14-2.91,2.89-6.21,5.49-10.01,7.39-4.24,2.13-8.32.54-11.28-3.54-1.34-1.84.21-7.56,2.67-9.85,3.07-2.85,6.53-5.57,10.44-6.69,5.84-1.67,11.77-3.86,19.01-2.45Z"/></g></svg>