<svg width="890" height="477" xmlns="http://www.w3.org/2000/svg" xmlns:xlink="http://www.w3.org/1999/xlink" xml:space="preserve" overflow="hidden"><defs><clipPath id="clip0"><rect x="48" y="10" width="890" height="477"/></clipPath></defs><g clip-path="url(#clip0)" transform="translate(-48 -10)"><path d="M118.939 167.407C117.63 152.343 117.959 137.989 116.23 123.715 114.521 109.7 112.142 95.7558 111.402 81.6515 111.032 74.5943 111.422 67.4971 111.432 60.4199 111.432 52.4531 111.572 44.4763 110.412 36.5494 110.212 35.2 110.023 33.6906 110.782 32.3311 112.432 32.0212 113.541 33.1208 114.721 33.8605 128.225 42.3771 141.51 51.2736 155.474 59.0505 156.734 59.7502 157.824 60.7998 159.103 61.4395 161.742 62.759 162.582 64.7982 162.342 67.657 162.112 70.366 162.492 73.0449 163.121 75.7438 163.731 78.3528 164.161 81.1217 163.081 83.7906 161.892 86.7094 163.381 89.5083 163.401 92.3672 163.511 104.322 163.351 116.258 162.802 128.223 162.062 144.356 162.142 160.54 162.052 176.694 162.012 182.861 162.252 189.009 161.542 195.166 160.323 205.822 160.293 216.498 161.262 227.193 162.052 235.86 162.422 244.547 162.542 253.263 162.871 276.504 163.521 299.735 163.761 322.975 163.901 337.18 165.361 351.174 168.829 364.959 170.828 372.885 173.307 380.622 176.436 388.209 180.644 398.435 184.043 408.991 187.952 419.337 190.77 426.804 193.789 434.201 198.577 440.698 199.327 441.708 200.197 442.728 200.586 443.887 201.126 445.536 200.956 447.156 198.847 447.796 197.808 448.116 196.818 448.575 195.778 448.905 180.764 453.763 165.81 458.811 150.716 463.389 143.299 465.639 144.729 466.678 140.101 459.461 138.381 456.782 137.512 453.573 134.683 451.494 133.643 450.724 133.573 448.515 133.243 446.926 131.784 439.819 130.684 432.622 128.915 425.594 126.386 415.568 123.487 405.632 120.568 395.716 113.641 372.186 109.603 348.025 104.465 324.095 102.785 316.298 100.606 308.611 98.6171 300.884 98.4572 300.254 98.2872 299.495 97.3276 299.155 97.9474 308.451 98.4272 317.677 99.2169 326.874 100.426 340.798 100.716 354.783 102.576 368.657 104.145 380.342 105.704 392.028 107.204 403.733 107.843 408.771 108.873 413.849 108.753 418.877 108.543 427.814 110.962 436.08 113.891 444.297 116.42 451.384 120.758 457.282 126.206 462.4 126.866 463.02 127.676 463.489 128.295 464.149 130.904 466.948 130.304 469.447 126.686 470.776 119.549 473.395 112.422 476.274 104.925 477.444 97.5975 478.583 90.3804 480.213 83.0933 481.492 78.805 482.252 75.4363 480.882 73.3671 475.784 71.328 470.766 69.6386 465.539 68.4191 460.261 65.3703 447.006 62.5215 433.731 61.252 420.117 59.8425 404.953 57.6334 389.859 55.8441 374.725 53.745 357.032 53.595 339.219 52.6054 321.456 51.8157 307.312 51.196 293.157 50.7462 278.993 49.7965 249.255 48.727 219.497 48.2871 189.728 48.0072 171.226 49.3267 152.723 50.4963 134.241 50.7162 130.802 50.9261 127.353 50.9061 123.915 50.8561 113.309 53.3251 103.043 55.1344 92.7071 55.8241 88.7486 55.9541 84.7702 56.3339 80.8418 57.6934 66.7374 62.1716 53.2628 64.1208 39.3183 64.9905 33.1008 66.7598 27.3631 69.4587 21.7953 71.128 18.3467 72.3276 17.6669 75.7662 19.0764 78.775 20.3159 81.6139 21.9652 84.6127 23.2447 86.8318 24.1943 86.5419 26.2535 86.7718 27.8729 87.5115 33.2507 88.4312 38.6686 88.3512 44.0664 88.2312 52.703 89.8506 61.0896 91.9697 69.2464 99.9765 100.104 106.934 131.252 116.15 161.79 116.66 163.479 116.69 165.398 118.939 167.407Z" stroke="#FFFFFF" stroke-width="11.9952"/><path d="M934.134 485.92C929.646 485.92 925.128 486.29 920.69 485.81 916.861 485.391 913.123 485.051 909.414 486.09 902.167 488.12 895 486.19 887.793 485.96 879.506 485.691 871.829 482.952 863.992 480.703 830.855 471.196 798.258 460.051 765.711 448.735 760.703 446.996 757.295 444.327 755.505 439.339 752.377 430.592 747.279 422.796 743.27 414.469 743.05 414.009 742.741 413.589 741.471 413.459 741.471 418.237 741.471 423.015 741.471 427.804 741.471 430.702 741.381 433.591 740.661 436.44 739.782 439.939 737.802 441.848 734.124 442.628 724.698 444.607 715.132 445.596 705.595 446.576 699.738 447.186 693.67 446.186 687.742 445.487 678.196 444.367 668.77 442.458 659.424 440.259 653.576 438.889 648.168 436.68 643.83 432.022 641.361 429.383 640.441 426.554 640.151 423.295 638.902 409.231 637.592 395.187 637.343 381.032 637.213 373.695 636.623 366.248 635.583 358.871 634.384 350.284 634.064 341.568 633.214 332.931 632.504 325.744 632.384 318.507 630.585 311.42 629.796 308.311 630.695 304.753 629.796 301.714 628.236 296.446 630.045 292.527 632.374 287.899 634.823 283.041 634.973 277.084 636.533 271.726 639.652 261.02 638.092 250.644 635.013 240.278 634.094 237.17 633.854 233.831 631.235 231.422 629.855 230.152 630.175 228.593 630.745 226.914 636.433 210.19 644.01 194.387 653.166 179.273 664.312 160.88 678.146 144.556 691.841 128.113 695.889 123.245 700.427 118.777 704.876 114.248 709.804 109.24 714.852 110.37 717.451 116.897 718.95 120.656 719.15 124.674 719.45 128.603 720.07 136.939 721.729 145.056 723.488 153.193 725.098 160.62 725.697 168.207 726.207 175.794 726.887 185.89 727.487 196.016 729.826 205.922 730.425 208.451 729.976 210.99 730.206 213.509 731.485 227.583 731.975 241.698 732.764 255.792 733.394 266.998 734.024 278.203 735.014 289.369 735.493 294.767 736.753 300.084 737.213 305.512 738.262 317.957 740.911 330.282 740.361 342.857 740.172 347.206 742.511 350.834 743.36 354.903 744.68 361.25 745.749 367.648 747.539 373.935 750.407 384.001 756.405 391.198 765.222 396.336 773.988 401.434 782.895 406.292 791.731 411.25 802.607 417.348 813.802 423.075 823.698 430.832 838.092 442.118 854.236 450.435 870.81 457.822 890.991 466.818 911.173 475.844 931.745 483.951 932.575 484.281 933.375 484.681 934.194 485.041L934.104 485.93ZM701.557 297.286C701.467 290.618 700.117 286.28 699.488 281.842 698.108 272.186 696.709 262.519 695.799 252.813 695.159 245.976 694.5 239.159 693.34 232.381 692.91 229.872 691.591 229.063 689.382 228.823 686.663 228.523 684.514 229.313 682.574 231.352 678.446 235.69 674.438 240.228 669.81 243.967 664.492 248.255 662.762 253.523 663.842 259.84 665.411 268.987 664.862 278.263 665.831 287.449 666.441 293.197 665.991 299.055 666.431 304.833 667.051 313.119 668.32 321.366 668.07 329.713 667.76 340.238 669.34 350.694 669.18 361.21 669.15 362.929 669.909 364.309 670.639 365.798 673.008 370.646 677.606 373.115 681.645 376.074 688.662 381.222 695.799 386.22 704.376 388.649 706.875 389.359 708.234 389.019 709.484 386.44 712.862 379.483 712.163 372.536 710.933 365.238 709.644 357.582 707.175 355.602 699.498 355.043 698.418 354.963 697.309 354.913 696.239 355.043 694.75 355.212 693.82 354.583 693.16 353.353 689.961 347.386 687.592 341.198 687.513 334.281 687.482 331.822 688.492 330.952 690.771 331.362 694.85 332.082 699.028 332.232 702.976 333.741 705.325 334.641 706.355 333.841 706.175 331.532 706.125 330.832 705.765 330.162 705.565 329.473 702.337 318.267 702.996 306.592 701.557 297.306Z" stroke="#FFFFFF" stroke-width="11.9952"/><path d="M405.425 251.664C405.625 241.858 404.615 232.861 404.275 223.815 403.806 211.3 402.506 198.895 399.107 186.78 397.888 182.421 397.578 182.161 393.25 181.962 389.791 181.802 386.382 182.321 382.944 182.521 375.817 182.951 368.849 183.881 361.502 182.991 354.385 182.131 346.728 184.9 344.019 193.007 340.001 205.002 335.663 216.918 333.683 229.543 332.084 239.718 331.204 249.954 330.265 260.37 327.036 259.551 324.697 257.891 323.558 255.062 322.418 252.234 320.209 250.394 318.26 248.265 310.753 240.088 301.766 233.511 293.929 225.704 291.72 223.505 289.691 221.276 288.671 218.227 288.222 216.888 287.362 215.628 286.492 214.489 277.496 202.663 271.748 189.189 266.5 175.434 262.822 165.778 258.963 156.202 255.135 146.596 252.916 141.018 251.236 135.29 250.017 129.422 249.547 127.173 249.717 125.254 251.586 123.525 255.305 120.076 258.164 115.828 262.212 112.649 265.93 109.73 268.539 105.672 271.618 102.123 283.723 88.1489 298.128 77.0733 313.921 67.727 329.045 58.7706 343.999 49.4543 360.183 42.4171 376.746 35.22 393.87 30.122 412.012 28.9524 414.311 28.8025 416.301 29.3223 418.58 30.3219 433.434 36.8593 440.381 49.4743 444.909 63.8785 448.118 74.1045 449.547 84.7702 451.017 95.356 452.996 109.7 455.535 123.965 456.654 138.429 457.574 150.364 458.044 162.309 458.424 174.265 459.024 193.137 458.734 212.01 459.014 230.882 459.113 237.599 458.734 238.599 452.246 239.509 442.91 240.808 433.724 242.687 424.637 245.156 418.37 246.856 412.362 249.315 405.445 251.644ZM394.859 112.839C395.019 108.961 394.299 104.682 393.53 100.404 393.24 98.7846 392.87 96.9254 391.331 96.2356 388.222 94.8362 385.013 93.2069 381.704 92.777 375.467 91.9674 369.139 92.4372 362.872 93.2169 360.743 93.4867 359.073 94.4164 358.204 96.4256 355.475 102.733 352.746 109.061 351.426 115.828 350.667 119.746 353.006 121.915 357.054 121.536 357.414 121.506 357.774 121.466 358.134 121.416 367.43 120.156 376.726 118.697 385.993 121.735 387.152 122.115 388.502 122.045 389.761 122.005 394.469 121.855 394.809 121.466 394.869 116.588 394.879 115.498 394.869 114.418 394.869 112.839Z" stroke="#FFFFFF" stroke-width="11.9952"/><path d="M871.259 383.211C878.686 381.532 885.664 380.223 892.471 378.333 899.518 376.374 906.805 376.194 913.942 374.895 918.281 374.105 920.16 376.034 921.029 380.323 922.959 389.889 923.878 399.595 926.237 409.131 929.786 423.505 932.225 438.169 934.794 452.774 935.704 457.922 935.714 463.219 937.583 468.207 937.883 469.007 937.743 470.017 937.663 470.916 937.413 473.795 936.543 474.575 933.874 473.755 928.686 472.156 923.389 470.976 918.361 468.797 906.725 463.759 894.59 460.001 883.185 454.293 865.702 445.547 848.129 436.97 830.805 427.894 822.339 423.455 818.74 415.758 820.649 406.302 821.259 403.303 821.579 400.225 821.969 397.176 823.228 387.13 825.917 377.304 826.757 367.188 828.446 346.766 831.515 326.434 831.265 305.872 831.015 285.16 829.176 264.539 828.007 243.877 827.447 233.911 826.567 223.965 825.717 214.009 824.988 205.552 825.797 196.976 825.488 188.459 825.088 177.563 825.378 166.668 825.018 155.792 824.738 147.125 823.188 138.459 823.318 129.812 823.478 119.426 821.519 109.29 820.899 99.0145 820.4 90.7378 819.36 82.4511 818.78 74.1444 818.41 68.7866 818.8 63.3687 818.37 58.0109 818.081 54.4423 816.941 50.9337 816.211 47.3951 815.212 42.4971 815.961 41.4275 820.21 39.3183 829.926 34.5002 840.222 30.9716 849.718 25.6738 856.105 22.1152 863.123 20.156 870.19 18.5166 878.866 16.5074 887.373 14.0184 895.65 10.7397 899.518 9.21031 901.177 9.88005 901.627 13.9684 902.537 22.2051 906.095 30.102 904.716 38.6186 904.536 39.6982 904.716 40.7578 905.246 41.7873 907.355 45.8857 906.705 50.124 906.345 54.5223 905.815 61.0197 906.125 67.5771 906.105 74.1145 906.075 82.781 905.616 83.1609 897.049 80.8318 893.53 79.8822 890.032 79.1525 886.323 79.4623 879.416 80.0321 872.649 77.9129 865.711 78.3528 863.332 78.5027 860.993 78.7026 858.754 79.4323 855.885 80.372 853.436 83.7606 853.716 86.8294 854.696 97.4552 854.656 108.151 856.325 118.737 857.475 126.054 858.164 133.471 858.135 140.918 858.105 148.725 859.004 156.452 859.854 164.209 860.744 172.315 861.553 180.422 862.693 188.499 863.193 192.067 863.282 192.087 866.811 191.338 873.568 189.898 880.496 190.038 887.323 189.169 888.732 188.989 890.262 189.099 891.641 189.439 894.25 190.088 895.78 191.348 896.049 194.616 896.999 205.862 896.309 217.108 896.079 228.323 895.969 233.761 893.66 238.449 887.443 240.778 881.025 243.187 874.528 245.286 867.981 247.216 865.802 247.855 865.742 248.745 865.572 250.514 864.932 257.421 865.851 264.299 865.792 271.196 865.711 280.392 865.402 289.579 865.921 298.775 866.461 308.381 866.481 318.007 866.901 327.613 867.481 340.848 868.221 354.073 868.91 367.308 869.18 372.556 870.1 377.714 871.259 383.191Z" stroke="#FFFFFF" stroke-width="11.9952"/><path d="M179.365 76.5335C189.781 83.6107 200.367 88.8786 209.753 95.9857 212.582 98.1249 214.571 101.374 216.97 104.093 217.78 105.002 217.96 106.002 217.57 107.111 214.471 115.978 215.451 125.294 214.811 134.4 214.381 140.568 213.881 146.686 212.582 152.703 211.452 157.931 211.712 163.179 211.752 168.417 211.842 180.412 210.153 192.297 209.583 204.253 208.643 223.875 209.973 243.457 210.792 263.039 211.352 276.464 211.672 289.918 212.722 303.313 214.241 322.645 214.121 342.128 217.77 361.28 218.489 365.039 219.229 368.767 220.429 372.386 223.167 380.652 225.986 388.899 228.775 397.156 229.175 398.325 229.345 399.635 230.674 400.484 232.914 397.266 233.164 393.647 233.323 390.059 234.043 373.955 234.233 357.831 233.903 341.728 233.603 327.054 232.534 312.4 231.534 297.745 230.315 279.833 229.425 261.9 228.515 243.977 227.306 220.066 226.826 196.126 226.256 172.195 226.006 161.929 227.396 152.013 228.295 141.967 228.695 137.449 228.775 132.931 229.145 128.423 229.255 127.133 229.225 125.714 230.595 125.154 232.164 124.514 233.213 125.464 234.303 126.624 239.561 132.221 243.989 138.269 246.468 145.696 252.086 162.559 258.963 178.943 265.561 195.426 266.7 198.275 268.16 201.034 269.799 203.643 273.327 209.251 273.627 215.098 271.818 221.296 271.428 222.645 271.478 224.185 271.618 225.614 272.488 234.671 271.948 243.707 271.698 252.773 271.218 269.657 271.348 286.55 271.258 303.443 271.188 316.858 271.818 330.262 272.178 343.677 272.378 351.254 272.368 358.861 272.588 366.458 272.698 370.267 272.738 374.055 273.068 377.863 273.497 382.881 273.348 387.899 273.068 392.967 272.658 400.285 272.518 407.722 272.788 415.109 272.828 416.178 273.168 417.248 273.437 418.297 274.087 420.806 273.148 422.156 270.828 423.425 262.472 427.993 253.246 430.233 244.469 433.661 237.702 436.3 230.615 437.9 223.747 440.209 219.159 441.758 215.111 440.209 211.872 435.94 208.793 431.892 206.344 427.434 203.675 423.115 198.577 414.879 195.329 405.822 191.7 396.956 188.681 389.589 185.832 382.122 183.583 374.435 182.134 369.497 181.894 364.459 181.264 359.491 180.484 353.373 179.535 347.276 178.595 341.188 176.016 324.485 174.787 307.701 174.747 290.808 174.697 271.376 174.707 251.944 174.297 232.511 174.157 225.624 174.037 218.767 174.297 211.88 174.687 201.914 173.047 191.988 173.217 181.982 173.397 171.496 172.558 161.03 172.937 150.494 173.327 139.618 174.157 128.783 174.737 117.927 175.287 107.651 176.666 97.4152 178.165 87.2192 178.635 84.0105 178.885 80.7618 179.345 76.5335Z" stroke="#FFFFFF" stroke-width="11.9952"/><path d="M808.234 412.84C800.597 408.061 792.861 403.403 785.324 398.435 781.985 396.226 778.756 393.847 774.948 392.558 768.88 390.508 765.162 386.05 761.863 380.882 756.335 372.206 755.955 362.46 755.226 352.644 754.066 337.14 754.206 321.456 749.138 306.442 747.809 302.493 747.799 298.235 747.469 294.077 746.589 283.271 744.63 272.595 743.51 261.81 742.581 252.843 740.751 243.947 739.992 234.92 739.082 224.085 737.952 213.279 736.903 202.453 735.863 191.838 734.414 181.242 733.864 170.596 733.354 160.8 732.195 151.054 730.325 141.538 728.156 130.482 728.436 119.236 726.367 108.211 725.647 104.372 726.187 100.304 726.107 96.3356 726.077 94.8762 726.827 93.9666 727.916 93.2069 736.103 87.5291 743.39 80.5919 752.397 76.0537 756.085 74.1944 757.025 74.5643 757.765 78.7426 760.783 95.6459 763.902 112.539 766.751 129.472 768.01 136.949 768.8 144.516 769.61 152.053 770.389 159.301 773.438 166.038 774.238 173.265 775.278 182.611 776.547 191.938 777.277 201.304 778.186 213.039 780.056 224.674 780.935 236.41 781.535 244.497 782.705 252.493 782.545 260.73 782.375 269.347 783.724 278.083 784.264 286.78 784.594 292.208 784.824 297.585 784.424 303.063 783.974 309.181 786.223 315.178 787.113 321.256 787.223 322.026 787.693 322.605 788.452 322.815 789.482 323.095 790.292 322.576 790.651 321.706 791.141 320.546 791.501 319.317 791.721 318.077 793.31 309.291 793.9 300.454 793.16 291.528 791.321 269.467 789.422 247.415 787.773 225.344 786.953 214.309 786.653 203.223 786.083 192.167 785.863 187.829 784.864 183.491 784.644 179.273 783.904 165.338 779.446 151.933 779.496 137.879 779.516 131.632 777.007 125.484 777.227 119.057 777.407 113.789 776.077 108.631 775.667 103.443 774.898 93.7267 772.309 84.2804 771.959 74.5343 771.949 74.1744 771.959 73.7746 771.809 73.4647 769.04 67.6171 772.808 64.8082 777.007 62.1892 782.395 58.8206 787.753 55.4219 793.17 52.1032 794.87 51.0636 796.649 50.114 798.508 49.4043 802.437 47.9049 803.436 48.5047 804.696 52.663 806.175 57.5511 807.265 62.4891 806.915 67.647 806.755 70.0061 806.995 72.3352 807.625 74.6343 808.694 78.5127 808.924 82.4711 808.754 86.4895 808.464 93.2269 809.804 99.8342 810.494 106.492 810.713 108.651 811.423 110.85 811.183 112.959 810.054 122.835 812.223 132.461 813.382 142.137 814.532 151.734 814.032 161.35 814.442 170.946 814.672 176.204 815.791 181.312 815.971 186.61 816.251 195.136 815.691 203.673 816.471 212.179 818.81 237.679 819.79 263.269 821.599 288.799 822.989 308.431 822.019 327.973 819.5 347.486 818.57 354.673 818.25 361.94 817.651 369.167 817.611 369.707 817.701 370.296 817.521 370.786 814.322 379.313 815.502 388.329 814.502 397.106 813.912 402.264 812.013 407.452 808.284 412.86Z" stroke="#FFFFFF" stroke-width="11.9952"/><path d="M342.06 296.956C343.43 289.998 345.979 283.901 349.797 278.293 354.695 271.086 360.893 266.698 370.089 266.938 377.136 267.128 384.233 267.637 391.261 266.128 393.829 265.578 395.489 267.188 394.509 269.497 391.181 277.314 392.86 285.63 391.77 293.657 391.081 298.775 392.11 304.113 392.32 309.361 392.48 313.349 392.79 317.348 392.63 321.326 392.12 334.761 394.069 348.115 393.87 361.55 393.76 368.637 393.01 375.644 392.67 382.692 391.98 397.416 393.889 412 394.819 426.634 395.109 431.132 394.709 435.67 394.669 440.189 394.609 446.536 394.749 452.874 396.339 459.091 396.838 461.04 396.918 463.01 396.319 464.889 395.409 465.579 394.499 465.349 393.67 465.069 381.294 460.98 368.999 456.612 356.374 453.323 354.145 452.744 354.395 451.034 354.275 449.455 353.546 440.039 352.766 430.632 352.156 421.216 351.706 414.189 349.417 407.372 350.137 400.185 351.826 383.181 350.217 366.098 351.266 349.075 351.426 346.556 351.876 344.047 352.186 341.538 352.446 339.419 352.526 337.33 351.676 334.691 348.917 336.95 348.158 339.779 346.908 342.248 344.419 347.196 343.55 347.516 338.512 345.446 334.103 343.637 329.995 341.448 327.076 337.5 326.656 336.94 326.077 336.41 325.447 336.11 324.157 335.5 322.928 335.45 322.648 337.31 322.568 337.839 322.588 338.399 322.588 338.939 322.438 354.743 323.328 370.516 325.077 386.2 326.236 396.606 327.996 406.992 328.576 417.428 329.135 427.514 331.174 437.56 329.895 447.976 326.826 448.805 324.657 446.216 321.998 445.536 314.141 443.527 306.164 441.698 298.987 437.56 296.398 436.07 294.249 434.331 292.48 431.952 290.791 429.683 289.691 427.004 286.972 425.395 285.263 424.385 285.353 421.886 284.803 419.977 283.244 414.539 282.884 408.871 282.734 403.333 282.484 394.087 281.544 384.891 281.444 375.644 281.414 372.526 282.074 369.527 282.244 366.458 282.464 362.27 281.854 358.151 281.514 354.003 280.675 343.677 281.674 333.351 281.504 323.035 281.324 312.15 280.825 301.244 281.244 290.378 281.714 278.223 280.375 266.068 281.524 253.943 282.154 247.285 282.044 240.548 283.653 233.981 284.533 230.372 285.773 229.842 288.731 232.102 290.601 233.531 292.23 235.13 293.549 237.18 298.667 245.116 304.415 252.543 311.052 259.341 317.63 266.068 323.897 273.135 329.245 280.932 330.285 282.441 331.174 283.981 331.844 285.68 333.793 290.568 337.282 294.047 342.08 296.936Z" stroke="#FFFFFF" stroke-width="11.9952"/><path d="M534.703 473.455C531.625 474.415 528.746 475.015 526.147 476.204 522.628 477.814 519.02 477.134 515.441 477.314 513.752 477.394 513.372 476.154 512.872 474.995 511.223 471.146 509.983 467.128 509.423 463.02 508.694 457.652 506.844 452.514 506.775 446.976 506.715 442.558 505.325 441.608 500.777 441.358 491.681 440.858 482.874 438.949 474.148 436.45 471.179 435.6 469.939 434.331 469.409 431.002 467.25 417.598 467.9 404.373 469.449 390.948 470.389 382.792 469.419 374.345 468.2 366.118 467.83 363.609 467.71 361.08 467.31 358.581 466.63 354.393 464.331 350.894 462.792 347.076 459.563 339.029 456.884 330.802 455.735 322.096 454.765 314.759 453.836 307.482 454.455 300.064 455.325 289.599 460.703 280.112 471.858 276.984 474.128 276.344 476.357 275.554 478.626 274.944 485.973 272.975 493.47 271.596 500.827 269.637 506.585 268.097 512.612 267.747 518.64 267.777 525.347 267.817 532.074 268.287 538.742 267.068 544.619 265.998 548.858 268.417 552.196 273.105 557.604 280.692 562.073 288.589 563.452 298.065 565.001 308.681 565.211 319.367 565.991 330.023 566.531 337.44 563.482 343.767 560.473 350.194 555.775 360.23 548.668 368.297 540.351 375.434 538.072 377.384 538.062 378.423 540.371 380.053 552.646 388.789 561.063 400.644 567.86 413.829 569.44 416.888 571.029 419.947 572.758 422.926 575.227 427.184 576.957 431.632 578.046 436.5 579.466 442.838 581.755 448.985 583.624 455.223 585.113 460.211 585.073 460.191 580.115 462.22 571.879 465.589 563.482 468.457 554.675 469.927 550.387 470.647 550.357 470.617 548.738 466.578 548.198 465.239 547.718 463.859 547.438 462.45 543.64 443.657 534.863 427.144 524.188 411.5 524.038 411.29 523.568 411.3 522.808 411.09 523.508 418.277 522.298 425.445 525.367 432.302 527.686 437.49 527.586 443.287 528.256 448.805 528.926 454.273 531.355 459.061 532.534 464.289 533.214 467.278 534.284 470.197 534.723 473.465ZM526.727 318.437C526.367 314.109 526.037 309.771 525.657 305.442 525.277 301.154 524.318 299.964 520.059 299.785 515.381 299.595 510.693 299.325 506.035 300.614 501.227 301.944 501.207 301.744 501.127 306.442 500.957 316.238 502.066 325.964 502.736 335.72 503.026 339.939 505.585 342.498 509.633 343.747 512.022 344.487 514.312 343.797 516.641 343.827 521.329 343.877 522.188 343.267 523.708 338.739 525.917 332.172 527.196 325.434 526.727 318.447Z" stroke="#FFFFFF" stroke-width="11.9952"/><path d="M567.74 228.533C557.874 229.013 548.658 229.463 539.432 229.922 535.633 230.112 531.785 230.052 528.046 230.642 524.827 231.142 523.388 229.772 522.318 227.124 519.27 219.597 514.501 213.239 508.694 207.631 508.064 207.022 507.544 206.222 506.195 206.072 504.945 207.351 505.755 209.071 505.985 210.44 506.914 216.028 506.944 221.636 506.854 227.253 506.795 231.252 506.775 231.362 502.686 232.032 492.31 233.731 481.944 235.46 471.539 236.9 466.101 237.649 466.211 236.73 467.22 232.631 467.96 229.643 468.12 226.554 468.17 223.445 468.45 206.212 468.42 188.949 469.289 171.746 469.789 161.949 469.829 152.153 469.889 142.387 469.949 133.381 468.62 124.344 467.04 115.438 466.251 110.98 465.861 106.442 464.901 102.043 461.872 88.2588 458.144 74.6143 455.425 60.7698 453.746 52.2132 450.787 44.0664 448.878 35.6098 448.598 34.3603 448.438 33.1608 448.428 31.8813 448.408 30.3019 448.938 29.4722 450.537 29.4123 450.897 29.4023 451.267 29.3623 451.626 29.3923 460.393 30.032 468.97 28.5726 477.566 27.2131 481.724 26.5534 485.883 26.5734 490.011 27.4431 493.26 28.1228 496.539 27.8929 499.787 27.7729 504.835 27.593 509.563 28.7625 513.972 30.9517 520.439 34.1604 527.096 37.1392 532.014 42.747 532.254 43.0168 532.534 43.2667 532.844 43.4567 544.18 50.5139 549.338 61.6894 553.706 73.6846 557.354 83.6907 559.753 93.8466 559.963 104.412 560.203 116.448 557.794 127.773 549.857 137.469 545.699 142.557 541.341 147.345 536.083 151.294 533.044 153.573 532.554 153.353 535.263 157.251 541.681 166.518 547.038 176.414 552.416 186.3 554.505 190.138 556.275 194.087 557.674 198.225 560.463 206.452 563.352 214.648 566.161 222.875 566.741 224.575 567.13 226.334 567.73 228.533ZM497.268 82.681C497.928 91.9973 498.708 100.794 499.108 109.61 499.327 114.328 499.268 115.018 505.125 113.559 507.314 113.009 508.974 111.56 510.333 109.82 512.242 107.381 513.612 104.662 514.711 101.743 516.701 96.4456 515.211 92.1373 511.283 88.4987 507.584 85.0801 503.166 83.1908 497.268 82.691Z" stroke="#FFFFFF" stroke-width="11.9952"/><path d="M658.854 152.013C655.915 150.334 652.836 148.755 649.957 146.875 645.679 144.087 640.771 143.717 635.973 142.847 633.984 142.487 633.574 143.827 633.064 145.276 630.585 152.283 628.296 159.361 627.087 166.698 624.238 184.011 622.348 201.434 621.539 218.967 621.479 220.236 621.309 221.496 621.089 222.745 620.859 224.025 620.079 224.684 618.77 224.135 606.395 218.927 593.91 220.956 581.405 223.515 581.095 223.575 580.735 223.415 580.405 223.355 579.046 210.2 581.125 197.375 583.984 184.63 588.122 166.108 589.132 147.375 588.282 128.463 588.122 125.004 586.853 123.865 583.854 122.865 579.685 121.476 575.327 121.296 571.119 120.226 568.33 119.516 567.81 118.147 567.96 115.658 568.79 101.983 566.301 88.9186 561.853 75.9237 558.494 66.1077 554.346 56.8613 549.587 47.675 547.218 43.0968 544.879 38.3787 542.59 33.7006 541.041 30.5218 541.451 29.6422 544.939 29.2423 545.649 29.1624 546.389 29.1924 547.108 29.2223 566.061 30.032 584.284 34.1004 602.306 40.028 621.329 46.2955 638.672 55.6318 654.366 67.647 663.912 74.9541 673.838 82.0613 682.015 91.1677 685.983 95.5859 690.891 99.1545 695.209 103.283 698.628 106.562 698.528 107.241 695.289 110.86 689.002 117.887 682.424 124.564 675.267 130.752 669.11 136.09 664.832 143.177 660.723 150.224 660.353 150.854 660.103 151.544 658.874 152.043Z" stroke="#FFFFFF" stroke-width="11.9952"/><path d="M552.436 239.838C547.988 245.266 546.479 251.014 546.179 257.062 546.039 259.82 545.039 260.9 542.28 260.92 536.293 260.97 530.315 261.32 524.328 261.41 508.584 261.66 493.44 265.338 478.396 269.477 474.038 270.676 469.519 271.386 465.361 273.295 449.777 280.452 439.811 291.948 437.312 309.291 437.262 309.651 437.302 310.04 437.162 310.37 432.364 322.126 435.323 333.961 436.892 345.756 437.722 352.014 437.852 351.994 444.129 351.004 444.849 350.894 445.569 350.754 446.289 350.744 448.238 350.714 449.817 348.195 451.866 349.635 454.775 351.684 457.904 353.343 459.633 356.942 463.352 364.659 464.521 372.376 461.543 380.572 460.843 382.502 459.873 384.171 458.444 385.61 455.545 388.539 452.436 390.119 448.268 387.999 447.058 387.39 445.659 386.67 444.099 386.96 443.02 388.299 443.75 389.759 443.96 391.118 446.039 404.733 447.648 418.407 448.848 432.122 449.077 434.781 449.917 436.39 452.426 437.51 456.095 439.149 459.793 440.848 463.762 441.178 473.778 442.028 483.014 446.166 492.82 447.796 496.089 448.335 497.488 450.105 498.368 453.373 500.257 460.351 502.636 467.188 503.286 474.465 503.656 478.593 503.456 479.373 499.307 479.873 494.569 480.443 489.801 482.542 484.953 480.233 484.503 480.013 483.874 480.123 483.334 480.153 471.888 480.712 460.523 479.083 449.098 479.013 440.691 478.953 432.744 476.024 424.547 474.575 421.019 473.955 416.73 474.055 414.291 471.596 411.862 469.147 412.062 464.879 411.203 461.38 408.574 450.594 407.394 439.639 407.584 428.543 407.784 417.118 406.784 405.772 405.905 394.397 405.125 384.341 404.665 374.225 405.195 364.069 405.545 357.232 404.645 350.304 404.015 343.447 403.096 333.501 402.666 323.535 402.676 313.559 402.686 302.284 406.554 292.657 415.821 285.66 416.68 285.01 417.57 284.361 418.55 283.941 426.496 280.562 432.494 274.785 437.312 267.887 441.92 261.3 447.638 255.742 452.696 249.585 453.566 248.535 454.605 247.925 455.825 247.565 461.403 245.926 467.11 244.796 472.858 244.197 476.996 243.767 481.185 243.667 485.293 242.987 502.286 240.158 519.439 239.289 536.613 238.839 541.571 238.709 546.669 238.299 552.416 239.828Z" stroke="#FFFFFF" stroke-width="11.9952"/><path d="M577.127 307.142C592.72 311.25 607.354 312.32 620.959 302.663 622.538 304.023 622.179 305.952 622.248 307.631 623.188 331.022 625.717 354.313 626.887 377.684 627.526 390.418 630.115 402.774 632.155 415.259 633.094 420.986 633.734 426.754 634.584 432.492 634.883 434.551 634.164 435.82 632.374 436.93 621.119 443.927 609.484 450.165 597.228 455.243 595.029 456.152 593.81 456.082 592.82 453.383 590.331 446.586 587.852 439.799 586.153 432.752 584.813 427.184 581.345 422.646 578.656 417.728 573.238 407.822 566.291 399.025 559.154 390.368 556.155 386.73 552.496 383.711 548.918 380.632 545.379 377.584 545.559 376.964 549.058 374.215 563.942 362.52 574.388 347.945 578.116 329.043 578.736 325.924 578.186 322.905 577.876 319.847 577.456 315.728 576.537 311.64 577.136 307.142Z" stroke="#FFFFFF" stroke-width="11.9952"/><path d="M630.325 263.599C629.356 273.735 626.387 283.061 616.821 289.139 612.262 292.038 608.174 295.466 602.456 296.296 592.041 297.815 582.514 295.656 574.308 289.399 567.66 284.321 562.532 277.783 560.233 269.357 556.995 257.511 560.153 249.755 568.5 244.097 577.156 238.229 586.883 234.8 597.438 234.331 603.846 234.051 610.323 235.18 616.021 237.619 622.918 240.568 628.516 245.626 629.206 254.103 629.456 257.162 629.915 260.2 630.315 263.609Z" stroke="#FFFFFF" stroke-width="11.9952"/><path d="M438.672 252.154C436.063 258.301 432.154 263.029 427.846 267.288 424.937 270.176 421.638 272.775 417.84 274.675 413.602 276.804 409.523 275.214 406.564 271.136 405.225 269.297 406.774 263.579 409.233 261.29 412.302 258.441 415.761 255.722 419.669 254.603 425.507 252.933 431.435 250.744 438.672 252.154Z" stroke="#FFFFFF" stroke-width="11.9952"/></g></svg>