<?xml version="1.0" encoding="UTF-8"?><svg id="Layer_2" xmlns="http://www.w3.org/2000/svg" viewBox="0 0 894.44 485.45"><g id="Layer_1-2"><path d="m27.47,7.6c9.57.43,21.35-1.03,33.16-.53,8.2.35,16.38.55,24.36,3.1,3.21,1.03,6.92.69,10.4.66,10.86-.1,21.55,1.44,31.81,4.69,4.64,1.47,9.56,3.21,13.55,6.42,1.29,1.03,2.87,1,4.31,1.39,1.65.45,3.27.91,4.75,1.73,9.26,5.12,18.7,9.9,27.09,16.48,4.83,3.79,8.08,8.93,12.12,13.39,3.68,4.06,7.02,8.42,10.05,12.92,2.88,4.27,5.2,9.06,5.63,14.45.16,1.96,1.03,3.74,1.54,5.6,1.08,3.96,1.56,8.04,2.02,12.13.46,4.13,1.17,8.24,2.32,12.26.64,2.24.59,4.61.89,6.88,1.21,9.15,3,18.24,2.71,27.58-.34,10.86,1.71,21.68,1.06,32.57-.31,5.23-1.58,10.42-.94,15.67.93,7.68-.16,15.41.77,23.09.44,3.65-.04,7.37-.03,11.05.06,13.21,2.72,26.3,1.78,39.52-.26,3.7-1.02,7.47-.4,11.08,1.65,9.56.91,19.34,3.01,28.86.79,3.57.11,7.36.67,11.07,1.56,10.43.59,21,1.31,31.45.56,8.13.79,16.24.96,24.37.16,7.37-1.18,14.41-3.19,21.5-3.3,11.61-7.25,22.93-12.08,33.98-2.38,5.44-6.65,9.45-10.34,13.8-5.05,5.94-10.28,11.75-15.17,17.83-3.43,4.26-8.17,6.65-12.46,9.67-5.69,4.01-12.07,6.91-18.72,8.78-4.58,1.28-9.49,2.21-14.32.15-1.77-.76-3.31.74-4.86,1.33-2.16.83-4.25,1.35-6.58,1.29-18.54-.46-37.07.24-55.6.6-13.16.26-26.31.95-39.47,1.04-1.95.01-3.07-.63-4.18-2.28-2.34-3.49-3.46-7.06-3.35-11.36.19-7.39-.69-14.75-1.48-22.1-.22-2.07-.23-4.18-.16-6.26.16-5.16-.46-10.22-1.68-15.22-.08-.35-.02-.73-.06-1.09-1.22-12.73-.64-25.51-1.08-38.26-.13-3.65-.28-7.5-1.43-11.13-.24-.75-.18-1.62-.17-2.43.04-5.04-1.4-9.83-2.44-14.69-.58-2.71-.67-5.57-.8-8.26-.24-5.06-.8-10.1-1.17-15.13-1-13.77-.77-27.54-.82-41.31-.02-6.91-.07-13.81.03-20.72.05-3.09-.63-6-1.58-8.88-.08-.25-.21-.54-.17-.78,1.04-7.02-1.37-13.75-1.79-20.67-1.21-19.92-1.4-39.84-1.57-59.78-.06-6.75-.65-13.52-1.07-20.27-.61-9.79-1.74-19.56-2.4-29.33-.53-7.91-1.87-15.75-2.05-23.71-.11-4.74-.24-9.61-.06-14.25.3-7.71.46-15.48,1.18-23.21.41-4.38,1-8.79,1.11-13.16.16-5.88.54-11.76.83-17.62.22-4.39.24-8.82.72-13.24.56-5.18.04-10.44-.35-15.66-.25-3.32,3.2-7.01,6.64-7.04,5-.04,10-.01,17.24-.01Zm102.15,305.71c-.48-20.28.89-44.72-1.07-69.12-.67-8.29-.78-16.61-1.38-24.91-.65-9.02-1.22-18.09-1.27-27.15-.05-8.52-1.43-16.87-2.48-25.27-.54-4.35-1.92-8.63-2.14-12.99-.3-6.07-1.47-12.01-2.11-18.02-.69-6.51-2.02-12.97-3.24-19.41-.82-4.33-1.5-8.88-3.99-12.53-7.02-10.28-13.73-20.77-20.6-31.14-.67-1.02-1.6-1.59-2.8-1.99-3.91-1.28-7.95-1.7-11.97-2.35-1.69-.27-2.09.11-2.07,1.67.03,2.24.2,4.47-.87,6.63-1.41,2.85-2.46,5.88-3.84,8.74-.69,1.44-.73,2.95-.32,4.22,2.53,7.92,3.24,16.17,4,24.33.75,8.08.4,16.26.86,24.41.44,7.62.38,15.3-.49,23.02-.85,7.58,1.47,15.19,2.12,22.8.84,9.96,1.62,19.92,2.67,29.87.64,6.01.82,12.1,1.1,18.15.36,7.59,1.04,15.16,1.41,22.73.55,11.03,1.02,22.06,1.81,33.09.32,4.49.98,8.97,1.12,13.5.09,2.75.21,5.59.54,8.38.7,5.81,1.27,11.63,1.8,17.46.48,5.22.73,10.46,1.27,15.67.75,7.25,1.94,14.47,2.44,21.73.47,6.85,1.39,13.64,2.24,20.42,1.01,7.97,1.19,15.99,2.26,23.96.65,4.8,1.15,9.72.78,14.64-.13,1.65.65,2.42,2.29,2.07,7.52-1.61,15.03-3.24,22.55-4.87.99-.21,1.38-.78,1.69-1.81,2.66-8.87,4.3-17.98,5.82-27.07,1.51-9,1.99-18.14,1.91-27.31-.14-15.81-.04-31.63-.04-51.57Z"/><path d="m671.54,49.04c7.38-.47,15.52,1.51,23.77,2.16,8.11.63,15.66,3.07,22.97,6.44,12.65,5.84,18.9,16.57,22.59,29.34,3.37,11.67,6.69,23.36,11.01,34.74,2.1,5.53,4.58,10.82,7.38,16,1.83,3.4-.09,6.47-1.58,9.38-3.96,7.74-9.18,14.77-12.92,22.66-1.11,2.33-2.51,4.63-4.21,6.56-4.28,4.86-6.93,10.6-9.65,16.36-3.45,7.29-8.13,13.76-13.85,19.46-5.7,5.67-11.54,11.2-17.1,17-1.8,1.88-3.15,3.88-6.01,4.51-1.59.35-1.03,2.21-.37,3.47,2.28,4.41,6.1,7.46,9.61,10.77,3.99,3.76,8.62,6.67,13.01,9.89,2.75,2.02,4.67,5.45,7.24,7.98,2.28,2.24,3.78,4.87,5.23,7.66,4.06,7.78,8.84,15.18,12.38,23.23,3.48,7.9,5.31,16.26,6.07,24.84.32,3.57,1.21,7.05,1.57,10.59.44,4.34,1.65,8.62.64,13.09-.64,2.86.31,5.7.97,8.52.97,4.13.71,8.33.71,12.54,0,4.51.01,9,.41,13.53.6,6.77-.36,13.68-5.73,18.54-3.37,3.05-6.85,6-9.85,9.38-5.21,5.86-11.77,10.16-17.38,15.53-3.04,2.91-6.29,5.2-10.24,6.69-1.63.61-3.22.11-4.79.59-.86.27-.51-.68-.68-1.07-1.22-2.72-1.54-5.66-2.18-8.52-.86-3.82-2.27-7.52-3.07-11.36-1.31-6.33-3.74-12.33-5.23-18.64-1.83-7.74-3.24-15.46-4.13-23.33-.14-1.2-.77-2.34-1.18-3.51-2.4-6.78-3.01-13.93-4.47-20.91-.38-1.83-.7-3.69-1.33-5.43-2.04-5.62-3.32-11.43-4.74-17.21-1.08-4.39-4.54-7.49-6.2-11.59-1.1-2.72-2.8-5.2-4.2-7.8-.52-.96-1.09-1.54-2.34-1.23-1.34.34-1.36,1.26-1.34,2.3.1,5.14.51,10.26,1.14,15.36.35,2.77.35,5.58.53,8.36.42,6.47.67,13.03,1.58,19.38,1.12,7.85.63,15.77,2.06,23.61.66,3.6,1.89,7.56.34,11.45-.31.77.27,1.93.53,2.89,2.06,7.79-.33,10.61-7.67,11.49-11.17,1.35-22.36,2.71-33.61,3.5-7.13.51-14.24,1.22-21.39.92-1.66-.07-3.32,1.56-4.91.07-1.47-1.38-.61-3.29-.99-4.92-2.18-9.35-4.52-18.66-6.59-28.02-1.27-5.75-2.08-11.58-2.93-17.42-.81-5.57-1.48-11.16-2.31-16.72-.64-4.36-.23-8.89-.16-13.34.08-5.7-1.57-11.16-2.17-16.76-.59-5.44-.42-10.87-.1-16.28.09-1.48.39-3.03.35-4.54-.1-4.47,1.14-8.62,2.55-12.8,2.84-8.4,6.86-16.37,7.83-25.45.7-6.52,2.02-12.98,1.67-19.58-.48-9.01-.64-18.07-1.74-27.01-1.06-8.64-6.37-10.42-13.99-9-1.65.31-3.33.58-4.97.96-1.56.36-1.6-.55-1.42-1.44.65-3.41,1.46-6.8,2.14-10.21.4-2.01.97-4.05.91-6.06-.3-9.54,1.43-18.93,2.03-28.4.55-8.68,2-17.27,2.56-25.96.32-4.95,1.67-9.84,2.75-14.72.47-2.12.8-4.33.8-6.37,0-5.74,1.1-11.42.75-17.14-.23-3.76.4-7.37,1.75-10.78,1.07-2.69,2.51-5.37,5.94-5.89,5.17-.79,9.83-3.44,14.99-4.22,11.07-1.67,21.86-4.74,33.03-6.05,8.97-1.06,17.9-2.04,27.9-2.05Zm11.87,60.05c-3.12-.39-5.9.95-8.79,1.49-3.28.62-6.52,2.45-8.06,5.11-1.8,3.09-2.22,7.01-3.01,10.62-.25,1.14.07,2.44.33,3.7.96,4.73,4.34,7.98,6.72,11.83,2.58,4.2,8.24,3.69,11.31,7.22.32.37,1.19.33,1.81.34,5.73.08,9.99-2.62,13.24-7.13,1.16-1.6,1.91-3.83,3.68-4.56,2.34-.97,2.72-2.85,3.42-4.73.84-2.27,1.01-4.72.53-6.95-1.27-5.81-3.13-11.32-9.52-13.75-1.89-.72-4.12-.47-5.66-1.51-1.94-1.31-3.8-1.97-5.98-1.68Z"/><path d="m572.46,6.57c3.15-1.08,5.82-2.3,8.76-2.59,2.34-.23,4.74.02,7.08-.23,3.34-.37,6.6.59,10.11-1.3,2.52-1.36,6.44-.55,9.65-.1,3.23.45,6.49.53,9.71.78,8.53.68,17.13.59,25.67,1.25,21.67,1.66,43.37.59,65.04,1.14,9.05.23,17.77-1.19,26.51-3.04,4.41-.94,8.92-.65,13.38-.93,3.65-.23,7.28-.87,10.89-1.48,2.55-.43,4.33,1.11,2.89,3.02-2.6,3.45-1.9,7.91-4.33,11.29-.69.96-1.36,1.86-2.24,2.64-3.18,2.81-6.61,5.35-9.13,8.87-2.65,3.7-4.14,7.82-4.97,12.25-.66,3.53-2.27,6.72-4.14,9.73-.57.91-1.55,1.94-2.91,1.72-3.08-.51-6.36.08-9.27-1.29-7.76-3.67-16.15-4.86-24.46-6.29-10.29-1.77-20.71-2.08-31.11-1.61-6.38.29-12.72,1.39-19.09,1.9-5.44.43-10.78,1.55-16.32,1.45-4.45-.08-8.9,1.25-13.38,1.67-12.06,1.12-22.85,6.4-34.08,10.23-5.64,1.92-7.54,5.05-7.65,10.92-.11,5.93-1.1,11.79-1.76,17.68-.11.99-.05,2-.1,2.99-.44,9.47-.5,18.98-1.45,28.4-.84,8.39-1.9,16.79-4.18,24.99-.87,3.14-.23,6.63-.63,9.97-.32,2.67-.76,5.31-1.14,7.97-1.27,8.87-4.33,17.21-7.11,25.65-.94,2.87-3.4,4.79-4.18,7.72-.34,1.29-1.1,2.44-1,3.88.18,2.43,1.57,3.34,3.68,2.1,3.21-1.89,6.84-1.66,10.29-2,4.53-.45,9.13-.14,13.7-.47,2.1-.15,2.19,1.87,2.64,3.57,1.52,5.79-.7,11.42-.48,17.12.23,5.91-.35,11.79-.75,17.65-.42,6.15-1.59,12.25-2.39,18.38-.14,1.07-.07,2.18-.07,3.27-.01,3.49-3.26,6.58-6.66,5.72-4.47-1.14-8.32.54-12.33,1.75-.77.23-1.48.67-2.22.99-3.85,1.66-3.2,1.65-3.11,5.66.08,3.89,2.28,6.61,3.77,9.61,4.42,8.86,6.85,18.28,9.11,27.8,1.62,6.8,2.46,13.7,3.31,20.64,1.16,9.46,2.54,18.86,2.58,28.44.02,4.2,1.62,8.37,2.23,12.6.37,2.57.57,5.19.76,7.78.36,4.84,1.44,9.55,2.04,14.34.52,4.08,1.38,8.12,1.79,12.21.48,4.81,4.57,7.83,9.35,6.99,4.07-.71,8.22-1.09,12.35-1.38,5.7-.4,11.33-1.09,16.94-2.26,3.39-.7,6.84-1.14,10.41-.6,3.86.58,7.67-.81,11.51-1.24,4.02-.44,8.04-.95,12.07-1.39,9.23-1.01,18.5-.33,27.74-.61,1-.03,1.64-.03,2.09,1.02,1.82,4.21,2.95,8.56,3.51,13.14.9,7.4,2.97,14.51,6.78,20.99,1.83,3.13,2.96,3.23,6.16,1.73,4.55-2.13,8.38-5.33,12.59-7.95,1.36-.85,1.7-.77,2.38.71,3.87,8.55,6.43,17.79,11.7,25.56,2.67,3.93,3.05,8.84,6.44,12.26,1.33,1.35,2.37,2.95,3.37,4.64,1.11,1.88.26,2.69-.91,3.18-2.8,1.17-5.54,3.96-8.84.78-.82-.79-1.85.45-2.84.35-7.76-.78-15.32,1.27-23,1.77-5.36.35-10.69.25-16.03.41-2.98.09-5.8,1.36-8.81,1.1-3.24-.29-6.49-.53-9.71-.93-3.84-.48-7.61.38-11.42.38-15.09.01-30.2.45-45.27-.16-8.97-.37-17.98.32-26.93-.83-1.88-.24-3.71-.19-5.47.96-1.36.89-3.03,1.23-4.28-.55-.56-.79-1.5-.49-2.29-.5-4-.02-8-.01-12-.01-7.67,0-15.34.04-23.02-.02-2.47-.02-5.16.3-5.46-3.52-.09-1.18-2.17-1.37-2.76-2.89-1.93-4.96-4.11-9.81-6.19-14.71-.07-.16-.07-.38-.18-.5-2.42-2.55-2.8-5.81-3.48-9.08-1.2-5.76-3.42-11.26-4.65-17.05-1.3-6.1-2.3-12.26-4.18-18.25-2.23-7.11-2.57-14.61-3.83-21.92-1.55-8.92-1.22-18-1.91-26.98-.49-6.42-1.7-12.84-1.33-19.29.33-5.73.41-11.51,1.48-17.19.16-.88.12-1.82.06-2.72-.54-7.65.43-15.27.64-22.9.21-7.63.79-15.28,1.62-22.87.86-7.8-.01-15.6.54-23.36.53-7.44.43-14.92,1.97-22.31.88-4.19,1.17-8.58,1.15-12.88-.02-4.63.65-9.2.66-13.81.02-4.89-.38-9.76-.52-14.64-.23-8.13.43-16.26.88-24.38.15-2.72-.67-5.38-.73-8.13-.32-15.24,1.31-30.46.58-45.68-.4-8.24-.15-16.46-.33-24.69-.07-3.25-2.11-6.27-1.57-9.73,1.32-8.53,1.12-17.13,1.17-25.72.04-6.91-.03-13.81-.07-20.72,0-1.21-.11-2.47,1.39-2.85,1.28-.32,2.23-.02,3.28,1.12,6.31,6.9,13.95,10.13,23.59,9.85,9.71-.27,19.15-1.6,28.7-3.18,7.43-1.23,14.95-2.46,22.51-2.99,1.65-.12,2.48-.91,2.5-2.56.12-6.96-1.81-13.02-7.31-17.72-4.3-3.67-8.81-6.9-14.24-8.68-.4-.13-.74-.46-1.55-1Z"/><path d="m850.01,42.13c.37,2.65,1.44,4.75,1.11,6.99-.17,1.17-.34,2.63-1.74,3.1-1.4.47-2.39-.46-3.33-1.36-.5-.48-.58-1.38-1.87-1.48,0,.77.08,1.54-.01,2.28-.5,3.77-2.46,4.7-5.82,2.99-3.98-2.01-6.2-5.67-8.77-9.01-.87-1.13-1.56-2.4-2.45-3.53-.84-1.07-1.19-2.97-2.71-2.97-2.68,0-5.34.41-7.42,2.59-5.67,5.91-6.8,19.76-2.15,26.53,4.79,6.97,9.05,14.31,13.79,21.32,1.9,2.82,2.27,6.02,3.28,9.05,2.46,7.35,6.5,13.97,9.64,21,5.3,11.9,9.31,24.3,14.02,36.44,2.47,6.35,5.87,12.26,8.28,18.66,4.83,12.85,9.32,25.82,13.29,38.94,3.03,10.02,7.17,19.58,10.67,29.39,1.33,3.73,1.68,7.53,2.1,11.33.82,7.39,1.42,14.81,3.01,22.1.42,1.92.41,3.92.68,5.89,1.52,10.74.58,21.55-.04,32.27-1.38,23.9-7.63,46.73-16.5,68.89-.23.58-.65,1.18-.62,1.75.43,7.51-3.6,13.75-5.83,20.5-3.65,11.08-9.79,21-14.9,31.39-2.77,5.63-5.06,11.54-9.48,16.23-1.99,2.1-3.77,4.41-6.05,6.22-5.69,4.52-10.23,10.35-16.27,14.46-2.17,1.47-4.43,2.8-6.66,4.18-2.56,1.58-5.15.04-7.68-.14-1.37-.1-2.42-.04-3.51.65-4.16,2.63-8.68,3.29-13.58,3.51-6.8.31-13.49-.5-20.22-.79-2.83-.12-5.64-.71-8.51-.47-1.95.16-3.82.33-5.01-2.04-.48-.96-1.94-2.15-3.65-1.29-.44.22-1.02.13-1.47-.36-5.61-6.13-11.78-11.69-15.84-19.22-3.66-6.79-6.11-14.02-9.27-20.98-1-2.2-1.83-4.41-2.56-6.69-.51-1.6-.37-2.69.99-3.77,6.41-5.07,10.99-11.95,16.97-17.47,1.74-1.6,2.64-4.07,4.14-5.97,2.08-2.64,3.43-2.4,5.23.43,1.14,1.79,1.64,3.87,3.14,5.54,2.73,3.03,6.25,3.98,9.94,4.14,9.43.42,18.73-.66,27.68-3.8,4.08-1.43,7.43-3.98,10.35-7.24,1.87-2.08,4.13-3.82,6.31-5.6,5.23-4.27,9.27-9.87,11.5-15.8,3.2-8.5,7.58-16.75,8.71-25.96.65-5.35,1.53-10.68,1.78-16.09.68-14.64,1.71-29.26,1.41-43.92-.17-8.4-.61-16.82-1.31-25.19-.64-7.62-2.75-14.99-4.39-22.45-1.97-8.92-3.58-17.93-5.21-26.93-1.76-9.68-3.22-19.42-5.09-29.08-.7-3.61-2.68-6.85-4.72-9.92-3.72-5.62-7.71-11.06-11.32-16.74-1.53-2.42-3.94-3.79-5.83-5.74-3.65-3.77-7.17-7.62-9.53-12.24-2.88-5.65-6.73-10.48-11.35-14.66-4.66-4.21-7.5-9.35-9.31-15.26-1.35-4.4-4.82-7.7-6.47-12.01-2.88-7.54-6.37-14.87-7.85-22.88-.44-2.38-.99-4.75-.99-7.2,0-4.61-.07-9.2-.51-13.81-.89-9.24,1.9-17.7,5.61-26.1,2.45-5.55,6.32-9.58,10.55-13.51,8.47-7.87,17.97-13.99,29.42-16.51,4.81-1.06,9.64-2.08,14.65-2.09,4.68,0,9.34-.65,13.9-1.75,7.71-1.87,14.39.63,20.72,4.69,1.67,1.07,3.27,2.26,4.9,3.4,1.04.73,2.15,1.42,1.94,2.98-.08.59.18,1.23.72,1.33,2.35.41,1.94,1.91,1.44,3.45-.68,2.11.02,4.08.56,6.08,1.42,5.21,2.26,10.5,2.2,15.91,0,.8-.08,1.54-.43,2.35-1.45,3.41-1.66,3.55-4.73,1.86-.46-.25-.95-.46-1.69-.81Z"/><path d="m223.35,434.15c1.46-3.32,2.93-6.63,4.39-9.95,3.86-8.77,6.19-18.02,8.89-27.18,1.29-4.38,1.6-8.65,1.48-13.04-.25-9.25.68-18.46.69-27.71,0-5.74-1.19-11.26-1.81-16.87-.58-5.2-.96-10.4-1.05-15.64-.27-14.64-2.28-29.2-1.77-43.89.12-3.53.33-7.35-.55-10.77-.93-3.64.66-6.96.16-10.42-.21-1.46.47-1.73,1.84-1.84,9.59-.77,19.2-1.37,28.76-2.63,4.47-.59,9.02-1.24,13.49-1.01,4.42.23,8.85.17,13.25.49,2.71.2,4.97,2.08,7.37,3.27,4.56,2.25,8.24,5.53,11.93,9.23,5.52,5.53,7.39,12.77,11.5,18.85,4.13,6.13,6.88,12.99,9.38,19.91,2.51,6.94,6.93,12.72,10.97,18.73,1.99,2.95,3.84,5.99,5.22,9.22,1.04,2.44,2.94,4.17,4.18,6.41.65,1.17,1.74,1.27,2.23-.32.39-1.27.94-2.59.91-3.88-.1-3.9.78-7.72.66-11.64-.22-6.77.72-13.52.9-20.26.17-6.25-.22-12.58-1.49-18.79-.56-2.72-.4-5.53-.76-8.31-.81-6.29-3.79-11.16-8.17-15.41-1.61-1.56-3.35-3-5.19-4.65,2.2-1.46,4.65-.73,6.85-1.27,5.96-1.46,12.09-.17,18.14-.62,10.74-.79,21.31,1.24,31.94,2.13,4.94.42,9.88.71,14.82,1.15,2.95.27,5.9.61,8.8,1.15,1.13.21,1.93,1.01,1.48,2.61-1.88,6.7-3.27,13.54-4.85,20.31-2.19,9.4-3.5,19-5.27,28.5-.78,4.14-1.99,8.2-2.65,12.35-1.17,7.29-1.94,14.64-2.92,21.95-1.15,8.6-1,17.16-.84,25.73.11,5.99.56,12.01,1.83,17.95.69,3.23.69,6.64.77,9.97.18,7.04,1.32,13.98,2.19,20.93,1.51,12.12,4.07,24.05,7.21,35.86.32,1.19.24,1.56-1.03,1.78-2.92.51-5.8,1.18-8.81,1.09-3.9-.11-7.79.28-11.68.41-5.32.17-10.67-.43-16.01-.68-6.43-.3-12.88-.37-19.28-.91-5.8-.49-11.59-.47-17.38-.47-1.24,0-1.66-.32-1.76-1.66-.42-5.83-.71-11.7-1.6-17.47-1.49-9.68-1.43-19.49-3.11-29.17-.95-5.45-2.82-9.73-7.17-13.25-5.49-4.44-10.25-9.76-16.25-13.61-.57-.37-1.07-1.25-1.85-.68-.58.42-.16,1.17-.11,1.79.32,3.61.65,7.22.87,10.83,1.16,19.33.67,38.69.76,58.03.02,4.87,0,5.03-4.87,4.58-5.09-.48-10.14-1.33-15.2-2-3.32-.44-6.68-.29-10.02-.54-6.21-.46-12.24-1.73-18.31-2.88-4.65-.88-9.27-2-13.94-2.69-5.35-.8-9.28-3.89-13.23-7.21-3.01-2.53-5.9-5.24-9.58-6.93-2.14-.98-3.72-.9-5.31,1.03Z"/><path d="m309.82,48.71c3.81-.52,6.84.07,9.89-.1,5.31-.3,10.52-1.29,15.76-1.99,3.6-.48,7.19-.21,10.8-.68,4.18-.55,8.33-1.27,12.48-1.97,2.95-.5,5.96-.7,8.86-.76,6.1-.12,11.87-1.86,17.83-2.6.62-.08,1.24-.27,1.86-.26,10.16.11,20.29-1.03,30.45-.51,1.92.1,2.5-.66,3.14-2.28,2.48-6.29,4.42-12.8,8.14-18.58,2.5-3.88,5.07-5.23,9.62-4.38,2.55.48,5.19,1.22,7.71.97,7.15-.69,12.96,3.57,19.57,4.76,13.55,2.43,24.5,9.98,35.28,17.86,1.62,1.19,1,2.82.8,4.22-.56,3.96-.84,7.83.45,11.73.59,1.8.17,3.75.26,5.63.46,10.03-1.45,19.91-1.89,29.88-.17,3.79.06,7.61.26,11.41.13,2.43-.75,4.43-2.28,6.11-5.45,5.97-11.46,11.13-19.18,14.17-4.77,1.88-9.2,4.61-13.81,6.89-1.2.6-.89,1.14-.17,1.8,6.44,5.84,11.81,12.7,18.25,18.6,5.61,5.14,11.77,10.09,14.59,17.65.21.57.69.96,1.21,1.37,4.92,3.88,6.95,9.37,7.27,15.28.47,8.83-.51,17.62-2,26.35-.65,3.78.44,7.56.48,11.36.02,1.83.33,3.73-.79,5.41-4.47-2.74-7.61-6.91-11.77-9.98-8.55-6.3-17.84-8.07-28.01-5.95-1.42.3-2.23-.16-3.17-.8-2.55-1.75-4.92-3.73-7.12-5.91-3.93-3.9-8.99-6.5-12.58-10.79-3.71-4.44-7.35-8.94-11.02-13.42-.34-.42-.58-.97-.99-1.29-7.99-6.12-14.34-14.18-22.99-19.53-.3-.18-.66-.25-1.51-.55.78,3.65.26,7.16,2.2,10.3,2.37,3.83,3.13,8.42,5.57,12.23,3.19,4.98,4.4,10.96,8.03,15.74,1.21,1.6,2.64,2.88,4.24,4.39-2.92.26-5.65.68-8.39.7-8.86.09-17.75.46-26.57-.12-5.65-.37-11.24-.14-16.78.29-6.27.48-12.53.55-18.76.3-5.79-.24-11.61.84-17.29-.02-6.21-.94-12.28.54-18.41.13-1.9-.13-3.71.64-5.65.61-1.78-.03-2.33-.69-1.99-2.25.92-4.37,1.83-8.75,3.29-12.99,2.24-6.5,1.99-13.02.26-19.56-1-3.79-2.64-7.24-5.07-10.39-1.05-1.37-1.28-3.23,1.09-4.14,1.26-.48,2.37-1.41,3.65-1.82,4.93-1.6,5.78-5.75,5.97-9.97.27-6.08.23-12.18.01-18.27-.13-3.69-1.41-7.33-3.01-10.53-1.06-2.13-3.86-3.4-5.72-5.26-1.47-1.47-3.11-2.87-4.93-3.85-2.76-1.48-2.37-3.63-1.74-5.91,1.1-3.96,3.4-7.37,5.42-10.85,2.57-4.42,2.68-9.25,3.34-14.02.12-.89,0-1.82.02-2.72.09-7.22.81-14.56-4.45-21.12Zm126.4,11.49c-8.41.46-16.39,1.49-24.12,3.9-2.38.74-4.1,2.55-4.95,4.96-.37,1.05,1.59,5.87,2.5,6.75,5.65,5.47,12.74,7.51,20.27,8.14,2.17.18,4.11,1.76,6.34.97,5.76-2.04,11.3-4.45,15.74-8.88,3.22-3.21,2.33-10.24-1.76-12.17-4.53-2.14-9.3-3.51-14.02-3.66Z"/><path d="m456.58,212.89c-5.47,1.21-8.97,4.48-12.47,7.8-2.94,2.78-6.02,5.4-9.06,8.08-2.61,2.3-4.42,5.23-6.33,8.06-.76,1.13-1.57,1.93-2.93,2.03-.57.04-1.15.1-1.41.65-1.63,3.49-4.56,2.19-7.08,1.82-5.18-.77-10.32-1.61-15.53-.31-.6.15-1.27.04-1.9.04-6.42,0-12.85.14-19.27-.03-8.14-.22-16.28-.93-24.42-.98-6.13-.04-12.28.47-18.4.98-21.59,1.83-43.23.65-64.83,1.36-12.08.4-24.15-.1-36.22.37-3.46.13-4.53-.91-4.56-4.41-.08-10.16-.47-20.32-.71-30.48-.22-9.43.54-18.86.03-28.25-.47-8.67-.18-17.37-1.03-26.02-.41-4.21-1.32-8.41-.98-12.63.25-3.16.65-6.32.45-9.48-.77-11.64-1.43-23.27-4.07-34.71-1.34-5.82-2.08-11.79-2.78-17.74-.75-6.39-3.49-12.16-5.18-18.25-1.05-3.79-3.21-6.51-6.46-8.53-.46-.29-.91-.6-1.31-.96-2.18-2-1.95-2.78.25-4.75,11.55-10.3,25.92-14.77,40.04-19.95,11.46-4.2,23.52-5.87,35.16-9.22,8.61-2.48,17.32-4.21,26.17-5.48,9.77-1.39,19.55-2.42,29.37-3.36,9.99-.96,19.88.12,29.81.27,5.01.08,10.09.5,15.08,1.09,6.06.72,12.14,1.33,18.2,1.87,4.65.42,9.28,1.23,14.11,1.36-1.39,4.12-2.74,8.22-4.17,12.29-.57,1.63-.66,3.19.12,4.72.8,1.59.33,2.15-1.38,2.26-7.84.54-15.66,1.26-23.55.46-3.38-.34-6.75.71-10.12,1.16-3.29.44-6.51,1.36-9.86,1.36-11.37.02-22.57,1.91-33.85,2.93-9.4.85-18.79,1.73-28.18,2.67-3.14.31-6.29.72-9.39,1.29-2.91.53-3.23,1.34-2.38,4.09,1.6,5.21,4.66,9.94,5.43,15.36.58,4.04,1.16,8.15.5,12.31-.38,2.4-.29,4.88-.28,7.32.01,3.67-1.93,6.77-3.46,9.75-3.22,6.28-6.23,12.75-10.8,18.26-.43.52-1.51.85-1,1.67.49.79,1.58,1.13,2.44.65,4.16-2.31,8.56-1,12.86-.96,2.83.03,5.63.02,8.41-.48,1.96-.35,2.92.58,3.17,2.34,1.18,8.31,2.57,16.58,2.15,25.04-.12,2.41-.63,2.83-2.98,2.28-4.49-1.05-9.03.21-13.54.44-3.41.17-6.8.75-10.25.45-1.68-.15-3.89-.59-4.57,1.35-.61,1.77.45,3.69,1.73,5.11,1.01,1.13,2.24,2.11,3.49,2.97,3.7,2.52,5.9,6.13,7.62,10.12,1.35,3.12,2.69,6.24,4.16,9.31,2.35,4.91,1.14,9.98.48,14.9-.74,5.46-1.57,10.96-3.37,16.25-.6,1.76.86,3.5.67,5.46-.07.72,2.05,1.17,2.82,2.23.16.21.78.38.94.26,3.01-2.49,6.64-.99,9.93-1.37,3.44-.4,7.05-.64,10.53.36.59.17,1.27.11,1.9.04,6.5-.71,12.98.53,19.42.39,10.92-.25,21.86.51,32.79-.77,5.91-.7,11.98,0,17.97-.1,8.68-.16,17.36.29,26.05-.46,5.74-.5,11.54-.16,17.29-1.15,2.6-.45,5.16.85,7.52,1.74,3.64,1.37,7.02,3.45,10.98,5.48Z"/><path d="m797.86,270.12c0,4.28-.06,8.18.01,12.08.25,13.99-1.5,27.9-1.45,41.88,0,1.09.13,2.17.17,3.25.07,1.9.47,3.27,2.92,3.26,1.33,0,1.76,1.98,3.44,2.16,4.13.45,8.24,1.03,12.4.99,1.95-.01,3.76.14,5.42,1.31.88.61,1.95,1.04,3.08.88,1.96-.28,2.15.94,1.9,2.32-1.23,6.67-2.45,13.33-4,19.94-1.99,8.47-7.2,15.13-11.53,22.3-2.42,4-5.31,7.67-8.28,11.3-1.92,2.34-2.19,5.76-5.17,7.57-5.7,3.47-11.84,5.64-18.34,6.99-5.12,1.06-10.21,2.44-15.46,1.03-2.18-.58-3.17-2.81-4.76-4.19-1.08-.93-1.36-3.08-.56-4.83.18-.4.27-.86.29-1.31.56-11.29,1.58-22.62.43-33.88-.37-3.62-.93-7.23-.93-10.88.01-9.34-1.7-18.52-2.59-27.78-.05-.53-.21-1.06-.41-1.56-3.76-9.27-6.17-18.99-9.29-28.47-3.35-10.16-6.38-20.42-9.56-30.64-.56-1.8-.95-3.6-1.15-5.49-.41-3.85-2.95-6.74-5.25-9.48-3.99-4.75-7.69-9.68-11.07-14.86-1.48-2.28-1.04-5.96.84-7.73,4.14-3.9,7.39-8.45,10.6-13.15,8.91-13.02,16.3-26.98,25.3-39.93,2.45-3.53,5.89-6.27,7.92-10.18.87-1.68,1.76-3.36,2.11-5.16.64-3.29,3.42-5.03,5.11-7.55.59-.89,2.36-.77,3.45.13,3.06,2.53,6.28,4.81,9.92,6.42,2.31,1.03,3.87,2.95,5.59,4.67,5.73,5.72,9.53,12.8,13.73,19.6,2.79,4.52,5.92,8.83,8.06,13.75,1.15,2.66-.51,4.3-1.79,5.97-1.29,1.68-2.87,1.07-4.56.07-2.56-1.52-7.85,1.86-7.54,4.82.72,7.1-.14,14.23.53,21.31.32,3.34.44,6.67.57,10.01.08,1.91,1.05,2.82,3.08,2.05,3.76-1.42,7.37-.63,10.88.92.46.2,1.02.66,1.12,1.1.69,3.01,2.86,5.6,2.7,8.83-.24,4.78.76,9.64-.64,14.33-1.03,3.45-2.62,6.72-4.64,9.71-1.53,2.26-3.28,2.2-5.53.8-2.28-1.42-3.96-3.73-7.07-4.73Z"/><path d="m500.75,281.65c1.71,2.88.53,5.82.15,8.66-.61,4.53-1.59,9-1.52,13.63.12,8.03-.54,16.01-2.08,23.92-.55,2.81-.13,5.73-.49,8.63-.65,5.26-1.98,10.58-1.14,15.88.87,5.49.41,11.01.78,16.5.27,4.1.44,8.32.41,12.49-.03,3.98.83,8.02,1.05,12.07.3,5.63.95,11.24,1.55,16.85.29,2.75.6,5.53,1.29,8.19,1.03,3.94.62,8.11,2.03,11.95.53,1.43-.49,1.57-1.28,2.11-12.16,8.28-25.99,12.53-39.85,16.8-5.3,1.63-10.66,3.02-16.06,4.12-4.3.88-8.83.18-13.16,1.28-.78.2-.96-.78-1.11-1.3-1.16-4.03-2.34-8.03-2.88-12.23-.52-4.07-1.62-8.06-2.36-12.11-1.32-7.21-2.94-14.37-3.61-21.7-.61-6.65-.73-13.33-1.14-19.98-.42-6.86-.89-13.72-.89-20.58,0-5.94,1.01-11.81,1.93-17.68.56-3.56-.1-7.2.61-10.81.83-4.21,1.2-8.52,1.73-12.78.56-4.54.97-9.1,1.64-13.62,1.06-7.23,1-14.54,1.62-21.8.19-2.22,2.23-3.39,3.07-5.3.41-.93,1.57-.72,2.33.62,2.59,4.56,6.39,8.15,11.03,10.32,4.48,2.09,9.36,3.25,14.43,3.79,4.39.46,8.55.03,12.8-.65,2.48-.4,4.58-1.57,6.65-2.81,5.59-3.37,11.79-5.67,16.93-9.82,1.88-1.52,3.23-3.69,5.54-4.63Z"/><path d="m467.16,222.57c8.68-.56,16.81,2.09,23.75,6.87,4.7,3.23,7.96,8.56,8.45,14.74.48,6.05-.48,12.09-.68,18.14-.14,4.29-2.64,8.27-4.43,12.19-.89,1.94-3.17,3.37-5.06,4.7-5.88,4.14-12.17,7.57-19.15,9.46-2.52.68-5.08,1.25-7.9.53-2.91-.75-6.13-.31-9.07-1-7.29-1.72-12.26-6.67-16.5-12.55-3.62-5.02-4.73-10.61-5.55-16.69-1.3-9.66,2.24-16.84,8.66-23.43,5.47-5.61,11.67-9.88,19.2-12.09,2.66-.78,5.39-1.36,8.28-.86Z"/><path d="m592.3,33.03c-5.68.65-10.91,1.2-16.13,1.86-6.86.87-13.71,1.76-20.55,2.76-7.41,1.08-14.85.92-22.03-.9-8.59-2.18-13.84-8.51-17.89-16.11-2.24-4.2-1.52-8.33.05-12.11,1.28-3.07,4.75-4.11,8.08-4.74,9.22-1.73,18.26-.64,27.32,1.31,5.1,1.1,10.14,2.36,15.02,4.17,7.9,2.94,15.45,6.61,21.51,12.63,2.34,2.32,4.11,5.21,4.06,8.77-.01.81.21,1.56.57,2.36Z"/><path d="m678.84,123.24c2.21-.03,4.18-.1,5.12,2.09,1.27,2.97,2.78,6.01.95,9.22-2.4,4.22-5.19,4.91-9.42,2.56-1.33-.74-2.81-1.35-3.91-2.35-2.98-2.69-1.79-8.39,1.12-9.8,2-.97,4-2.25,6.14-1.72Z"/><path d="m420.78,69.35c3.02-.09,5.13.4,7.22,1.03,1.68.51,2.55,1.49,2.48,3.37-.07,1.81-1.23,2.72-2.61,3.05-4.79,1.16-9.46.66-13.97-1.43-1.16-.54-1.73-1.37-1.68-2.51.05-1.16.78-1.99,1.89-2.44,2.41-.99,4.98-.77,6.67-1.06Z"/></g></svg>