<?xml version="1.0" encoding="UTF-8"?><svg id="Layer_2" xmlns="http://www.w3.org/2000/svg" viewBox="0 0 881.37 490.87"><g id="Layer_1-2"><path d="m150.77,481.82c-6.25,0-12.51.22-18.75-.04-18.98-.78-37.97-.62-56.95-.45-18.62.16-37.24.42-55.84,1.18-5.23.21-10.14-1.95-15.31-1.01-.71.13-1.26-.27-1.61-.8-1.48-2.21-2.65-4.56-2-7.3.26-1.09.32-2.14.32-3.22,0-7.36-.54-14.77.13-22.08,1.15-12.53,1.29-25.07,1.69-37.62.24-7.52.45-15.05.23-22.54-.14-5.09-1.01-10.21-1.06-15.33-.04-4.05.53-8.1.84-12.15.04-.54.31-1.07.28-1.6-.39-6,.68-11.94.72-17.93.09-12.52-1.24-24.98-1.53-37.49-.28-12.35-.28-24.71-.45-37.06-.19-12.89-1.36-25.79-.54-38.65.79-12.45.34-24.88.55-37.32.2-11.7-.68-23.37-1.39-35.04-.12-2.03.56-3.88.61-5.88.23-10.45-1.2-20.89-.54-31.32.58-9.21.88-18.41,1.17-27.63.13-4.05.27-8.12.37-12.18.23-9.19.83-18.4.42-27.57-.31-7.03-.47-14.05-.65-21.07-.16-6.24.4-12.46.45-18.69.04-5.01,3.22-7.6,7.6-6.52,7,1.72,14.18.15,21.29-.09,6.53-.22,13.09-.3,19.61.02,5.35.27,10.63-.37,15.94-.51.45-.01.89-.23,1.33-.22,9.63.23,19.26-1.25,28.86-.46,6.81.56,13.59.32,20.39.43,7.6.13,15.18-.65,22.75-.92,11.36-.41,22.8.06,33.72,3.84,11.04,3.83,20.05,10.24,25.29,21.09,3.27,6.76,7.68,12.89,10.08,20.15,2.37,7.17,5.29,14.16,7.6,21.36.55,1.72.54,3.6.62,5.31.22,4.7,1.03,9.38,1.11,14.03.16,9.8,1.11,19.59.66,29.4-.41,8.98.7,17.94.05,26.92-1.16,16.13-.11,32.3-.72,48.44-.25,6.61-.1,13.22-.43,19.82-.61,12-1.26,23.99-1.75,35.99-.32,7.81-.62,15.68-1.58,23.44-1.21,9.85-2.95,19.63-4.45,29.44-.88,5.75-1.71,11.5-2.57,17.25-1.01,6.8-2.08,13.6-3.12,20.4-.55,3.61-.81,7.33-1.09,11.01-.44,5.6-.65,11.22-.73,16.83-.05,3.91-.96,7.73-.74,11.66.36,6.43.34,12.88.48,19.3.2,8.96-.45,17.98-2.61,26.85-1.84,7.53-5.36,14.29-8.4,21.29-.28.66-.58,1.34-1.02,1.9-2.76,3.47-5.38,6.99-6.97,11.21-.7,1.87-2.19,3.35-3.75,4.6-4.82,3.87-7.19,9.68-11.41,14.05-2.05,2.13-3.95,3.75-7.17,3.5-3.34-.26-6.72-.06-10.08-.06ZM80.2,75.13c.91,2.31,1.4,4.95,1.13,7.48-.73,6.87-.29,13.77-.74,20.66-.54,8.18-.57,16.46.35,24.73.94,8.52,1.92,17.04,2.61,25.58.78,9.75,1.17,19.55,1.34,29.33.3,17.7-.16,35.41-.59,53.11-.21,8.9.37,17.79.52,26.68.3,17.8-.09,35.61.9,53.39.25,4.43.09,8.91.71,13.28.9,6.35.58,12.69.33,19.01-.35,8.77-1.2,17.52-1.83,26.28-.37,5.15-.71,10.3-1.08,15.44-.05.62-.41,1.4.18,1.78.85.55,1.2-.5,1.75-.86,4.68-3.09,8.71-7.08,13.66-9.77,1.79-.97,3.32-2.23,4.74-3.61,6.03-5.87,9.81-13.45,14.98-19.97.46-.58.38-1.22.31-1.81-.29-2.6.51-4.98,1.4-7.33.58-1.53.77-3.07.91-4.7.45-5.17.91-10.36,1.75-15.48,1.28-7.8,2.2-15.65,2.46-23.51.24-7.18,2.1-14.33.66-21.57-.05-.26-.03-.55.02-.81.8-4.26,1.14-8.55,1.07-12.89-.05-2.73-.35-5.51.07-8.17,1.48-9.36,1.34-18.84,1.88-28.24.59-10.14-1.47-20.34-.88-30.57.01-.18,0-.36-.02-.54-1.06-9.42-1.69-18.87-2.12-28.34-.19-4.34-.39-8.68-.83-13-.68-6.64-1.61-13.25-2.37-19.89-.73-6.42-1.46-12.82-3.02-19.11-1.66-6.69-3.55-13.32-5.19-20.02-1.53-6.22-6.62-10.7-9.22-16.47-.07-.15-.26-.24-.41-.34-7.7-5.18-15.71-9.59-25.43-9.75Z"/><path d="m639.91,153.65c1.24-1.37.87-2.85.61-4.13-.98-4.75-1.47-9.56-2.19-14.33-1.4-9.32-.44-18.65-.57-27.97-.05-3.11.66-6.24.52-9.43-.21-4.61-1.11-9.09-1.84-13.61-.07-.44-.24-.88-.26-1.33-.3-9.85-1.05-19.65-.38-29.57.43-6.31-.08-12.84-.91-19.24-.21-1.65-1.28-3.66.78-5.07.12-.08.11-.48.04-.68-2.13-5.89-.93-11.89-.51-17.84.1-1.39-.18-2.88.6-4.25,2.07-3.63,4.37-6.1,9.3-5.77,9.23.62,18.52.06,27.79.42,5.15.2,10.31.86,15.43.74,8.32-.19,16.63-1.03,24.95-1.5,2.9-.17,5.81-.05,8.72-.1,1.3-.02,1.85.58,1.73,1.82-.58,5.84-.39,11.73-1.76,17.53-1.14,4.79-1.78,9.71-2.57,14.58-1.61,10-1.95,20.21-5.04,29.97-.59,1.87-.95,3.91-.9,5.86.21,8.33-1.1,16.47-3.11,24.48-2.4,9.56-1.96,19.27-2.34,28.97-.34,8.43-1.56,16.84-1.86,25.29-.28,7.95-.63,15.88.28,23.86.56,4.89,1.35,9.77,1.76,14.68.25,3.01,1.02,5.98,1.62,8.95.91,4.53,1.87,9.06,2.8,13.59,1.15,5.57,1.98,11.2,3.57,16.68.12.43.22.9.17,1.34-.59,6.15,1.71,11.81,2.81,17.69,2.62,14.01,8.72,26.92,12.25,40.63,3.46,13.44,7.77,26.59,12.59,39.61,2.96,8,7.62,15.17,10.76,23.04,1.06,2.67,2.78,4.79,4.43,7,1.73,2.32,1.93,4.48.24,6.88-.65.92-1.31,1.94-1.09,3.24.12.69-.24,1.33-.77,1.66-3.87,2.41-5.73,6.66-9.04,9.66-11.51,10.43-23.65,19.59-38.89,24.03-6.41,1.87-12.68,4.27-18.85,6.92-5.57,2.39-11.5,3.66-17.31,5.33-.43.12-1.03.03-1.29.3-2.43,2.47-3.72.77-4.91-1.29-4.77-8.28-7.73-17.15-9.47-26.56-1.01-5.46-3.06-10.74-4.74-16.07-3.08-9.76-6.96-19.34-9.16-29.29-2.03-9.2-5.44-17.88-7.98-26.87-1.89-6.67-3.44-13.44-5.01-20.19-1.57-6.74-3.33-13.47-4.31-20.31-.43-2.96-1.58-5.29-2.98-7.67-2.66-4.53-3.48-9.55-3.96-14.66-.09-.95-.16-1.79-1.2-2.31-.81.9.21,2.29-1.3,3.63,1.21-5.01-.94-8.72-2.84-12.48-.36-.72-.53-1.93-1.79-1.63-1.11.26-1.15,1.23-1.14,2.18.01,6.64-.61,13.35.21,19.88.6,4.73-.34,9.56,1.21,14.2.72,2.14-.76,4.21-.71,6.42.11,5.54-.43,11.14.15,16.62.75,7.06.82,14.17,2.03,21.19.55,3.18.38,6.46.64,9.68.35,4.29,1.1,8.59.98,12.94-.13,4.86.56,9.61,1.59,14.38,1,4.66,1.23,9.48,1.15,14.29-.02,1.25-.61,1.7-1.58,2.17-10.18,5-20.79,7.77-32.26,7.85-10.9.07-21.75,1.82-32.69,1.57-3.28-.08-6.45-.26-9.19-2.51-.76-.62-1.09-1.04-1.3-2-1.98-8.94-1.33-18.2-3.54-27.13-.87-3.53-.23-7.35-.65-11.06-1.08-9.4-.95-18.96-1.99-28.3-1.58-14.25-1.82-28.46-1.95-42.73-.07-7.97-.41-15.94-.58-23.91-.18-8.37-.79-16.75-1.63-25.09-.71-7.09-1.12-14.18-1.65-21.27-.86-11.43-1.77-22.85-2.15-34.32-.15-4.47-.91-8.92-1.52-13.36-.33-2.42.54-4.65.87-6.95.93-6.57.83-13.09.03-19.66-.76-6.25-1.3-12.52-.32-18.84.69-4.43,1.37-8.9,1.48-13.36.2-7.88.66-15.75.72-23.64.06-6.75-.02-13.57,1.92-20.21.59-2.01,0-4.35.18-6.51.63-7.4.65-14.88,3.19-22.02,1.63-4.58,4.96-7.86,7.98-11.42.61-.71,1.42-.71,2.24-.71,1.55,0,3.09-.06,4.64,0,11.53.49,22.97-1.72,34.51-1.2,8.07.36,16.05-.94,24.06-1.65,5.44-.49,5.47-.44,5.43,4.91-.05,7.51,1.58,14.8,2.79,22.14,1.19,7.28,2.27,14.57,3.54,21.83,1.86,10.67,2.94,21.47,6.65,31.82,2.18,6.09,2.93,12.65,3.75,19.13.84,6.63,1.73,13.27,3.15,19.83,1.83,8.41,2.98,16.96,5.44,25.23.53,1.79,1.13,3.57,1.7,5.35Z"/><path d="m619.5,380.28c.78,5.34.54,10.55,1.05,15.67.6,5.96-.71,12.29,2.74,17.88.51.83,1.06,1.63,1.61,2.43.35.51,1.1.96,1.13,1.47.26,5.38,4.95,4.7,8.03,5.43,6.49,1.53,13.1.79,19.67-.21,3.39-.52,6.84-.35,10.27-.7,13.76-1.41,27.25-3.74,39.83-9.93,5.02-2.47,10.28-4.47,15.34-6.87,7.02-3.34,13.88-6.99,20.31-11.4,3.07-2.1,6.21-4.09,9.23-6.27,7.21-5.21,13.49-11.38,19.63-17.76,2.94-3.06,6.14-5.87,8.42-9.48,2.67-4.23,4.62-8.67,5.81-13.67,1.36-5.77,1.12-11.62,2.14-17.34,1.46-8.17-.35-16.15-.73-24.21-.19-3.97-.68-7.99-.61-11.9.11-6.82-1.39-13.15-3.52-19.46-1.55-4.58-5.14-7.41-8.69-10.28-.63-.51-1.48-.84-1.94-1.46-3.33-4.64-8.43-6.93-13.02-9.87-4.64-2.97-9.47-5.61-14.66-7.53-1.13-.42-1.97-1.22-2.74-2.17-2.52-3.11-4.89-6.34-7.33-9.48-1.96-2.52-1.69-6.29-2.7-9.39-2.12-6.5-1.82-13.39-3.85-19.96-1.17-3.79-.97-8.16-1.78-12.2-2.6-13.03-.73-26.22-1.59-39.3-.51-7.85,1.44-15.41,1.59-23.08.15-7.4,2.05-14.37,3.17-21.5,1.14-7.27,1.81-14.67,4.16-21.75.78-2.33.54-4.99.79-7.47.59-5.9,1.78-11.71,1.79-17.75,0-9.06,1.52-18.1,2.32-27.15.82-9.2,1.87-18.47,4.24-27.48.4-1.51,1.57-1.57,2.42-1.71,6.37-1.06,12.77-1.93,19.17-2.88,12.45-1.84,25-1.27,37.48-.96,13.15.33,26.32.52,39.45,1.13,10.51.49,20.9,2.78,31.16,5.3,1.84.45,2.38,2.01,2.29,3.51-.36,5.9.89,11.72.79,17.6-.12,6.92-2.8,12.72-7.91,17.36-1.65,1.51-2.88,3.42-4.93,4.56-3.3,1.84-6.91,2.06-10.47,2.12-6.26.1-12.48.23-18.35,2.76-4.95,2.13-10.04,3.92-13.96,8.01-3.41,3.56-4.45,8.02-4.98,12.47-.57,4.83-.57,9.7-2.24,14.38-.59,1.66-.44,3.6-.52,5.36-.22,4.88-1.58,9.57-2.01,14.42-.53,6.03-.32,12.08-1.17,18.1-.8,5.7.35,11.36,1.61,16.92,1.17,5.16,1.97,10.36,2.73,15.59,1.17,8.02,4.26,15.23,9.44,21.59,7.29,8.96,16.17,15.03,27.53,18.09,12.6,3.4,20.41,12.23,23.7,24.86,1.62,6.21,2.04,12.62,2.17,19.02.12,5.88,1.12,11.64,1.97,17.43.69,4.63.97,9.33,1.56,13.98.91,7.15,1.24,14.35,2.53,21.47.78,4.31,1.07,8.76,1.72,13.1.96,6.45.46,12.86.59,19.28.23,11.51-1.52,22.91-2,34.38-.41,9.81-2.23,19.34-4.94,28.71-2.89,10.03-6.2,19.88-10.69,29.39-3.74,7.92-7.62,15.73-11.77,23.43-2.42,4.49-6.18,8.08-8.31,12.73-2.39,5.21-7.23,7.65-11.83,10.22-6.63,3.7-13.54,6.68-21.17,7.88-6.45,1.01-12.85,1.84-19.4,1.16-3.86-.4-7.78-.19-11.66-.25-8.36-.12-16.69-.86-25.05-.73-7.71.12-15.42-.36-23.1-.99-3.47-.28-6.83.65-10.29.59-8.95-.14-17.93.33-26.85-.24-13.7-.87-27.4-.58-41.09-1.07-4.65-.17-9.4.14-14.06-.84-1.59-.34-3.39.44-5.09.42-4.06-.05-8.12.21-12.2-.44-4.01-.64-8.1.31-12.15.4-7.28.17-14.52-.45-21.77-.62-4.63-.11-9.18-1.76-13.43-3.76-2.03-.95-4.16-1.68-6.18-2.68-4.07-2.02-5.79-5.84-8.16-9.15-2.87-4-6.45-7.76-7.4-12.72-1.56-8.14-4.79-15.84-5.68-24.18-.58-5.46-1.76-10.9-2.86-16.32-.96-4.73-1.15-9.7-.85-14.58.13-2.05,1.93-1.81,3.08-1.28,3.82,1.76,7.86,1.76,11.9,1.83,4.73.08,9.46-.07,14.18.04,5.54.13,10.96-.73,16.39-1.67,9.18-1.59,18.2-3.72,26.95-6.93,1.18-.43,2.33-.93,3.64-1.46Z"/><path d="m319.98,76.07c-.14,11.5-.13,23-2.41,34.36-.45,2.27-.06,4.71-.12,7.07-.03,1.14.57,1.41,1.51,1.35,2.71-.15,5.45.4,8.13-.39,1.75-.51,3.4.32,5.11.43,5.64.33,11.22-1.44,16.81-.67,7.46,1.03,14.87-.37,22.29,0,2.45.12,4.5,1.06,5.93,3.56,4.32,7.6,9.37,14.66,16.07,20.44,2.05,1.77,3.88,3.84,5.53,6,5.85,7.67,14.03,12.85,20.77,19.56.76.75,2.02,1.41,1.78,2.56-.26,1.31-1.67.68-2.58.83-8.57,1.37-17.17,2.56-25.87,2.71-11.69.2-23.35,1.05-35.02,1.63-16.44.82-32.87.28-49.3-.17-5.68-.16-7.69,1.67-8.13,7.31-.45,5.8,1.22,11.25,1.88,16.87.72,6.16.54,12.32.02,18.46-.39,4.68-1.13,9.33-1.72,13.99-.12.91.2,1.3,1.15,1.37,4.02.31,8.07.47,11.99,1.59,1.34.38,2.01-1.14,3.43-1.12,11.12.13,22.27-.44,33.35.22,11.97.71,23.95.37,35.87,1.12,10.33.65,20.63.69,30.95,1,4.3.13,8.57,1.13,12.92,1.07.84-.01,1.7.53,2.52.89,1.48.65,1.26,1.9.31,2.51-3.38,2.18-5.26,5.77-8.14,8.43-1.75,1.63-3.11,3.79-4.99,5.32-4.92,4-7.45,9.28-9.01,15.26-1.46,5.61-1.57,5.62-7.29,4.57-5.14-.94-10.36-1.13-15.55-1.61-1.07-.1-2.13-.31-3.17-.54-9.32-2.04-18.64-1.26-27.96-.01-9,1.21-18.05,1.36-27.09,1.07-12.88-.42-25.51,1.08-37.91,4.43-15.75,4.25-31.84,7.18-47.44,12.02-6.11,1.89-12.55,2.88-18.19,6.18-.45.26-.84.39-.99-.28-.49-2.15-1.99,1.08-2.8-.57-.57-1.17-.73-2.32-.36-3.38,2.96-8.48,3.33-17.36,4.28-26.16.26-2.42,1.51-4.65,1.77-7.17.49-4.89,1.48-9.74,1.95-14.63.73-7.63.34-15.31.67-22.95.24-5.62,1.25-11.21,1.92-16.82.05-.45.18-.89.17-1.33-.11-13.35.66-26.69,1.49-39.99.67-10.73,1.25-21.49,2.32-32.2.39-3.87.43-7.9-.44-11.81-.17-.78-.1-1.63-.09-2.44.16-10.86-.91-21.68-1.29-32.53-.59-17.07-5.81-32.98-15.13-47.44-1.5-2.33-2.92-4.76-4.01-7.3-1.2-2.8-3.31-4.82-5.64-6.36-2.74-1.81-4.83-4.02-6.37-6.78-1.38-2.48-3.35-4.08-5.98-5.01-.65-.23-1.71-.31-1.42-1.56.27-1.18,1.19-.84,1.95-.95,4.74-.69,9.48.4,14.21,0,6.84-.59,13.58.63,20.36.89,9.33.35,18.32,2.85,27.58,3.46,6.04.4,12.08,1.03,18.13,1.07,21.18.13,42.36.04,63.53.06,5.33,0,10.63-.24,15.9-1.07,1.67-.26,3.1.77,4.9.68,3.91-.21,7.8-1.34,11.82-.25,1.65.45,3.59.34,5.38-.3,1.17-.42,2.55-.29,3.21.75.66,1.04.15,2.15-.47,3.38-3.07,5.99-7.67,11.19-9.29,17.96-.56,2.34-2.6,4.25-3.34,6.32-1.79,5.02-4.59,9.63-5.7,14.93-1.18,5.67-2.96,7.04-8.6,6.46-6.61-.68-13.19-.82-19.82-.45-4.17.23-8.36.04-12.54.04-3.42,0-3.63.2-3.66,3.73-.03,3.45,0,6.91,0,10.36Z"/><path d="m403.87,287.8c-3.39,9.6-3.43,18.74-4.32,27.69-.58,5.81,2.05,11.32,5.61,16.1.3.4.92.64.66,1.32-.08.05-.19.16-.23.14-5.94-3.58-12.52-2.67-18.93-2.58-3.77.05-7.41.77-10.44,3.58-1.38,1.28-3.48,1.76-5.24,2.63-4.68,2.33-6.8,7.8-5.53,12.89,1.15,4.6,3.83,8.39,5.73,12.58,3.96,8.7,11.25,14.48,17.58,21.02,7.15,7.38,12.95,15.61,18.3,24.28,3.07,4.97,3.06,10.33,3.3,15.86.38,8.72-1.36,16.72-6,24.16-4,6.41-8.12,12.73-12.53,18.85-2.92,4.06-6.37,7.75-10.53,10.54-6.27,4.21-12.87,8.03-20.02,10.43-4.63,1.56-9.7.81-14.55.04-.71-.11-1.39-.37-2.12-.23-5.67,1.08-11.45.39-17.12.93-11.18,1.07-22.3-.49-33.45-.34-6.98.09-13.96-.79-20.94-.73-9.69.08-19.37.7-29.06.96-4.17.11-8.38,1.75-12.7,1.97-6.39.32-12.73,1.52-19.19.5-3.07-.49-6.2-.03-9.33.33-5.51.64-10.9-.77-16.26-1.89-1.51-.32-3.02-.13-4.55-.56-2.45-.68-4.6-2.37-7.44-2.01-1.01.13-1.86-1.32-2.08-2.55-.28-1.54,1.19-1.16,1.84-1.4,9.05-3.37,13.98-10.72,18.3-18.7,1.23-2.28,2.39-4.63,3.89-6.73,3.76-5.28,5.87-11.18,7.14-17.47.53-2.63,4.93-3.99,8.04-3.58,8.28,1.12,15.58,5.33,23.56,7.11,9.16,2.05,18.37,2.15,26.77-3.23.15-.09.32-.17.49-.21,7.23-1.88,10.34-7.57,12.3-13.93,2.88-9.33,5.84-18.78,4.98-28.69-.63-7.31-4.21-13.58-9.94-18.17-2.11-1.69-5.32-1.94-7.94-3.05-9.22-3.92-18.9-6.95-27.04-13.02-7.18-5.35-11.7-12.54-13.33-21.41-1.01-5.49-1.87-11-1.7-16.63.06-1.92-.02-4.17.77-5.57,1.85-3.28,2-7.38,4.76-10.1,2.89-2.85,6.01-5.49,9.76-7.17,9.54-4.29,19.62-6.44,29.93-7.97,6.82-1.01,13.63-2.14,20.48-3,6.6-.83,13.13-2.06,19.8-2.47,7.16-.44,14.25-1.86,21.4-2.48,6.3-.55,12.64-.68,18.97-.84,6.87-.17,13.75.46,20.62-.05,3.38-.25,6.56.89,9.79,1.46,2.86.5,5.84.84,8.57.74,6.32-.22,12.26,3.66,19.17.65Z"/><path d="m316.4,229.68c0-5.58-.6-10.91.15-16.05.98-6.7-.63-12.91-1.93-19.25-.11-.53-.33-1.04-.41-1.57-.25-1.87-2.22-3.86-.35-5.57,2.11-1.93,4.5-3.39,7.72-3.44,9.72-.13,19.44.02,29.15-.05,11.88-.09,23.79.77,35.66-.45,7.84-.81,15.66-1.92,23.52-2.44,7.87-.52,15.67-1.65,23.49-2.58,2.56-.3,5.05-1.26,7.53-2.04,1.73-.54,2.2-1.64.67-2.93-1.92-1.61-3.1-3.74-4.39-5.8-1.12-1.77-2.35-3.28-4.41-4.24-2.71-1.26-3.52-4.41-5.4-6.55-1.86-2.12-3.8-4.14-5.77-6.14-9.61-9.78-18.48-20.19-26.16-31.56-7.08-10.49-12.52-21.88-16.3-33.92-1.64-5.24-1.88-10.98.05-16.49.8-2.3,1.82-4.43,1.16-7.19-.46-1.91,1.25-3.96,1.63-6.12,1.29-7.26,4.54-13.54,9.12-19.43,2.53-3.26,4.33-7.2,6.79-10.69,4.02-5.71,9.51-9.39,15.46-12.55,6.49-3.44,12.97-6.96,20.42-7.97.81-.11,1.63-.3,2.42-.24,14.06,1.02,28.12-.88,42.18-.08,10.8.61,21.61.36,32.42.34,3.64,0,7.27-.32,10.9.11.68.08,1.58-.25,1.89.66.25.76.33,1.58-.35,2.27-3,3.04-3.36,7.21-4.31,11-1.39,5.54-2.17,11.23-3.13,16.86-.53,3.08-.76,6.19-1.82,9.18-.57,1.6-1.24,2.74-3.07,2.82-5.04.21-9.4,2.73-14.04,4.24-3.65,1.19-7.42,1.92-11.01,3.27-7.42,2.79-11.97,8.69-16.07,15.03-.97,1.5-1.79,3.1-2.62,4.69-2.21,4.22-3.26,8.56-2.37,13.43,1.94,10.67,5.2,20.76,11.41,29.8,3.67,5.35,7.15,10.79,12.57,14.63,3.47,2.45,7.31,4.13,11.19,5.71,3.53,1.44,6.66,3.5,9.82,5.54.96.61.87,1.48.87,2.38,0,7.61.57,15.2.66,22.81.07,5.61,1.25,11.2,1.93,16.8.07.54.1,1.08.13,1.62.68,10.78.55,21.57.54,32.36,0,2.71.66,5.33.95,8,.38,3.61.44,7.26.66,10.89.05.87-.27,1.7-.95,2.03-.65.31-.98-.59-1.43-1-3.61-3.42-8.44-3.61-12.88-4.82-6.3-1.71-12.86-1.39-19.26-2.27-6.21-.85-12.52-.96-18.66-2.52-2.59-.66-5.39-.61-8.09-.66-5.36-.09-10.73.04-16.09-.04-9.82-.15-19.59-.86-29.26-2.66-.27-.05-.54-.06-.81-.05-11.25.52-22.42-1.74-33.67-1.09-8.16.47-16.32-.33-24.47,0-9.45.38-18.88.91-28.13,3.13-1.66.4-3.44-.18-5.41.84Z"/><path d="m386.1,341.82c1.84-.31,3.72,1.18,5.47,1.06,2.8-.18,5.25.77,7.86,1.13,4.28.58,8.53,1.68,12.89,1.13,9.12-1.16,18.27-.18,27.39-.59,3.59-.16,7.27.15,10.71-.21,11.05-1.18,22.29-1.38,32.98-5.14,3.61-1.27,7.4-2.25,11.18-2.76,4.89-.66,8.23-3.96,12.15-6.27,1.64-.97,3.17-1.77,5.15-2.02,1.64-.21,3.04-1.57,4.73-2.12,2.04-.65,2.88-.78,4.18,1.71,2.87,5.48,1.92,11.34,2.91,16.97,1.38,7.85,1.74,15.84,3.35,23.68.95,4.64,1.56,9.36,2.08,14.08.37,3.34,2.05,6.29,2.38,9.64.5,4.98,1.31,9.93,2.03,14.89.98,6.73,2.1,13.44,2.96,20.18.78,6.14,3.03,11.9,4.34,17.84,1.2,5.41,1.96,11.07,2.56,16.67.41,3.8,1.23,7.57,1.99,11.33.64,3.13-.31,4.23-3.34,3.36-1.28-.37-2.13-.41-3.05.71-1.08,1.32-2.6,1.47-4.2.94-2.25-.75-4.56-.93-6.93-.88-8.16.17-16.32-.48-24.46-.43-10.88.06-21.78.16-32.65.58-8.88.34-17.79.06-26.63,1.03-5.68.63-11.27,2.07-16.94,2.91-7.97,1.18-15.76,3.39-23.82,4.13-2.94.27-5.88.71-8.78,1.27-.86.17-1.55.59-2.03-.41-.45-.94-.7-2.01.23-2.74,5.82-4.59,8.7-11.42,12.97-17.17,6.21-8.37,10.48-17.9,13.29-27.86,2.17-7.7,3.76-15.75.61-23.77-.34-.88-.19-1.98-.14-2.97.3-6-1.01-11.6-4.26-16.66-1.12-1.75-1.28-3.77-2.03-5.61-3.02-7.46-8.03-13.33-14.5-18.03-.29-.21-.64-.41-.83-.69-3.23-4.98-8.48-8.19-11.74-13.03-1.79-2.67-3.81-5.31-4.98-8.47-1.94-5.19-1.31-7.73,4.86-7.4Z"/><path d="m416.72,304.13c.18-11.09,2.6-19.48,5.81-27.86,3.32-8.65,8.76-15.38,15.67-21.24,3.1-2.62,6.07-5.36,9.54-7.54,3.15-1.99,6.58-2.64,10.15-2.67,4.9-.05,9.81.22,14.7.33,3.63.09,7.39-.58,11.05-.33,8.82.61,17.6,1.5,25.13,6.98,3.72,2.7,6.23,6.23,7.87,10.39,2.66,6.72,4.97,13.68,5.22,20.85.19,5.55.62,11.13-1.42,16.87-2.19,6.18-6.26,9.41-11.46,12.33-4.2,2.36-7.91,5.65-12.22,7.76-7.21,3.52-14.87,6.06-22.6,8.19-7.29,2.01-14.66,3.87-22.34,3.9-2.93.01-5.69-.35-8.38-1.59-3.74-1.72-7.6-3.17-11.38-4.82-4.87-2.13-7.95-6.21-11.26-10.15-3.38-4.02-4.28-8.52-4.08-11.4Z"/></g></svg>