<svg width="881" height="491" xmlns="http://www.w3.org/2000/svg" xmlns:xlink="http://www.w3.org/1999/xlink" xml:space="preserve" overflow="hidden"><defs><clipPath id="clip0"><rect x="503" y="336" width="881" height="491"/></clipPath></defs><g clip-path="url(#clip0)" transform="translate(-503 -336)"><path d="M653.707 817.786C647.459 817.786 641.202 818.006 634.965 817.746 615.993 816.966 597.01 817.126 578.038 817.296 559.426 817.456 540.814 817.716 522.222 818.475 516.994 818.685 512.086 816.526 506.918 817.466 506.209 817.596 505.659 817.196 505.309 816.666 503.83 814.457 502.66 812.108 503.31 809.369 503.57 808.28 503.63 807.23 503.63 806.151 503.63 798.794 503.09 791.387 503.76 784.08 504.909 771.555 505.049 759.02 505.449 746.476 505.689 738.959 505.899 731.432 505.679 723.945 505.539 718.857 504.669 713.74 504.619 708.622 504.579 704.573 505.149 700.525 505.459 696.477 505.499 695.937 505.769 695.407 505.739 694.877 505.349 688.88 506.419 682.942 506.459 676.955 506.549 664.44 505.219 651.985 504.929 639.481 504.649 627.136 504.649 614.781 504.479 602.436 504.289 589.552 503.12 576.657 503.94 563.802 504.729 551.358 504.279 538.933 504.489 526.498 504.689 514.803 503.81 503.138 503.1 491.473 502.98 489.444 503.66 487.594 503.71 485.595 503.94 475.15 502.51 464.714 503.17 454.288 503.75 445.082 504.05 435.886 504.339 426.67 504.469 422.622 504.609 418.553 504.709 414.495 504.939 405.309 505.539 396.103 505.129 386.937 504.819 379.91 504.659 372.893 504.479 365.876 504.319 359.638 504.879 353.421 504.929 347.193 504.969 342.186 508.148 339.597 512.526 340.676 519.523 342.395 526.7 340.826 533.807 340.586 540.334 340.366 546.892 340.286 553.409 340.606 558.757 340.876 564.034 340.236 569.342 340.096 569.792 340.086 570.232 339.866 570.672 339.876 580.298 340.106 589.923 338.627 599.519 339.417 606.327 339.976 613.104 339.737 619.901 339.846 627.498 339.976 635.075 339.197 642.641 338.927 653.997 338.517 665.432 338.987 676.347 342.765 687.383 346.594 696.389 353.001 701.627 363.846 704.895 370.604 709.303 376.731 711.702 383.988 714.071 391.155 716.99 398.142 719.299 405.339 719.849 407.058 719.839 408.937 719.919 410.647 720.139 415.345 720.948 420.023 721.028 424.671 721.188 434.467 722.138 444.253 721.688 454.059 721.278 463.035 722.388 471.991 721.738 480.967 720.579 497.09 721.628 513.254 721.018 529.387 720.769 535.994 720.918 542.601 720.589 549.199 719.979 561.194 719.329 573.178 718.839 585.173 718.519 592.98 718.22 600.847 717.26 608.604 716.051 618.449 714.311 628.225 712.812 638.031 711.932 643.779 711.103 649.526 710.243 655.274 709.233 662.071 708.164 668.868 707.124 675.665 706.575 679.274 706.315 682.992 706.035 686.671 705.595 692.268 705.385 697.886 705.305 703.494 705.255 707.402 704.345 711.221 704.565 715.149 704.925 721.576 704.905 728.023 705.045 734.441 705.245 743.397 704.595 752.413 702.436 761.28 700.597 768.806 697.078 775.563 694.04 782.561 693.76 783.22 693.46 783.9 693.02 784.46 690.261 787.928 687.642 791.447 686.053 795.665 685.353 797.534 683.864 799.014 682.305 800.263 677.487 804.131 675.118 809.939 670.899 814.307 668.85 816.436 666.951 818.056 663.732 817.806 660.394 817.546 657.015 817.746 653.657 817.746ZM583.166 411.266C584.076 413.576 584.566 416.214 584.296 418.743 583.566 425.61 584.006 432.508 583.556 439.395 583.016 447.571 582.986 455.848 583.906 464.114 584.846 472.631 585.825 481.147 586.515 489.684 587.295 499.429 587.684 509.225 587.854 519.001 588.154 536.694 587.694 554.396 587.265 572.089 587.055 580.985 587.634 589.871 587.784 598.758 588.084 616.55 587.694 634.353 588.684 652.125 588.934 656.553 588.774 661.032 589.394 665.4 590.293 671.747 589.973 678.084 589.724 684.402 589.374 693.168 588.524 701.914 587.894 710.671 587.524 715.819 587.185 720.966 586.815 726.104 586.765 726.724 586.405 727.504 586.995 727.884 587.844 728.433 588.194 727.384 588.744 727.024 593.422 723.935 597.45 719.947 602.398 717.258 604.188 716.288 605.717 715.029 607.136 713.65 613.164 707.782 616.942 700.205 622.11 693.688 622.57 693.108 622.49 692.468 622.42 691.879 622.13 689.28 622.93 686.901 623.819 684.552 624.399 683.022 624.589 681.483 624.729 679.854 625.179 674.686 625.638 669.498 626.478 664.38 627.758 656.583 628.677 648.737 628.937 640.88 629.177 633.703 631.036 626.556 629.597 619.319 629.547 619.059 629.567 618.769 629.617 618.509 630.417 614.251 630.756 609.963 630.686 605.625 630.636 602.896 630.337 600.117 630.756 597.458 632.236 588.102 632.096 578.626 632.636 569.23 633.225 559.094 631.166 548.899 631.756 538.673 631.766 538.493 631.756 538.313 631.736 538.133 630.676 528.717 630.047 519.271 629.617 509.805 629.427 505.467 629.227 501.129 628.787 496.811 628.107 490.173 627.178 483.566 626.418 476.929 625.688 470.512 624.959 464.114 623.399 457.827 621.74 451.14 619.851 444.513 618.212 437.815 616.682 431.598 611.594 427.12 608.995 421.352 608.926 421.202 608.736 421.112 608.586 421.012 600.889 415.835 592.882 411.426 583.166 411.266Z" stroke="#FFFFFF" stroke-width="11.995"/><path d="M1142.64 489.754C1143.88 488.384 1143.51 486.905 1143.25 485.625 1142.27 480.877 1141.78 476.069 1141.06 471.301 1139.66 461.985 1140.62 452.659 1140.49 443.343 1140.44 440.234 1141.15 437.106 1141.01 433.917 1140.8 429.309 1139.9 424.831 1139.17 420.313 1139.1 419.873 1138.93 419.433 1138.91 418.983 1138.61 409.137 1137.86 399.341 1138.53 389.426 1138.96 383.118 1138.45 376.591 1137.62 370.194 1137.41 368.544 1136.34 366.535 1138.4 365.126 1138.52 365.046 1138.51 364.646 1138.44 364.446 1136.31 358.559 1137.51 352.561 1137.93 346.614 1138.03 345.224 1137.75 343.735 1138.53 342.365 1140.6 338.737 1142.9 336.268 1147.83 336.598 1157.06 337.218 1166.34 336.658 1175.61 337.018 1180.76 337.218 1185.91 337.877 1191.03 337.757 1199.35 337.567 1207.65 336.728 1215.97 336.258 1218.87 336.088 1221.78 336.208 1224.69 336.158 1225.99 336.138 1226.54 336.738 1226.42 337.977 1225.84 343.815 1226.03 349.702 1224.66 355.5 1223.52 360.288 1222.88 365.206 1222.09 370.074 1220.48 380.07 1220.14 390.275 1217.05 400.031 1216.46 401.9 1216.1 403.94 1216.15 405.889 1216.36 414.215 1215.05 422.352 1213.04 430.358 1210.64 439.914 1211.08 449.62 1210.7 459.316 1210.36 467.743 1209.14 476.149 1208.84 484.596 1208.56 492.542 1208.21 500.469 1209.12 508.446 1209.68 513.334 1210.47 518.212 1210.88 523.12 1211.13 526.128 1211.9 529.097 1212.5 532.066 1213.41 536.594 1214.37 541.122 1215.3 545.65 1216.45 551.218 1217.28 556.845 1218.87 562.323 1218.99 562.753 1219.09 563.223 1219.04 563.662 1218.45 569.81 1220.75 575.468 1221.85 581.345 1224.47 595.349 1230.56 608.254 1234.09 621.958 1237.55 635.392 1241.86 648.537 1246.68 661.551 1249.64 669.548 1254.29 676.715 1257.43 684.582 1258.49 687.251 1260.21 689.37 1261.86 691.579 1263.59 693.898 1263.79 696.057 1262.1 698.456 1261.45 699.375 1260.79 700.395 1261.01 701.695 1261.13 702.384 1260.77 703.024 1260.24 703.354 1256.37 705.763 1254.51 710.011 1251.21 713.01 1239.7 723.435 1227.57 732.592 1212.33 737.03 1205.92 738.899 1199.66 741.298 1193.49 743.947 1187.92 746.336 1181.99 747.605 1176.19 749.275 1175.76 749.394 1175.16 749.305 1174.9 749.574 1172.47 752.043 1171.18 750.344 1169.99 748.285 1165.22 740.008 1162.26 731.142 1160.52 721.736 1159.51 716.278 1157.47 711.001 1155.79 705.673 1152.71 695.917 1148.83 686.341 1146.63 676.395 1144.6 667.199 1141.19 658.523 1138.65 649.536 1136.76 642.869 1135.21 636.102 1133.65 629.355 1132.08 622.618 1130.32 615.891 1129.34 609.053 1128.91 606.095 1127.76 603.766 1126.36 601.387 1123.7 596.859 1122.88 591.841 1122.4 586.733 1122.31 585.783 1122.24 584.944 1121.2 584.424 1120.39 585.323 1121.41 586.713 1119.9 588.052 1121.11 583.044 1118.96 579.336 1117.06 575.578 1116.7 574.858 1116.53 573.648 1115.27 573.948 1114.16 574.208 1114.12 575.178 1114.13 576.127 1114.14 582.764 1113.52 589.472 1114.34 595.999 1114.94 600.727 1114 605.555 1115.55 610.193 1116.27 612.332 1114.79 614.401 1114.84 616.61 1114.95 622.148 1114.41 627.746 1114.99 633.223 1115.74 640.28 1115.81 647.387 1117.02 654.404 1117.57 657.583 1117.4 660.862 1117.66 664.08 1118.01 668.369 1118.76 672.667 1118.64 677.015 1118.51 681.873 1119.2 686.621 1120.23 691.389 1121.23 696.047 1121.46 700.865 1121.38 705.673 1121.36 706.922 1120.77 707.372 1119.8 707.842 1109.63 712.84 1099.02 715.609 1087.55 715.689 1076.66 715.759 1065.81 717.508 1054.88 717.258 1051.6 717.178 1048.43 716.998 1045.69 714.749 1044.93 714.129 1044.6 713.709 1044.39 712.75 1042.41 703.814 1043.06 694.557 1040.85 685.631 1039.98 682.103 1040.62 678.284 1040.2 674.576 1039.12 665.18 1039.25 655.624 1038.22 646.288 1036.64 632.044 1036.4 617.84 1036.27 603.576 1036.2 595.609 1035.86 587.642 1035.69 579.676 1035.51 571.309 1034.9 562.933 1034.06 554.596 1033.35 547.509 1032.94 540.422 1032.41 533.335 1031.55 521.91 1030.64 510.495 1030.26 499.03 1030.11 494.562 1029.35 490.113 1028.74 485.675 1028.41 483.256 1029.28 481.027 1029.61 478.728 1030.54 472.161 1030.44 465.644 1029.64 459.076 1028.88 452.829 1028.34 446.562 1029.32 440.244 1030.01 435.816 1030.69 431.348 1030.8 426.89 1031 419.013 1031.46 411.147 1031.52 403.26 1031.58 396.513 1031.5 389.696 1033.44 383.058 1034.03 381.049 1033.44 378.71 1033.62 376.551 1034.25 369.154 1034.27 361.677 1036.81 354.54 1038.44 349.962 1041.76 346.684 1044.78 343.125 1045.39 342.415 1046.2 342.415 1047.02 342.415 1048.57 342.415 1050.11 342.355 1051.66 342.415 1063.18 342.905 1074.62 340.696 1086.16 341.216 1094.22 341.576 1102.2 340.276 1110.21 339.567 1115.64 339.077 1115.67 339.127 1115.63 344.475 1115.58 351.981 1117.21 359.268 1118.42 366.605 1119.61 373.882 1120.69 381.169 1121.96 388.426 1123.82 399.092 1124.9 409.887 1128.61 420.233 1130.79 426.32 1131.54 432.877 1132.36 439.355 1133.2 445.982 1134.08 452.619 1135.5 459.176 1137.33 467.583 1138.48 476.129 1140.94 484.396 1141.47 486.185 1142.07 487.964 1142.64 489.744Z" stroke="#FFFFFF" stroke-width="11.995"/><path d="M1122.24 716.288C1123.02 721.626 1122.78 726.834 1123.29 731.952 1123.89 737.909 1122.58 744.237 1126.03 749.824 1126.54 750.654 1127.09 751.454 1127.64 752.253 1127.99 752.763 1128.74 753.213 1128.77 753.723 1129.03 759.1 1133.72 758.421 1136.79 759.15 1143.28 760.68 1149.89 759.94 1156.46 758.94 1159.84 758.421 1163.29 758.591 1166.72 758.241 1180.48 756.831 1193.96 754.502 1206.53 748.315 1211.55 745.846 1216.81 743.847 1221.87 741.448 1228.89 738.109 1235.74 734.461 1242.17 730.053 1245.24 727.953 1248.38 725.964 1251.4 723.785 1258.6 718.577 1264.88 712.41 1271.02 706.033 1273.96 702.974 1277.15 700.165 1279.43 696.557 1282.1 692.328 1284.05 687.89 1285.24 682.892 1286.6 677.125 1286.36 671.277 1287.38 665.56 1288.84 657.393 1287.03 649.417 1286.65 641.36 1286.46 637.392 1285.97 633.373 1286.04 629.465 1286.15 622.648 1284.65 616.32 1282.52 610.013 1280.97 605.435 1277.38 602.606 1273.84 599.737 1273.21 599.228 1272.36 598.898 1271.9 598.278 1268.57 593.64 1263.47 591.351 1258.88 588.412 1254.24 585.443 1249.42 582.804 1244.23 580.885 1243.1 580.465 1242.26 579.666 1241.49 578.716 1238.97 575.607 1236.6 572.379 1234.16 569.24 1232.2 566.721 1232.47 562.953 1231.46 559.854 1229.34 553.357 1229.64 546.47 1227.62 539.902 1226.45 536.114 1226.65 531.746 1225.84 527.708 1223.24 514.683 1225.11 501.499 1224.25 488.424 1223.74 480.577 1225.69 473.021 1225.84 465.354 1225.99 457.957 1227.89 450.99 1229.01 443.863 1230.14 436.596 1230.81 429.199 1233.16 422.122 1233.94 419.793 1233.7 417.134 1233.95 414.655 1234.54 408.758 1235.73 402.95 1235.74 396.913 1235.74 387.856 1237.26 378.82 1238.06 369.774 1238.88 360.578 1239.93 351.312 1242.3 342.305 1242.7 340.796 1243.87 340.736 1244.72 340.596 1251.09 339.537 1257.48 338.667 1263.88 337.717 1276.33 335.878 1288.87 336.448 1301.34 336.758 1314.49 337.088 1327.65 337.278 1340.78 337.887 1351.28 338.377 1361.67 340.666 1371.93 343.185 1373.76 343.635 1374.3 345.194 1374.21 346.694 1373.85 352.591 1375.1 358.409 1375 364.286 1374.88 371.203 1372.2 377.001 1367.1 381.639 1365.45 383.148 1364.22 385.057 1362.17 386.197 1358.87 388.036 1355.26 388.256 1351.7 388.316 1345.45 388.416 1339.23 388.546 1333.36 391.075 1328.41 393.204 1323.33 394.993 1319.41 399.082 1316 402.64 1314.96 407.098 1314.43 411.546 1313.86 416.374 1313.86 421.242 1312.19 425.92 1311.6 427.58 1311.75 429.519 1311.67 431.278 1311.45 436.156 1310.09 440.844 1309.66 445.692 1309.13 451.719 1309.34 457.767 1308.49 463.784 1307.69 469.482 1308.84 475.14 1310.1 480.697 1311.27 485.855 1312.07 491.053 1312.83 496.281 1314 504.297 1317.09 511.504 1322.27 517.862 1329.55 526.818 1338.43 532.885 1349.78 535.944 1362.38 539.343 1370.19 548.169 1373.47 560.794 1375.09 567.001 1375.51 573.408 1375.64 579.806 1375.76 585.683 1376.76 591.441 1377.61 597.228 1378.3 601.856 1378.58 606.554 1379.17 611.203 1380.08 618.349 1380.41 625.547 1381.7 632.664 1382.48 636.972 1382.77 641.42 1383.42 645.758 1384.38 652.205 1383.88 658.613 1384.01 665.03 1384.24 676.535 1382.49 687.93 1382.01 699.396 1381.6 709.201 1379.78 718.727 1377.07 728.093 1374.18 738.119 1370.88 747.965 1366.39 757.471 1362.65 765.388 1358.77 773.194 1354.62 780.891 1352.2 785.379 1348.44 788.968 1346.32 793.616 1343.93 798.824 1339.09 801.263 1334.49 803.832 1327.86 807.53 1320.96 810.509 1313.33 811.708 1306.88 812.718 1300.49 813.547 1293.94 812.868 1290.08 812.468 1286.16 812.678 1282.28 812.618 1273.93 812.498 1265.6 811.758 1257.24 811.888 1249.54 812.008 1241.83 811.528 1234.15 810.899 1230.68 810.619 1227.33 811.548 1223.87 811.488 1214.92 811.349 1205.94 811.818 1197.03 811.249 1183.33 810.379 1169.64 810.669 1155.96 810.179 1151.31 810.009 1146.56 810.319 1141.9 809.339 1140.31 808.999 1138.51 809.779 1136.81 809.759 1132.76 809.709 1128.7 809.969 1124.62 809.319 1120.61 808.68 1116.52 809.629 1112.47 809.719 1105.2 809.889 1097.96 809.269 1090.71 809.099 1086.09 808.989 1081.54 807.34 1077.29 805.341 1075.26 804.391 1073.13 803.662 1071.11 802.662 1067.04 800.643 1065.32 796.825 1062.95 793.516 1060.09 789.518 1056.51 785.759 1055.56 780.801 1054 772.665 1050.77 764.968 1049.88 756.631 1049.3 751.174 1048.12 745.736 1047.02 740.318 1046.06 735.59 1045.87 730.622 1046.17 725.744 1046.3 723.695 1048.1 723.935 1049.25 724.465 1053.07 726.224 1057.11 726.224 1061.15 726.294 1065.87 726.374 1070.6 726.224 1075.32 726.334 1080.86 726.464 1086.28 725.604 1091.7 724.665 1100.88 723.076 1109.9 720.946 1118.64 717.738 1119.82 717.308 1120.97 716.808 1122.28 716.278Z" stroke="#FFFFFF" stroke-width="11.995"/><path d="M822.846 412.206C822.706 423.701 822.716 435.196 820.437 446.552 819.987 448.821 820.377 451.26 820.317 453.619 820.287 454.758 820.886 455.028 821.826 454.968 824.535 454.818 827.274 455.368 829.953 454.578 831.702 454.069 833.351 454.898 835.061 455.008 840.698 455.338 846.276 453.569 851.864 454.338 859.32 455.368 866.727 453.969 874.144 454.338 876.593 454.458 878.642 455.398 880.072 457.897 884.39 465.494 889.438 472.551 896.135 478.328 898.184 480.098 900.013 482.167 901.663 484.326 907.51 491.993 915.687 497.17 922.424 503.878 923.184 504.627 924.443 505.287 924.203 506.437 923.943 507.746 922.534 507.116 921.624 507.266 913.058 508.636 904.461 509.825 895.765 509.975 884.08 510.175 872.425 511.025 860.76 511.604 844.327 512.424 827.904 511.884 811.48 511.434 805.803 511.274 803.794 513.104 803.354 518.741 802.904 524.539 804.573 529.987 805.233 535.604 805.953 541.762 805.773 547.919 805.253 554.057 804.863 558.735 804.124 563.383 803.534 568.041 803.414 568.95 803.734 569.34 804.683 569.41 808.702 569.72 812.75 569.88 816.668 570.999 818.008 571.379 818.677 569.86 820.097 569.88 831.212 570.01 842.357 569.44 853.433 570.1 865.398 570.81 877.373 570.47 889.288 571.219 899.613 571.869 909.909 571.909 920.225 572.219 924.523 572.349 928.791 573.348 933.139 573.288 933.979 573.278 934.839 573.818 935.658 574.178 937.138 574.828 936.918 576.077 935.968 576.687 932.59 578.866 930.71 582.455 927.832 585.113 926.082 586.743 924.723 588.902 922.844 590.431 917.926 594.43 915.397 599.707 913.837 605.685 912.378 611.292 912.268 611.302 906.551 610.253 901.413 609.313 896.195 609.123 891.007 608.644 889.938 608.544 888.878 608.334 887.838 608.104 878.522 606.065 869.206 606.844 859.89 608.094 850.894 609.303 841.848 609.453 832.812 609.163 819.937 608.744 807.312 610.243 794.917 613.592 779.174 617.84 763.091 620.768 747.497 625.606 741.39 627.496 734.953 628.485 729.315 631.784 728.865 632.044 728.475 632.174 728.325 631.504 727.836 629.355 726.336 632.584 725.527 630.934 724.957 629.765 724.797 628.615 725.167 627.556 728.125 619.079 728.495 610.203 729.445 601.407 729.705 598.988 730.954 596.759 731.214 594.24 731.704 589.352 732.694 584.504 733.163 579.616 733.893 571.989 733.503 564.312 733.833 556.675 734.073 551.058 735.083 545.47 735.752 539.862 735.802 539.413 735.932 538.973 735.922 538.533 735.812 525.189 736.582 511.854 737.412 498.56 738.081 487.834 738.661 477.079 739.731 466.373 740.12 462.505 740.16 458.477 739.291 454.568 739.121 453.789 739.191 452.939 739.201 452.129 739.361 441.274 738.291 430.458 737.911 419.613 737.322 402.55 732.104 386.647 722.788 372.193 721.288 369.864 719.869 367.435 718.779 364.896 717.58 362.097 715.471 360.078 713.142 358.539 710.403 356.729 708.314 354.52 706.774 351.761 705.395 349.283 703.426 347.683 700.797 346.754 700.147 346.524 699.088 346.444 699.378 345.194 699.647 344.015 700.567 344.355 701.327 344.245 706.065 343.555 710.803 344.644 715.531 344.245 722.368 343.655 729.105 344.874 735.882 345.134 745.208 345.484 754.195 347.983 763.451 348.593 769.488 348.993 775.526 349.622 781.573 349.662 802.744 349.792 823.915 349.702 845.076 349.722 850.404 349.722 855.702 349.482 860.97 348.653 862.639 348.393 864.068 349.422 865.868 349.332 869.776 349.123 873.664 347.993 877.683 349.083 879.332 349.532 881.271 349.422 883.06 348.783 884.23 348.363 885.609 348.493 886.269 349.532 886.929 350.572 886.419 351.682 885.799 352.911 882.731 358.898 878.132 364.096 876.513 370.863 875.953 373.202 873.914 375.112 873.175 377.181 871.385 382.199 868.586 386.807 867.477 392.105 866.297 397.772 864.518 399.142 858.881 398.562 852.273 397.882 845.696 397.742 839.069 398.112 834.901 398.342 830.712 398.152 826.534 398.152 823.116 398.152 822.906 398.352 822.876 401.88 822.846 405.329 822.876 408.788 822.876 412.236Z" stroke="#FFFFFF" stroke-width="11.995"/><path d="M906.7 623.847C903.312 633.443 903.272 642.579 902.382 651.526 901.802 657.333 904.431 662.841 907.99 667.619 908.29 668.019 908.91 668.259 908.65 668.938 908.57 668.988 908.46 669.098 908.42 669.078 902.482 665.5 895.905 666.409 889.498 666.499 885.729 666.549 882.091 667.269 879.062 670.078 877.683 671.357 875.583 671.837 873.824 672.707 869.146 675.036 867.027 680.503 868.297 685.591 869.446 690.189 872.125 693.978 874.024 698.166 877.983 706.862 885.269 712.64 891.597 719.177 898.744 726.554 904.541 734.781 909.889 743.447 912.958 748.415 912.948 753.773 913.188 759.3 913.568 768.017 911.828 776.013 907.19 783.45 903.192 789.857 899.074 796.175 894.666 802.292 891.747 806.351 888.298 810.039 884.14 812.828 877.873 817.036 871.275 820.854 864.128 823.253 859.5 824.813 854.432 824.063 849.584 823.293 848.875 823.183 848.195 822.924 847.465 823.064 841.798 824.143 836.02 823.453 830.353 823.993 819.177 825.063 808.062 823.503 796.917 823.653 789.939 823.743 782.962 822.864 775.985 822.924 766.299 823.004 756.623 823.623 746.938 823.883 742.769 823.993 738.561 825.632 734.243 825.852 727.856 826.172 721.518 827.372 715.061 826.352 711.992 825.862 708.864 826.322 705.735 826.682 700.227 827.322 694.839 825.912 689.482 824.793 687.972 824.473 686.463 824.663 684.934 824.233 682.485 823.553 680.336 821.864 677.497 822.224 676.487 822.354 675.638 820.904 675.418 819.675 675.138 818.136 676.607 818.515 677.257 818.276 686.303 814.907 691.231 807.56 695.549 799.583 696.779 797.304 697.938 794.955 699.438 792.856 703.196 787.578 705.305 781.681 706.575 775.394 707.104 772.765 711.502 771.405 714.611 771.815 722.888 772.935 730.185 777.143 738.161 778.922 747.317 780.971 756.524 781.071 764.92 775.693 765.07 775.604 765.24 775.524 765.41 775.484 772.637 773.604 775.745 767.917 777.705 761.559 780.583 752.233 783.542 742.787 782.682 732.881 782.053 725.574 778.474 719.307 772.747 714.719 770.638 713.03 767.429 712.78 764.81 711.67 755.594 707.752 745.918 704.723 737.781 698.656 730.604 693.308 726.086 686.121 724.457 677.255 723.447 671.767 722.588 666.259 722.758 660.632 722.818 658.713 722.738 656.464 723.527 655.064 725.377 651.786 725.527 647.687 728.285 644.968 731.174 642.12 734.293 639.481 738.041 637.801 747.577 633.513 757.653 631.364 767.959 629.835 774.776 628.825 781.583 627.696 788.43 626.836 795.027 626.006 801.555 624.777 808.222 624.367 815.379 623.927 822.466 622.508 829.613 621.888 835.91 621.338 842.248 621.208 848.575 621.048 855.442 620.878 862.319 621.508 869.186 620.998 872.565 620.749 875.743 621.888 878.972 622.458 881.831 622.958 884.81 623.297 887.539 623.198 893.856 622.978 899.793 626.856 906.7 623.847Z" stroke="#FFFFFF" stroke-width="11.995"/><path d="M819.267 565.752C819.267 560.174 818.667 554.846 819.417 549.708 820.397 543.011 818.787 536.804 817.488 530.466 817.378 529.937 817.158 529.427 817.078 528.897 816.828 527.028 814.859 525.039 816.728 523.329 818.837 521.4 821.226 519.941 824.445 519.891 834.161 519.761 843.877 519.911 853.583 519.841 865.458 519.751 877.363 520.611 889.228 519.391 897.065 518.581 904.881 517.472 912.738 516.952 920.605 516.432 928.401 515.303 936.218 514.373 938.777 514.073 941.266 513.114 943.745 512.334 945.474 511.794 945.944 510.695 944.415 509.405 942.495 507.796 941.316 505.667 940.026 503.608 938.907 501.838 937.677 500.329 935.618 499.37 932.909 498.11 932.1 494.961 930.221 492.822 928.361 490.703 926.422 488.684 924.453 486.685 914.847 476.909 905.981 466.503 898.304 455.138 891.227 444.652 885.789 433.267 882.011 421.232 880.372 415.995 880.132 410.257 882.061 404.749 882.86 402.45 883.88 400.321 883.22 397.562 882.76 395.653 884.47 393.604 884.85 391.445 886.139 384.188 889.388 377.91 893.966 372.023 896.495 368.764 898.294 364.826 900.753 361.337 904.771 355.63 910.259 351.951 916.206 348.793 922.694 345.354 929.171 341.836 936.618 340.826 937.428 340.716 938.247 340.526 939.037 340.586 953.091 341.606 967.145 339.707 981.199 340.506 991.995 341.116 1002.8 340.866 1013.61 340.846 1017.24 340.846 1020.87 340.526 1024.5 340.956 1025.18 341.036 1026.08 340.706 1026.39 341.616 1026.64 342.375 1026.72 343.195 1026.04 343.885 1023.04 346.924 1022.68 351.092 1021.73 354.88 1020.34 360.418 1019.56 366.105 1018.6 371.733 1018.07 374.812 1017.84 377.921 1016.78 380.909 1016.21 382.509 1015.54 383.648 1013.72 383.728 1008.68 383.938 1004.32 386.457 999.681 387.966 996.033 389.156 992.265 389.885 988.676 391.235 981.259 394.024 976.711 399.921 972.613 406.259 971.643 407.758 970.823 409.357 969.994 410.947 967.785 415.165 966.735 419.503 967.625 424.371 969.564 435.036 972.823 445.122 979.03 454.158 982.699 459.506 986.177 464.944 991.595 468.782 995.063 471.231 998.902 472.911 1002.78 474.49 1006.31 475.929 1009.44 477.988 1012.6 480.028 1013.56 480.637 1013.47 481.507 1013.47 482.407 1013.47 490.013 1014.04 497.6 1014.13 505.207 1014.2 510.815 1015.37 516.402 1016.05 522 1016.12 522.54 1016.15 523.08 1016.18 523.619 1016.86 534.395 1016.73 545.18 1016.72 555.966 1016.72 558.675 1017.38 561.293 1017.67 563.962 1018.05 567.571 1018.11 571.219 1018.33 574.848 1018.38 575.717 1018.06 576.547 1017.38 576.877 1016.73 577.187 1016.4 576.287 1015.95 575.877 1012.35 572.459 1007.52 572.269 1003.08 571.059 996.783 569.35 990.225 569.67 983.828 568.79 977.621 567.941 971.313 567.831 965.176 566.271 962.587 565.612 959.788 565.662 957.089 565.612 951.732 565.522 946.364 565.652 941.006 565.572 931.19 565.422 921.424 564.712 911.758 562.913 911.488 562.863 911.219 562.853 910.949 562.863 899.703 563.383 888.538 561.124 877.293 561.773 869.136 562.243 860.98 561.443 852.833 561.773 843.387 562.153 833.961 562.683 824.715 564.902 823.056 565.302 821.276 564.722 819.307 565.742Z" stroke="#FFFFFF" stroke-width="11.995"/><path d="M888.938 677.845C890.777 677.535 892.656 679.024 894.406 678.904 897.204 678.724 899.653 679.674 902.262 680.034 906.541 680.613 910.789 681.713 915.147 681.163 924.263 680.004 933.409 680.983 942.525 680.573 946.114 680.413 949.792 680.723 953.231 680.363 964.276 679.184 975.512 678.984 986.197 675.226 989.806 673.956 993.594 672.977 997.372 672.467 1002.26 671.807 1005.6 668.508 1009.52 666.199 1011.16 665.23 1012.69 664.43 1014.67 664.18 1016.3 663.97 1017.7 662.611 1019.39 662.061 1021.43 661.411 1022.27 661.281 1023.57 663.77 1026.44 669.248 1025.49 675.106 1026.48 680.733 1027.86 688.58 1028.22 696.567 1029.83 704.403 1030.78 709.041 1031.39 713.759 1031.91 718.477 1032.28 721.816 1033.96 724.765 1034.29 728.113 1034.79 733.091 1035.6 738.039 1036.32 742.997 1037.3 749.724 1038.42 756.432 1039.27 763.169 1040.05 769.306 1042.3 775.064 1043.61 781.001 1044.81 786.409 1045.57 792.067 1046.17 797.664 1046.58 801.463 1047.4 805.231 1048.16 808.989 1048.8 812.118 1047.85 813.218 1044.82 812.348 1043.54 811.978 1042.69 811.938 1041.77 813.058 1040.69 814.377 1039.17 814.527 1037.58 813.997 1035.33 813.248 1033.02 813.068 1030.65 813.118 1022.49 813.288 1014.34 812.638 1006.2 812.688 995.323 812.748 984.428 812.848 973.562 813.268 964.686 813.608 955.78 813.328 946.944 814.297 941.266 814.927 935.678 816.366 930.011 817.206 922.044 818.385 914.257 820.595 906.201 821.334 903.262 821.604 900.323 822.044 897.424 822.604 896.565 822.774 895.875 823.193 895.395 822.194 894.945 821.254 894.695 820.185 895.625 819.455 901.443 814.867 904.321 808.04 908.59 802.292 914.797 793.926 919.065 784.4 921.874 774.444 924.043 766.747 925.633 758.701 922.484 750.684 922.144 749.804 922.294 748.705 922.344 747.715 922.644 741.718 921.334 736.12 918.086 731.062 916.966 729.313 916.806 727.294 916.057 725.455 913.038 717.998 908.03 712.13 901.563 707.432 901.273 707.222 900.923 707.022 900.733 706.742 897.504 701.765 892.257 698.556 888.998 693.718 887.209 691.049 885.189 688.41 884.02 685.251 882.081 680.064 882.711 677.525 888.878 677.854Z" stroke="#FFFFFF" stroke-width="11.995"/><path d="M919.545 640.17C919.725 629.085 922.144 620.698 925.353 612.322 928.671 603.676 934.109 596.948 941.016 591.091 944.115 588.472 947.083 585.733 950.552 583.554 953.701 581.565 957.129 580.915 960.698 580.885 965.596 580.835 970.504 581.105 975.392 581.215 979.02 581.305 982.779 580.635 986.437 580.885 995.253 581.495 1004.03 582.385 1011.56 587.862 1015.27 590.561 1017.78 594.09 1019.42 598.248 1022.08 604.965 1024.39 611.922 1024.64 619.089 1024.83 624.637 1025.26 630.215 1023.22 635.952 1021.03 642.13 1016.96 645.358 1011.77 648.277 1007.57 650.636 1003.86 653.925 999.552 656.034 992.344 659.552 984.688 662.091 976.961 664.22 969.674 666.229 962.307 668.089 954.63 668.119 951.702 668.129 948.943 667.769 946.254 666.529 942.515 664.81 938.657 663.361 934.879 661.711 930.011 659.582 926.932 655.504 923.623 651.566 920.245 647.547 919.345 643.049 919.545 640.17Z" stroke="#FFFFFF" stroke-width="11.995"/></g></svg>