<svg width="881" height="491" xmlns="http://www.w3.org/2000/svg" xmlns:xlink="http://www.w3.org/1999/xlink" xml:space="preserve" overflow="hidden"><defs><clipPath id="clip0"><rect x="128" y="523" width="881" height="491"/></clipPath></defs><g clip-path="url(#clip0)" transform="translate(-128 -523)"><path d="M278.707 1004.79C272.459 1004.79 266.202 1005.01 259.965 1004.75 240.993 1003.97 222.011 1004.13 203.038 1004.3 184.426 1004.46 165.814 1004.72 147.222 1005.48 141.994 1005.69 137.086 1003.53 131.918 1004.47 131.209 1004.6 130.659 1004.2 130.309 1003.67 128.83 1001.46 127.66 999.108 128.31 996.369 128.57 995.28 128.63 994.23 128.63 993.151 128.63 985.794 128.09 978.387 128.76 971.08 129.909 958.555 130.049 946.02 130.449 933.476 130.689 925.959 130.899 918.432 130.679 910.945 130.539 905.857 129.669 900.74 129.619 895.622 129.579 891.573 130.149 887.525 130.459 883.477 130.499 882.937 130.769 882.407 130.739 881.877 130.349 875.88 131.419 869.942 131.459 863.955 131.549 851.44 130.219 838.985 129.929 826.481 129.649 814.136 129.649 801.781 129.479 789.436 129.289 776.552 128.12 763.657 128.94 750.802 129.729 738.358 129.279 725.933 129.489 713.498 129.689 701.803 128.81 690.138 128.1 678.473 127.98 676.444 128.66 674.594 128.71 672.595 128.94 662.15 127.51 651.714 128.17 641.288 128.75 632.082 129.05 622.886 129.339 613.67 129.469 609.622 129.609 605.553 129.709 601.495 129.939 592.309 130.539 583.103 130.129 573.937 129.819 566.91 129.659 559.893 129.479 552.876 129.319 546.638 129.879 540.421 129.929 534.193 129.969 529.185 133.148 526.597 137.526 527.676 144.523 529.395 151.7 527.826 158.807 527.586 165.334 527.366 171.892 527.286 178.409 527.606 183.757 527.876 189.034 527.236 194.342 527.096 194.792 527.086 195.232 526.866 195.672 526.876 205.298 527.106 214.923 525.627 224.519 526.417 231.327 526.976 238.104 526.737 244.901 526.846 252.498 526.976 260.075 526.197 267.641 525.927 278.997 525.517 290.432 525.987 301.347 529.765 312.383 533.594 321.389 540.001 326.627 550.846 329.895 557.604 334.303 563.731 336.702 570.988 339.071 578.155 341.99 585.142 344.299 592.339 344.849 594.058 344.839 595.938 344.919 597.647 345.139 602.345 345.948 607.023 346.028 611.671 346.188 621.467 347.138 631.253 346.688 641.059 346.278 650.035 347.388 658.991 346.738 667.967 345.579 684.09 346.628 700.254 346.018 716.387 345.769 722.994 345.918 729.601 345.589 736.199 344.979 748.194 344.329 760.178 343.839 772.173 343.519 779.98 343.22 787.847 342.26 795.604 341.051 805.449 339.311 815.225 337.812 825.031 336.932 830.779 336.103 836.526 335.243 842.274 334.233 849.071 333.164 855.868 332.124 862.665 331.575 866.274 331.315 869.992 331.035 873.671 330.595 879.268 330.385 884.886 330.305 890.494 330.255 894.402 329.345 898.221 329.565 902.149 329.925 908.576 329.905 915.023 330.045 921.441 330.245 930.397 329.595 939.413 327.436 948.28 325.597 955.806 322.078 962.563 319.04 969.561 318.76 970.22 318.46 970.9 318.02 971.46 315.261 974.928 312.642 978.447 311.053 982.665 310.353 984.534 308.864 986.014 307.305 987.263 302.487 991.131 300.118 996.939 295.899 1001.31 293.85 1003.44 291.951 1005.06 288.732 1004.81 285.394 1004.55 282.015 1004.75 278.657 1004.75ZM208.166 598.266C209.076 600.576 209.566 603.214 209.296 605.743 208.566 612.61 209.006 619.508 208.556 626.395 208.016 634.571 207.986 642.848 208.906 651.114 209.846 659.631 210.825 668.147 211.515 676.684 212.295 686.429 212.684 696.225 212.854 706.001 213.154 723.694 212.694 741.396 212.265 759.089 212.055 767.985 212.634 776.871 212.784 785.758 213.084 803.55 212.694 821.353 213.684 839.125 213.934 843.553 213.774 848.032 214.394 852.4 215.293 858.747 214.973 865.084 214.724 871.402 214.374 880.168 213.524 888.914 212.894 897.671 212.525 902.819 212.185 907.966 211.815 913.104 211.765 913.724 211.405 914.504 211.995 914.884 212.844 915.433 213.194 914.384 213.744 914.024 218.422 910.935 222.45 906.947 227.398 904.258 229.188 903.288 230.717 902.029 232.136 900.65 238.164 894.782 241.942 887.205 247.11 880.688 247.57 880.108 247.49 879.468 247.42 878.879 247.13 876.28 247.93 873.901 248.819 871.552 249.399 870.022 249.589 868.483 249.729 866.854 250.179 861.686 250.638 856.498 251.478 851.38 252.758 843.583 253.677 835.737 253.937 827.88 254.177 820.703 256.036 813.556 254.597 806.319 254.547 806.059 254.567 805.769 254.617 805.509 255.416 801.251 255.756 796.963 255.686 792.625 255.636 789.896 255.337 787.117 255.756 784.458 257.236 775.102 257.096 765.626 257.636 756.23 258.225 746.094 256.166 735.899 256.756 725.673 256.766 725.493 256.756 725.313 256.736 725.133 255.676 715.717 255.047 706.271 254.617 696.805 254.427 692.467 254.227 688.129 253.787 683.811 253.107 677.173 252.178 670.566 251.418 663.929 250.688 657.512 249.959 651.114 248.399 644.827 246.74 638.14 244.851 631.513 243.212 624.815 241.682 618.598 236.594 614.12 233.995 608.352 233.926 608.202 233.736 608.112 233.586 608.012 225.889 602.835 217.882 598.426 208.166 598.266Z" stroke="#FFFFFF" stroke-width="5.99748"/><path d="M767.641 676.754C768.881 675.384 768.511 673.905 768.251 672.625 767.271 667.877 766.782 663.069 766.062 658.301 764.663 648.985 765.622 639.659 765.492 630.343 765.442 627.234 766.152 624.106 766.012 620.917 765.802 616.309 764.903 611.831 764.173 607.313 764.103 606.873 763.933 606.433 763.913 605.983 763.613 596.137 762.863 586.341 763.533 576.426 763.963 570.118 763.453 563.591 762.623 557.194 762.414 555.544 761.344 553.535 763.403 552.126 763.523 552.046 763.513 551.646 763.443 551.446 761.314 545.559 762.514 539.561 762.933 533.614 763.033 532.224 762.753 530.735 763.533 529.365 765.602 525.737 767.901 523.268 772.829 523.598 782.055 524.218 791.341 523.658 800.608 524.018 805.755 524.218 810.913 524.877 816.031 524.757 824.348 524.567 832.654 523.728 840.971 523.258 843.869 523.088 846.778 523.208 849.687 523.158 850.986 523.138 851.536 523.738 851.416 524.977 850.836 530.815 851.026 536.702 849.657 542.5 848.517 547.288 847.878 552.206 847.088 557.074 845.479 567.07 845.139 577.275 842.05 587.031 841.46 588.9 841.101 590.94 841.151 592.889 841.36 601.215 840.051 609.352 838.042 617.358 835.643 626.914 836.083 636.62 835.703 646.316 835.363 654.743 834.143 663.149 833.844 671.596 833.564 679.542 833.214 687.469 834.123 695.446 834.683 700.334 835.473 705.212 835.883 710.12 836.133 713.128 836.902 716.097 837.502 719.066 838.412 723.594 839.371 728.122 840.301 732.65 841.45 738.218 842.28 743.845 843.869 749.323 843.989 749.753 844.089 750.223 844.039 750.662 843.45 756.81 845.749 762.468 846.848 768.345 849.467 782.349 855.564 795.254 859.093 808.958 862.552 822.392 866.86 835.537 871.678 848.551 874.636 856.548 879.294 863.715 882.433 871.582 883.493 874.251 885.212 876.37 886.861 878.579 888.591 880.898 888.79 883.057 887.101 885.456 886.451 886.375 885.792 887.395 886.012 888.695 886.132 889.384 885.772 890.024 885.242 890.354 881.374 892.763 879.514 897.011 876.206 900.01 864.701 910.435 852.566 919.592 837.332 924.03 830.925 925.899 824.657 928.298 818.49 930.947 812.922 933.336 806.995 934.605 801.187 936.275 800.757 936.394 800.158 936.305 799.898 936.574 797.469 939.043 796.179 937.344 794.99 935.285 790.222 927.008 787.263 918.142 785.524 908.736 784.514 903.278 782.465 898.001 780.786 892.673 777.707 882.917 773.829 873.341 771.63 863.395 769.601 854.199 766.192 845.523 763.653 836.536 761.764 829.869 760.214 823.102 758.645 816.355 757.076 809.618 755.317 802.891 754.337 796.053 753.907 793.095 752.758 790.766 751.358 788.387 748.699 783.859 747.88 778.841 747.4 773.733 747.31 772.783 747.24 771.944 746.2 771.424 745.391 772.323 746.41 773.713 744.901 775.052 746.11 770.044 743.961 766.336 742.062 762.578 741.702 761.858 741.532 760.648 740.273 760.948 739.163 761.208 739.123 762.178 739.133 763.127 739.143 769.764 738.524 776.472 739.343 782.999 739.943 787.727 739.003 792.555 740.553 797.193 741.272 799.332 739.793 801.401 739.843 803.61 739.953 809.148 739.413 814.746 739.993 820.223 740.743 827.28 740.813 834.387 742.022 841.404 742.572 844.583 742.402 847.862 742.662 851.08 743.012 855.369 743.761 859.667 743.641 864.015 743.512 868.873 744.201 873.621 745.231 878.389 746.23 883.047 746.46 887.865 746.38 892.673 746.36 893.922 745.771 894.372 744.801 894.842 734.625 899.84 724.02 902.609 712.555 902.689 701.659 902.759 690.814 904.508 679.878 904.258 676.6 904.178 673.431 903.998 670.692 901.749 669.932 901.129 669.603 900.709 669.393 899.75 667.413 890.814 668.063 881.557 665.854 872.631 664.984 869.103 665.624 865.284 665.204 861.576 664.125 852.18 664.255 842.624 663.215 833.288 661.636 819.044 661.396 804.84 661.266 790.576 661.196 782.609 660.856 774.642 660.686 766.676 660.506 758.309 659.897 749.933 659.057 741.596 658.347 734.509 657.937 727.422 657.408 720.335 656.548 708.91 655.638 697.495 655.259 686.03 655.109 681.562 654.349 677.113 653.739 672.675 653.409 670.256 654.279 668.027 654.609 665.728 655.538 659.161 655.438 652.644 654.639 646.076 653.879 639.829 653.339 633.562 654.319 627.244 655.009 622.816 655.688 618.348 655.798 613.89 655.998 606.013 656.458 598.147 656.518 590.26 656.578 583.513 656.498 576.696 658.437 570.058 659.027 568.049 658.437 565.71 658.617 563.551 659.247 556.154 659.267 548.677 661.806 541.54 663.435 536.962 666.764 533.684 669.782 530.125 670.392 529.415 671.202 529.415 672.022 529.415 673.571 529.415 675.11 529.355 676.66 529.415 688.185 529.905 699.62 527.696 711.155 528.216 719.222 528.576 727.198 527.276 735.205 526.567 740.643 526.077 740.673 526.127 740.633 531.475 740.583 538.981 742.212 546.268 743.422 553.605 744.611 560.882 745.691 568.169 746.96 575.426 748.819 586.092 749.899 596.887 753.607 607.233 755.786 613.32 756.536 619.877 757.356 626.355 758.195 632.982 759.085 639.619 760.504 646.176 762.334 654.583 763.483 663.129 765.942 671.396 766.472 673.185 767.072 674.964 767.641 676.744Z" stroke="#FFFFFF" stroke-width="5.99748"/><path d="M747.24 903.288C748.02 908.626 747.78 913.834 748.289 918.952 748.889 924.909 747.58 931.237 751.028 936.824 751.538 937.654 752.088 938.454 752.638 939.253 752.988 939.763 753.737 940.213 753.767 940.723 754.027 946.1 758.715 945.421 761.794 946.15 768.281 947.68 774.888 946.94 781.456 945.94 784.844 945.421 788.293 945.591 791.721 945.241 805.475 943.831 818.96 941.502 831.535 935.315 836.552 932.846 841.81 930.847 846.868 928.448 853.885 925.109 860.742 921.461 867.17 917.053 870.238 914.953 873.377 912.964 876.396 910.785 883.603 905.577 889.88 899.41 896.017 893.033 898.956 889.974 902.155 887.165 904.434 883.557 907.103 879.328 909.052 874.89 910.242 869.892 911.601 864.125 911.361 858.277 912.381 852.56 913.84 844.393 912.031 836.417 911.651 828.36 911.461 824.392 910.971 820.373 911.041 816.465 911.151 809.648 909.652 803.32 907.523 797.013 905.973 792.435 902.385 789.606 898.836 786.737 898.207 786.228 897.357 785.898 896.897 785.278 893.568 780.64 888.471 778.351 883.883 775.412 879.245 772.443 874.417 769.804 869.229 767.885 868.099 767.465 867.26 766.666 866.49 765.716 863.971 762.607 861.602 759.379 859.163 756.24 857.204 753.721 857.474 749.953 856.464 746.854 854.345 740.357 854.645 733.47 852.616 726.902 851.446 723.114 851.646 718.746 850.836 714.708 848.237 701.683 850.107 688.499 849.247 675.424 848.737 667.577 850.686 660.021 850.836 652.354 850.986 644.957 852.886 637.99 854.005 630.863 855.145 623.596 855.814 616.199 858.163 609.122 858.943 606.793 858.703 604.134 858.953 601.655 859.543 595.758 860.732 589.95 860.742 583.913 860.742 574.856 862.262 565.82 863.061 556.774 863.881 547.578 864.93 538.312 867.299 529.305 867.699 527.796 868.869 527.736 869.719 527.596 876.086 526.537 882.483 525.667 888.88 524.717 901.325 522.878 913.87 523.448 926.345 523.758 939.489 524.088 952.654 524.278 965.778 524.887 976.284 525.377 986.669 527.666 996.925 530.185 998.764 530.635 999.304 532.194 999.214 533.694 998.854 539.591 1000.1 545.409 1000 551.286 999.884 558.203 997.205 564.001 992.097 568.639 990.448 570.148 989.218 572.057 987.169 573.197 983.871 575.036 980.262 575.256 976.704 575.316 970.446 575.416 964.229 575.546 958.361 578.075 953.413 580.204 948.325 581.993 944.407 586.082 940.999 589.64 939.959 594.098 939.429 598.546 938.859 603.374 938.859 608.242 937.19 612.92 936.6 614.58 936.75 616.519 936.67 618.278 936.45 623.156 935.091 627.844 934.661 632.692 934.131 638.719 934.341 644.767 933.492 650.784 932.692 656.482 933.842 662.14 935.101 667.697 936.271 672.855 937.07 678.053 937.83 683.281 938.999 691.297 942.088 698.504 947.266 704.862 954.553 713.818 963.429 719.885 974.784 722.944 987.379 726.343 995.186 735.169 998.474 747.794 1000.09 754.001 1000.51 760.408 1000.64 766.806 1000.76 772.683 1001.76 778.441 1002.61 784.228 1003.3 788.856 1003.58 793.554 1004.17 798.203 1005.08 805.349 1005.41 812.547 1006.7 819.664 1007.48 823.972 1007.77 828.42 1008.42 832.758 1009.38 839.205 1008.88 845.613 1009.01 852.03 1009.24 863.535 1007.49 874.93 1007.01 886.396 1006.6 896.201 1004.78 905.727 1002.07 915.093 999.184 925.119 995.875 934.965 991.387 944.471 987.649 952.388 983.771 960.194 979.622 967.891 977.203 972.379 973.445 975.968 971.316 980.616 968.927 985.824 964.089 988.263 959.491 990.832 952.864 994.53 945.956 997.509 938.33 998.708 931.882 999.718 925.485 1000.55 918.938 999.868 915.079 999.468 911.161 999.678 907.283 999.618 898.926 999.498 890.6 998.758 882.243 998.888 874.536 999.008 866.83 998.528 859.153 997.899 855.684 997.619 852.326 998.548 848.867 998.488 839.921 998.349 830.945 998.818 822.029 998.249 808.334 997.379 794.64 997.669 780.956 997.179 776.308 997.009 771.56 997.319 766.902 996.339 765.312 995.999 763.513 996.779 761.814 996.759 757.756 996.709 753.697 996.969 749.619 996.319 745.611 995.68 741.522 996.629 737.474 996.719 730.197 996.889 722.96 996.269 715.713 996.099 711.085 995.989 706.537 994.34 702.289 992.341 700.26 991.391 698.131 990.662 696.111 989.662 692.043 987.643 690.324 983.825 687.955 980.516 685.086 976.518 681.508 972.759 680.558 967.801 678.999 959.665 675.77 951.968 674.88 943.631 674.301 938.174 673.121 932.736 672.022 927.318 671.062 922.59 670.872 917.622 671.172 912.744 671.302 910.695 673.101 910.935 674.251 911.465 678.069 913.224 682.107 913.224 686.146 913.294 690.874 913.374 695.602 913.224 700.32 913.334 705.857 913.464 711.275 912.604 716.703 911.665 725.879 910.076 734.895 907.946 743.641 904.738 744.821 904.308 745.97 903.808 747.28 903.278Z" stroke="#FFFFFF" stroke-width="5.99748"/><path d="M447.846 599.206C447.706 610.701 447.716 622.196 445.437 633.552 444.987 635.821 445.377 638.26 445.317 640.619 445.287 641.758 445.886 642.028 446.826 641.968 449.535 641.818 452.274 642.368 454.953 641.578 456.702 641.068 458.351 641.898 460.061 642.008 465.698 642.338 471.276 640.569 476.863 641.338 484.32 642.368 491.727 640.969 499.144 641.338 501.593 641.458 503.642 642.398 505.072 644.897 509.39 652.494 514.438 659.551 521.135 665.328 523.184 667.098 525.013 669.167 526.663 671.326 532.51 678.993 540.687 684.17 547.424 690.878 548.184 691.627 549.443 692.287 549.203 693.437 548.943 694.746 547.534 694.116 546.624 694.266 538.058 695.636 529.461 696.825 520.765 696.975 509.08 697.175 497.425 698.025 485.76 698.604 469.327 699.424 452.904 698.884 436.48 698.434 430.803 698.274 428.794 700.104 428.354 705.741 427.904 711.539 429.573 716.987 430.233 722.604 430.953 728.762 430.773 734.919 430.253 741.057 429.863 745.735 429.124 750.383 428.534 755.041 428.414 755.95 428.734 756.34 429.683 756.41 433.702 756.72 437.75 756.88 441.668 757.999 443.008 758.379 443.677 756.86 445.097 756.88 456.212 757.01 467.357 756.44 478.433 757.1 490.398 757.81 502.373 757.47 514.288 758.219 524.613 758.869 534.909 758.909 545.225 759.219 549.523 759.349 553.791 760.348 558.139 760.288 558.979 760.278 559.839 760.818 560.658 761.178 562.138 761.828 561.918 763.077 560.968 763.687 557.59 765.866 555.71 769.455 552.832 772.113 551.082 773.743 549.723 775.902 547.844 777.431 542.926 781.43 540.397 786.707 538.837 792.685 537.378 798.292 537.268 798.302 531.551 797.253 526.413 796.313 521.195 796.123 516.007 795.644 514.938 795.544 513.878 795.334 512.838 795.104 503.522 793.065 494.206 793.844 484.89 795.094 475.894 796.303 466.848 796.453 457.811 796.163 444.937 795.744 432.312 797.243 419.917 800.592 404.174 804.84 388.091 807.768 372.497 812.606 366.39 814.496 359.953 815.485 354.315 818.784 353.865 819.044 353.475 819.174 353.325 818.504 352.836 816.355 351.336 819.584 350.527 817.934 349.957 816.765 349.797 815.615 350.167 814.556 353.125 806.079 353.495 797.203 354.445 788.407 354.705 785.988 355.954 783.759 356.214 781.24 356.704 776.352 357.694 771.504 358.163 766.616 358.893 758.989 358.503 751.312 358.833 743.675 359.073 738.058 360.083 732.47 360.752 726.862 360.802 726.413 360.932 725.973 360.922 725.533 360.812 712.189 361.582 698.854 362.412 685.56 363.081 674.834 363.661 664.079 364.731 653.373 365.12 649.505 365.16 645.477 364.291 641.568 364.121 640.789 364.191 639.939 364.201 639.129 364.361 628.274 363.291 617.458 362.911 606.613 362.322 589.55 357.104 573.647 347.788 559.193 346.288 556.864 344.869 554.435 343.779 551.896 342.58 549.097 340.471 547.078 338.142 545.539 335.403 543.729 333.314 541.52 331.774 538.761 330.395 536.283 328.426 534.683 325.797 533.754 325.147 533.524 324.088 533.444 324.378 532.194 324.647 531.015 325.567 531.355 326.327 531.245 331.065 530.555 335.803 531.644 340.531 531.245 347.368 530.655 354.105 531.874 360.882 532.134 370.208 532.484 379.195 534.983 388.451 535.593 394.488 535.993 400.526 536.622 406.573 536.662 427.744 536.792 448.915 536.702 470.076 536.722 475.404 536.722 480.702 536.482 485.97 535.653 487.639 535.393 489.068 536.422 490.868 536.333 494.776 536.123 498.664 534.993 502.683 536.083 504.332 536.532 506.271 536.422 508.06 535.783 509.23 535.363 510.609 535.493 511.269 536.532 511.929 537.572 511.419 538.682 510.799 539.911 507.731 545.898 503.132 551.096 501.513 557.863 500.953 560.202 498.914 562.112 498.175 564.181 496.385 569.199 493.586 573.807 492.477 579.105 491.297 584.772 489.518 586.142 483.881 585.562 477.273 584.882 470.696 584.742 464.069 585.112 459.901 585.342 455.712 585.152 451.534 585.152 448.116 585.152 447.906 585.352 447.876 588.88 447.846 592.329 447.876 595.788 447.876 599.236Z" stroke="#FFFFFF" stroke-width="5.99748"/><path d="M531.7 810.847C528.312 820.443 528.272 829.579 527.382 838.526 526.802 844.333 529.431 849.841 532.99 854.619 533.29 855.019 533.91 855.259 533.65 855.938 533.57 855.988 533.46 856.098 533.42 856.078 527.482 852.5 520.905 853.409 514.498 853.499 510.729 853.549 507.091 854.269 504.062 857.078 502.683 858.357 500.584 858.837 498.824 859.707 494.146 862.036 492.027 867.503 493.297 872.591 494.446 877.189 497.125 880.978 499.024 885.166 502.983 893.862 510.269 899.64 516.597 906.177 523.744 913.554 529.541 921.781 534.889 930.447 537.958 935.415 537.948 940.773 538.188 946.3 538.568 955.017 536.828 963.013 532.19 970.45 528.192 976.857 524.074 983.175 519.666 989.292 516.747 993.351 513.298 997.039 509.14 999.828 502.873 1004.04 496.275 1007.85 489.128 1010.25 484.5 1011.81 479.432 1011.06 474.584 1010.29 473.875 1010.18 473.195 1009.92 472.465 1010.06 466.798 1011.14 461.02 1010.45 455.353 1010.99 444.177 1012.06 433.062 1010.5 421.917 1010.65 414.939 1010.74 407.962 1009.86 400.985 1009.92 391.299 1010 381.623 1010.62 371.938 1010.88 367.769 1010.99 363.561 1012.63 359.243 1012.85 352.856 1013.17 346.518 1014.37 340.061 1013.35 336.992 1012.86 333.864 1013.32 330.735 1013.68 325.227 1014.32 319.839 1012.91 314.482 1011.79 312.972 1011.47 311.463 1011.66 309.934 1011.23 307.485 1010.55 305.336 1008.86 302.497 1009.22 301.487 1009.35 300.638 1007.9 300.418 1006.67 300.138 1005.14 301.607 1005.52 302.257 1005.28 311.303 1001.91 316.231 994.56 320.549 986.583 321.779 984.304 322.938 981.955 324.438 979.856 328.196 974.578 330.305 968.681 331.575 962.394 332.104 959.765 336.502 958.405 339.611 958.815 347.888 959.935 355.185 964.143 363.161 965.922 372.317 967.971 381.524 968.071 389.92 962.693 390.07 962.604 390.24 962.524 390.41 962.484 397.637 960.604 400.745 954.917 402.705 948.559 405.583 939.233 408.542 929.787 407.683 919.881 407.053 912.574 403.474 906.307 397.747 901.719 395.638 900.03 392.429 899.78 389.81 898.67 380.594 894.752 370.918 891.723 362.781 885.656 355.604 880.308 351.086 873.121 349.457 864.255 348.447 858.767 347.588 853.259 347.758 847.632 347.818 845.713 347.738 843.464 348.527 842.064 350.377 838.786 350.527 834.687 353.285 831.968 356.174 829.12 359.293 826.481 363.041 824.801 372.577 820.513 382.653 818.364 392.959 816.835 399.776 815.825 406.583 814.696 413.43 813.836 420.027 813.006 426.555 811.777 433.222 811.367 440.379 810.927 447.466 809.508 454.613 808.888 460.91 808.338 467.248 808.208 473.575 808.048 480.442 807.878 487.319 808.508 494.186 807.998 497.565 807.749 500.743 808.888 503.972 809.458 506.831 809.958 509.81 810.297 512.539 810.198 518.856 809.978 524.793 813.856 531.7 810.847Z" stroke="#FFFFFF" stroke-width="5.99748"/><path d="M444.267 752.752C444.267 747.174 443.667 741.846 444.417 736.708 445.397 730.011 443.787 723.804 442.488 717.466 442.378 716.937 442.158 716.427 442.078 715.897 441.828 714.028 439.859 712.039 441.728 710.329 443.837 708.4 446.226 706.941 449.445 706.891 459.161 706.761 468.877 706.911 478.583 706.841 490.458 706.751 502.363 707.611 514.228 706.391 522.065 705.581 529.881 704.472 537.738 703.952 545.605 703.432 553.401 702.303 561.218 701.373 563.777 701.073 566.266 700.114 568.745 699.334 570.474 698.794 570.944 697.695 569.415 696.405 567.495 694.796 566.316 692.667 565.026 690.608 563.907 688.838 562.677 687.329 560.618 686.37 557.909 685.11 557.1 681.961 555.221 679.822 553.361 677.703 551.422 675.684 549.453 673.685 539.847 663.909 530.981 653.503 523.304 642.138 516.227 631.652 510.789 620.267 507.011 608.232 505.372 602.995 505.132 597.257 507.061 591.749 507.86 589.45 508.88 587.321 508.22 584.562 507.761 582.653 509.47 580.604 509.85 578.445 511.139 571.188 514.388 564.911 518.966 559.023 521.495 555.764 523.294 551.826 525.753 548.337 529.771 542.63 535.259 538.951 541.206 535.793 547.694 532.354 554.171 528.836 561.618 527.826 562.428 527.716 563.247 527.526 564.037 527.586 578.091 528.606 592.145 526.707 606.199 527.506 616.995 528.116 627.8 527.866 638.606 527.846 642.244 527.846 645.873 527.526 649.501 527.956 650.181 528.036 651.08 527.706 651.39 528.616 651.64 529.375 651.72 530.195 651.04 530.885 648.042 533.924 647.682 538.092 646.732 541.88 645.343 547.418 644.563 553.105 643.603 558.733 643.074 561.812 642.844 564.92 641.784 567.909 641.214 569.509 640.545 570.648 638.716 570.728 633.678 570.938 629.319 573.457 624.681 574.966 621.033 576.156 617.265 576.885 613.676 578.235 606.259 581.024 601.711 586.921 597.613 593.259 596.643 594.758 595.823 596.357 594.994 597.947 592.785 602.165 591.735 606.503 592.625 611.371 594.564 622.036 597.823 632.122 604.03 641.158 607.699 646.506 611.177 651.944 616.595 655.782 620.063 658.231 623.902 659.911 627.78 661.49 631.309 662.929 634.437 664.988 637.596 667.028 638.556 667.637 638.466 668.507 638.466 669.407 638.466 677.013 639.035 684.6 639.125 692.207 639.195 697.815 640.375 703.402 641.055 709 641.125 709.54 641.154 710.08 641.185 710.619 641.864 721.395 641.734 732.18 641.724 742.966 641.724 745.675 642.384 748.293 642.674 750.962 643.054 754.571 643.114 758.219 643.334 761.848 643.384 762.717 643.064 763.547 642.384 763.877 641.734 764.187 641.404 763.287 640.955 762.877 637.346 759.459 632.518 759.269 628.08 758.059 621.783 756.35 615.225 756.67 608.828 755.79 602.621 754.941 596.313 754.831 590.176 753.271 587.587 752.612 584.788 752.662 582.089 752.612 576.732 752.522 571.364 752.652 566.006 752.572 556.19 752.422 546.424 751.712 536.758 749.913 536.488 749.863 536.219 749.853 535.949 749.863 524.703 750.383 513.538 748.124 502.293 748.773 494.136 749.243 485.98 748.443 477.833 748.773 468.387 749.153 458.961 749.683 449.715 751.902 448.056 752.302 446.276 751.722 444.307 752.742Z" stroke="#FFFFFF" stroke-width="5.99748"/><path d="M513.938 864.845C515.777 864.535 517.656 866.024 519.406 865.904 522.204 865.724 524.653 866.674 527.262 867.034 531.541 867.613 535.789 868.713 540.147 868.163 549.263 867.004 558.409 867.983 567.525 867.573 571.114 867.413 574.792 867.723 578.231 867.363 589.276 866.184 600.512 865.984 611.197 862.226 614.806 860.956 618.594 859.977 622.372 859.467 627.26 858.807 630.599 855.508 634.517 853.199 636.157 852.23 637.686 851.43 639.665 851.18 641.304 850.97 642.704 849.611 644.393 849.061 646.432 848.411 647.272 848.281 648.571 850.77 651.44 856.248 650.491 862.106 651.48 867.733 652.86 875.58 653.219 883.567 654.829 891.403 655.778 896.041 656.388 900.759 656.908 905.477 657.278 908.816 658.957 911.765 659.287 915.113 659.787 920.091 660.596 925.039 661.316 929.997 662.296 936.724 663.415 943.432 664.275 950.169 665.055 956.306 667.304 962.064 668.613 968.001 669.812 973.409 670.572 979.067 671.172 984.664 671.582 988.463 672.401 992.231 673.161 995.989 673.801 999.118 672.851 1000.22 669.822 999.348 668.543 998.978 667.693 998.938 666.774 1000.06 665.694 1001.38 664.175 1001.53 662.576 1001 660.326 1000.25 658.017 1000.07 655.648 1000.12 647.492 1000.29 639.335 999.638 631.199 999.688 620.323 999.748 609.428 999.848 598.562 1000.27 589.686 1000.61 580.78 1000.33 571.944 1001.3 566.266 1001.93 560.678 1003.37 555.011 1004.21 547.044 1005.39 539.257 1007.59 531.201 1008.33 528.262 1008.6 525.323 1009.04 522.424 1009.6 521.565 1009.77 520.875 1010.19 520.395 1009.19 519.945 1008.25 519.695 1007.18 520.625 1006.46 526.443 1001.87 529.321 995.04 533.59 989.292 539.797 980.926 544.065 971.4 546.874 961.444 549.043 953.747 550.633 945.701 547.484 937.684 547.144 936.804 547.294 935.705 547.344 934.715 547.644 928.718 546.334 923.12 543.086 918.062 541.966 916.313 541.806 914.294 541.057 912.455 538.038 904.998 533.03 899.13 526.563 894.432 526.273 894.222 525.923 894.022 525.733 893.742 522.504 888.765 517.257 885.556 513.998 880.718 512.209 878.049 510.189 875.41 509.02 872.251 507.081 867.064 507.711 864.525 513.878 864.854Z" stroke="#FFFFFF" stroke-width="5.99748"/><path d="M544.545 827.17C544.725 816.085 547.144 807.698 550.353 799.322 553.671 790.676 559.109 783.948 566.016 778.091 569.115 775.472 572.083 772.733 575.552 770.554 578.701 768.565 582.129 767.915 585.698 767.885 590.596 767.835 595.504 768.105 600.392 768.215 604.02 768.305 607.779 767.635 611.437 767.885 620.253 768.495 629.03 769.385 636.556 774.862 640.275 777.561 642.784 781.09 644.423 785.248 647.082 791.965 649.391 798.922 649.641 806.089 649.831 811.637 650.261 817.215 648.221 822.952 646.032 829.13 641.964 832.358 636.766 835.277 632.568 837.636 628.86 840.925 624.552 843.034 617.344 846.552 609.688 849.091 601.961 851.22 594.674 853.229 587.307 855.089 579.63 855.119 576.702 855.129 573.943 854.769 571.254 853.529 567.515 851.81 563.657 850.361 559.879 848.711 555.011 846.582 551.932 842.504 548.623 838.566 545.245 834.547 544.345 830.049 544.545 827.17Z" stroke="#FFFFFF" stroke-width="5.99748"/></g></svg>