<?xml version="1.0" encoding="utf-8"?>
<!-- Generator: Adobe Illustrator 28.1.0, SVG Export Plug-In . SVG Version: 6.00 Build 0)  -->
<svg version="1.1" id="b" xmlns="http://www.w3.org/2000/svg" xmlns:xlink="http://www.w3.org/1999/xlink" x="0px" y="0px"
	 viewBox="0 0 1374.5 1342.7" style="enable-background:new 0 0 1374.5 1342.7;" xml:space="preserve">
<style type="text/css">
	.st0{enable-background:new    ;}
	.st1{fill:#1D1D1B;}
</style>
<g>
	<path d="M1073.9,495.3c-0.9-0.4-2.1-0.6-2.7-1.3c-5.5-6.8-13.5-9.9-20.1-15.1c-3-2.4-6.5-4-9.6-6.3c-8.6-6.4-19-8-28.6-11.6
		c-0.5-0.2-1.1-0.1-1.6-0.3c-18.1-7.7-37.9-7.2-56.7-11.9c-2.2-0.6-4.7,0-7.1-0.2c-5.2-0.3-10.4-0.9-15.7-1.1
		c-5.1-0.2-10.2,0-15.2-0.1c-3.8,0-4.6-0.8-5.8-4.5c-2.4-7.4-4.8-14.8-7.4-22.1c-3.6-10-9.9-18.2-18.8-23.2
		c-12.2-6.9-24.4-14-38.5-17c-9.7-2-18.9-6.3-28.4-9.3c-6.4-2-12.9-3.4-19.4-4.8c-7.9-1.7-15.9-3.6-23.9-4.7
		c-11.8-1.6-23.4-4.9-35.5-4.4c-6.5,0.3-13-1.2-19.5-1.1c-7,0.1-14,1.2-21.1,1.8c-2.2,0.2-4.3,0.3-6.5,0.5c-9,0.5-18.1,0.6-27.1,1.4
		c-7.5,0.6-15,2-22.5,3c-6.3,0.8-12.6,1.5-18.8,2.4c-4.6,0.6-9.4,1-13.9,2.3c-10.6,3.1-21.6,4.6-32.4,6.6
		c-7.1,1.3-13.9,3.8-20.9,5.5c-5.6,1.4-11.4,2-17,3.6c-18.6,5.4-36.3,12.8-51.8,25c-9.2,7.2-18.8,13.8-28.1,20.9
		c-14.3,10.9-27.4,23.3-39.6,36.6c-12.2,13.2-21.5,28.6-29.8,44.7c-3.9,7.6-7.4,15.4-11.1,23.1c-1.9,3.9-2.6,8.1-2.6,12.4
		c0,5.4-0.3,10.8-0.5,16.8c0.3,0.2,1.4,0.9,2.6,1.1c13.9,1.8,27.7,1.1,41.4-2.3c3.2-0.8,6.4-1.1,9.5-2c4.3-1.2,8.5-2.8,12.8-4.1
		c5.4-1.6,10.8-3.1,16.9-4.9c0.7,1.9,1.6,4,2.3,6.2c1.3,4.6,2.4,9.4,3.7,14c2.3,7.8,4.8,15.6,7,23.4c0.5,1.8,0.4,4,0.1,5.9
		c-0.6,3.8-1.4,7.7-2.4,11.4c-1.3,5-2.7,10-4.2,15c-0.2,0.7-0.7,1.3-1.2,1.7c-5.7,5.2-11.6,10.4-17.3,15.7
		c-6.8,6.4-13.4,13.1-20.3,19.3c-10.6,9.6-21.5,18.9-32.2,28.4c-5.1,4.5-9.9,9.4-14.7,14.2c-3.7,3.7-4,6.3-1.8,11.4
		c0.8,1.9,1.5,3.8,2,5.8c3.6,14.2,8.1,28.2,9.1,43.1c0.4,6.6,3.2,13,4.6,19.5c2.6,12.2,4.8,24.5,8.8,36.4c1.5,4.5,1.2,9.7,2.8,14.2
		c2.9,8.2,6.1,16.3,9.9,24.1c4.2,8.9,9.7,17.1,13.6,26.1c3.8,8.9,9.8,16.1,15.5,23.5c5,6.4,10.7,12.2,15.1,19
		c3.8,5.8,8.9,10.2,13.6,15c6.6,6.8,14.5,11.8,23.6,15.2c-0.5,7.5-1.1,15.1-1.5,22.7c-0.1,3,0.4,5.9,0.6,8.9
		c1.1,13.4,2.9,26.7,5.9,39.7c0.8,3.2,1.9,6.4,3.1,9.5c3.3,8.6,6.8,17.2,10.6,26.7c-2.7-0.4-4.5-0.1-5.8-0.8
		c-7.9-4.2-15.8-8.3-23.4-12.9c-16.3-9.7-32.3-19.7-47.1-31.8c-3.8-3.1-7.8-6.1-11.6-9.2c-0.9-0.7-2.1-1.2-2.5-2.2
		c-2.1-5.4-7.1-7.8-11.1-11.2c-7.7-6.3-14.7-13.2-20.7-21.3c-12.7-16.9-26-33.5-38.9-50.4c-2.1-2.7-2.9-6.3-4.8-9.3
		c-4.8-7.7-10.1-15.1-14.7-22.9c-4.1-6.8-7.6-14-11.3-21c-0.5-1-0.9-2.1-1.5-3c-6.9-9.5-11.2-20.5-15.8-31.2
		c-3.2-7.5-4.9-15.6-7.4-23.3c-1.4-4.4-3.2-8.7-4.8-13.1c-4.3-12.5-8.6-24.9-12.7-37.5c-1.7-5.3-3-10.7-4.4-16.2
		c-2.7-10.5-3.4-21.2-2.7-32.1c0.2-2.7-0.2-5.6-0.9-8.2c-3.8-14.7-5.7-29.5-2.7-44.7c0.5-2.5,0.8-5.2,0.8-7.8
		c-0.5-24.9,4.4-49,10.1-72.9c4-16.8,8.4-33.6,12.7-50.4c0.9-3.4,1.9-6.8,3.2-10.1c5.7-14.9,11.5-29.8,17.4-44.6
		c1-2.4,2-4.8,3.5-6.9c11.1-15.4,21.1-31.8,34.7-45.2c3.9-3.8,6.8-8,8.8-13.2c3.5-9.4,9.2-17.5,15.9-24.6
		c20.7-21.9,43.3-41.2,68.8-57.2c19.2-12,39.2-22.6,58.6-34.3c9.7-5.9,20.3-9.8,31.2-12.7c9.3-2.5,18.6-4.6,27.9-7.1
		c3.1-0.9,6-2.5,9-3.8c8.5-4,17.6-5.4,26.7-7.1c6.6-1.2,13.2-2.3,19.8-3.4c1.6-0.2,3.1-0.1,4.2-1.9c0.5-0.8,2.2-1.1,3.3-1.3
		c9.9-1.2,19.8-1.6,29.6-3.5c9.8-1.8,19.4-0.1,29.2,0c5.4,0,10.8-0.7,16.2-0.8c5.8-0.1,11.6-0.5,17.4,0.1c10.1,1,20.1,2.5,30.1,4
		c10.2,1.5,20.4,3.2,30.5,5.1c6.7,1.3,13.6,2.5,20,4.8c7.6,2.7,14.9,6.7,22.4,9.9c1.9,0.8,4.1,0.7,6.1,1.4
		c8.2,2.8,16.6,5.4,24.6,8.8c15.7,6.6,31.3,13.7,46.9,20.8c2.8,1.3,5.3,3.2,7.9,4.9c4.5,2.8,8.9,5.6,13.4,8.4
		c0.6,0.4,1.3,0.7,1.9,1.1c9,6.9,19.4,11.2,29.1,16.9c4.8,2.9,10,5.5,14,9.4c12.5,12.2,24.8,24.7,36.5,37.7
		c8.5,9.4,15.7,20.1,23.8,29.9c4.9,6,10.7,11.1,15.8,17c3.1,3.6,5.8,7.6,8.2,11.7c4.1,6.8,8.1,13.7,11.8,20.8
		c3.2,6.2,6.1,12.6,9.1,18.9c1.1,2.3,2.3,4.5,3.4,6.8C1074.5,494.6,1074.2,494.9,1073.9,495.3L1073.9,495.3z"/>
	<path d="M522.4,743c0.4-0.6,1-1.1,1.2-1.8c3-9.8,9.2-17.7,14.6-25.9c7.4-11.1,14.1-22.6,19.6-34.8c1.5-3.2,3.7-6,5.1-9.2
		c2.9-6.8,5.4-13.8,8.2-20.6c1.2-2.9,2.9-5.6,3.9-8.5c2.2-5.9,4-12,6-17.9c3.3-9.7,5.5-19.7,6.3-29.9c0.7-8.7,1.4-17.5,1.8-26.2
		c0.4-8.9,0.9-17.9,0.6-26.8c-0.3-10.6-1.5-21.2-2.2-31.8c-0.2-2.2-0.4-4.4-0.5-6.7c-0.1-5.4,0-10.7-2.2-15.9
		c-1.2-2.8-1.1-6.2-1.7-9.3c-1.8-8.4-3.5-16.8-5.6-25c-1.2-4.8-3.3-9.5-5-14.1c-2.1-5.7-4.1-11.6-6.6-17.1
		c-3.2-7-7.1-13.7-10.7-20.8c2.6-1,5.6-2.3,8.6-3.1c14.3-3.8,28.7-7.7,43.1-11.1c9.5-2.2,19.1-3.9,28.7-5.4c3.9-0.6,6.9,1.7,9.1,5
		c4.1,6.3,8.3,12.7,12.4,19c0.6,0.9,1.2,1.9,1.6,2.9c4.3,12.5,10.8,24,15.9,36c4,9.5,6.5,19.4,8.2,29.5c3.2,19.6,2.7,39.5,2.1,59.2
		c-0.3,11.3-1.1,22.7-2.7,34c-2.7,19.4-10.1,37.3-18.1,54.9c-4.7,10.3-9.2,20.7-14.3,30.8c-5.1,10.1-11.4,19.4-19.4,27.5
		c-1,1-1.8,2.3-2.7,3.5c-14,20-28.1,39.9-42,59.9c-7.6,10.9-15,21.8-22.5,32.8c-0.6,0.9-1.2,1.8-1.9,2.7
		c-17.9,22.2-30.4,47.6-41.2,74c-0.3,0.7-0.6,1.4-0.7,2.1c-0.8,7.6-5,13.9-8.2,20.5c-5.7,11.7-10.9,23.6-14.4,36.2
		c-0.6,2.3-1.6,4.5-2.6,7c-4.9-0.7-8.5-3.3-11.6-6.8c-6.8-7.7-13.9-15.1-20.3-23.3c-6.7-8.7-11.7-18.4-17.9-27.4
		c-1.9-2.8-2.9-6.3-4.3-9.6c-4.6-10.9-11.1-21-13.8-32.8c-1.7-7.4-3.3-14.8-5-22.3c-1.3-5.7,2.1-9.5,5-13.5c0.7-1,2-1.7,2.7-2.7
		c8.2-12.3,16.8-24.3,20.6-39.1c0.9-3.4,2.1-6.8,3.6-9.9c7.4-15.6,10.4-32.5,14.4-49.2c3.4-14.1,6.9-28.2,9.9-42.4
		c3.2-15.1,5.8-30.3,8.6-45.5c0.2-1.4,0-3-0.5-4.3c-1.6-5.3-3.5-10.6-5.2-15.9c-2.3-7.1-4.5-14.2-6.9-21.2
		c-3.4-9.6-7.4-19-10.6-28.7c-3.4-10.4-9.3-19.3-14.2-28.9c-3.3-6.4-6.6-12.8-9.9-19.3c-2.1-4.2-1.9-7.5,2-11.3
		c15.1-15,32.2-27,50.6-37.3c5.7-3.2,11.2-6.9,16.8-10.3c4.5-2.7,7.9-2,11.3,2.2c0.9,1.2,1.8,2.3,2.6,3.6c6,10,13.5,18.8,20,28.4
		c2.9,4.4,5,9.5,7.3,14.3c1.9,4,3.2,8.3,5.2,12.3c3.9,7.8,7.3,15.8,8.9,24.5c0.3,1.4,0.7,2.9,1.2,4.3c7.6,19.1,10.2,39.2,9.8,59.7
		c-0.7,31.1-6.1,61.4-15.6,91c-5.2,16.2-11.7,31.6-19.8,46.5c-0.8,1.5-1.5,3-2.1,4.6c-2.7,7.1-5.9,14-9.9,20.5
		C524.8,732.9,522.9,737.7,522.4,743L522.4,743z"/>
	<path d="M1053.2,661.8c0.6-2.8,1.6-4.8,1.2-6.5c-1.9-10.6-4.2-21.1-8.9-31c-5.4-11.3-13.7-19.1-24.7-24c-6-2.7-12-5.1-18.1-7.6
		c-5.6-2.3-11.3-2.1-17.1-1.3c-1.2,0.2-2.5,0.6-3.7,0.5c-7.4-0.4-14.2,1.6-21.1,4.1c-8,2.9-14.1,8.2-19.8,14.1
		c-9.5,9.8-17.3,21-25.7,31.8c-3.9,5-8.5,9.5-12.8,14.3c-2.8-2.3-2.3-4.9-2.1-7.4c0.9-9.3,1.9-18.5,2.6-27.8
		c0.2-3.1-0.7-6.3-0.5-9.5c0.5-10.2,1.3-20.5,1.7-30.7c0.6-12.5,1.1-25,1.4-37.4c0.1-4.9,0.6-9.6,1.8-14.3c0.9-3.5,0.9-7.3,1.2-11
		c0.4-3.9,0.7-7.8,1-11.7c0.7-10.2,1.5-20.4,2.2-30.6c0.1-0.9,0.4-1.8,0.6-2.8c4.3-1.6,8.6-2.8,13.2-2.8c14,0.1,27.8,1.3,41.7,3
		c4.8,0.6,9.8,1.2,14.6,1c12.7-0.3,24.4,4.7,36.6,7.2c3.4,0.7,6.6,2.9,9.9,4.5c9.2,4.7,18.5,9.3,27.5,14.4
		c9.8,5.5,17.7,13.6,25.6,21.5c0.9,0.9,1.7,2,2.3,3.1c10,16.4,19.2,33.2,24.5,52.1c4.1,14.3,9.1,28.3,13.4,42.6
		c4.9,16.2,9,32.7,10.2,49.7c1.3,18.2,1.5,36.5-1.2,54.8c-2.5,16.9-4.8,33.9-7.3,50.8c-1,6.4-2.4,12.8-3.7,19.2
		c-1,4.9-2.2,9.8-3.3,14.7c-2.5,11.5-7.6,22.1-11.9,33c-0.6,1.5-1.7,2.9-2.8,4c-4.1,3.7-8.3,7.3-12.6,10.7
		c-6.1,4.8-12.4,8.9-19.9,11.2c-5.3,1.7-10.2,4.7-15.3,7.2c-9.4,4.7-19.1,7.8-29.7,7.7c-2.8,0-5.6,1.1-8.5,1.6
		c-3.9,0.6-7.7,1.1-11.7-0.1c-3.6-1.1-7.5-1.3-11.3-1.2c-13.5,0.4-24.5-5.6-34.5-13.9c-1-0.8-1.9-1.8-3-2.4
		c-10.5-5.1-17.7-14-25.6-22.2c-1.9-2-3.3-4.4-5-6.6c-1.2-1.6-2.5-3.1-3.8-4.6c-0.7-0.8-1.8-1.5-2.2-2.4c-3.6-8.1-9.3-15.1-11.4-24
		c-1.8-7.2-4.4-14.2-6.2-21.4c-2.2-8.7-3.3-17.5-3.1-26.6c0.2-8.4-0.8-16.8-0.9-25.1c-0.1-7,0.1-14.1,0.6-21.1
		c0.6-8,1.9-15.9,2.5-23.9c0.5-7.7,4.1-13.9,9-19.2c4.6-5,9.9-9.3,14.7-14.1c5.1-5.1,12-5.9,18.3-7.9c11.2-3.6,22.9-5.3,34.6-6.8
		c6.1-0.8,12.1-2,18.3-1.1c13.7,2,27.1,4.8,39.1,12.4C1040,655.4,1046.2,658.1,1053.2,661.8L1053.2,661.8z M1004,721c-2,0-4,0-6,0
		c-7.6-0.1-14.8,0.9-20.8,6.3c-0.8,0.7-1.9,1-2.9,1.6c-5.8,3.4-11.5,7.1-14,13.9c-1,2.6-1.7,5.7-1.4,8.5c0.6,5,1.6,9.9,3.2,14.6
		c2.6,7.7,6.2,14.8,13.8,18.5c3.9,1.9,7.8,3.6,11.8,5.3c2.3,1,5,1.3,7.2,2.4c5.5,2.8,11.2,2.7,16.9,1.5c9.1-1.9,15.4-8.5,20.7-15.3
		c5.6-7.2,9.7-15.7,14.4-23.6c1-1.7,2-3.6,2.5-5.6c2.6-9.1,3.7-11-5.9-16.8C1031.4,725.1,1018.6,719.5,1004,721L1004,721z"/>
	<path d="M764.1,379c3,0.5,6.5,0.8,9.7,1.7c6.3,1.8,12.6,3.3,19.2,3c5.9-0.2,11.4,1.3,17,3.1c9.8,3.2,19.8,5.8,29.6,9.1
		c10.4,3.6,20.8,7.3,30.6,12.8c14.7,8.2,22.1,21.1,24.1,37.4c1,8.1,1.3,16.3,0.3,24.5c-0.3,2.2-1.1,4.2-1.5,6.4
		c-0.2,1.1-0.5,2.2-0.4,3.3c1.6,12.7-0.2,25.3-0.3,38c0,9.8-2.2,19.2-3.2,28.8c-1.3,12.6-1.5,25.3-2,38c-0.6,15.8-0.3,31.8-1.8,47.5
		c-0.8,9.1-1.9,18.1-2.1,27.2c-0.1,3.7-1.8,7.3-1.9,11c-0.3,9.5-0.2,19-0.2,28.5c0,6,0.3,11.9,0.5,17.9c0.4,12.1,0.6,24.2,1.1,36.4
		c0.7,15.4,1.1,30.9,5.6,45.9c0.3,1,0.5,2.2,0.4,3.3c-0.3,6.8,2.2,12.8,5.7,18.4c2.3,3.8,4.7,7.5,6.9,11.4
		c5.3,9.5,12.1,17.7,20,24.9c3.6,3.3,8,5.8,12,8.6c6.7,4.7,12.1,11.2,20,14.3c1.3,0.5,2.7,1.2,3.9,1.9c2,1.3,3.8,2.7,5.9,4.2
		c-3.8,4-8.5,5-12.9,6.5c-7.2,2.3-13.7,5.7-18.5,12c-1.1,1.4-2.8,2.3-4.4,3.5c-3.4-1.7-3.2-4.9-3.1-7.7c0.1-4.5-1.5-7.6-4.9-10.5
		c-5.1-4.2-10.4-8-16.8-10c-2.3-0.8-4.5-1.6-6.6,0.4c-1.8,1.7-3.6,0.9-5.5-0.2c-2.9-1.9-6-3.5-8.8-5.5c-3.2-2.4-7-2.7-10.6-3.4
		c-4.1-0.8-8.1-1.6-12.2-2.2c-5.9-0.8-11.9-1.2-17.7-2.3c-9.1-1.7-17.5,0.6-25.7,4c-0.5,0.2-1,0.3-1.5,0.4c-0.2,0-0.4,0-0.8-0.1
		c-2.1-2.2-2.5-4.3-0.3-7.2c1.5-2,2.1-4.6,2.9-7.1c1.2-3.5,2-7.2,3.3-10.6c4.1-10.2,4-20.7,2.6-31.4c0-0.4-0.2-0.7-0.2-1.1
		c0-14.8-5.3-28.4-8.5-42.5c-1.7-7.6-4-15.1-3.8-23c0-1.6-0.5-3.3-0.9-4.9c-4-17-8.1-34-11.9-51.1c-3.8-17.1-6.5-34.5-11.1-51.3
		c-4.3-15.6-5.1-31.6-7.3-47.4c-2.3-15.7-4.1-31.4-6-47.1c-1.7-14.2-3.4-28.5-5-42.7c-2.1-17.6-4.4-35.1-6.1-52.7
		c-0.8-8.7-0.9-17.6-0.2-26.3c0.8-10.8,1-21.6-0.4-32.4C759.8,387.7,760.3,383.2,764.1,379L764.1,379z"/>
	<path d="M683.7,884.3c-2.5,3-5.5,4-9,3.9c-11.5-0.4-21.7,4.2-31.3,9.6c-10.7,6-20.8,13-28.8,22.7c-6,7.2-12.5,14.2-13.1,24.5
		c-3.9,6.8-0.1,13.9-0.8,20.8c-0.2,2.1,0.2,4.2,0.5,7.2c6.7-6,14.1-8.2,21.3-11.2c6-2.5,11.5-6.3,17.1-9.8c4.5-2.8,5.6-2.4,6.7,2.9
		c1.6,7.6,3.3,15.2,5.1,23.1c-3.7,2.4-6.2,6.1-7.5,10.7c-0.3,1.2-1,2.4-1.7,3.5c-4.1,7-8.2,14-12.3,21c-0.1,0.2-0.2,0.3-0.3,0.5
		c-4.4,7.6-4.3,8.8,1.4,15.6c5.2,6.2,10.2,12.7,15.9,18.4c7.2,7.1,14.7,13.9,22.6,20.2c5,4,11,6.1,17.5,7c9.8,1.4,19.5,1.5,29.1-1.2
		c6.3-1.8,12.6-3.5,17.7-8c1.6-1.3,3.3-3.2,6.5-1.4c0.9,16.3,5.6,32.3,9.9,48.4c-1.8,0.3-3.2,0.2-4.1,0.8c-3.4,2.2-7.2,2.6-11,2.5
		c-8.1-0.2-16.3-0.7-24.4-0.8c-10.7-0.2-21.5,0.6-32.1-0.6c-7.4-0.8-14.9-0.4-22.3-1.6c-8.6-1.4-17.2-2.7-25.8-3.2
		c-9.4-0.6-18.1-3.7-26.9-6.2c-14.8-4.3-29.3-9.6-43.9-14.5c-4.7-1.6-8.2-4.7-10.7-9c-4.8-8.5-9.2-17.4-14.3-25.7
		c-8.4-13.9-12.7-29.1-15.4-45.1c-2.4-14.2-3.4-28.6-2.5-42.9c1.8-28.6,7.6-56.5,18.5-83c3.7-8.9,7.3-17.9,10.8-26.9
		c1.3-3.3,2.3-6.7,3.3-10.1c2.6-9,6.4-17.3,11.4-25.3c6.8-11,13.2-22.3,19.7-33.5c2.3-4,4.5-8.1,6.8-12.1c2-3.3,4-6.7,6.1-9.9
		c4-6,8.2-11.8,12.3-17.8c5.6-8.2,11.1-16.6,16.8-24.7c5.1-7.3,10.1-14.6,15.5-21.6c2.9-3.7,6.5-6.9,10.6-11.2
		c0.9,6.1,1.8,11.2,1.9,16.3c0.2,11.2-0.6,22.4,2.6,33.4c2.9,10.1,7.6,19.3,12.1,28.7c1.5,3.2,2.8,6.4,4.3,9.7c1.4,3,2.6,6.1,4.3,9
		c1.2,2.1,1.4,4,0.6,6.1c-0.8,2.1-1.8,4.1-2.5,6.2c-2.9,9.2-3.3,18.7-2.3,28.2c0.7,6.5,1,13.1,2.4,19.4c2.6,12,5.1,24,11.1,34.9
		C683.1,882.6,683.3,883.4,683.7,884.3L683.7,884.3z"/>
	<path d="M702.9,901.7c6,6.2,13.9,4.4,21.1,5.9c10.7,2.2,21.3,1.6,31.7-1.5c5.5-1.7,11.2-3.8,15.8-7.2c8.4-6.2,17.7-9.4,27.5-11.2
		c6.4-1.2,12.9-1.8,19.4-2.2c15.6-0.9,31.1,1.2,46.5,3.2c7.8,1,15.4,3.9,23.1,5.7c2.2,0.5,4.7,0.7,6.9,0.3c5.7-1,11.1,1.5,14.1,6.7
		c5.9,10.2,9,21.1,8.4,33.1c-0.2,5.5-1.2,10.7-3.6,15.6c-3.3,6.8-6.1,13.9-11.3,19.7c-1.7,1.8-2.3,4.6-3.5,6.9
		c-3.2,5.8-8,8.8-14.5,9.2c-12.2,0.8-24.5,1.7-36.7,3c-4.2,0.4-8.3,2.1-12.5,3.2c-3,0.8-5.9,1.6-8.9,2.2c-0.8,0.2-1.7,0.2-2.6,0.1
		c-5.4-0.6-10.6-1.1-16.1,0.6c-1.7,0.5-4.3-0.3-6.5-0.3c-3.9,0-6.9,1.8-10.2,3.2c-0.3,5.8,3,9.5,6.2,13.2c2.8,3.4,7,6.2,8.3,10.1
		c1.9,5.3,5.3,8.8,8.7,12.6c7.1,7.9,12.4,16.7,16.3,26.7c1.3,3.3,4.4,5.9,6.7,8.7c5.6,7,11.3,14,16.9,21c-8.5,5.7-69.4,21-85.4,21.4
		c-1.9-2.7-2.7-5.7-2.9-9.2c-0.2-2.9-1.1-5.8-2-8.6c-1.9-5.8-3.8-11.6-4-17.9c-0.6-14.2-4.3-27.9-7.6-41.7
		c-2.4-9.9-4.8-19.9-7.1-29.7c-4-1.5-7.9-2.5-11.5-4.2c-4.5-2.2-9-4.8-13.2-7.7c-5.7-3.9-11.4-8-16.6-12.6
		c-8.9-7.8-14.5-17.4-14.2-30.1c0.3-10.6,2.9-20.6,6.5-30.4c0.9-2.5,1.8-4.6,1.1-7.4C696.1,907.8,696.9,906.8,702.9,901.7
		L702.9,901.7z"/>
	<path d="M745.4,442c3.5,5,3.9,10.3,3.5,15.7c-0.1,1.7-0.5,3.3-0.4,5c0.4,12.1,1,24.2,1.5,36.3c1,26.3,2.8,52.4,6.9,78.4
		c2.3,14.5,5.2,28.7,9.1,42.8c1.5,5.5,2.4,11.3,3.2,17c2.1,14.9,5.7,29.5,9.1,44.2c3.4,14.6,7.6,29.1,8.5,44.3
		c0.3,5.2,2,10.2,2.7,15.4c0.4,2.7,0.1,5.5,0.1,8c-10.2-0.7-20.2-2.3-30.2-2c-12.9,0.4-26,0.2-38.7,4c-6.2,1.9-11.3,5-16.1,9.5
		c-3.7,3.5-8.3,5.9-12.5,8.8c-0.7,0.5-1.4,1.1-2.7,2c-1.3-2.2-2.6-4.2-3.8-6.4c-1.9-3.4-3.8-6.7-5.5-10.2c-1.8-3.7-3.4-7.4-5-11.1
		c-6.8-16.1-9.9-33.1-11.7-50.4c-0.5-4.8-0.7-9.6-0.7-14.5c0-1.8,0.5-3.7,1.3-5.3c1.3-2.9,2.8-5.7,4.5-8.3
		c7.6-11.1,12.1-23.7,16.4-36.4c3.3-9.7,6.8-19.3,9.8-29c1.1-3.7,1.3-7.7,1.7-11.5c0.7-6.7,1.4-13.3,2-20c0.8-9.6,2-19.3,2.3-28.9
		c0.2-9.3-0.5-18.6-0.8-27.8c0-0.2-0.1-0.4,0-0.6c0.9-12.5-1.1-24.9-2.7-37.2c-0.7-5.1-2.3-10-3.4-15.1c-0.7-3.1-1.1-6.2-1.6-9.3
		c-0.5-3,1.1-4.7,3.7-5.1c9.1-1.3,18.2-3,27.4-3.6C730.5,440.5,738,441.6,745.4,442L745.4,442z"/>
	<path d="M807.3,814.3c-1.1,13.8-2.4,26.5-8.3,37.9c-4.6,8.8-10.7,16.5-18.6,22.3c-8.1,5.9-17,10.8-26.6,13.6
		c-6.6,1.9-13.4,3.1-20.3,1.6c-1.8-0.4-3.6-0.1-5.4-0.1c-3.3,0-6.3-1-9.2-2.7c-5.8-3.4-11.7-6.4-16.6-11.4
		c-5.3-5.4-9-11.7-11.5-18.7c-3.8-10.7-5.5-21.9-4.7-33.4c0.3-4.1,0.4-8.2,0.9-12.2c1.4-11.9,8.8-20,16.9-27.7
		c12-11.3,26-17,42.1-18.5c8.4-0.8,16.7-1.4,24.7,1.5c12.5,4.5,23,11.6,29,24.5c1.5,3.2,4,5.9,5,9.2
		C806.1,805,806.6,810.3,807.3,814.3L807.3,814.3z"/>
	<path d="M816.6,1008.9c3.5-5.1,9.1-3.4,13.8-4.4c2.9-0.6,6.1,0.4,9.2,0.4c1.9,0,3.9-0.2,5.8-0.7c3.2-0.8,6.4-1.5,9.3-2.9
		c7.8-3.5,11.3-0.6,15.6,5.1c7.2,9.6,14.3,19.2,21.5,28.8c0.7,0.9,1.4,1.8,2.3,2.4c9.6,6.4,14.5,16.8,21.3,26.5
		c-14,6.9-26.5,16.4-42.4,18.7c-2.4-3.6-5-6.8-6.8-10.4c-3.6-7.3-9.9-12.2-14.8-18.4c-4.2-5.3-8.5-10.6-13.1-15.7
		c-3.3-3.6-6.9-6.8-9.9-10.8c-3.7-5-7.5-9.9-9.7-15.9C818.3,1010.7,817.3,1009.8,816.6,1008.9L816.6,1008.9z"/>
	<path d="M984.7,1013c-7.9-3.6-13.3-9.7-18.9-15.6c-3-3.2-6.5-6-9.7-8.9c-6.3-5.7-12.6-11.6-19-17.2c-3.3-2.9-6.8-5.4-10.2-8.1
		c-3.2-2.5-2.9-2.5-1.5-6.5c2.3-6.8,4.9-13.7,6.2-20.8c0.9-5-0.2-10.4-0.4-15.6c0-0.7-0.1-1.4-0.2-2.1c0.8-0.1,1.4-0.5,1.8-0.3
		c7.9,3.5,15.3,7.8,20.9,14.7c9.6,11.8,20.9,21.7,33.2,30.4c3.4,2.4,6.7,5.1,10.2,7.4c1.8,1.2,3.8,2.3,5.8,2.8c3.9,1,7.5,2.5,10.8,5
		c1.1,0.9,2.6,1.2,4,1.7C1015.8,986.3,994.5,1007.7,984.7,1013L984.7,1013z"/>
	<path d="M1053.6,935.5c0,0.7,0.2,1.2,0,1.4c-6.3,8.5-12.7,17.1-19,25.6c-3.1,4.1-3.5,4.5-8.2,2.4c-12.5-5.3-25.5-9.6-36.2-18.6
		c-9.7-8.1-19.4-16.1-29.2-24.1c-2.2-1.8-4.9-3-7.3-4.7c-2.4-1.6-4.8-3.3-6.9-5.3c-1.9-1.9-1.5-3.4,1-4.7c6.3-3.3,12.6-6.6,18.9-9.8
		c3.2-1.6,6.6-2.9,9.9-4.4c2-0.9,3.8-0.8,5.5,0.6c4.6,3.6,9.2,7.1,13.8,10.6c0.3,0.2,0.5,0.5,0.9,0.7c9,4.8,16.9,11.5,26.6,14.9
		c4.1,1.4,7.7,4,11.6,5.9c5.7,2.8,11.4,5.6,17,8.4C1052.6,934.8,1053.2,935.2,1053.6,935.5L1053.6,935.5z"/>
	<path d="M689.9,433.7c-3.7-9.9-7-18.9-10.5-27.9c-0.9-2.4-2.9-4.2-4.2-6.4c-2.8-4.7-5.7-9.4-8.3-14.3c-1.3-2.5-0.2-4.4,2.6-4.7
		c10.2-1.2,20.3-3.8,30.7-3.6c11.6,0.2,23.1,0,34.7,0.1c4,0,6,2.2,6,6.2c-0.2,12.2,0.1,24.4,2.1,36.5c0.2,1.3,0.1,2.6,0,3.9
		c-0.2,2.8-0.5,5.7-0.9,9.2C724.8,429.7,707.2,430.5,689.9,433.7L689.9,433.7z"/>
	<path d="M966.9,1028.3c-12.1,11.2-24.1,22.5-39.6,28.5c-4.7-9.5-9.5-18.4-16.2-26.4c-6.9-8.1-12.8-17.1-19.2-25.7
		c-0.6-0.9-1.1-1.9-1.5-2.7c1.3-3.6,3.4-5.3,7.1-6c5.4-1,8.8-5.4,11.3-10.3c1.5-3,2.7-6.1,4.2-9.1c0.8-1.6,1.9-3,3.3-5.2
		C933.3,990.6,950,1009.3,966.9,1028.3L966.9,1028.3z"/>
	<path d="M1017,897.8c12.8-3,25.8-5.3,37.7-11.3c11.6-5.9,23.4-11.5,35.1-17.2c0,0,0.1,0.1,0.2,0.2c0.1,0.1,0.2,0.4,0.2,0.5
		c-7.3,15.2-12.7,31.3-21.9,45.4c-1.5,2.3-3.2,4.5-4.7,6.5c-12-2.7-22.6-7.8-32.8-14c-2.9-1.8-6.1-3.1-9.1-4.9
		c-1.8-1.1-3.4-2.5-5.1-3.8C1016.8,898.8,1016.9,898.3,1017,897.8L1017,897.8z"/>
</g>
<g class="st0">
	<path class="st1" d="M410.5,1093.8l17.7,12.6c1.4,1,2.3,2.1,2.5,3.2c0.2,1.1-0.2,2.4-1.3,3.8l-52.6,74c-1,1.4-2.1,2.3-3.2,2.5
		c-1.1,0.2-2.4-0.2-3.8-1.3l-51-36.2c-1.4-1-2.3-2.1-2.5-3.2c-0.2-1.1,0.2-2.4,1.3-3.8l9.7-13.6c1-1.4,2.1-2.3,3.2-2.5
		c1.1-0.2,2.4,0.2,3.8,1.3l29.1,20.7l8.4-11.9l-19.9-14.1c-1.4-1-2.3-2.1-2.5-3.2c-0.2-1.1,0.2-2.4,1.3-3.8l9.7-13.7
		c1-1.4,2.1-2.3,3.2-2.5c1.1-0.2,2.4,0.2,3.8,1.3l19.9,14.1l16-22.5c1-1.4,2.1-2.3,3.2-2.5C407.8,1092.4,409.1,1092.8,410.5,1093.8z
		 M412.6,1110.8l-1.1-0.8l-19,26.7l-26-18.5l-0.8,1.1l26,18.5l-23.2,32.7l-35.3-25.1l-0.8,1.1l36.4,25.9L412.6,1110.8z"/>
</g>
<g class="st0">
	<path class="st1" d="M319.3,1012.9l13.7,16.7c1.1,1.4,1.6,2.6,1.5,3.7c-0.1,1.1-0.9,2.2-2.2,3.4l-70.2,57.6
		c-1.4,1.1-2.6,1.6-3.7,1.5c-1.1-0.1-2.2-0.8-3.4-2.2l-29.6-36.1c-6.6-8.1-9.5-15-8.7-20.9c0.8-5.8,3.9-10.9,9.3-15.3l5-4.1
		c3-2.5,6-4.2,8.9-5c2.9-0.8,5.7-0.5,8.5,0.9c-2.8-4.3-3.8-8.7-3-13.4c0.8-4.7,3.4-8.9,8-12.6l23-18.8c1.4-1.1,2.6-1.6,3.7-1.5
		c1.1,0.1,2.2,0.9,3.4,2.2l13.8,16.8c1.1,1.4,1.6,2.6,1.5,3.7c-0.1,1.1-0.9,2.2-2.2,3.4l-16.6,13.6c-1.6,1.3-2.5,2.6-2.8,3.8
		c-0.3,1.2,0.2,2.6,1.5,4.1l12.4,15.2l21.2-17.4c1.4-1.1,2.6-1.6,3.7-1.5C317.1,1010.8,318.2,1011.5,319.3,1012.9z M316,1028.7
		l-25.1,20.6l-25.2-30.7c-3.4-4.1-5-7.9-4.8-11.3c0.2-3.4,2-6.6,5.6-9.5l14.5-11.9L280,985l-14.5,11.9c-3.8,3.1-5.7,6.5-5.9,10.3
		c-0.2,3.8,1.5,7.9,5.1,12.3l1,1.2c-2.9-1.9-5.8-2.5-8.7-1.6c-2.8,0.9-5.9,2.7-9.2,5.4l-7.5,6.1c-3.5,2.9-5.6,6.3-6.3,10.3
		c-0.7,3.9,0.7,8,4.1,12.2l20.3,24.7l58.5-48L316,1028.7z M239.2,1052.2c-3.1-3.8-4.4-7.5-3.8-11.1c0.6-3.6,2.5-6.7,5.9-9.4l7.6-6.2
		c4-3.3,7.7-5,11.1-5.3c3.4-0.3,7,1.8,10.6,6.3l19.4,23.6l-31.3,25.7L239.2,1052.2z M257.6,1057l13.9-11.4l-6.7-8.1
		c-1.5-1.9-3.1-2.7-4.6-2.6c-1.5,0.2-3,0.8-4.4,2l-3.7,3c-1.4,1.2-2.4,2.5-2.8,4c-0.4,1.5,0.1,3.1,1.7,5L257.6,1057z"/>
</g>
<g class="st0">
	<path class="st1" d="M238.1,896.6c1.6-0.7,3-0.8,4-0.4c1,0.4,1.9,1.4,2.6,3.1l8.1,18.9c0.7,1.6,0.8,3,0.4,4c-0.4,1-1.4,1.9-3.1,2.6
		l-34,14.5c-2.6,1.1-5.7,2-9.4,2.6c-3.7,0.6-8.1,1-13.4,1.2l-34,1.3c-1.7,0.1-3.1-0.2-4.2-1c-1.1-0.8-2.1-2-2.8-3.7L137.4,905
		c-0.7-1.6-0.9-3.1-0.7-4.5c0.2-1.4,1-2.6,2.2-3.8l24.5-23.7c3.7-3.6,7.1-6.6,10.1-8.8c3-2.2,5.8-3.9,8.4-5l34-14.5
		c1.6-0.7,3-0.8,4-0.4c1,0.4,1.9,1.4,2.6,3.1l8.3,19.5c0.7,1.7,0.9,3.1,0.5,4.3c-0.4,1.1-1.4,2-3,2.7l-18,7.7l9.7,22.8L238.1,896.6z
		 M215.3,862.6l-0.6-1.3L187.3,873c-2.4,1-4.5,2.2-6.4,3.4c-1.9,1.2-3.6,2.6-5.2,4.1l-17.2,17.9c-2.1,2.1-3.6,4.1-4.8,5.9
		c-1.1,1.9-1.1,4.2,0.1,7l5.4,12.6c1.2,2.9,2.9,4.6,5.1,5.1c2.1,0.5,4.6,0.7,7.4,0.6l24.7-0.8c2.2-0.1,4.4-0.4,6.6-0.9
		c2.2-0.5,4.5-1.2,6.9-2.3l27.5-11.7l-0.6-1.3l-22.2,9.5l-21.5-50.3L215.3,862.6z M209.3,924.6c-2.3,1-4.5,1.7-6.7,2.2
		c-2.1,0.5-4.2,0.8-6.2,0.9l-24.7,0.8c-2.5,0.1-4.7-0.1-6.7-0.5c-1.9-0.4-3.5-1.9-4.6-4.5l-5.4-12.6c-1-2.4-1-4.4,0.1-6.1
		c1.1-1.7,2.5-3.5,4.3-5.4l17.2-17.9c1.5-1.3,3.1-2.6,4.9-3.9c1.8-1.2,3.9-2.3,6.2-3.3l4-1.7l21.5,50.3L209.3,924.6z M173.8,915.4
		L196,913l-8.6-20.2l-17,14.4c-0.6,0.7-1,1.3-1.2,1.8c-0.2,0.5-0.2,1.1,0.1,1.6l1.4,3.2c0.2,0.5,0.6,0.9,1.1,1.1
		C172.2,915.2,172.9,915.3,173.8,915.4z"/>
</g>
<g class="st0">
	<path class="st1" d="M203.8,765.7l2.5,20.9c0.2,1.8,0,3.1-0.7,4c-0.7,0.9-1.9,1.4-3.7,1.6l-90.2,10.9c-1.8,0.2-3.1,0-4-0.7
		c-0.9-0.7-1.4-1.9-1.6-3.7l-1.8-14.5c-0.2-1.8-0.1-3.3,0.3-4.6c0.4-1.3,1.2-2.7,2.5-4l27.6-30.7l-29.6,3.6c-1.8,0.2-3.1,0-4-0.7
		c-0.9-0.7-1.4-1.9-1.6-3.7L97,723.2c-0.2-1.8,0-3.1,0.7-4c0.7-0.9,1.9-1.4,3.7-1.6l90.2-10.9c1.8-0.2,3.1,0,4,0.7
		c0.9,0.7,1.4,1.9,1.6,3.7l2.5,20.9c0.2,1.8,0,3.1-0.7,4c-0.7,0.9-1.9,1.4-3.7,1.6l-17.1,2.1l-25.9,27.3l45.9-5.6
		c1.8-0.2,3.1,0,4,0.7C203,762.8,203.6,764,203.8,765.7z M118.1,783.7c-0.4,0.5-0.7,0.9-0.8,1.2c-0.2,0.3-0.2,0.6-0.2,1
		c0,0.4,0.2,0.7,0.6,1.1c0.3,0.3,0.8,0.5,1.3,0.4l73.6-8.9l-0.2-1.4l-73.3,8.9c-0.1,0-0.2,0-0.3,0c-0.1,0-0.2-0.1-0.2-0.2
		c0-0.1,0-0.2,0.1-0.4c0.1-0.2,0.2-0.3,0.2-0.4l52.6-59.7l14.3-1.7l-0.2-1.4l-75.1,9.1l0.2,1.4l58.7-7.1L118.1,783.7z"/>
</g>
<g class="st0">
	<path class="st1" d="M208.3,584.3l-5.1,33.8c-1.7,11.6-5.3,19.8-10.8,24.7c-5.5,4.9-13,6.6-22.6,5.2l-43.1-6.4
		c-9.6-1.4-16.3-5.3-20.2-11.6c-3.8-6.3-4.9-15.2-3.2-26.8l5.1-33.8c0.3-1.8,0.8-3,1.7-3.6c0.9-0.7,2.2-0.9,4-0.6l16.8,2.5
		c1.8,0.3,3,0.8,3.6,1.7c0.7,0.9,0.9,2.2,0.6,4l-4.2,27.9c-0.4,2.9-0.2,5.1,0.8,6.6c0.9,1.6,2.6,2.5,4.9,2.9l33,4.9
		c2.3,0.3,4.1-0.1,5.4-1.3c1.3-1.2,2.1-3.3,2.5-6.1l4.2-27.9c0.3-1.8,0.8-3,1.8-3.6c0.9-0.7,2.2-0.9,4-0.6l16.5,2.5
		c1.8,0.3,3,0.8,3.6,1.7C208.4,581.2,208.6,582.5,208.3,584.3z M193.3,589.8l-3.5,23.1c-1.2,8.3-3.3,13.7-6.2,16.1
		c-2.9,2.4-7.4,3.1-13.4,2.2l-38.8-5.8c-6.1-0.9-10.2-3-12.3-6.2c-2.1-3.2-2.6-8.9-1.3-17.1l3.5-23.1l-1.4-0.2l-3.5,23.1
		c-1.3,8.9-0.8,15,1.5,18.4c2.3,3.4,6.8,5.5,13.3,6.5l38.8,5.8c6.4,1,11.2,0.2,14.4-2.3c3.2-2.5,5.5-8.2,6.8-17.2l3.5-23.1
		L193.3,589.8z"/>
</g>
<g class="st0">
	<path class="st1" d="M224.9,526.7c-0.7,1.6-1.6,2.7-2.6,3.1c-1,0.4-2.4,0.3-4-0.4l-15.4-6.5c-1.6-0.7-2.7-1.6-3.1-2.6
		c-0.4-1-0.3-2.4,0.4-4l5.4-12.8l-43.4-18.3l-5.4,12.8c-0.7,1.6-1.6,2.7-2.6,3.1c-1,0.4-2.4,0.3-4-0.4l-15.6-6.6
		c-1.6-0.7-2.7-1.6-3.1-2.6c-0.4-1-0.3-2.4,0.4-4l23.2-55c0.7-1.6,1.6-2.7,2.6-3.1c1-0.4,2.4-0.3,4,0.4l15.6,6.6
		c1.6,0.7,2.7,1.6,3.1,2.6c0.4,1,0.3,2.4-0.4,4l-5.3,12.5l43.4,18.3l5.3-12.5c0.7-1.6,1.6-2.7,2.6-3.1c1-0.4,2.4-0.3,4,0.4l15.4,6.5
		c1.6,0.7,2.7,1.6,3.1,2.6c0.4,1,0.3,2.4-0.4,4L224.9,526.7z M233.5,473.7l-1.3-0.5l-8.3,19.8l-67.1-28.3l8.3-19.8l-1.3-0.5
		l-17.3,41.1l1.3,0.5l8.4-20l67.1,28.3l-8.4,20l1.3,0.5L233.5,473.7z"/>
</g>
<g class="st0">
	<path class="st1" d="M305.1,383.4l-26.8,35.2c-1.1,1.4-2.2,2.2-3.3,2.3c-1.1,0.2-2.4-0.3-3.8-1.4l-13-9.9c-1.4-1.1-2.2-2.2-2.3-3.3
		c-0.2-1.1,0.3-2.4,1.4-3.8l22.8-30c0.7-1,1-1.9,0.7-2.9c-0.3-1-0.8-1.8-1.7-2.5c-1.3-1-2.4-1.4-3.3-1.4c-1,0-1.8,0.5-2.7,1.4
		l-15.1,14.9c-4.7,4.6-9.6,7.5-14.7,8.6c-5.1,1.1-10.7-0.7-17-5.4l-11.7-8.9c-6.3-4.8-9.6-10.5-9.9-17.2c-0.3-6.7,2.3-13.6,7.8-20.8
		l23.8-31.2c1.1-1.4,2.2-2.2,3.3-2.3c1.1-0.1,2.4,0.3,3.8,1.4l13.3,10.1c1.4,1.1,2.2,2.2,2.3,3.3c0.2,1.1-0.3,2.4-1.4,3.8l-19.8,26
		c-0.7,1-1,2-0.8,3c0.2,1,0.8,1.9,1.8,2.6c1,0.7,2,1.1,3,1.1c1.1,0,2-0.5,2.8-1.4l14.9-14.9c4.7-4.6,9.6-7.5,14.7-8.7
		c5.1-1.2,10.8,0.6,17,5.4l11.7,8.9c6.3,4.8,9.6,10.6,9.8,17.3C313.1,369.3,310.5,376.2,305.1,383.4z M241.7,320.9l-18.8,24.8
		c-2.6,3.4-3.8,6.9-3.4,10.4c0.3,3.5,2,6.4,4.9,8.7l9.1,7c3,2.3,5.6,3.3,7.7,3c2.1-0.3,4.1-1.3,5.9-3l22.7-19.9c2-1.7,4.2-2.7,6.4-3
		c2.2-0.2,5.1,1,8.6,3.6l6.5,4.9c3,2.3,4.6,5.1,5,8.6c0.3,3.5-0.8,6.9-3.4,10.4l-21.1,27.8l1.1,0.8l21.1-27.8
		c2.9-3.8,4.1-7.6,3.7-11.5c-0.4-3.8-2.3-7-5.5-9.5l-6.5-4.9c-3.9-2.9-7.1-4.3-9.7-3.9c-2.6,0.3-5,1.4-7.1,3.3l-22.7,19.9
		c-1.6,1.5-3.3,2.4-5.1,2.6c-1.8,0.3-4.1-0.6-6.7-2.6l-9.1-7c-2.6-2-4.1-4.6-4.3-7.7c-0.3-3.2,0.7-6.3,3.1-9.4l18.8-24.8
		L241.7,320.9z"/>
</g>
<g class="st0">
	<path class="st1" d="M465.7,251.7l-31.8,17.8c-1.5,0.9-3,1.3-4.3,1.3c-1.3,0-2.7-0.6-4.2-1.8l-28.7-23.3c-1.7-1.4-3.2-2.6-4.5-3.7
		c-1.2-1.1-2.4-2.1-3.4-3.2c-1-1-2-2.2-2.8-3.5c-0.9-1.3-1.9-2.9-3-4.9l-18.1-32.3c-0.9-1.5-1.1-2.9-0.8-3.9
		c0.3-1.1,1.2-2.1,2.8-2.9l19.5-10.9c1.5-0.9,2.9-1.2,4.1-0.9c1.2,0.2,2.2,1.1,3.1,2.7l18.9,33.8c0.5,0.8,1,1.6,1.6,2.3
		c0.6,0.7,1.3,1.4,2.2,2.2l15.3,13.9c0.7,0.7,1.3,1.1,1.8,1.2c0.5,0.1,1.1,0,1.7-0.4l1.3-0.8c0.7-0.4,1.1-0.8,1.2-1.2
		c0.2-0.5,0.1-1.2-0.1-2.1l-3.9-20.5c-0.2-1.1-0.4-2.1-0.7-3c-0.3-0.9-0.7-1.8-1.1-2.6L413,171.3c-0.9-1.5-1.1-2.9-0.8-3.9
		c0.3-1.1,1.2-2.1,2.8-2.9l19.2-10.7c1.5-0.9,2.9-1.1,3.9-0.8c1.1,0.3,2.1,1.2,2.9,2.8l18.1,32.3c1.1,2,2,3.6,2.6,5.1
		c0.6,1.4,1.1,2.8,1.5,4.2c0.4,1.4,0.7,2.9,0.9,4.5c0.3,1.6,0.5,3.5,0.8,5.7l4.8,36.7c0.3,1.9,0.1,3.4-0.6,4.5
		C468.3,249.8,467.2,250.8,465.7,251.7z M382.4,197.1l14.8,26.4c1.3,2.3,2.6,4.3,4,6.1c1.4,1.8,2.9,3.3,4.6,4.7l19,15.1
		c2.3,1.8,4.5,3.2,6.6,4c2.1,0.9,4.4,0.6,6.9-0.8l10.8-6c2.5-1.4,4-3.2,4.3-5.5c0.4-2.2,0.4-4.8,0-7.7l-2.9-24.1
		c-0.3-2.2-0.8-4.3-1.6-6.4c-0.8-2.1-1.8-4.3-3.1-6.5l-14.8-26.4l-1.2,0.7l14.8,26.4c1.2,2.1,2.2,4.2,2.9,6.3
		c0.7,2.1,1.2,4.1,1.5,6.1l2.9,24.1c0.4,2.6,0.4,4.9,0.2,6.9c-0.2,2-1.5,3.6-3.8,4.9l-10.8,6c-2.3,1.3-4.3,1.5-6.2,0.6
		c-1.8-0.9-3.7-2.1-5.7-3.8l-19-15.1c-1.6-1.3-3-2.8-4.4-4.5c-1.4-1.7-2.7-3.7-3.9-5.8l-14.8-26.4L382.4,197.1z"/>
</g>
<g class="st0">
	<path class="st1" d="M540.6,220.3c-1.7,0.4-3.1,0.4-4-0.2c-1-0.6-1.7-1.7-2.1-3.4l-4.1-16.2c-0.4-1.7-0.4-3.1,0.2-4
		c0.6-1,1.7-1.7,3.4-2.1l13.5-3.4l-11.4-45.7l-13.5,3.4c-1.7,0.4-3.1,0.4-4-0.2c-1-0.6-1.7-1.7-2.1-3.4l-4.1-16.4
		c-0.4-1.7-0.4-3.1,0.2-4c0.6-1,1.7-1.7,3.4-2.1l57.9-14.5c1.7-0.4,3.1-0.4,4,0.2c1,0.6,1.7,1.7,2.1,3.4l4.1,16.4
		c0.4,1.7,0.4,3.1-0.2,4c-0.6,1-1.7,1.7-3.4,2.1l-13.2,3.3l11.4,45.7l13.2-3.3c1.7-0.4,3.1-0.4,4,0.2c1,0.6,1.7,1.7,2.1,3.4
		l4.1,16.2c0.4,1.7,0.4,3.1-0.2,4c-0.6,1-1.7,1.7-3.4,2.1L540.6,220.3z M588.1,195.4l-0.3-1.4l-20.8,5.2l-17.7-70.7l20.8-5.2
		l-0.3-1.4l-43.2,10.8l0.3,1.4l21.1-5.3l17.7,70.7l-21.1,5.3l0.3,1.4L588.1,195.4z"/>
</g>
<g class="st0">
	<path class="st1" d="M732.8,198.5l-71.3-0.7c-1.8,0-3.1-0.4-3.8-1.2c-0.8-0.8-1.2-2.1-1.2-3.9l0.9-90.8c0-1.8,0.4-3.1,1.2-3.8
		c0.8-0.8,2.1-1.2,3.9-1.2l21.7,0.2c1.8,0,3.1,0.4,3.8,1.2c0.8,0.8,1.2,2.1,1.2,3.9l-0.7,69.4l19.2,0.2l0.2-22.7
		c0-1.8,0.4-3.1,1.2-3.8c0.8-0.8,2.1-1.2,3.9-1.2l20.3,0.2c1.8,0,3.1,0.4,3.8,1.2c0.8,0.8,1.2,2.1,1.2,3.9l-0.4,44.1
		c0,1.8-0.4,3.1-1.2,3.8C735.8,198.2,734.6,198.5,732.8,198.5z M671.8,185.3l51.6,0.5l0.3-29l-1.4,0l-0.3,27.6l-48.8-0.5l0.8-74.3
		l-1.4,0L671.8,185.3z"/>
</g>
<g class="st0">
	<path class="st1" d="M817.9,209.6c-0.5,1.7-1.2,2.8-2.2,3.4c-1,0.5-2.3,0.6-4,0.1l-19.8-5.8c-1.7-0.5-2.8-1.2-3.4-2.2
		c-0.5-1-0.6-2.3-0.1-4l10.5-35.5c0.8-2.7,2.1-5.7,4-8.9c1.9-3.2,4.4-6.9,7.6-11.1l20.7-27.1c1-1.4,2.1-2.2,3.5-2.6
		c1.3-0.4,2.9-0.3,4.7,0.2l36.2,10.7c1.7,0.5,3,1.3,3.9,2.3c0.9,1,1.4,2.4,1.5,4.1l2.7,34c0.4,5.2,0.5,9.7,0.4,13.4
		c-0.2,3.7-0.7,7-1.5,9.7L872,225.6c-0.5,1.7-1.2,2.8-2.2,3.4c-1,0.5-2.3,0.6-4,0.1l-20.3-6c-1.8-0.5-3-1.3-3.6-2.3
		c-0.6-1-0.7-2.4-0.2-4.1l5.6-18.8l-23.8-7L817.9,209.6z M858.6,213.7l1.3,0.4l8.4-28.6c0.7-2.5,1.2-4.9,1.4-7.1
		c0.2-2.2,0.3-4.4,0.1-6.6l-2.8-24.6c-0.3-2.9-0.8-5.4-1.5-7.5c-0.7-2.1-2.5-3.5-5.5-4.4l-13.2-3.9c-3-0.9-5.5-0.7-7.2,0.6
		c-1.8,1.3-3.5,3.1-5.2,5.3l-15.1,19.5c-1.3,1.8-2.5,3.6-3.5,5.6c-1,2-1.9,4.2-2.6,6.7l-8.4,28.6l1.3,0.4l6.8-23.1l52.4,15.5
		L858.6,213.7z M814.6,169.6c0.7-2.4,1.6-4.6,2.6-6.5c1-1.9,2.1-3.7,3.3-5.3l15.1-19.5c1.6-2,3.1-3.6,4.6-4.8
		c1.5-1.2,3.7-1.5,6.3-0.7l13.2,3.9c2.5,0.7,4.1,2.1,4.7,3.9c0.6,1.9,1.1,4.1,1.4,6.8l2.8,24.6c0.1,2,0,4.1-0.2,6.2
		c-0.2,2.2-0.7,4.5-1.4,6.9l-1.2,4.2l-52.4-15.5L814.6,169.6z M844.3,148.1L832,166.7l21.1,6.2l-0.3-22.3c-0.1-0.9-0.3-1.6-0.6-2.1
		c-0.3-0.5-0.7-0.8-1.3-1l-3.4-1c-0.5-0.2-1.1-0.1-1.6,0.1C845.5,147,844.9,147.4,844.3,148.1z"/>
</g>
<g class="st0">
	<path class="st1" d="M997.7,305.7L982,291.8c-1.3-1.2-2-2.3-2.1-3.4c-0.1-1.1,0.5-2.3,1.7-3.7l60.1-68.1c1.2-1.3,2.3-2,3.4-2.1
		c1.1-0.1,2.3,0.5,3.7,1.7l16.9,14.9c1.1,1,1.8,2.1,2.1,3.2c0.3,1.1,0.3,2.5-0.1,4.2l-5.7,25.5c-0.2,0.9-0.3,1.7-0.3,2.2
		c0,0.5,0.2,0.9,0.6,1.3l0.9,0.8c0.4,0.4,0.9,0.5,1.4,0.5c0.5-0.1,1.2-0.3,2.1-0.6l24.5-8.9c1.6-0.6,3-0.8,4.2-0.6
		c1.2,0.2,2.3,0.7,3.4,1.7l17,15c1.3,1.2,2,2.3,2.1,3.4c0.1,1.1-0.5,2.3-1.7,3.7l-60.1,68.1c-1.2,1.3-2.3,2-3.4,2.1
		c-1.1,0.1-2.3-0.5-3.7-1.7l-16.2-14.3c-1.3-1.2-2-2.3-2.1-3.4c-0.1-1.1,0.5-2.3,1.7-3.7l32.7-37l-16.3,6c-1.7,0.6-3.2,0.8-4.5,0.6
		c-1.3-0.2-2.7-1-4-2.1l-4.2-3.7c-1.3-1.2-2.2-2.4-2.6-3.7c-0.4-1.3-0.4-2.8,0-4.6l3.9-16.9l-32.7,37c-1.2,1.3-2.3,2-3.4,2.1
		C1000.2,307.4,999,306.8,997.7,305.7z M1050.9,280.7c-1.3-1.1-1.9-2.2-2-3.3c-0.1-1.1,0.1-3,0.5-5.9l4.4-30.9
		c0.2-1.1,0.1-2-0.2-2.7c-0.3-0.7-0.8-1.4-1.4-1.9l-1.8-1.6c-0.9-0.8-1.8-1.1-2.7-1c-0.9,0.1-1.9,0.7-2.9,1.9l-47.2,53.5l1,0.9
		l47.2-53.5c0.5-0.6,1-1,1.7-1.2c0.6-0.3,1.3-0.1,2,0.5l1.6,1.4c0.5,0.4,0.9,0.9,1.1,1.4c0.3,0.5,0.3,1.3,0.1,2.3l-4.3,30.6
		c-0.4,3-0.6,5.1-0.5,6.4c0,1.3,0.8,2.6,2.4,4c1.5,1.4,3,2,4.2,1.9c1.3-0.1,3.4-0.6,6.3-1.3l29.9-8c1-0.3,1.8-0.4,2.3-0.2
		c0.5,0.2,1,0.5,1.4,0.9l1.6,1.4c0.7,0.6,1,1.3,0.8,1.9c-0.2,0.7-0.5,1.3-1,1.8l-47.2,53.5l1,0.9l47.2-53.5c1-1.1,1.5-2.1,1.5-3.1
		c0-0.9-0.5-1.8-1.5-2.7l-1.8-1.6c-0.6-0.5-1.2-0.8-2-1.1c-0.7-0.2-1.6-0.2-2.7,0.2l-30.1,8.2c-2.8,0.8-4.7,1.2-5.8,1.2
		C1053.4,282.4,1052.2,281.8,1050.9,280.7z"/>
</g>
<g class="st0">
	<path class="st1" d="M1154.6,456.2c-3.7,2.2-7.3,3.7-11,4.5c-3.6,0.8-7.4,0.4-11.2-1c-3.8-1.5-7.8-4.2-11.9-8.3
		c-4.1-4.1-8.5-9.8-13-17.2c-4.5-7.4-7.7-13.9-9.5-19.5c-1.8-5.6-2.5-10.4-2-14.5c0.4-4,1.8-7.5,4.1-10.4c2.3-2.9,5.3-5.5,9-7.7
		l40.7-25c3.7-2.2,7.3-3.7,11-4.5c3.6-0.8,7.4-0.4,11.2,1s7.8,4.2,12,8.3c4.2,4.1,8.5,9.9,13.1,17.3c4.5,7.4,7.7,13.9,9.4,19.4
		c1.8,5.6,2.4,10.4,1.9,14.4c-0.5,4.1-1.9,7.6-4.2,10.5c-2.3,2.9-5.3,5.5-9,7.7L1154.6,456.2z M1149.3,441.5l35.2-21.6
		c4.8-2.9,7.6-7,8.5-12.3c0.9-5.3-1.5-12.5-7.2-21.9c-5.7-9.3-11.1-14.7-16.1-16.3c-5-1.5-9.9-0.8-14.7,2.1l-35.2,21.6
		c-4.8,2.9-7.6,7-8.6,12.2c-0.9,5.2,1.5,12.4,7.2,21.7c5.7,9.3,11.1,14.8,16.2,16.4C1139.6,445.1,1144.5,444.4,1149.3,441.5z
		 M1120.5,394.4l35.2-21.6c4.5-2.7,9-3.4,13.7-1.8c4.7,1.5,9.8,6.7,15.2,15.5c5.4,8.8,7.8,15.7,7,20.7c-0.7,4.9-3.4,8.8-7.8,11.5
		l-35.2,21.6c-4.5,2.7-9.1,3.3-13.8,1.7c-4.8-1.6-9.8-6.8-15.3-15.6c-5.4-8.8-7.7-15.7-6.9-20.6
		C1113.4,400.9,1116,397.1,1120.5,394.4z M1130,406.5c-1.6,1-2.6,2.4-2.9,4.2c-0.3,1.9,0.8,4.9,3.4,9.2c2.6,4.3,4.9,6.7,6.7,7.3
		c1.8,0.5,3.5,0.3,5.1-0.7l32.1-19.7c1.5-0.9,2.4-2.3,2.8-4.2s-0.8-4.9-3.4-9.2c-2.6-4.3-4.9-6.7-6.7-7.3s-3.5-0.3-5,0.6L1130,406.5
		z"/>
</g>
<g class="st0">
	<path class="st1" d="M1159.8,544.3l-5.5-20.3c-0.5-1.7-0.4-3.1,0.1-4c0.6-1,1.7-1.7,3.4-2.2l87.7-23.7c1.7-0.5,3.1-0.4,4,0.1
		c1,0.6,1.7,1.7,2.2,3.4l3.8,14.1c0.5,1.7,0.6,3.3,0.4,4.6c-0.2,1.4-0.8,2.8-1.9,4.4l-23,34.4l28.8-7.8c1.7-0.5,3.1-0.4,4,0.1
		c1,0.6,1.7,1.7,2.2,3.4l5.5,20.3c0.5,1.7,0.4,3.1-0.1,4c-0.6,1-1.7,1.7-3.4,2.2l-87.7,23.7c-1.7,0.5-3.1,0.4-4-0.1
		c-1-0.6-1.7-1.7-2.2-3.4l-5.5-20.3c-0.5-1.7-0.4-3.1,0.1-4c0.6-1,1.7-1.7,3.4-2.2l16.6-4.5l21.8-30.7l-44.7,12.1
		c-1.7,0.5-3.1,0.4-4-0.1C1161,547.2,1160.3,546,1159.8,544.3z M1242,514.3c0.3-0.6,0.5-1,0.7-1.3c0.1-0.3,0.1-0.7,0-1
		c-0.1-0.4-0.3-0.7-0.7-1c-0.4-0.3-0.8-0.4-1.4-0.2l-71.6,19.3l0.4,1.4l71.3-19.3c0.1,0,0.2,0,0.3,0c0.1,0,0.2,0.1,0.2,0.2
		s0,0.2,0,0.4c-0.1,0.2-0.1,0.3-0.2,0.4l-43.6,66.6l-13.9,3.8l0.4,1.4l73.1-19.7l-0.4-1.4l-57.1,15.4L1242,514.3z"/>
</g>
<g class="st0">
	<path class="st1" d="M1174.3,773.9l6.6-43.8c0.3-1.8,0.8-3,1.8-3.6c0.9-0.7,2.2-0.9,4-0.6l16.2,2.5c1.8,0.3,3,0.8,3.6,1.8
		c0.7,0.9,0.9,2.2,0.6,4l-5.6,37.3c-0.2,1.2,0.1,2.2,0.8,2.9c0.7,0.7,1.6,1.2,2.7,1.3c1.6,0.2,2.8,0.1,3.6-0.4
		c0.8-0.5,1.4-1.3,1.7-2.5l6.1-20.3c1.9-6.3,4.8-11.2,8.7-14.6c3.9-3.4,9.8-4.5,17.5-3.4l14.5,2.2c7.9,1.2,13.5,4.6,16.9,10.4
		c3.4,5.7,4.5,13.1,3.1,22l-5.9,38.8c-0.3,1.8-0.9,3-1.8,3.6c-0.9,0.7-2.2,0.9-4,0.6l-16.5-2.5c-1.8-0.3-3-0.9-3.6-1.8
		c-0.7-0.9-0.9-2.2-0.6-4l4.9-32.3c0.2-1.2-0.1-2.2-0.8-3c-0.7-0.8-1.6-1.2-2.8-1.4c-1.2-0.2-2.3,0-3.2,0.5
		c-0.9,0.5-1.5,1.4-1.8,2.6l-5.9,20.2c-1.9,6.3-4.8,11.2-8.7,14.7c-3.9,3.5-9.8,4.6-17.5,3.4l-14.5-2.2c-7.9-1.2-13.5-4.7-16.9-10.4
		C1174,790,1172.9,782.7,1174.3,773.9z M1259.9,798.3l4.7-30.8c0.6-4.2,0-7.8-2-10.8c-2-2.9-4.8-4.7-8.5-5.3l-11.4-1.7
		c-3.8-0.6-6.5-0.2-8.2,1.1c-1.7,1.3-2.9,3.1-3.7,5.5l-10.4,28.3c-0.9,2.5-2.3,4.4-4.2,5.7c-1.8,1.3-4.9,1.6-9.3,0.9l-8-1.2
		c-3.7-0.6-6.5-2.3-8.5-5.2c-2-2.9-2.6-6.5-2-10.7l5.2-34.5l-1.4-0.2l-5.2,34.5c-0.7,4.7,0,8.7,2.2,11.8s5.4,5.1,9.4,5.7l8,1.2
		c4.8,0.7,8.3,0.3,10.4-1.2c2.1-1.5,3.7-3.6,4.6-6.3l10.4-28.3c0.7-2.1,1.8-3.7,3.3-4.7c1.5-1.1,3.8-1.4,7.1-0.9l11.4,1.7
		c3.2,0.5,5.7,2,7.5,4.7c1.8,2.6,2.4,5.9,1.8,9.8l-4.7,30.8L1259.9,798.3z"/>
</g>
<g class="st0">
	<path class="st1" d="M1153.8,854.4c0.7-1.6,1.6-2.7,2.6-3.1c1-0.4,2.4-0.3,4,0.4l15.3,6.6c1.6,0.7,2.7,1.6,3.1,2.6
		c0.4,1,0.3,2.4-0.4,4l-5.5,12.8l43.3,18.5l5.5-12.8c0.7-1.6,1.6-2.7,2.6-3.1c1-0.4,2.4-0.3,4,0.4l15.6,6.7c1.6,0.7,2.7,1.6,3.1,2.6
		c0.4,1,0.3,2.4-0.4,4l-23.5,54.9c-0.7,1.6-1.6,2.7-2.6,3.1c-1,0.4-2.4,0.3-4-0.4l-15.6-6.7c-1.6-0.7-2.7-1.6-3.1-2.6
		c-0.4-1-0.3-2.4,0.4-4l5.3-12.5l-43.3-18.5l-5.3,12.5c-0.7,1.6-1.6,2.7-2.6,3.1c-1,0.4-2.4,0.3-4-0.4L1133,916
		c-1.6-0.7-2.7-1.6-3.1-2.6c-0.4-1-0.3-2.4,0.4-4L1153.8,854.4z M1144.9,907.3l1.3,0.6l8.4-19.7l67,28.7l-8.4,19.7l1.3,0.6l17.5-41
		l-1.3-0.6l-8.5,20l-67-28.7l8.5-20l-1.3-0.6L1144.9,907.3z"/>
</g>
<g class="st0">
	<path class="st1" d="M1072.4,998l13.9-18c1.1-1.4,2.2-2.2,3.3-2.3c1.1-0.1,2.4,0.3,3.8,1.4l54.5,42l12.6-16.3
		c1.1-1.4,2.2-2.2,3.3-2.3c1.1-0.1,2.4,0.3,3.8,1.4l13.4,10.3c1.4,1.1,2.2,2.2,2.3,3.3c0.1,1.1-0.3,2.4-1.4,3.8l-45.2,58.6
		c-1.1,1.4-2.2,2.2-3.3,2.3c-1.1,0.1-2.4-0.3-3.8-1.4l-13.4-10.3c-1.4-1.1-2.2-2.2-2.3-3.3c-0.1-1.1,0.3-2.4,1.4-3.8l12.6-16.3
		l-54.5-42c-1.4-1.1-2.2-2.2-2.3-3.3S1071.3,999.4,1072.4,998z M1089.7,996.1l-0.9,1.1l58.8,45.3l-17.5,22.8l1.1,0.9l35.9-46.6
		l-1.1-0.9l-17.5,22.8L1089.7,996.1z"/>
</g>
<g class="st0">
	<path class="st1" d="M962.4,1099.7l51.5-39.7c1.4-1.1,2.7-1.6,3.8-1.4c1.1,0.1,2.2,0.9,3.3,2.3l55.4,72c1.1,1.4,1.6,2.7,1.4,3.8
		c-0.1,1.1-0.9,2.2-2.3,3.3l-51.5,39.6c-1.4,1.1-2.7,1.5-3.8,1.4c-1.1-0.1-2.2-0.9-3.3-2.3l-10-13c-1.1-1.4-1.6-2.7-1.4-3.8
		c0.1-1.1,0.9-2.2,2.3-3.3l30.7-23.6l-6.6-8.6l-21.7,16.7c-1.4,1.1-2.7,1.5-3.8,1.4c-1.1-0.1-2.2-0.9-3.3-2.3l-9.1-11.9
		c-1.1-1.4-1.6-2.7-1.4-3.8c0.1-1.1,0.9-2.2,2.3-3.3l21.7-16.7l-7.3-9.6l-30.7,23.6c-1.4,1.1-2.7,1.5-3.8,1.4
		c-1.1-0.1-2.2-0.9-3.3-2.3l-10-13c-1.1-1.4-1.6-2.7-1.4-3.8C960.2,1101.9,961,1100.8,962.4,1099.7z M976.9,1106.2l36.3-27.9
		l22.1,28.8l-27.3,21l0.9,1.1l27.3-21l21.4,27.9l-36.3,27.9l0.9,1.1l37.4-28.8l-46.1-60l-37.4,28.8L976.9,1106.2z"/>
</g>
</svg>
