<?xml version="1.0" encoding="UTF-8"?>
<svg id="b" data-name="Layer 2" xmlns="http://www.w3.org/2000/svg" width="484.9mm" height="473.66mm" viewBox="0 0 1374.52 1342.67">
  <defs>
    <style>
      .d {
        stroke-width: 0px;
      }

      .e {
        fill: #1d1d1b;
        font-family: BungeeInline-Regular, 'Bungee Inline';
        font-size: 140.15px;
      }
    </style>
  </defs>
  <g id="c" data-name="Layer 1">
    <g>
      <path class="d" d="m1073.87,495.3c-.92-.41-2.15-.56-2.72-1.27-5.47-6.8-13.51-9.95-20.12-15.12-3.02-2.36-6.54-4.03-9.62-6.32-8.6-6.39-18.97-8.05-28.64-11.6-.5-.19-1.12-.08-1.61-.29-18.14-7.71-37.92-7.17-56.66-11.88-2.23-.56-4.71-.04-7.06-.19-5.23-.31-10.44-.86-15.67-1.06-5.08-.19-10.16,0-15.24-.07-3.76-.05-4.64-.82-5.85-4.46-2.45-7.37-4.78-14.79-7.42-22.08-3.6-9.97-9.93-18.22-18.78-23.23-12.22-6.93-24.42-14.05-38.53-17.01-9.68-2.03-18.88-6.34-28.41-9.26-6.38-1.96-12.93-3.41-19.45-4.84-7.95-1.74-15.9-3.63-23.95-4.7-11.8-1.57-23.37-4.94-35.48-4.37-6.47.31-13.01-1.17-19.5-1.06-7.03.12-14.05,1.16-21.08,1.77-2.16.19-4.33.34-6.5.45-9.05.45-18.11.61-27.13,1.38-7.54.64-15.03,2.01-22.55,3.01-6.27.83-12.56,1.53-18.83,2.4-4.64.65-9.39,1.01-13.86,2.32-10.65,3.14-21.56,4.64-32.41,6.65-7.07,1.31-13.94,3.77-20.95,5.47-5.62,1.36-11.43,1.98-16.97,3.59-18.58,5.4-36.26,12.77-51.77,25.03-9.16,7.24-18.81,13.82-28.09,20.9-14.32,10.92-27.39,23.34-39.62,36.63-12.18,13.25-21.51,28.64-29.82,44.66-3.93,7.57-7.37,15.4-11.12,23.07-1.93,3.94-2.61,8.06-2.6,12.45.02,5.38-.31,10.76-.51,16.77.34.15,1.41.94,2.57,1.1,13.94,1.84,27.75,1.09,41.43-2.28,3.16-.78,6.41-1.14,9.54-2.01,4.32-1.21,8.55-2.78,12.85-4.08,5.36-1.61,10.76-3.11,16.93-4.88.72,1.94,1.64,4.03,2.26,6.21,1.33,4.64,2.39,9.36,3.75,13.99,2.3,7.83,4.83,15.59,7.05,23.45.52,1.85.44,4,.14,5.93-.61,3.85-1.44,7.68-2.4,11.45-1.28,5.03-2.75,10.01-4.2,14.99-.19.65-.69,1.27-1.19,1.73-5.75,5.25-11.6,10.4-17.3,15.72-6.83,6.38-13.41,13.07-20.35,19.33-10.63,9.59-21.55,18.86-32.21,28.41-5.06,4.54-9.88,9.36-14.7,14.18-3.66,3.66-3.96,6.35-1.84,11.36.79,1.87,1.5,3.81,2,5.78,3.65,14.21,8.1,28.19,9.11,43.07.45,6.58,3.19,12.97,4.56,19.51,2.56,12.22,4.78,24.49,8.76,36.37,1.52,4.53,1.25,9.7,2.82,14.2,2.86,8.21,6.15,16.3,9.88,24.12,4.23,8.86,9.72,17.12,13.59,26.13,3.83,8.93,9.79,16.09,15.54,23.5,4.97,6.4,10.7,12.24,15.13,19,3.82,5.83,8.95,10.17,13.62,14.98,6.57,6.77,14.46,11.76,23.62,15.18-.51,7.53-1.13,15.1-1.47,22.68-.13,2.95.35,5.93.59,8.89,1.08,13.39,2.9,26.67,5.91,39.74.75,3.25,1.89,6.42,3.09,9.53,3.32,8.61,6.77,17.17,10.56,26.75-2.71-.36-4.46-.14-5.76-.83-7.88-4.17-15.76-8.35-23.43-12.9-16.28-9.67-32.35-19.71-47.08-31.83-3.82-3.15-7.77-6.14-11.64-9.22-.86-.68-2.09-1.25-2.45-2.17-2.14-5.43-7.12-7.83-11.14-11.16-7.66-6.34-14.66-13.23-20.73-21.3-12.75-16.95-26.01-33.5-38.87-50.37-2.06-2.7-2.93-6.33-4.76-9.26-4.81-7.71-10.06-15.12-14.71-22.92-4.07-6.82-7.58-13.99-11.34-21.01-.52-.98-.9-2.07-1.54-2.96-6.91-9.52-11.22-20.48-15.79-31.22-3.18-7.47-4.92-15.58-7.45-23.35-1.44-4.41-3.25-8.68-4.76-13.07-4.28-12.47-8.6-24.93-12.69-37.47-1.73-5.29-2.99-10.75-4.36-16.16-2.66-10.54-3.41-21.24-2.69-32.11.18-2.72-.18-5.6-.86-8.25-3.79-14.73-5.73-29.53-2.75-44.7.5-2.54.8-5.19.75-7.78-.46-24.88,4.43-48.97,10.13-72.92,4.01-16.85,8.42-33.61,12.73-50.39.88-3.42,1.91-6.81,3.17-10.1,5.72-14.91,11.52-29.8,17.38-44.65.95-2.41,2.05-4.85,3.55-6.92,11.14-15.42,21.09-31.85,34.71-45.21,3.93-3.85,6.82-8.03,8.77-13.17,3.55-9.36,9.22-17.47,15.91-24.56,20.66-21.92,43.33-41.18,68.84-57.17,19.22-12.05,39.21-22.58,58.6-34.26,9.75-5.87,20.31-9.83,31.23-12.73,9.28-2.46,18.65-4.57,27.92-7.1,3.12-.85,6.05-2.46,9.01-3.85,8.5-3.98,17.63-5.39,26.69-7.1,6.57-1.24,13.17-2.33,19.77-3.38,1.61-.25,3.09-.11,4.18-1.91.5-.83,2.15-1.15,3.33-1.28,9.86-1.16,19.83-1.65,29.57-3.47,9.83-1.84,19.45-.06,29.17-.05,5.42,0,10.83-.7,16.25-.84,5.8-.15,11.65-.47,17.4.1,10.07,1,20.09,2.51,30.1,4.03,10.2,1.55,20.38,3.22,30.52,5.14,6.74,1.28,13.58,2.49,20.02,4.79,7.65,2.73,14.88,6.69,22.37,9.92,1.88.81,4.13.68,6.09,1.35,8.24,2.82,16.59,5.38,24.62,8.77,15.75,6.65,31.33,13.73,46.92,20.77,2.79,1.26,5.28,3.24,7.9,4.88,4.46,2.79,8.91,5.59,13.37,8.38.62.39,1.29.7,1.87,1.14,8.99,6.94,19.44,11.22,29.1,16.94,4.85,2.87,10.04,5.55,14.03,9.45,12.49,12.23,24.84,24.66,36.55,37.67,8.48,9.43,15.66,20.08,23.78,29.86,4.94,5.96,10.74,11.15,15.81,17,3.1,3.58,5.78,7.62,8.25,11.7,4.11,6.81,8.07,13.72,11.78,20.77,3.25,6.17,6.07,12.58,9.1,18.87,1.1,2.28,2.27,4.52,3.4,6.78-.32.31-.65.63-.97.94Z"/>
      <path class="d" d="m522.35,742.96c.42-.6,1.03-1.14,1.24-1.81,3.04-9.76,9.16-17.68,14.65-25.95,7.37-11.11,14.09-22.57,19.63-34.77,1.45-3.2,3.73-6.01,5.11-9.23,2.92-6.81,5.44-13.79,8.24-20.65,1.18-2.91,2.88-5.6,3.94-8.55,2.15-5.92,4.01-11.96,6.03-17.94,3.28-9.71,5.51-19.66,6.32-29.92.68-8.73,1.41-17.46,1.83-26.21.43-8.94.91-17.92.63-26.85-.34-10.61-1.46-21.18-2.25-31.77-.17-2.23-.44-4.45-.49-6.67-.12-5.38.02-10.71-2.15-15.89-1.19-2.83-1.07-6.22-1.73-9.31-1.78-8.36-3.45-16.76-5.59-25.02-1.25-4.83-3.29-9.46-5.04-14.15-2.15-5.74-4.07-11.59-6.64-17.13-3.25-6.99-7.06-13.7-10.75-20.76,2.61-.96,5.56-2.32,8.64-3.14,14.35-3.81,28.68-7.7,43.12-11.1,9.48-2.24,19.12-3.87,28.74-5.42,3.89-.62,6.93,1.66,9.1,4.97,4.14,6.34,8.27,12.69,12.38,19.05.6.93,1.24,1.88,1.6,2.92,4.26,12.51,10.77,23.96,15.93,36.05,4.04,9.46,6.5,19.37,8.16,29.5,3.22,19.65,2.65,39.47,2.07,59.24-.33,11.34-1.11,22.74-2.7,33.96-2.75,19.36-10.08,37.28-18.1,54.88-4.69,10.3-9.17,20.71-14.27,30.79-5.11,10.1-11.45,19.41-19.36,27.5-1.02,1.04-1.84,2.3-2.68,3.5-14.03,19.96-28.09,39.9-42.05,59.91-7.58,10.86-14.98,21.85-22.47,32.78-.63.91-1.23,1.85-1.92,2.71-17.93,22.21-30.44,47.62-41.19,74.05-.28.69-.63,1.39-.71,2.11-.83,7.64-4.98,13.9-8.2,20.5-5.72,11.7-10.88,23.6-14.42,36.21-.65,2.3-1.65,4.5-2.57,7-4.9-.72-8.49-3.31-11.56-6.79-6.81-7.72-13.95-15.07-20.28-23.3-6.69-8.7-11.73-18.4-17.9-27.37-1.94-2.82-2.92-6.34-4.29-9.57-4.61-10.92-11.12-21-13.8-32.78-1.68-7.42-3.34-14.84-5.02-22.26-1.29-5.67,2.13-9.5,5.04-13.49.75-1.02,2.03-1.65,2.73-2.69,8.16-12.32,16.83-24.35,20.63-39.13.88-3.4,2.14-6.76,3.65-9.93,7.43-15.58,10.4-32.53,14.38-49.16,3.38-14.12,6.9-28.21,9.89-42.42,3.18-15.11,5.83-30.34,8.61-45.54.25-1.38-.04-2.98-.46-4.35-1.65-5.33-3.46-10.61-5.2-15.92-2.31-7.06-4.46-14.18-6.95-21.17-3.42-9.6-7.41-18.99-10.57-28.67-3.39-10.38-9.32-19.33-14.17-28.89-3.27-6.45-6.65-12.84-9.88-19.31-2.12-4.25-1.86-7.49,1.98-11.3,15.13-15.03,32.23-27.05,50.63-37.33,5.72-3.2,11.18-6.91,16.8-10.3,4.48-2.7,7.92-1.98,11.26,2.25.92,1.16,1.83,2.34,2.59,3.61,5.97,10,13.55,18.79,20,28.41,2.95,4.41,5.03,9.46,7.3,14.32,1.88,4.03,3.22,8.33,5.21,12.29,3.93,7.83,7.33,15.82,8.91,24.54.26,1.45.7,2.9,1.25,4.27,7.56,19.14,10.23,39.22,9.76,59.66-.72,31.11-6.06,61.42-15.64,91.03-5.24,16.18-11.69,31.65-19.76,46.48-.8,1.46-1.49,3-2.08,4.56-2.72,7.14-5.89,14-9.95,20.47-2.71,4.32-4.6,9.13-5.17,14.4Z"/>
      <path class="d" d="m1053.22,661.81c.58-2.82,1.55-4.76,1.24-6.46-1.94-10.63-4.2-21.14-8.91-30.99-5.38-11.26-13.7-19.07-24.7-24.02-5.96-2.69-12.04-5.1-18.07-7.63-5.57-2.34-11.33-2.13-17.14-1.28-1.25.18-2.51.62-3.74.55-7.41-.45-14.2,1.63-21.15,4.13-8.05,2.89-14.1,8.25-19.85,14.15-9.52,9.76-17.33,21.02-25.68,31.81-3.89,5.03-8.47,9.51-12.78,14.3-2.85-2.29-2.33-4.87-2.08-7.43.91-9.26,1.89-18.52,2.57-27.8.23-3.12-.68-6.33-.54-9.47.46-10.24,1.26-20.46,1.74-30.69.59-12.48,1.12-24.96,1.41-37.45.11-4.89.62-9.6,1.81-14.35.89-3.54.86-7.33,1.2-11.01.36-3.89.71-7.79,1-11.69.75-10.21,1.47-20.42,2.22-30.63.07-.9.36-1.79.57-2.84,4.34-1.61,8.6-2.8,13.24-2.78,13.97.06,27.84,1.3,41.69,2.97,4.85.59,9.76,1.17,14.63,1.04,12.74-.33,24.44,4.7,36.62,7.23,3.44.72,6.63,2.88,9.86,4.53,9.2,4.72,18.5,9.26,27.5,14.36,9.77,5.54,17.71,13.57,25.64,21.52.9.9,1.65,2,2.32,3.1,10.05,16.42,19.21,33.23,24.53,52.07,4.05,14.33,9.15,28.34,13.42,42.61,4.86,16.24,9.01,32.73,10.19,49.71,1.27,18.25,1.52,36.55-1.16,54.76-2.49,16.94-4.76,33.92-7.3,50.85-.97,6.43-2.37,12.8-3.68,19.17-1.01,4.91-2.2,9.79-3.28,14.69-2.53,11.55-7.61,22.13-11.89,33-.59,1.49-1.66,2.92-2.85,3.98-4.12,3.66-8.29,7.27-12.61,10.67-6.06,4.77-12.43,8.86-19.89,11.25-5.3,1.7-10.24,4.66-15.27,7.21-9.37,4.75-19.11,7.76-29.68,7.75-2.83,0-5.65,1.12-8.5,1.57-3.9.62-7.69,1.11-11.73-.11-3.57-1.08-7.51-1.33-11.26-1.21-13.51.43-24.46-5.56-34.55-13.93-.99-.82-1.89-1.85-3.01-2.4-10.46-5.08-17.72-14.05-25.63-22.22-1.89-1.96-3.31-4.39-4.99-6.57-1.22-1.59-2.5-3.13-3.79-4.65-.72-.84-1.81-1.47-2.23-2.43-3.6-8.12-9.29-15.13-11.44-24.04-1.75-7.22-4.39-14.22-6.22-21.42-2.22-8.68-3.3-17.51-3.14-26.58.15-8.37-.8-16.76-.9-25.14-.09-7.04.09-14.1.61-21.12.59-7.99,1.94-15.92,2.49-23.91.54-7.75,4.13-13.89,9.03-19.22,4.59-5,9.92-9.27,14.73-14.07,5.14-5.13,12-5.88,18.31-7.92,11.25-3.64,22.9-5.27,34.56-6.84,6.09-.82,12.13-2.02,18.31-1.11,13.67,2.02,27.07,4.78,39.15,12.36,5.79,3.63,12.08,6.41,19.07,10.06Zm-49.26,59.24c-2,0-3.99.03-5.99,0-7.58-.13-14.79.93-20.83,6.27-.8.71-1.92,1.03-2.86,1.58-5.82,3.41-11.47,7.11-14.01,13.88-.99,2.64-1.71,5.74-1.39,8.49.58,4.95,1.63,9.92,3.2,14.63,2.56,7.67,6.17,14.8,13.83,18.52,3.89,1.89,7.84,3.65,11.83,5.29,2.34.96,4.95,1.29,7.19,2.43,5.5,2.8,11.16,2.73,16.91,1.52,9.08-1.91,15.37-8.48,20.72-15.31,5.63-7.19,9.71-15.67,14.38-23.64,1.02-1.74,1.96-3.62,2.51-5.56,2.58-9.1,3.68-11.02-5.92-16.79-12.12-7.29-24.94-12.89-39.57-11.3Z"/>
      <path class="d" d="m764.15,379.01c3.03.51,6.46.78,9.71,1.71,6.31,1.8,12.6,3.31,19.21,3.04,5.87-.24,11.45,1.28,17.03,3.07,9.84,3.16,19.84,5.78,29.61,9.15,10.44,3.59,20.81,7.31,30.61,12.8,14.67,8.22,22.06,21.07,24.13,37.44,1.02,8.07,1.34,16.32.32,24.49-.27,2.16-1.06,4.24-1.54,6.37-.24,1.07-.53,2.22-.39,3.28,1.64,12.68-.25,25.31-.26,37.96,0,9.81-2.2,19.23-3.18,28.84-1.29,12.6-1.54,25.32-2.04,38-.62,15.85-.35,31.77-1.8,47.53-.84,9.08-1.9,18.1-2.06,27.25-.07,3.67-1.77,7.3-1.89,10.98-.32,9.48-.24,18.98-.19,28.47.03,5.97.29,11.95.46,17.92.36,12.12.58,24.25,1.14,36.36.71,15.44,1.11,30.94,5.62,45.89.32,1.05.48,2.2.44,3.29-.29,6.85,2.25,12.76,5.67,18.38,2.31,3.8,4.75,7.51,6.91,11.4,5.29,9.51,12.11,17.74,20.01,24.95,3.62,3.31,7.97,5.78,12.01,8.61,6.7,4.7,12.15,11.24,19.98,14.28,1.35.53,2.69,1.15,3.91,1.94,1.97,1.27,3.83,2.71,5.88,4.17-3.8,3.99-8.46,5.04-12.95,6.52-7.16,2.35-13.7,5.71-18.49,12.03-1.07,1.41-2.82,2.27-4.36,3.46-3.4-1.66-3.2-4.88-3.12-7.7.12-4.48-1.49-7.65-4.89-10.47-5.12-4.25-10.42-7.96-16.76-10.02-2.32-.75-4.45-1.63-6.59.38-1.84,1.73-3.65.93-5.46-.22-2.93-1.86-6.03-3.46-8.81-5.52-3.24-2.39-6.98-2.7-10.65-3.42-4.06-.8-8.13-1.64-12.22-2.23-5.89-.85-11.86-1.18-17.69-2.29-9.1-1.74-17.47.58-25.75,3.96-.49.2-1.02.3-1.54.42-.17.04-.36-.04-.76-.09-2.08-2.21-2.46-4.32-.29-7.18,1.48-1.96,2.11-4.64,2.92-7.07,1.18-3.52,1.95-7.2,3.32-10.63,4.09-10.21,4.03-20.71,2.6-31.37-.05-.37-.21-.73-.21-1.1.05-14.78-5.32-28.4-8.53-42.48-1.73-7.58-3.99-15.08-3.82-23.02.04-1.63-.55-3.29-.92-4.92-3.96-17.04-8.08-34.05-11.87-51.13-3.8-17.08-6.51-34.46-11.11-51.3-4.26-15.6-5.06-31.57-7.34-47.37-2.26-15.67-4.06-31.41-5.98-47.13-1.74-14.24-3.36-28.49-5.04-42.73-2.07-17.58-4.45-35.12-6.1-52.74-.82-8.71-.86-17.59-.24-26.31.77-10.84.98-21.59-.37-32.36-.61-4.83-.11-9.3,3.77-13.52Z"/>
      <path class="d" d="m683.67,884.33c-2.55,3.01-5.53,4.03-8.98,3.92-11.47-.36-21.67,4.17-31.34,9.6-10.66,5.99-20.78,13.03-28.81,22.67-6,7.2-12.5,14.18-13.08,24.47-3.87,6.78-.12,13.89-.81,20.82-.21,2.07.24,4.2.46,7.25,6.72-5.99,14.12-8.24,21.28-11.21,6-2.48,11.5-6.3,17.07-9.8,4.46-2.81,5.61-2.4,6.73,2.91,1.6,7.6,3.32,15.17,5.07,23.11-3.71,2.41-6.22,6.09-7.52,10.7-.35,1.24-1,2.41-1.65,3.52-4.09,7.03-8.22,14.03-12.34,21.03-.09.16-.22.3-.31.46-4.36,7.6-4.3,8.84,1.43,15.64,5.23,6.2,10.22,12.67,15.94,18.36,7.16,7.12,14.71,13.89,22.56,20.17,4.99,3.99,11.04,6.14,17.49,7.03,9.8,1.36,19.48,1.53,29.07-1.24,6.26-1.81,12.56-3.48,17.72-7.97,1.56-1.35,3.26-3.18,6.47-1.42.86,16.28,5.56,32.28,9.86,48.39-1.81.32-3.17.18-4.07.78-3.4,2.25-7.16,2.57-10.99,2.46-8.14-.22-16.27-.66-24.4-.81-10.71-.2-21.5.58-32.1-.56-7.45-.8-14.93-.4-22.35-1.61-8.56-1.41-17.18-2.67-25.83-3.25-9.36-.63-18.13-3.67-26.95-6.25-14.78-4.32-29.28-9.62-43.91-14.49-4.72-1.57-8.23-4.74-10.67-9.03-4.85-8.53-9.21-17.38-14.3-25.75-8.45-13.88-12.74-29.12-15.44-45.08-2.41-14.25-3.43-28.6-2.52-42.94,1.83-28.65,7.59-56.48,18.55-83.02,3.68-8.93,7.32-17.88,10.85-26.87,1.29-3.28,2.32-6.68,3.29-10.07,2.6-9.01,6.44-17.35,11.38-25.3,6.83-11,13.17-22.33,19.67-33.54,2.32-4,4.45-8.11,6.78-12.1,1.96-3.35,3.98-6.66,6.15-9.86,4.04-5.98,8.23-11.84,12.29-17.8,5.62-8.24,11.12-16.56,16.81-24.75,5.06-7.28,10.12-14.57,15.52-21.58,2.88-3.74,6.49-6.88,10.63-11.18.89,6.14,1.8,11.16,1.88,16.28.15,11.19-.56,22.41,2.63,33.37,2.94,10.08,7.59,19.35,12.11,28.7,1.53,3.16,2.81,6.45,4.26,9.66,1.37,3.02,2.64,6.12,4.29,8.97,1.2,2.08,1.43,3.99.57,6.14-.82,2.07-1.81,4.08-2.48,6.2-2.94,9.21-3.34,18.67-2.32,28.23.69,6.48,1.04,13.06,2.4,19.4,2.57,11.98,5.08,24.04,11.07,34.9.35.64.53,1.38.89,2.32Z"/>
      <path class="d" d="m702.92,901.66c5.97,6.23,13.92,4.4,21.07,5.88,10.67,2.21,21.34,1.64,31.71-1.49,5.5-1.66,11.18-3.83,15.78-7.22,8.39-6.17,17.66-9.41,27.52-11.21,6.38-1.16,12.89-1.78,19.37-2.15,15.62-.9,31.1,1.18,46.51,3.25,7.82,1.05,15.4,3.89,23.14,5.7,2.22.52,4.67.7,6.9.32,5.75-.99,11.12,1.54,14.09,6.71,5.87,10.22,8.99,21.11,8.45,33.06-.25,5.47-1.18,10.72-3.57,15.65-3.31,6.83-6.11,13.93-11.29,19.68-1.65,1.84-2.3,4.61-3.54,6.87-3.19,5.81-7.99,8.81-14.55,9.25-12.24.82-24.49,1.71-36.69,2.99-4.22.44-8.32,2.11-12.49,3.21-2.96.78-5.91,1.56-8.89,2.25-.83.19-1.74.16-2.6.07-5.38-.56-10.65-1.1-16.06.59-1.74.54-4.26-.28-6.52-.26-3.88.05-6.89,1.84-10.21,3.23-.29,5.77,3.05,9.48,6.23,13.25,2.83,3.36,6.96,6.2,8.33,10.08,1.86,5.26,5.34,8.83,8.69,12.57,7.08,7.91,12.45,16.71,16.29,26.73,1.27,3.3,4.39,5.86,6.7,8.73,5.62,7.01,11.26,14.01,16.9,21.03-8.51,5.7-69.45,20.96-85.37,21.41-1.91-2.7-2.72-5.74-2.91-9.22-.16-2.92-1.11-5.84-2.03-8.65-1.92-5.83-3.76-11.61-4.02-17.87-.6-14.24-4.31-27.92-7.62-41.67-2.39-9.94-4.77-19.88-7.11-29.68-4.05-1.47-7.94-2.5-11.5-4.25-4.54-2.23-8.99-4.79-13.17-7.67-5.72-3.94-11.42-8-16.65-12.59-8.91-7.81-14.5-17.41-14.17-30.09.28-10.61,2.88-20.6,6.51-30.37.91-2.45,1.8-4.56,1.09-7.43-1.13-4.57-.34-5.57,5.69-10.7Z"/>
      <path class="d" d="m745.36,442.05c3.45,4.98,3.86,10.28,3.51,15.75-.11,1.67-.46,3.35-.4,5.01.44,12.11.97,24.21,1.45,36.32,1.05,26.26,2.83,52.43,6.88,78.44,2.26,14.48,5.17,28.73,9.1,42.82,1.54,5.53,2.43,11.28,3.24,16.98,2.13,14.95,5.73,29.55,9.12,44.23,3.38,14.63,7.58,29.14,8.47,44.33.3,5.16,1.95,10.22,2.66,15.38.38,2.71.07,5.52.07,7.97-10.21-.73-20.23-2.28-30.18-1.95-12.95.43-26.05.17-38.75,4.04-6.21,1.89-11.34,5.02-16.11,9.48-3.7,3.47-8.3,5.92-12.5,8.83-.73.51-1.43,1.08-2.7,2.04-1.3-2.17-2.6-4.23-3.79-6.36-1.88-3.36-3.78-6.72-5.48-10.18-1.79-3.65-3.43-7.38-5.01-11.13-6.78-16.08-9.93-33.07-11.74-50.37-.5-4.79-.66-9.64-.69-14.46-.01-1.77.52-3.68,1.26-5.31,1.31-2.86,2.76-5.7,4.52-8.29,7.58-11.15,12.11-23.73,16.41-36.44,3.27-9.68,6.81-19.27,9.84-29.03,1.14-3.66,1.26-7.67,1.68-11.54.72-6.66,1.37-13.33,1.95-20,.84-9.64,2.02-19.28,2.27-28.94.24-9.27-.52-18.56-.84-27.85,0-.19-.06-.37-.05-.56.89-12.55-1.07-24.9-2.67-37.25-.66-5.09-2.33-10.04-3.41-15.09-.66-3.07-1.09-6.18-1.58-9.28-.47-3.02,1.07-4.73,3.75-5.12,9.11-1.33,18.22-3.05,27.38-3.56,7.45-.42,14.99.67,22.34,1.08Z"/>
      <path class="d" d="m807.32,814.31c-1.13,13.83-2.36,26.48-8.32,37.92-4.58,8.79-10.71,16.5-18.58,22.28-8.1,5.94-16.96,10.8-26.58,13.63-6.56,1.93-13.37,3.07-20.31,1.62-1.75-.36-3.62-.14-5.44-.14-3.34,0-6.3-1.01-9.24-2.75-5.79-3.43-11.71-6.41-16.61-11.4-5.32-5.41-9-11.71-11.48-18.69-3.82-10.74-5.53-21.94-4.75-33.44.28-4.08.4-8.19.88-12.25,1.41-11.93,8.76-19.96,16.92-27.66,11.99-11.32,26.03-16.97,42.1-18.53,8.4-.81,16.71-1.39,24.71,1.49,12.49,4.48,23.03,11.65,29.02,24.48,1.48,3.18,4.04,5.94,5.01,9.23,1.46,4.95,1.96,10.2,2.67,14.21Z"/>
      <path class="d" d="m816.59,1008.91c3.5-5.13,9.14-3.36,13.84-4.39,2.89-.63,6.1.38,9.16.41,1.95.02,3.94-.23,5.84-.71,3.16-.79,6.39-1.53,9.35-2.87,7.78-3.52,11.3-.57,15.58,5.11,7.2,9.56,14.3,19.2,21.47,28.78.66.88,1.4,1.79,2.29,2.38,9.62,6.44,14.55,16.8,21.27,26.53-14,6.91-26.46,16.43-42.37,18.75-2.42-3.63-5.02-6.8-6.81-10.4-3.64-7.3-9.93-12.22-14.82-18.38-4.23-5.33-8.51-10.64-13.07-15.67-3.27-3.6-6.93-6.78-9.89-10.76-3.72-5.01-7.49-9.9-9.71-15.88-.41-1.11-1.43-1.98-2.13-2.91Z"/>
      <path class="d" d="m984.71,1013c-7.89-3.58-13.33-9.67-18.93-15.63-3-3.21-6.46-5.96-9.71-8.92-6.32-5.75-12.58-11.58-18.99-17.22-3.27-2.88-6.84-5.39-10.24-8.11-3.18-2.54-2.91-2.48-1.55-6.48,2.33-6.85,4.93-13.7,6.21-20.79.91-4.99-.17-10.36-.36-15.57-.03-.68-.11-1.36-.17-2.13.82-.14,1.42-.46,1.82-.28,7.87,3.51,15.3,7.82,20.88,14.66,9.65,11.83,20.94,21.68,33.24,30.39,3.43,2.43,6.72,5.07,10.21,7.39,1.78,1.19,3.78,2.26,5.82,2.76,3.92.98,7.51,2.46,10.76,4.95,1.12.86,2.63,1.18,3.95,1.74-1.87,6.52-23.13,27.99-32.95,33.23Z"/>
      <path class="d" d="m1053.59,935.47c0,.69.15,1.16-.02,1.39-6.33,8.54-12.67,17.07-19.04,25.58-3.06,4.09-3.47,4.46-8.23,2.42-12.48-5.35-25.5-9.57-36.23-18.6-9.66-8.14-19.43-16.15-29.24-24.09-2.23-1.81-4.9-3.02-7.27-4.67-2.38-1.65-4.84-3.28-6.87-5.32-1.86-1.87-1.46-3.41,1.03-4.74,6.26-3.34,12.56-6.6,18.91-9.76,3.23-1.61,6.6-2.9,9.89-4.4,1.99-.91,3.76-.82,5.54.59,4.57,3.59,9.2,7.1,13.81,10.64.29.22.55.5.87.67,8.96,4.77,16.87,11.48,26.59,14.92,4.05,1.43,7.72,3.99,11.61,5.95,5.66,2.85,11.36,5.62,17.04,8.44.61.3,1.18.7,1.62.96Z"/>
      <path class="d" d="m689.9,433.73c-3.72-9.91-6.99-18.95-10.55-27.86-.94-2.35-2.89-4.24-4.21-6.45-2.83-4.72-5.72-9.42-8.27-14.3-1.32-2.53-.21-4.4,2.57-4.73,10.22-1.21,20.26-3.8,30.66-3.59,11.56.22,23.13.01,34.7.08,3.96.02,6.01,2.21,5.96,6.24-.16,12.21.13,24.39,2.08,36.48.2,1.27.11,2.6,0,3.9-.23,2.85-.55,5.69-.89,9.17-17.16-2.95-34.71-2.14-52.03,1.07Z"/>
      <path class="d" d="m966.87,1028.29c-12.06,11.23-24.07,22.53-39.64,28.53-4.69-9.48-9.5-18.43-16.19-26.37-6.86-8.14-12.84-17.07-19.17-25.68-.64-.87-1.08-1.9-1.53-2.69,1.35-3.61,3.37-5.33,7.13-6.04,5.43-1.03,8.83-5.41,11.31-10.33,1.5-2.98,2.7-6.11,4.18-9.1.79-1.59,1.89-3.02,3.28-5.2,17.11,19.22,33.77,37.93,50.64,56.88Z"/>
      <path class="d" d="m1016.97,897.85c12.81-2.98,25.81-5.28,37.74-11.29,11.62-5.86,23.36-11.47,35.12-17.23-.03-.03.13.08.23.23.1.14.25.38.2.48-7.27,15.16-12.69,31.26-21.88,45.43-1.49,2.3-3.2,4.46-4.7,6.53-12.04-2.66-22.6-7.82-32.76-13.98-2.95-1.79-6.14-3.14-9.11-4.89-1.82-1.07-3.44-2.51-5.15-3.79.1-.5.2-1,.31-1.5Z"/>
    </g>
    <text class="e" transform="translate(440.21 1114.96) rotate(-144.61)"><tspan x="0" y="0">F</tspan></text>
    <text class="e" transform="translate(342.33 1040.98) rotate(-129.38)"><tspan x="0" y="0">r</tspan></text>
    <text class="e" transform="translate(257.73 929.8) rotate(-113.14)"><tspan x="0" y="0">a</tspan></text>
    <text class="e" transform="translate(208.07 801.23) rotate(-96.9)"><tspan x="0" y="0">n</tspan></text>
    <text class="e" transform="translate(196.93 660.23) rotate(-81.49)"><tspan x="0" y="0">c</tspan></text>
    <text class="e" transform="translate(220 538.17) rotate(-67.13)"><tspan x="0" y="0">i</tspan></text>
    <text class="e" transform="translate(270.89 428.33) rotate(-52.72)"><tspan x="0" y="0">s</tspan></text>
    <text class="e" transform="translate(353.77 330.47) rotate(-41.28)"><tspan x="0" y="0"> </tspan></text>
    <text class="e" transform="translate(405.1 285.56) rotate(-29.21)"><tspan x="0" y="0">V</tspan></text>
    <text class="e" transform="translate(528.48 223.36) rotate(-14.07)"><tspan x="0" y="0">i</tspan></text>
    <text class="e" transform="translate(646.73 197.65) rotate(.58)"><tspan x="0" y="0">l</tspan></text>
    <text class="e" transform="translate(779.75 203.6) rotate(16.44)"><tspan x="0" y="0">a</tspan></text>
    <text class="e" transform="translate(910.23 249.97) rotate(28.49)"><tspan x="0" y="0"> </tspan></text>
    <text class="e" transform="translate(971 282.1) rotate(41.46)"><tspan x="0" y="0">m</tspan></text>
    <text class="e" transform="translate(1082.25 388.91) rotate(58.5)"><tspan x="0" y="0">o</tspan></text>
    <text class="e" transform="translate(1150.52 509.81) rotate(74.89)"><tspan x="0" y="0">n</tspan></text>
    <text class="e" transform="translate(1179.97 649.06) rotate(87.07)"><tspan x="0" y="0"> </tspan></text>
    <text class="e" transform="translate(1182.74 718.02) rotate(98.61)"><tspan x="0" y="0">s</tspan></text>
    <text class="e" transform="translate(1158.74 842.98) rotate(113.15)"><tspan x="0" y="0">i</tspan></text>
    <text class="e" transform="translate(1107.36 952.58) rotate(127.61)"><tspan x="0" y="0">t</tspan></text>
    <text class="e" transform="translate(1025.61 1051.06) rotate(142.43)"><tspan x="0" y="0">e</tspan></text>
    <text/>
  </g>
</svg>