<?xml version="1.0" encoding="UTF-8"?><svg id="Layer_2" xmlns="http://www.w3.org/2000/svg" viewBox="0 0 881.06 490.42"><g id="Layer_1-2"><path d="m89.42,311.73c.92-5.67-.68-11.19-1-16.78-.18-3.17-2.75-5.75-4.05-8.69-2.57-5.81-5.74-11.17-11.18-14.85-1.53-1.03-3.15-1.77-4.82-2.44-3.47-1.39-6.78-3-9.72-5.37-3.33-2.69-7.03-4.79-10.93-6.55-4.32-1.95-7.43-5.43-10.85-8.53-2.86-2.59-5.11-5.79-8.51-7.87-2.06-1.26-3.36-3.36-4.66-5.48-3.71-6.07-8.32-11.51-10.2-18.74-.93-3.58-3.32-6.91-4.7-10.54-1.31-3.43-2.07-6.96-2.09-10.53-.12-17.27-.73-34.58.15-51.8.8-15.71.13-31.42,1.14-47.07.64-9.95-.7-19.78-.23-29.66.26-5.31.43-10.74,2.26-15.71,3.38-9.14,7.2-18.14,13.68-25.67,5.1-5.91,12.03-8.57,19.17-10.8,6.92-2.16,14.4-2.11,21.19-4.4,8.82-2.98,18.07-2.34,26.95-4.47,3.44-.83,7.22-.66,10.82.16,2.38.54,4.67-.41,7.02-.41,6.27-.01,12.58-.44,18.8.11,6.93.62,13.65-.53,20.44-1.22,2.81-.29,5.49.46,8.34.21,5.8-.51,11.94-2.09,17.41.13,3.88,1.57,7.51.9,11.24,1.31,1.62.18,2.43,2.91,1.54,5.17-2.01,5.15-5.06,9.89-6.16,15.4-.61,3.07-1.35,6.1-1.58,9.25-.45,6.15-1.48,12.24-2.52,18.32-.05.27-.07.54-.09.81-.46,4.5-.46,4.53-4.96,4.49-11.65-.12-23.17,1.29-34.14,5-8.23,2.78-16.75,5.1-24.22,9.96-2.25,1.46-3.44,3.26-4.06,5.64-1.41,5.4-3.08,10.76-4.04,16.25-.59,3.34-.39,6.92.06,10.31.26,1.98.26,3.96.57,5.91.72,4.6.39,9.32,1.54,13.87.09.35.12.73.08,1.08-.54,5.26.71,10.43,1.02,15.64.45,7.45.98,14.93,1.77,22.35.52,4.89.11,9.88,1.39,14.73.43,1.64,1.28,1.35,2.31,1.47,6.26.69,12.71.21,18.68,2.73,4.96,2.09,10.59,2.45,14.98,6.01,7.94,6.43,14.87,13.37,17.41,23.93,1.52,6.33,3.63,12.57,5.57,18.82,1.08,3.49,1.57,7.02,2.03,10.66.72,5.73,1.09,11.53,2.18,17.23.57,2.96.24,6.05.93,9.08,1.04,4.6,1.62,9.31,2.38,13.98.1.62.24,1.27.17,1.89-.61,6.1.45,12.16,1.1,18.13,1.95,17.87.14,35.72.48,53.58.11,5.7-1.79,11.4-2.07,17.14-.28,5.84-1.98,11.59-.8,17.57.66,3.34-.43,6.81-1.19,10.12-.76,3.35-1.22,6.76-1.31,10.11-.16,5.61-1.15,11.03-2.27,16.48-1.2,5.86-2,11.8-3.33,17.62-1.79,7.85-6.25,14.39-10.96,20.75-.57.77-1.35,1.19-2.1,1.69-15.36,10.22-32.16,16.9-50.42,19.38-10.03,1.36-20.2,2.12-30.34,1.73-10.75-.41-21.48-1.3-32.2-2.17-6.14-.5-12.27-1.13-18.43-1-5,.11-9.98-.28-14.96-.58-3.24-.2-6.41-4.27-5.86-7.48.92-5.39.35-10.74-.41-16.09-.09-.63-.1-1.27-.09-1.9.21-9.04-.59-18.01-1.46-27-.53-5.44-.75-10.99-.78-16.52-.04-7.61.65-15.24-.47-22.83-.3-2.02.5-2.91,2.53-3.25,7.28-1.2,14.31-3.21,21.88-3.51,7.44-.29,14.69-3.42,21.94-5.74,11.09-3.53,20.43-9.85,28.56-17.7,5.86-5.66,10.05-12.81,11.17-21.32.87-6.56,1.5-13.17,2.61-19.68.68-4,.38-7.91.66-11.83Z"/><path d="m190.55,273.83c.41-10.15-1.96-20.12-1.97-30.27,0-4.48-1.06-9.14-1.2-13.62-.16-5.37-.68-10.69-1.48-15.93-1.03-6.81-.79-13.66-1.34-20.47-.28-3.51.19-7.21.56-10.8.13-1.25.41-2.5.34-3.76-.4-6.9,1.32-13.67,1.1-20.55-.15-4.7-.67-9.41-.47-14.09.33-7.7-1.61-15.26-1.13-22.91.49-7.73.84-15.48,1.93-23.17.44-3.14.18-6.32.57-9.5.52-4.21.32-8.51.66-12.75.42-5.2,1.37-10.38,1.58-15.58.34-8.21,1.97-16.17,3.65-24.16.79-3.76,1.4-7.57,2.77-11.16,3.66-9.63,9.6-16.65,20.64-17.9,4.21-.48,8.43-.99,12.48-2.49,1.54-.57,3.44-.47,5.13-.26,9.68,1.2,19.4.4,29.08.34,9.96-.06,19.94-.57,29.9-1.07,7.01-.35,13.97-1.67,21.04-1.59,7.88.09,15.73.28,23.6,1,4.33.39,8.73.71,13.21.4,6.7-.46,13.52.11,20.27.72,2.21.2,4.66,1.02,6.73-.74.12-.1.37-.15.51-.09,4.65,2.11,9.74.11,14.44,1.6,1.08.34,2.22.7,2.38,2.22.46,4.48,1.11,8.94.88,13.48-.09,1.68-.31,3.41.6,5.05.44.8.26,1.85-.84,2.25-2.68.98-5.15,2.7-8.2,2.48-3.59-.25-7,.13-10.18,2.12-2.23,1.39-4.97.77-7.44,1.08-7.4.94-14.74,2.13-22.09,3.39-8.43,1.45-16.85,2.92-25.02,5.47-8.86,2.76-17.94,4.91-26.22,9.3-5.81,3.07-11.6,6.16-17.4,9.25-.32.17-.61.49-.94.53-5.97.69-6.69,6.01-8.65,10.06-2.79,5.78-3.58,12.2-5.05,18.38-.6,2.53-.81,5.31-.94,7.98-.28,5.77-1.58,11.31-3.03,16.84-.95,3.62-1.59,7.29-2.12,11-.62,4.3-1.54,8.56-2.32,12.84-.08.44-.2.9-.17,1.35.55,7.72-.44,15.41-1.04,23.06-.48,6.15-.53,12.26-.69,18.4-.12,4.53,1.72,8.98,1.06,13.46-.73,4.95,0,9.94-.89,14.86-.57,3.15,1.01,6.17.99,9.33-.01,1.78.35,3.48.89,5.23.88,2.91,1.49,5.95,1.37,9.08-.25,6.52.51,12.95,1.46,19.41.55,3.71.96,7.43,1.84,11.09,1.42,5.88,2.2,11.9,3.15,17.85,1.03,6.43,2.58,12.78,2.94,19.37.35,6.28.96,12.6,1.72,18.84,1.1,9.06,4.35,17.68,7.67,26.18,2.45,6.26,3.78,12.88,6.42,19.09,2.25,5.3,4.04,10.79,6.12,16.17.51,1.31,1.13,2.62,2.95,2.74.63.04,1.52.58,1.76,1.13,2.28,5.04,7,7.04,11.58,8.76,8.17,3.08,16.18,6.75,24.9,8.17,7.1,1.16,14.05,3.03,21.04,4.67,4.43,1.04,8.6,3.14,13.22,3.49,5.11.39,9.73,2.67,14.64,3.77,5.15,1.16,10.43,1.86,15.68,2.49,10.1,1.21,20.28,1.72,30.32,3.38,4.34.72,8.63,1.74,13.04,2.17,4.21.41,8.4,1.08,12.6,1.55,5.87.66,5.77,1.84,7.48,6.7,4.16,11.84,6.05,24.36,10.49,36.12.76,2,1.78,3.9,2.78,5.8.65,1.23.31,1.62-.98,1.58-6.97-.23-13.83,1.18-20.81,1.26-4.77.05-9.62.73-14.35.25-6.26-.63-12.51-.59-18.72-.32-9.04.39-18.09.85-27,2.95-8.37,1.98-17.06,2.79-25.56,1.7-11.17-1.43-22.14.43-33.19.75-8.95.26-17.91,1.76-26.86.91-5.44-.52-10.52,1.78-15.78,1.16-8.39-.99-16.73.49-25.09.14-4.08-.17-8.04-.92-12.03-1.77-3.93-.83-7.99-1.03-11.92-2.07-1.56-.42-3.11-.83-4.6-1.47-.41-.18-1.04-.63-1.2-.5-2.85,2.31-3.17-.77-4.28-2.01-2.7-3-5.89-5.73-6.79-9.88-.43-1.97-1.23-3.59-2.66-4.85-1.93-1.71-2.22-4.17-3.28-6.28-3.64-7.29-5.35-15.21-7.5-22.93-1.6-5.75-3.56-11.59-4.09-17.49-.58-6.56-1.97-13.03-2.02-19.66-.02-3.47-.74-6.96-1.33-10.41-.28-1.64-.3-3.25-.3-4.88.01-3.45-.97-6.75-1.44-10.13-.46-3.31-.48-6.66-1.05-9.98-1.46-8.54-.9-17.34-2.74-25.77-1.44-6.57-1.97-13.23-3.01-19.83-.54-3.4-1-6.93-1.14-10.46-.26-6.56-1.17-13.09-1.65-19.65-.22-2.98-.04-5.99-.04-8.98Z"/><path d="m756.49.58c8.27,0,16.56.34,24.81-.08,13.43-.68,26.86-.23,40.29-.48,12.63-.23,25.23,1.08,37.86.54,1.04-.05,1.93.47,2.91.55.89.07.94,1.06,1.63,1.3-2.05,3.58,2.42,4.97,2.68,8,.27,3.15,1.82,6.18,2.4,9.4.72,3.99,2.18,7.89,2.5,11.89.19,2.33,1.83,4.56.25,7.36-.85,1.51.24,4.33.9,6.43.88,2.81-.46,5.51.01,8.3.21,1.26-1.55,2.1-2.57,2.95-2.46,2.05-5.5,1.46-8.07.82-9.08-2.25-18.31-3.19-27.57-4.05-1.35-.12-2.69.19-4.03.36-10.04,1.27-17.18,7.22-23.78,14.23-4.96,5.27-9.52,10.76-13.11,17.11-1.69,2.99-1.94,6.12-2.55,9.22-1.67,8.49-1.64,17.15-1.02,25.68.46,6.31,3.06,12.39,6,17.97,4.42,8.4,6.23,17.73,10.19,26.24,5.34,11.46,8.73,23.85,16.11,34.35,2.31,3.28,4.98,6.31,7.43,9.49,1.23,1.6,3.95.89,5.98,1.28,4.59.88,9.22,1.55,13.91,1.73,1.55.06,1.92,1.6,2.05,2.71,1.05,8.73,2.42,17.42,2.09,26.29-.1,2.66-1.53,3.09-3.26,3.03-7.74-.29-15.02,1.84-22.22,4.19-2.25.73-4.4,2.11-5.85,4.41-4.58,7.26-9.96,14.11-13.17,22.1-4.45,11.09-9.06,22.17-9.18,34.53-.07,7.35,0,14.7.24,22.02.19,5.94,1.72,11.82,3.12,17.65,1.56,6.5,2.14,13.31,4.98,19.4,3.4,7.28,7.11,14.46,12.76,20.38,1.19,1.24,2.43,2.49,3.34,3.93,1.62,2.58,3.95,3.66,6.84,4.03,4.75.6,9.03,2.78,13.51,4.28,1.91.64,3.62.8,5.43.26,1.96-.59,3.81-.51,5.83-.09,1.99.42,4.06,1.05,6.16.66,2.82-.52,4.42,1.97,6.75,2.73.91.3.93,2.17.99,3.47.18,3.78-.86,7.72.57,11.33,1.61,4.04,2.84,8.16,3.9,12.35.17.69.16,1.43.24,2.15.78,7.19,1.61,14.38,2.48,21.55.51,4.23,2.27,8.32,3.59,12.44.68,2.14-.31,2.95-2.18,3.25-7.19,1.16-14.42,1.79-21.69,2.29-4.24.29-8.4,1.64-12.63,2.32-3.71.6-7.47,1.38-11.2,1.32-10.89-.18-21.76.53-32.63.78-5.11.12-10.2,1.77-15.28,2.83-7.48,1.56-14.99,1.83-22.59.97-2.78-.32-5.63-.07-8.44-.14-9.05-.24-18.1-.34-27.14.54-.73.07-1.4.1-2,.62-1.69,1.47-3.9,1.52-5.66.86-2.93-1.1-5.9-1.19-8.8-.83-3.84.48-7.6-.16-11.4-.1-.36,0-.92.1-1.05-.09-2.08-2.93-4.54-.89-6.62-.27-1.66.5-2.4.02-3.09-1.14-2.53-4.24-4.37-8.71-5.67-13.52-1.11-4.1-3.12-7.97-4.91-11.86-2.14-4.65-2.64-9.8-4.65-14.5-.62-1.46-1.36-2.89-1.89-4.41-.56-1.61-.36-2.11,1.43-2.87,3.5-1.5,6.89-.29,10.3-.36,4.91-.09,9.63-.72,14.17-2.67,5.83-2.5,11.5-5.29,17.16-8.16,2.08-1.05,3.68-2.38,5.29-3.88.53-.5.86-1.31,2-.84.64.26,1.52-.4,2.03-1.03,5.36-6.63,11.36-12.8,14.73-20.82,3.84-9.13,6.8-18.55,9.42-28.1,1.55-5.66,3.86-11.1,4.66-16.97.65-4.83,1.96-9.6,1.34-14.56-.51-4.11.96-8.01,1.34-12.02.09-.97.28-1.96.28-2.94,0-27.54.2-55.09-.1-82.62-.11-10-1.1-20-1.69-29.99-.61-10.27-2.13-20.49-3.55-30.71-.95-6.84-2.09-13.69-1.88-20.7.13-4.43-.94-8.89-1.54-13.34-1.21-8.94-3.22-17.75-5.52-26.44-2.87-10.86-5.91-21.77-11.38-31.72-4.01-7.3-8.05-14.6-13.23-21.2-1.93-2.45-3.5-5.21-5-7.91-2.1-3.8-4.86-6.97-7.91-9.87-4.11-3.91-8.46-7.58-12.88-11.14-3.07-2.48-6.63-4.51-10.47-5.25-8.41-1.62-11.18-8.13-13.64-14.91-1.12-3.08.69-5.36,3.86-6.12,3.67-.88,7.48-.97,11.09-1.77,5.97-1.32,12.03-2,17.99-3.28,5.23-1.12,10.56-1.7,15.84-1.89,10.31-.38,20.57-1.85,30.92-1.24,3.35.2,6.72.03,10.08.03Z"/><path d="m351.83,191.37c15.99,0,31.99.39,47.96-.09,23.62-.71,47.22.33,70.83.38,9.88.02,19.75.87,29.63,1.36.51.03,1.18-.2,1.45.41.35.78-.11,1.16-.86,1.31-.41.08-.51.15-.15.62,1.2,1.58.77,3.54.49,5.17-.66,3.9-.32,7.87-1.39,11.75-.9,3.29.7,6.56,1.03,9.86.45,4.46,2.26,8.78.96,13.44-.67,2.39-3.24,4.78-5.75,5.04-7.21.74-14.4,1.69-21.6,2.51-2.69.31-5.39.7-8.09.68-5.08-.04-9.95,1.33-14.94,1.92-1.16.14-2.33.36-3.47.28-4.28-.31-8.43.62-12.63,1.09-1.09.12-1.21.69-.98,1.45.81,2.59.46,5.24.39,7.85-.23,8.17,1.06,16.26,1.12,24.4.04,5.47-.14,10.93-1,16.35-.53,3.36.14,6.72.55,10.01.62,5.04.73,10.09,1.08,15.13.38,5.6.73,11.21,1.09,16.81.03.45-.06.9-.05,1.35.1,2.76-2.24,5.66.47,8.29.19.18.13.73.04,1.06-.92,3.33-.37,6.65.62,9.77,2.41,7.55,2.06,16,7.39,22.61.63.78,1.2,1.59,2.05,2.11,4.5,2.74,9.36,5.01,13.41,8.29,2.87,2.33,5.98,3.77,9.14,5.39,2.1,1.08.62,3.33.49,4.93-.16,1.88-2.27,2.37-3.76,2.38-2.21.02-4.51.54-6.7-.41-.29-.13-.81-.13-1.04.04-3.07,2.31-6.61,1.31-9.98,1.48-10.17.49-20.35-1.2-30.47-.37-6.55.54-12.54-.73-18.77-2.19-9.2-2.16-18.52-3.76-27.37-7.2-1.66-.64-3.28-1.41-4.85-2.25-7.2-3.85-15.26-6.07-21.84-11.07-4.32-3.29-8.29-7.02-11.13-11.75-1.49-2.47-3.13-4.8-5.04-6.98-4.79-5.45-6.65-12.38-9.26-18.92-3.06-7.69-6.18-15.36-9-23.13-1.67-4.59-3.67-9.04-5.26-13.65-2.07-5.99-3.95-12.05-4.44-18.44-.23-2.99-1.76-5.63-2.55-8.48-.95-3.44-1.45-6.94-2-10.45-.64-4.14-1.5-8.26-1.96-12.43-.34-3.05-.24-6.16-.23-9.25.02-4.05-.37-4.62-4.22-3.65-3.06.77-5.93.12-8.84-.3-2.2-.31-4.14-1.37-4.78-3.77-.7-2.6-3.26-3.77-4.45-6.09-1.2-2.34-1.97-4.79-1.91-7.19.09-4.06-1.68-7.68-2.03-11.6-.41-4.63-1.31-9.16-.07-13.91.67-2.56.2-5.55-.3-8.25-.33-1.77.29-1.8,1.54-1.83,2.63-.06,5.27-.14,7.9-.25,24.5-1.06,49.02-1.39,73.54-.94,0-.23,0-.46,0-.69Z"/><path d="m626.63,207.7c6.87-.24,16.73.81,26.6.98,5.43.09,10.92-.16,16.21.89,5.36,1.06,10.74-.09,16.06.95,1.34.26,2.93-.04,4.24-.53,4.51-1.69,8.87-.7,13.13.65,2.86.9,5.65.27,8.28-.16,9.31-1.53,16.93,2.7,24.16,7.19,5.49,3.41,8.52,9.13,8.71,15.9.07,2.53.72,4.99,1.23,7.4,1.1,5.21.96,10.51,1.84,15.73.93,5.53-.12,11.13-1.07,16.63-.78,4.5-1.54,9.04-4.79,12.63-.48.53-.77,1.25-1.48,1.54-4.06,1.66-7.69,4.44-12.01,5.31-2.17.44-4.52,1.85-6.86.28-.14-.09-.45-.17-.51-.1-2.56,2.93-6.46,1.17-9.43,2.68-.59.3-1.29.48-1.12,1.25.16.71.91.29,1.38.41,7.41,1.73,15.53,1.04,21.98,6.06,2.26,1.76,5.35,2.95,6.17,5.99.78,2.92,1.14,5.99,1.3,9.01.06,1.19.07,2.45.15,3.65.43,6-.6,11.84-1.78,17.67-1.23,6.04-2.28,12.12-3.78,18.09-1.19,4.73-2.51,9.68-5.94,13.28-6.25,6.56-13.31,12.06-22.52,14.05-8.59,1.86-17.16,3.55-25.99,3.98-2.78.14-5.55-.39-8.33.12-1.59.29-2.08-.77-1.79-2.21.71-3.42,1.19-6.91,2.25-10.21.64-1.97-.41-3.5-.44-5.27-.09-5.45.48-10.87.76-16.29.39-7.56-1.13-14.6-3.55-21.69-1.75-5.13-5.59-8.7-8.05-13.22-1.6-2.95-4.19-3.54-7-4.26-4.4-1.13-8.77-2.39-13.08-3.79-2.09-.68-2.44,0-2.04,1.83,2.68,12.37,6.5,24.45,9.53,36.73,2.38,9.66,4.7,19.35,4.3,29.41-.31,7.87-2.84,11.48-8.46,12.88-5.71,1.41-11.57,2.35-17.39,3.37-6.09,1.06-12.29,1.53-18.44,2.25-.36.04-.76.11-1.09,0-3.89-1.31-7.53.79-11.33.87-2.02.04-3.95-.33-5.93-.44-1.29-.07-2.13-1.16-2.14-2.67-.01-1.25-.57-2.78-.34-3.67,1.11-4.23-1.07-8.86,1.77-12.89.9-1.27.82-3.1.83-4.74.01-4.09.06-8.18.03-12.27-.04-5.24.93-10.39,1.31-15.57.46-6.28-.69-12.55-1.65-18.77-.18-1.17-.3-2.31-.34-3.47-.28-7.64-1.7-15.2-2.04-22.81-.32-7.15-3.37-13.9-2.76-21.13.88-10.51.27-21.05.58-31.57.07-2.53,1-4.9,1.44-7.36,1.11-6.29,1.67-12.66,2.86-18.92.79-4.16.45-8.28.58-12.42.05-1.46.49-2,2.05-2.11,10.24-.73,20.49-1.02,33.77-1.12Zm6.01,64.03c0,2.36,0,4.72,0,7.08,0,1.15.19,1.63,1.67,2.08,4.26,1.31,8.55-.02,12.76.66.61.1,1.05-.32,1.37-.75,1.57-2.06,3.34-4.01,4.59-6.25,2.81-5.03,3.43-10.76,3.6-16.3.28-8.85-2.36-17.29-4.81-25.74-.97-3.34-3.66-4.84-5.9-6.58-2.53-1.96-5.85-2.54-9.29-2.38-5.71.27-5.71.09-5.95,5.71-.03.71-.3,1.41-.35,2.12-.19,2.63-1.77,4.99-1.16,7.81,2.32,10.72,3.76,21.54,3.46,32.54Z"/><path d="m396.63,45.47c11.84-1.42,23.68-2.84,35.36-5.45,3.23-.72,6.67-.79,10-.65,5.61.23,11.16-.95,16.82-.19,3.32.44,6.72-1,10.18-.99,1.75,0,2.53.47,2.34,2.29-.58,5.6,1.02,10.71,3.1,15.87,1.24,3.08,1.39,6.65,1.75,10.04.92,8.47,2.03,16.88,3.95,25.21,1.61,7,1.21,14.15.58,21.3-.4,4.48-.69,8.92-1.7,13.33-.99,4.27-2.03,8.54-4.2,12.35-2.78,4.87-5.17,9.93-7.54,14.99-2.2,4.69-3.9,9.54-9.06,11.88-3.43,6.26-10.01,8.6-15.67,11.65-7.08,3.81-15.17,4.96-23.26,5.77-9.79.98-19.61,1.36-29.41,1.98-4.84.31-9.74.31-14.64-.27-3.81-.45-7.77.04-11.62.52-2.37.29-4.61.35-6.98.03-2.59-.35-5.26-.22-7.89-.13-5.62.18-10.86-.92-16.19-2.94-4.58-1.74-9.07-4.36-14.28-4.21-.49.01-1.07-.26-1.48-.57-3.13-2.33-6.45-4.43-9.25-7.17-.41-.4-.75-.4-1.15-.4-1.87.05-3.22-1.18-4.07-2.42-7.01-10.24-14.81-20.05-18.56-32.17-.77-2.5-1.43-4.99-1.34-7.64.05-1.44-.4-2.9-.45-4.26-.15-3.91-.02-7.9,1.49-11.61.4-.99.56-1.89.52-2.86-.34-8.28,1.73-16.17,3.66-24.12,1.15-4.73,3.84-7.9,7.3-11.19,10.96-10.42,24.47-15.81,38.46-20.1,5.7-1.75,11.53-3.32,17.41-4.55,1.51-.32,3.12-.52,4.54-.5,7.27.14,14.32-1.91,21.55-1.88,1.8,0,1.94.35,1.51,2.17-.54,2.29-.35,4.8-.22,7.2.09,1.68-.06,3.29-.74,4.77-2.16,4.74-2.79,9.79-3.23,14.89-.1,1.14-.56,2.24-.88,3.36-2.43,8.49-4.34,17.11-5.63,25.83-1.1,7.45-.97,15.03.05,22.49,1.37,10.01,4.56,19.46,9.79,28.16,1.23,2.05,3.65,2.98,4.81,5.27.6,1.17,1.65-.35,2.25-1.02,4.37-4.93,7.76-10.51,9.98-16.69,3.58-9.98,7.03-20.01,10.3-30.1,1.49-4.61,1.86-9.45,2.2-14.32.39-5.49.88-11.02.3-16.42-.86-8.05-1.51-16.42-5.77-23.51-2.49-4.14-3.67-8.49-4.95-12.98Z"/><path d="m728.19,103.52c.2,3.42-.24,6.94-3.75,8.13-2.91.99-5.61,2.51-8.6,3.25-7.22,1.79-14.05,4.84-21.32,6.45-2.64.58-5.42.62-7.91,1.81-1.19.57-2.8,1.03-2.38,2.82.37,1.58,1.14,3.13,3.05,3.29,1.25.1,2.34.58,3.26,1.23,4.51,3.2,9.97,4.85,14.27,8.18,4.99,3.86,10.86,6.27,15.64,10.31,2.4,2.03,4.84,4.24,6.54,6.84,3.61,5.55,8.17,10.4,10.91,16.64,3.15,7.16,6.08,14.16,5.62,22.17-.1,1.77.43,3.57.48,5.36.06,2.23-3,5.06-5.05,4.48-9.28-2.65-18.79-1.75-28.23-2.16-6.9-.29-13.8-.28-20.69-.51-1.68-.06-3.26-.97-5.07-.64-.49.09-1.32-.44-1.68-1.43-1.73-4.78-3.83-9.42-4.78-14.47-.54-2.85-2.42-4.72-4.64-6.62-5.64-4.83-11.86-8.76-18.23-12.48-5.54-3.24-11.47-5.65-17.5-7.79-8.46-3-16.82-6.32-25.54-8.54-7.44-1.89-15.02-2.54-22.64-3.29-5.33-.52-10.59,1.28-15.84-.22-.69-.2-1.74.04-2.32.48-1.52,1.16-2.87,1.5-4.19-.15-1.46-1.82-3.06-3.6-2.42-6.25,1.96-8.07,4.04-16.12,5.82-24.24.81-3.68.22-7.51-.16-11.2-.65-6.18-1.55-12.33-2.28-18.51-1-8.58-.48-17.31-2.81-25.79-.87-3.16-.89-6.62-.65-9.98.19-2.63-.21-5.21-.93-7.73-.42-1.45.04-2.58,1.45-2.47,1.51.11,2.96-2.02,4.45-.1.06.08.27.04.41.05.37-3.83,2.91-1.14,3.97-.98,8.71,1.36,17.36,2.8,26.23,1.53,2.84-.41,5.75-.24,8.64-.54,11.56-1.23,23.19-.35,34.78-.62,16.68-.4,32.66,3.39,48.42,8.35,2.98.94,5.23,2.96,7.2,5.41,3.72,4.62,7.46,9.24,11.46,13.63,3.88,4.26,6.26,9.37,8.7,14.43,2.59,5.38,4.77,10.95,7.2,16.4.79,1.77,1.38,3.52,1.08,5.45Zm-38.45-10.36c.41-1.44-.69-2.92-.73-4.5-.07-3.33-2.1-5.75-4.59-6.81-4.54-1.95-9.47-2.98-14.25-4.37-1.05-.3-1.76-.03-1.81,1.25-.19,4.81-1.55,9.36-2.99,13.92-1.39,4.42,1.11,9.27,5.41,10.93,3.9,1.5,7.73,1.92,11.33-.86.57-.44,1.24-.78,1.91-1.03,4.17-1.59,5.69-3.77,5.71-8.52Z"/><path d="m522.96,405.89c-7.13.44-16.56-.09-25.39-3.43-6.69-2.53-13.05-6.04-18.92-10.28-1.56-1.13-2.72-2.71-3.57-4.36-1.3-2.51-3.21-4.23-5.58-5.67-3.88-2.36-4.47-6.71-5.78-10.49-2.89-8.35-4.73-16.98-6.68-25.59-1.37-6.06-4.02-11.8-5.1-17.98-.91-5.22-1.55-10.45-1.93-15.73-.46-6.39-1.38-12.75-.98-19.17.25-3.97.64-7.93.52-11.93-.18-5.88-1.08-11.71-.71-17.63.11-1.82.63-3.62.34-5.52-.12-.8.27-2.11,1.79-2.28,6.57-.73,13.11-.74,19.64.41.8.14,1.62.15,2.43.14,7.97-.09,15.92-.5,23.73-2.23.94-.21,1.82-.71,2.7-1.14,2.16-1.05,3.19-.26,4.27,1.94,2.53,5.14,1.43,10.83,2.92,16.12,1.6,5.71,2.87,11.52,4.08,17.34.56,2.71.74,5.52.89,8.29.38,7.01,1.67,13.94,1.73,20.98.04,4.32-.28,8.62.85,12.94.64,2.45-.56,5.17-.75,7.75-.39,5.33-.16,10.71-.13,16.08,0,1.7,1.5,2.09,2.66,2.75,5.82,3.32,11.07.8,11.77-5.8.39-3.67,1.06-7.32.81-11.06-.26-3.86-.67-7.69-1.35-11.49-.33-1.84.44-3.6.48-5.38.16-6.72.52-13.48,0-20.16-.78-10.06-2.6-19.99-4.37-29.94-2.21-12.44-5.18-24.59-9.12-36.58-1.58-4.79-2.14-9.92-3.06-14.92-.44-2.38-1.24-4.65-1.73-7.02-.36-1.73.31-1.97,1.4-2.56,4.35-2.32,9.11-2.87,13.9-3.17,8.32-.52,16.65-.77,24.97-1.35,9.9-.68,19.75.13,29.63.48,1.54.05,1.57.85,1.39,1.95-1.1,6.74-1.8,13.54-2.64,20.3-1.12,9.05-4.33,17.65-5.12,26.66-.47,5.4-1.22,10.91.1,16.36.78,3.25-.41,6.48-.35,9.74.11,5.7,1.7,11.2,1.79,16.95.18,11.01.83,22.02,1.62,33.01.43,5.94,1.3,11.85.87,17.82-.33,4.59-1.03,9.16-1.37,13.72-.53,7.18-3.08,13.91-3.93,20.98-.57,4.73-3.81,7.86-7,10.98-.13.12-.28.25-.44.3-7.52,2.13-13.97,7.08-21.88,8.21-5.68.81-11.39.53-19.39.65Z"/><path d="m455.25,181.79c4.75-3.25,9.34-6.59,12.99-10.98,5.19-6.25,9.72-12.97,13.04-20.4.91-2.05.49-4.45.91-6.69,2.29-12.29,4.53-24.59,6.48-36.94,1.19-7.54.42-15.2.67-22.8.33-9.63-1.73-18.91-3.56-28.24-.7-3.58-.88-7.39-2.59-10.61-1-1.88-1.71-3.52-1.62-5.64.06-1.44.56-1.85,1.94-1.84,18.18.04,36.36-.1,54.54.17,3.12.05,6.4.14,9.59,1.36,3.83,1.46,4.83,4.2,5.14,7.69.06.72-.04,1.46.44,2.09,2.35,3.06,2.46,6.81,2.48,10.29.02,4.86,1.32,9.39,2.28,14.03,1.08,5.27.99,10.7,2.18,15.97,1.33,5.91,1.4,12.01,1.55,18.02.14,5.46-.63,10.98-1.26,16.41-.38,3.25-2.19,6.36-2.33,9.87-.27,6.55-4.16,11.74-7.02,17.29-.88,1.7-.49,1.98,1.19,1.97,5-.05,10,.01,15-.02,8.15-.06,16.12,1.31,24.16,2.48,7.82,1.14,15.2,3.42,22.57,6.08,2.16.78,4.57.85,6.88,1.19,9.5,1.42,17.9,5.83,26.52,9.67,3.3,1.47,6.56,3.11,9.99,4.18,4.45,1.39,7.16,5.32,11.29,7.12.78.34.97,1.35,1.2,2.28,1.02,3.97,1.8,8.01,3.51,11.77.67,1.47.31,2.53-1.46,2.66-7,.51-14.02,1.35-20.89-.94-1.43-.48-2.7.25-3.97.48-4.68.86-9.38.06-14.04.5-7.33.7-14.69.81-22.01.44-10.77-.55-21.53-1.02-32.32-1.11-7.57-.06-15.18-.64-22.69-1.65-7.68-1.03-15.33-1.06-23.03-1-4.62.03-9.19.8-13.83.63-2.45-.09-3.95-.93-4.59-3.28-.17-.61-.46-1.18-.59-1.8-1.67-7.86-5.62-9.4-13.92-10.23-5.56-.55-11.1-1.28-16.65-1.72-7.13-.57-14.36-.51-21.38,1.25-2.26.56-4.41.35-6.79.03Z"/></g></svg>