<svg width="881" height="490" xmlns="http://www.w3.org/2000/svg" xmlns:xlink="http://www.w3.org/1999/xlink" xml:space="preserve" overflow="hidden"><defs><clipPath id="clip0"><rect x="677" y="168" width="881" height="490"/></clipPath></defs><g clip-path="url(#clip0)" transform="translate(-677 -168)"><path d="M766.691 479.463C767.61 473.798 766.011 468.283 765.692 462.697 765.512 459.53 762.944 456.952 761.645 454.015 759.077 448.21 755.91 442.854 750.475 439.178 748.946 438.148 747.327 437.409 745.659 436.74 742.192 435.351 738.885 433.742 735.947 431.374 732.62 428.687 728.923 426.588 725.026 424.83 720.71 422.882 717.603 419.405 714.186 416.307 711.328 413.719 709.08 410.522 705.683 408.444 703.625 407.185 702.326 405.087 701.027 402.969 697.32 396.904 692.714 391.468 690.836 384.245 689.906 380.668 687.519 377.341 686.14 373.714 684.831 370.287 684.072 366.76 684.052 363.193 683.932 345.938 683.322 328.642 684.201 311.437 685.001 295.741 684.331 280.044 685.34 264.407 685.98 254.466 684.641 244.644 685.111 234.773 685.37 229.467 685.54 224.042 687.369 219.076 690.746 209.944 694.563 200.952 701.037 193.428 706.133 187.523 713.057 184.866 720.191 182.637 727.105 180.479 734.578 180.529 741.362 178.241 750.175 175.264 759.417 175.903 768.289 173.775 771.726 172.946 775.503 173.116 779.1 173.935 781.478 174.474 783.766 173.525 786.114 173.525 792.379 173.515 798.683 173.086 804.898 173.635 811.822 174.255 818.536 173.106 825.32 172.416 828.128 172.126 830.806 172.876 833.653 172.626 839.448 172.116 845.583 170.538 851.048 172.756 854.925 174.325 858.552 173.655 862.279 174.065 863.897 174.245 864.707 176.972 863.817 179.23 861.809 184.376 858.762 189.112 857.663 194.617 857.053 197.685 856.314 200.712 856.084 203.859 855.634 210.004 854.605 216.089 853.566 222.164 853.516 222.433 853.496 222.703 853.476 222.973 853.017 227.469 853.017 227.499 848.521 227.459 836.881 227.339 825.37 228.748 814.41 232.455 806.187 235.232 797.674 237.55 790.211 242.406 787.962 243.865 786.773 245.663 786.154 248.041 784.745 253.437 783.077 258.792 782.117 264.277 781.528 267.615 781.728 271.192 782.177 274.579 782.437 276.557 782.437 278.535 782.747 280.484 783.466 285.08 783.137 289.796 784.286 294.342 784.376 294.691 784.406 295.071 784.366 295.421 783.826 300.676 785.075 305.842 785.385 311.047 785.834 318.491 786.364 325.965 787.153 333.378 787.673 338.264 787.263 343.25 788.542 348.096 788.972 349.734 789.821 349.444 790.85 349.564 797.105 350.254 803.549 349.774 809.514 352.292 814.47 354.38 820.095 354.74 824.481 358.297 832.414 364.721 839.338 371.655 841.876 382.206 843.395 388.531 845.503 394.766 847.442 401.01 848.521 404.497 849.01 408.024 849.47 411.661 850.189 417.386 850.559 423.181 851.648 428.876 852.217 431.834 851.888 434.921 852.577 437.949 853.616 442.545 854.196 447.251 854.955 451.917 855.055 452.536 855.195 453.186 855.125 453.805 854.515 459.9 855.575 465.955 856.224 471.919 858.172 489.774 856.364 507.609 856.704 525.454 856.813 531.149 854.915 536.844 854.635 542.579 854.356 548.414 852.657 554.159 853.836 560.134 854.495 563.471 853.406 566.938 852.647 570.245 851.888 573.592 851.428 576.999 851.338 580.347 851.178 585.952 850.189 591.367 849.07 596.812 847.871 602.667 847.072 608.602 845.743 614.417 843.954 622.261 839.498 628.795 834.792 635.15 834.223 635.919 833.443 636.339 832.694 636.838 817.347 647.049 800.562 653.724 782.317 656.202 772.296 657.56 762.135 658.32 752.003 657.93 741.263 657.52 730.542 656.631 719.831 655.762 713.696 655.262 707.571 654.633 701.417 654.763 696.421 654.873 691.445 654.483 686.469 654.183 683.232 653.983 680.065 649.917 680.615 646.71 681.534 641.324 680.964 635.979 680.205 630.633 680.115 630.004 680.105 629.365 680.115 628.735 680.325 619.703 679.525 610.74 678.656 601.758 678.127 596.323 677.907 590.778 677.877 585.252 677.837 577.649 678.526 570.025 677.407 562.442 677.107 560.424 677.907 559.534 679.935 559.195 687.209 557.996 694.233 555.987 701.796 555.688 709.23 555.398 716.474 552.271 723.718 549.953 734.798 546.426 744.13 540.111 752.253 532.268 758.108 526.613 762.294 519.469 763.414 510.966 764.283 504.412 764.912 497.807 766.021 491.303 766.701 487.306 766.401 483.4 766.681 479.483Z" stroke="#FFFFFF" stroke-width="11.9897"/><path d="M867.734 441.595C868.144 431.454 865.776 421.493 865.766 411.351 865.766 406.875 864.707 402.219 864.567 397.743 864.407 392.378 863.887 387.062 863.088 381.827 862.059 375.023 862.299 368.178 861.749 361.374 861.469 357.867 861.939 354.17 862.309 350.583 862.439 349.335 862.718 348.086 862.648 346.827 862.249 339.933 863.967 333.168 863.747 326.294 863.598 321.598 863.078 316.892 863.278 312.216 863.608 304.523 861.669 296.969 862.149 289.326 862.638 281.603 862.988 273.859 864.077 266.176 864.517 263.039 864.257 259.861 864.647 256.684 865.166 252.478 864.966 248.181 865.306 243.945 865.726 238.749 866.675 233.574 866.885 228.378 867.225 220.175 868.853 212.222 870.532 204.239 871.321 200.482 871.931 196.675 873.299 193.089 876.956 183.467 882.891 176.453 893.922 175.204 898.128 174.724 902.344 174.215 906.391 172.716 907.93 172.146 909.828 172.246 911.517 172.456 921.188 173.655 930.9 172.856 940.572 172.796 950.523 172.736 960.495 172.226 970.446 171.727 977.45 171.377 984.404 170.058 991.468 170.138 999.341 170.228 1007.18 170.418 1015.05 171.137 1019.37 171.527 1023.77 171.847 1028.25 171.537 1034.94 171.077 1041.75 171.647 1048.5 172.256 1050.71 172.456 1053.16 173.275 1055.22 171.517 1055.34 171.417 1055.59 171.367 1055.73 171.427 1060.38 173.535 1065.46 171.537 1070.16 173.026 1071.24 173.365 1072.38 173.725 1072.54 175.244 1073 179.72 1073.65 184.176 1073.42 188.712 1073.33 190.391 1073.11 192.119 1074.02 193.758 1074.46 194.557 1074.28 195.606 1073.18 196.006 1070.5 196.985 1068.03 198.704 1064.99 198.484 1061.4 198.234 1057.99 198.614 1054.81 200.602 1052.59 201.991 1049.85 201.371 1047.38 201.681 1039.99 202.62 1032.65 203.809 1025.31 205.068 1016.89 206.517 1008.47 207.986 1000.31 210.534 991.458 213.291 982.386 215.439 974.113 219.826 968.308 222.893 962.523 225.98 956.728 229.068 956.408 229.238 956.118 229.557 955.789 229.597 949.824 230.287 949.104 235.602 947.146 239.649 944.358 245.424 943.569 251.838 942.1 258.013 941.501 260.541 941.291 263.318 941.161 265.986 940.881 271.751 939.583 277.286 938.134 282.812 937.185 286.428 936.545 290.095 936.016 293.802 935.396 298.099 934.477 302.355 933.698 306.631 933.618 307.071 933.498 307.53 933.528 307.98 934.077 315.693 933.088 323.377 932.489 331.02 932.009 337.165 931.959 343.27 931.799 349.405 931.679 353.931 933.518 358.377 932.858 362.853 932.129 367.799 932.858 372.784 931.969 377.7 931.4 380.848 932.978 383.865 932.958 387.022 932.948 388.801 933.308 390.499 933.847 392.248 934.727 395.155 935.336 398.193 935.216 401.32 934.966 407.834 935.726 414.259 936.675 420.713 937.225 424.42 937.634 428.137 938.513 431.794 939.932 437.669 940.712 443.684 941.661 449.629 942.69 456.053 944.239 462.398 944.598 468.982 944.948 475.257 945.557 481.571 946.317 487.806 947.416 496.858 950.663 505.471 953.98 513.964 956.428 520.218 957.757 526.832 960.395 533.037 962.643 538.333 964.431 543.818 966.509 549.193 967.019 550.502 967.638 551.811 969.457 551.931 970.086 551.971 970.976 552.51 971.215 553.06 973.493 558.096 978.209 560.094 982.786 561.812 990.948 564.89 998.952 568.557 1007.66 569.975 1014.76 571.134 1021.7 573.003 1028.69 574.641 1033.11 575.681 1037.28 577.779 1041.89 578.128 1047 578.518 1051.62 580.796 1056.52 581.895 1061.67 583.054 1066.94 583.754 1072.19 584.383 1082.28 585.592 1092.45 586.102 1102.48 587.76 1106.82 588.48 1111.11 589.499 1115.51 589.928 1119.72 590.338 1123.9 591.007 1128.1 591.477 1133.97 592.136 1133.87 593.315 1135.57 598.171 1139.73 610.001 1141.62 622.51 1146.06 634.26 1146.81 636.259 1147.83 638.157 1148.83 640.055 1149.48 641.284 1149.14 641.674 1147.85 641.634 1140.89 641.404 1134.04 642.813 1127.06 642.893 1122.3 642.943 1117.45 643.622 1112.72 643.143 1106.47 642.513 1100.22 642.553 1094.02 642.823 1084.99 643.213 1075.95 643.672 1067.04 645.771 1058.68 647.749 1050 648.558 1041.51 647.469 1030.34 646.04 1019.38 647.899 1008.34 648.218 999.401 648.478 990.449 649.977 981.507 649.128 976.071 648.608 970.996 650.906 965.74 650.287 957.357 649.297 949.024 650.776 940.672 650.427 936.595 650.257 932.638 649.507 928.652 648.658 924.725 647.829 920.669 647.629 916.742 646.59 915.183 646.17 913.635 645.76 912.146 645.121 911.736 644.941 911.107 644.492 910.947 644.621 908.099 646.93 907.78 643.852 906.671 642.613 903.973 639.616 900.786 636.888 899.887 632.742 899.457 630.773 898.658 629.155 897.229 627.896 895.3 626.187 895.011 623.729 893.952 621.621 890.315 614.337 888.606 606.424 886.458 598.711 884.859 592.966 882.901 587.131 882.372 581.236 881.792 574.681 880.403 568.217 880.353 561.593 880.333 558.126 879.614 554.639 879.024 551.192 878.745 549.553 878.725 547.944 878.725 546.316 878.735 542.869 877.755 539.572 877.286 536.194 876.826 532.887 876.806 529.54 876.237 526.223 874.778 517.69 875.338 508.898 873.499 500.475 872.06 493.911 871.531 487.256 870.492 480.662 869.952 477.265 869.493 473.738 869.353 470.211 869.093 463.657 868.184 457.132 867.704 450.578 867.484 447.6 867.664 444.593 867.664 441.605Z" stroke="#FFFFFF" stroke-width="11.9897"/><path d="M1433.19 168.579C1441.45 168.579 1449.74 168.919 1457.98 168.5 1471.4 167.82 1484.82 168.27 1498.23 168.02 1510.85 167.79 1523.44 169.099 1536.06 168.56 1537.1 168.51 1537.99 169.029 1538.97 169.109 1539.86 169.179 1539.91 170.168 1540.6 170.408 1538.55 173.985 1543.02 175.374 1543.28 178.401 1543.54 181.548 1545.09 184.576 1545.67 187.793 1546.39 191.78 1547.85 195.676 1548.17 199.673 1548.36 202.001 1550 204.229 1548.42 207.027 1547.57 208.535 1548.66 211.353 1549.32 213.451 1550.2 216.259 1548.86 218.956 1549.33 221.744 1549.54 223.003 1547.78 223.842 1546.76 224.691 1544.3 226.74 1541.27 226.15 1538.7 225.511 1529.63 223.263 1520.4 222.323 1511.15 221.464 1509.8 221.344 1508.46 221.654 1507.13 221.824 1497.09 223.093 1489.96 229.038 1483.37 236.042 1478.41 241.307 1473.85 246.792 1470.27 253.137 1468.58 256.124 1468.33 259.252 1467.72 262.349 1466.05 270.832 1466.08 279.484 1466.7 288.007 1467.16 294.312 1469.76 300.387 1472.7 305.962 1477.11 314.355 1478.92 323.677 1482.88 332.179 1488.21 343.629 1491.6 356.009 1498.97 366.5 1501.28 369.777 1503.95 372.804 1506.4 375.982 1507.63 377.58 1510.34 376.871 1512.37 377.261 1516.96 378.14 1521.58 378.809 1526.27 378.989 1527.82 379.049 1528.19 380.588 1528.32 381.697 1529.37 390.419 1530.74 399.102 1530.41 407.964 1530.31 410.622 1528.88 411.052 1527.15 410.992 1519.42 410.702 1512.14 412.83 1504.95 415.178 1502.7 415.908 1500.55 417.286 1499.1 419.584 1494.53 426.838 1489.15 433.682 1485.94 441.665 1481.5 452.746 1476.89 463.816 1476.77 476.166 1476.7 483.51 1476.77 490.853 1477.01 498.167 1477.2 504.102 1478.73 509.977 1480.13 515.802 1481.69 522.296 1482.27 529.1 1485.1 535.185 1488.5 542.459 1492.21 549.633 1497.85 555.548 1499.04 556.787 1500.28 558.036 1501.19 559.474 1502.81 562.052 1505.14 563.131 1508.03 563.501 1512.77 564.1 1517.05 566.279 1521.52 567.777 1523.43 568.417 1525.14 568.577 1526.95 568.037 1528.91 567.448 1530.76 567.528 1532.77 567.947 1534.76 568.367 1536.83 568.996 1538.93 568.607 1541.75 568.087 1543.34 570.575 1545.67 571.334 1546.58 571.634 1546.6 573.502 1546.66 574.801 1546.84 578.578 1545.8 582.515 1547.23 586.122 1548.84 590.158 1550.07 594.275 1551.13 598.461 1551.3 599.15 1551.29 599.89 1551.37 600.609 1552.15 607.793 1552.98 614.977 1553.85 622.141 1554.36 626.367 1556.11 630.454 1557.43 634.57 1558.11 636.708 1557.12 637.518 1555.25 637.817 1548.07 638.976 1540.85 639.606 1533.58 640.105 1529.35 640.395 1525.19 641.744 1520.96 642.423 1517.26 643.023 1513.5 643.802 1509.77 643.742 1498.89 643.562 1488.03 644.272 1477.17 644.522 1472.07 644.641 1466.98 646.29 1461.9 647.349 1454.43 648.908 1446.93 649.178 1439.33 648.318 1436.56 647.999 1433.71 648.248 1430.9 648.178 1421.86 647.939 1412.82 647.839 1403.78 648.718 1403.06 648.788 1402.39 648.818 1401.79 649.337 1400.1 650.806 1397.89 650.856 1396.13 650.197 1393.2 649.098 1390.24 649.008 1387.34 649.367 1383.5 649.847 1379.75 649.208 1375.95 649.267 1375.59 649.267 1375.03 649.367 1374.9 649.178 1372.82 646.25 1370.36 648.288 1368.29 648.908 1366.63 649.407 1365.89 648.928 1365.2 647.769 1362.67 643.532 1360.83 639.066 1359.53 634.26 1358.42 630.164 1356.42 626.297 1354.63 622.411 1352.49 617.765 1351.99 612.619 1349.98 607.923 1349.36 606.464 1348.62 605.035 1348.09 603.517 1347.53 601.908 1347.73 601.409 1349.52 600.649 1353.02 599.15 1356.41 600.359 1359.81 600.289 1364.72 600.2 1369.43 599.57 1373.97 597.622 1379.8 595.124 1385.46 592.336 1391.12 589.469 1393.19 588.42 1394.79 587.091 1396.4 585.592 1396.93 585.093 1397.26 584.283 1398.4 584.753 1399.04 585.013 1399.92 584.353 1400.43 583.724 1405.78 577.099 1411.78 570.935 1415.14 562.922 1418.98 553.799 1421.94 544.387 1424.56 534.846 1426.11 529.19 1428.41 523.755 1429.21 517.89 1429.86 513.064 1431.17 508.298 1430.55 503.343 1430.04 499.236 1431.51 495.339 1431.89 491.333 1431.98 490.364 1432.17 489.375 1432.17 488.395 1432.17 460.879 1432.37 433.353 1432.07 405.846 1431.96 395.855 1430.97 385.863 1430.38 375.882 1429.77 365.621 1428.25 355.409 1426.83 345.198 1425.89 338.364 1424.75 331.52 1424.96 324.516 1425.09 320.09 1424.02 315.633 1423.42 311.187 1422.21 302.255 1420.2 293.452 1417.9 284.77 1415.03 273.919 1412 263.019 1406.53 253.077 1402.53 245.783 1398.49 238.49 1393.31 231.895 1391.39 229.447 1389.82 226.69 1388.32 223.992 1386.22 220.195 1383.46 217.028 1380.41 214.13 1376.31 210.224 1371.96 206.557 1367.55 203 1364.48 200.522 1360.92 198.494 1357.08 197.755 1348.68 196.136 1345.91 189.631 1343.46 182.857 1342.34 179.78 1344.15 177.502 1347.31 176.743 1350.98 175.863 1354.79 175.773 1358.39 174.974 1364.36 173.655 1370.41 172.976 1376.37 171.697 1381.59 170.578 1386.92 169.998 1392.19 169.808 1402.5 169.429 1412.75 167.96 1423.09 168.57 1426.44 168.769 1429.8 168.599 1433.16 168.599Z" stroke="#FFFFFF" stroke-width="11.9897"/><path d="M1028.88 359.206C1044.85 359.206 1060.84 359.596 1076.79 359.116 1100.39 358.407 1123.97 359.446 1147.56 359.496 1157.44 359.516 1167.3 360.365 1177.17 360.855 1177.68 360.885 1178.35 360.655 1178.62 361.264 1178.97 362.044 1178.51 362.423 1177.76 362.573 1177.35 362.653 1177.25 362.723 1177.61 363.193 1178.81 364.771 1178.38 366.73 1178.1 368.358 1177.44 372.255 1177.78 376.222 1176.71 380.098 1175.81 383.385 1177.41 386.653 1177.74 389.95 1178.19 394.406 1180 398.722 1178.7 403.378 1178.03 405.766 1175.46 408.154 1172.95 408.414 1165.75 409.153 1158.56 410.102 1151.37 410.922 1148.68 411.232 1145.99 411.621 1143.29 411.601 1138.21 411.561 1133.35 412.93 1128.36 413.52 1127.2 413.659 1126.03 413.879 1124.89 413.799 1120.62 413.49 1116.47 414.419 1112.27 414.888 1111.19 415.008 1111.07 415.578 1111.3 416.337 1112.1 418.925 1111.75 421.573 1111.69 424.18 1111.46 432.343 1112.74 440.426 1112.8 448.56 1112.84 454.025 1112.66 459.48 1111.8 464.896 1111.28 468.253 1111.94 471.61 1112.35 474.897 1112.97 479.933 1113.08 484.978 1113.43 490.014 1113.81 495.609 1114.16 501.214 1114.52 506.81 1114.55 507.259 1114.46 507.709 1114.47 508.158 1114.57 510.916 1112.23 513.814 1114.94 516.441 1115.13 516.621 1115.07 517.171 1114.98 517.5 1114.06 520.828 1114.61 524.145 1115.6 527.262 1118.01 534.806 1117.66 543.248 1122.99 549.853 1123.61 550.632 1124.18 551.441 1125.03 551.961 1129.53 554.699 1134.39 556.967 1138.43 560.244 1141.3 562.572 1144.41 564.011 1147.56 565.629 1149.66 566.708 1148.18 568.956 1148.05 570.555 1147.89 572.433 1145.79 572.923 1144.3 572.933 1142.09 572.953 1139.79 573.472 1137.6 572.523 1137.31 572.393 1136.79 572.393 1136.56 572.563 1133.5 574.871 1129.96 573.872 1126.59 574.042 1116.43 574.532 1106.26 572.843 1096.15 573.672 1089.6 574.212 1083.62 572.943 1077.39 571.484 1068.2 569.326 1058.89 567.727 1050.05 564.29 1048.39 563.651 1046.77 562.882 1045.2 562.042 1038.01 558.196 1029.96 555.977 1023.38 550.982 1019.06 547.695 1015.1 543.968 1012.26 539.242 1010.77 536.774 1009.13 534.446 1007.22 532.268 1002.44 526.822 1000.58 519.898 997.972 513.364 994.915 505.681 991.798 498.017 988.98 490.254 987.312 485.668 985.313 481.222 983.725 476.615 981.656 470.631 979.778 464.576 979.289 458.191 979.059 455.204 977.53 452.566 976.741 449.719 975.792 446.281 975.292 442.784 974.742 439.277 974.103 435.141 973.244 431.025 972.784 426.858 972.444 423.811 972.544 420.703 972.554 417.616 972.574 413.57 972.185 413 968.338 413.969 965.281 414.739 962.413 414.089 959.505 413.669 957.307 413.36 955.369 412.301 954.729 409.903 954.03 407.305 951.472 406.136 950.283 403.818 949.084 401.48 948.315 399.032 948.375 396.634 948.465 392.578 946.696 388.961 946.347 385.044 945.937 380.418 945.038 375.892 946.277 371.146 946.946 368.588 946.477 365.601 945.977 362.903 945.647 361.134 946.267 361.104 947.516 361.075 950.143 361.015 952.781 360.935 955.409 360.825 979.888 359.766 1004.39 359.436 1028.89 359.886 1028.89 359.656 1028.89 359.426 1028.89 359.196Z" stroke="#FFFFFF" stroke-width="11.9897"/><path d="M1303.44 375.522C1310.3 375.282 1320.16 376.331 1330.02 376.501 1335.44 376.591 1340.93 376.341 1346.21 377.391 1351.57 378.45 1356.94 377.301 1362.26 378.34 1363.6 378.599 1365.19 378.3 1366.5 377.81 1371 376.122 1375.36 377.111 1379.62 378.46 1382.47 379.359 1385.26 378.729 1387.89 378.3 1397.19 376.771 1404.8 380.997 1412.03 385.484 1417.51 388.891 1420.54 394.606 1420.73 401.37 1420.8 403.898 1421.45 406.356 1421.96 408.764 1423.06 413.969 1422.92 419.265 1423.8 424.48 1424.73 430.005 1423.68 435.601 1422.73 441.096 1421.95 445.592 1421.19 450.128 1417.94 453.715 1417.46 454.245 1417.17 454.964 1416.46 455.254 1412.41 456.912 1408.78 459.69 1404.46 460.559 1402.3 460.999 1399.95 462.408 1397.61 460.839 1397.47 460.749 1397.16 460.669 1397.1 460.739 1394.54 463.667 1390.65 461.908 1387.68 463.417 1387.09 463.717 1386.39 463.896 1386.56 464.666 1386.72 465.375 1387.47 464.955 1387.94 465.075 1395.34 466.804 1403.45 466.114 1409.9 471.13 1412.16 472.889 1415.24 474.078 1416.06 477.115 1416.84 480.033 1417.2 483.1 1417.36 486.117 1417.42 487.306 1417.43 488.565 1417.51 489.764 1417.94 495.759 1416.91 501.594 1415.73 507.419 1414.51 513.454 1413.46 519.529 1411.96 525.494 1410.77 530.22 1409.45 535.165 1406.02 538.762 1399.78 545.317 1392.72 550.812 1383.52 552.8 1374.94 554.659 1366.38 556.347 1357.55 556.777 1354.78 556.917 1352.01 556.387 1349.23 556.897 1347.64 557.186 1347.15 556.127 1347.44 554.689 1348.15 551.271 1348.63 547.784 1349.69 544.487 1350.33 542.519 1349.28 540.99 1349.25 539.222 1349.16 533.776 1349.73 528.361 1350.01 522.946 1350.4 515.392 1348.88 508.358 1346.46 501.274 1344.72 496.149 1340.88 492.582 1338.42 488.066 1336.82 485.118 1334.23 484.529 1331.43 483.809 1327.03 482.68 1322.66 481.421 1318.36 480.023 1316.27 479.343 1315.92 480.023 1316.32 481.851 1319 494.21 1322.81 506.28 1325.84 518.55 1328.22 528.201 1330.54 537.883 1330.14 547.934 1329.83 555.798 1327.3 559.405 1321.69 560.803 1315.98 562.212 1310.12 563.151 1304.31 564.17 1298.23 565.229 1292.03 565.699 1285.89 566.419 1285.53 566.458 1285.13 566.528 1284.8 566.419 1280.91 565.11 1277.27 567.208 1273.48 567.288 1271.46 567.328 1269.53 566.958 1267.55 566.848 1266.26 566.778 1265.42 565.689 1265.41 564.18 1265.4 562.932 1264.84 561.403 1265.07 560.514 1266.18 556.287 1264 551.661 1266.84 547.635 1267.74 546.366 1267.66 544.537 1267.67 542.899 1267.68 538.812 1267.73 534.726 1267.7 530.639 1267.66 525.404 1268.63 520.258 1269.01 515.083 1269.47 508.808 1268.32 502.543 1267.36 496.329 1267.18 495.16 1267.06 494.021 1267.02 492.862 1266.74 485.228 1265.32 477.675 1264.98 470.071 1264.66 462.927 1261.62 456.183 1262.23 448.959 1263.11 438.458 1262.5 427.927 1262.81 417.416 1262.88 414.888 1263.8 412.52 1264.24 410.063 1265.35 403.778 1265.91 397.413 1267.1 391.159 1267.89 387.002 1267.55 382.886 1267.68 378.749 1267.73 377.291 1268.17 376.751 1269.73 376.641 1279.96 375.912 1290.2 375.622 1303.47 375.522ZM1309.45 439.497C1309.45 441.855 1309.45 444.213 1309.45 446.571 1309.45 447.72 1309.64 448.2 1311.11 448.649 1315.37 449.958 1319.66 448.629 1323.86 449.309 1324.47 449.409 1324.91 448.989 1325.23 448.56 1326.8 446.501 1328.57 444.553 1329.82 442.315 1332.63 437.289 1333.25 431.564 1333.42 426.029 1333.69 417.186 1331.06 408.754 1328.61 400.311 1327.64 396.974 1324.95 395.475 1322.71 393.737 1320.19 391.778 1316.87 391.199 1313.43 391.359 1307.73 391.628 1307.73 391.448 1307.49 397.064 1307.46 397.773 1307.19 398.472 1307.14 399.182 1306.95 401.81 1305.37 404.168 1305.98 406.985 1308.3 417.696 1309.74 428.507 1309.44 439.497Z" stroke="#FFFFFF" stroke-width="11.9897"/><path d="M1073.64 213.431C1085.47 212.012 1097.3 210.593 1108.97 207.986 1112.19 207.266 1115.63 207.196 1118.96 207.336 1124.56 207.566 1130.11 206.387 1135.76 207.146 1139.08 207.586 1142.48 206.147 1145.94 206.157 1147.68 206.157 1148.46 206.627 1148.27 208.445 1147.69 214.041 1149.29 219.146 1151.37 224.302 1152.61 227.379 1152.76 230.946 1153.12 234.333 1154.04 242.796 1155.15 251.199 1157.07 259.522 1158.67 266.516 1158.28 273.659 1157.65 280.803 1157.25 285.279 1156.96 289.716 1155.95 294.122 1154.96 298.388 1153.92 302.655 1151.75 306.461 1148.97 311.327 1146.59 316.383 1144.22 321.438 1142.02 326.124 1140.32 330.97 1135.16 333.308 1131.74 339.563 1125.16 341.901 1119.51 344.948 1112.43 348.755 1104.35 349.904 1096.27 350.713 1086.49 351.693 1076.68 352.072 1066.88 352.692 1062.05 353.001 1057.15 353.001 1052.26 352.422 1048.45 351.972 1044.49 352.462 1040.65 352.941 1038.28 353.231 1036.04 353.291 1033.67 352.971 1031.08 352.622 1028.42 352.752 1025.79 352.842 1020.17 353.021 1014.94 351.922 1009.61 349.904 1005.04 348.166 1000.55 345.548 995.345 345.698 994.855 345.708 994.276 345.438 993.866 345.128 990.739 342.8 987.422 340.702 984.624 337.964 984.214 337.565 983.875 337.565 983.475 337.565 981.606 337.615 980.258 336.386 979.408 335.147 972.404 324.916 964.611 315.114 960.864 303.004 960.095 300.506 959.435 298.019 959.525 295.371 959.575 293.932 959.126 292.473 959.076 291.114 958.926 287.208 959.056 283.221 960.565 279.514 960.964 278.525 961.124 277.626 961.084 276.657 960.744 268.384 962.813 260.501 964.741 252.558 965.89 247.832 968.578 244.664 972.035 241.377 982.985 230.966 996.484 225.581 1010.46 221.294 1016.16 219.546 1021.98 217.977 1027.86 216.748 1029.37 216.428 1030.97 216.229 1032.39 216.249 1039.66 216.389 1046.7 214.34 1053.92 214.37 1055.72 214.37 1055.86 214.72 1055.43 216.538 1054.89 218.826 1055.08 221.334 1055.21 223.732 1055.3 225.411 1055.15 227.019 1054.47 228.498 1052.32 233.234 1051.69 238.28 1051.25 243.375 1051.15 244.514 1050.69 245.613 1050.37 246.733 1047.94 255.215 1046.03 263.828 1044.74 272.54 1043.64 279.984 1043.77 287.558 1044.79 295.011 1046.16 305.013 1049.35 314.454 1054.57 323.147 1055.8 325.195 1058.22 326.124 1059.38 328.413 1059.98 329.581 1061.03 328.063 1061.63 327.393 1065.99 322.468 1069.38 316.892 1071.6 310.718 1075.18 300.746 1078.62 290.725 1081.89 280.643 1083.38 276.037 1083.75 271.202 1084.09 266.336 1084.48 260.85 1084.97 255.325 1084.39 249.93 1083.53 241.887 1082.88 233.524 1078.62 226.44 1076.14 222.303 1074.96 217.957 1073.68 213.471Z" stroke="#FFFFFF" stroke-width="11.9897"/><path d="M1404.91 271.431C1405.11 274.848 1404.67 278.365 1401.17 279.554 1398.26 280.544 1395.56 282.062 1392.57 282.802 1385.36 284.59 1378.54 287.637 1371.27 289.246 1368.63 289.826 1365.86 289.866 1363.37 291.055 1362.18 291.624 1360.57 292.084 1360.99 293.872 1361.36 295.451 1362.13 296.999 1364.04 297.159 1365.29 297.259 1366.38 297.739 1367.3 298.388 1371.8 301.586 1377.26 303.234 1381.55 306.561 1386.54 310.418 1392.4 312.826 1397.18 316.862 1399.58 318.891 1402.02 321.099 1403.71 323.697 1407.32 329.242 1411.88 334.088 1414.62 340.322 1417.76 347.476 1420.69 354.47 1420.23 362.473 1420.13 364.242 1420.66 366.04 1420.71 367.829 1420.77 370.057 1417.71 372.884 1415.66 372.305 1406.39 369.657 1396.89 370.556 1387.46 370.147 1380.56 369.857 1373.67 369.867 1366.79 369.637 1365.11 369.577 1363.53 368.668 1361.72 368.998 1361.23 369.088 1360.4 368.558 1360.04 367.569 1358.31 362.793 1356.22 358.157 1355.27 353.111 1354.73 350.264 1352.85 348.395 1350.63 346.497 1344.99 341.671 1338.78 337.745 1332.42 334.028 1326.88 330.79 1320.96 328.383 1314.93 326.244 1306.48 323.247 1298.13 319.93 1289.41 317.712 1281.98 315.823 1274.41 315.174 1266.79 314.424 1261.47 313.905 1256.21 315.703 1250.97 314.205 1250.28 314.005 1249.23 314.245 1248.65 314.684 1247.13 315.843 1245.78 316.183 1244.46 314.534 1243 312.716 1241.4 310.938 1242.04 308.29 1244 300.227 1246.08 292.184 1247.86 284.07 1248.67 280.394 1248.08 276.567 1247.7 272.88 1247.05 266.705 1246.15 260.561 1245.42 254.386 1244.42 245.813 1244.94 237.091 1242.61 228.618 1241.74 225.461 1241.72 222.004 1241.96 218.647 1242.15 216.019 1241.75 213.441 1241.03 210.923 1240.61 209.474 1241.07 208.345 1242.48 208.455 1243.99 208.565 1245.44 206.437 1246.93 208.355 1246.99 208.435 1247.2 208.395 1247.34 208.405 1247.71 204.579 1250.25 207.266 1251.31 207.426 1260.01 208.785 1268.65 210.224 1277.51 208.955 1280.35 208.545 1283.26 208.715 1286.15 208.415 1297.7 207.186 1309.32 208.066 1320.9 207.796 1337.56 207.396 1353.53 211.183 1369.27 216.139 1372.25 217.078 1374.5 219.096 1376.47 221.544 1380.18 226.16 1383.92 230.776 1387.92 235.162 1391.79 239.419 1394.17 244.524 1396.61 249.58 1399.2 254.955 1401.38 260.521 1403.8 265.966 1404.59 267.734 1405.18 269.483 1404.88 271.411ZM1366.5 261.08C1366.91 259.641 1365.81 258.163 1365.77 256.584 1365.7 253.257 1363.67 250.839 1361.18 249.78 1356.65 247.832 1351.72 246.802 1346.94 245.414 1345.89 245.114 1345.18 245.384 1345.13 246.663 1344.95 251.468 1343.59 256.015 1342.15 260.571 1340.76 264.987 1343.26 269.833 1347.55 271.491 1351.45 272.99 1355.28 273.41 1358.87 270.632 1359.44 270.192 1360.11 269.853 1360.78 269.603 1364.95 268.014 1366.47 265.836 1366.49 261.09Z" stroke="#FFFFFF" stroke-width="11.9897"/><path d="M1199.86 573.542C1192.74 573.982 1183.31 573.452 1174.49 570.115 1167.81 567.588 1161.45 564.081 1155.59 559.844 1154.03 558.715 1152.87 557.136 1152.02 555.488 1150.72 552.98 1148.81 551.261 1146.45 549.823 1142.57 547.465 1141.98 543.118 1140.67 539.342 1137.78 530.999 1135.94 522.376 1134 513.774 1132.63 507.719 1129.98 501.984 1128.9 495.809 1127.99 490.593 1127.35 485.368 1126.97 480.092 1126.51 473.708 1125.59 467.353 1125.99 460.939 1126.24 456.972 1126.63 453.016 1126.51 449.019 1126.33 443.144 1125.43 437.319 1125.8 431.404 1125.91 429.586 1126.43 427.787 1126.14 425.889 1126.02 425.09 1126.41 423.781 1127.93 423.611 1134.5 422.882 1141.03 422.872 1147.55 424.021 1148.35 424.16 1149.17 424.17 1149.98 424.16 1157.95 424.071 1165.89 423.661 1173.69 421.932 1174.63 421.723 1175.51 421.223 1176.39 420.793 1178.55 419.744 1179.58 420.534 1180.66 422.732 1183.18 427.867 1182.08 433.552 1183.57 438.838 1185.17 444.543 1186.44 450.348 1187.65 456.163 1188.21 458.871 1188.39 461.678 1188.54 464.446 1188.92 471.45 1190.21 478.374 1190.27 485.408 1190.31 489.724 1189.99 494.021 1191.12 498.337 1191.76 500.785 1190.56 503.502 1190.37 506.08 1189.98 511.406 1190.21 516.781 1190.24 522.146 1190.24 523.845 1191.74 524.235 1192.9 524.894 1198.71 528.211 1203.96 525.693 1204.66 519.099 1205.04 515.432 1205.71 511.785 1205.46 508.049 1205.2 504.192 1204.8 500.365 1204.12 496.568 1203.79 494.73 1204.56 492.971 1204.6 491.193 1204.76 484.479 1205.11 477.725 1204.6 471.05 1203.82 460.999 1202 451.077 1200.23 441.136 1198.02 428.707 1195.05 416.567 1191.12 404.587 1189.54 399.801 1188.98 394.676 1188.06 389.68 1187.62 387.302 1186.82 385.034 1186.33 382.666 1185.97 380.938 1186.64 380.698 1187.73 380.108 1192.08 377.79 1196.83 377.241 1201.62 376.941 1209.93 376.421 1218.25 376.172 1226.57 375.592 1236.46 374.913 1246.3 375.722 1256.17 376.072 1257.71 376.122 1257.74 376.921 1257.56 378.02 1256.46 384.754 1255.76 391.548 1254.92 398.303 1253.8 407.345 1250.6 415.938 1249.81 424.94 1249.34 430.335 1248.59 435.84 1249.91 441.286 1250.69 444.533 1249.5 447.76 1249.56 451.017 1249.67 456.713 1251.26 462.208 1251.35 467.953 1251.53 478.953 1252.17 489.954 1252.96 500.935 1253.39 506.87 1254.26 512.774 1253.83 518.739 1253.5 523.325 1252.8 527.892 1252.46 532.448 1251.93 539.621 1249.39 546.346 1248.54 553.41 1247.97 558.136 1244.73 561.263 1241.54 564.38 1241.41 564.5 1241.26 564.63 1241.1 564.68 1233.59 566.808 1227.15 571.754 1219.24 572.883 1213.57 573.692 1207.86 573.412 1199.87 573.532Z" stroke="#FFFFFF" stroke-width="11.9897"/><path d="M1132.21 349.634C1136.95 346.387 1141.54 343.05 1145.19 338.664 1150.37 332.419 1154.9 325.705 1158.22 318.281 1159.12 316.233 1158.7 313.835 1159.12 311.597 1161.41 299.317 1163.65 287.028 1165.6 274.689 1166.79 267.155 1166.02 259.502 1166.27 251.908 1166.6 242.286 1164.54 233.014 1162.71 223.692 1162.01 220.115 1161.83 216.309 1160.12 213.091 1159.12 211.213 1158.41 209.574 1158.5 207.456 1158.56 206.017 1159.06 205.608 1160.44 205.618 1178.61 205.658 1196.77 205.518 1214.94 205.788 1218.05 205.838 1221.33 205.927 1224.52 207.146 1228.34 208.605 1229.34 211.343 1229.65 214.83 1229.71 215.549 1229.61 216.289 1230.09 216.918 1232.44 219.975 1232.55 223.722 1232.57 227.199 1232.59 232.055 1233.89 236.581 1234.85 241.217 1235.93 246.483 1235.84 251.908 1237.03 257.174 1238.36 263.078 1238.43 269.173 1238.58 275.178 1238.72 280.633 1237.95 286.149 1237.32 291.574 1236.94 294.821 1235.13 297.929 1234.99 301.436 1234.72 307.98 1230.83 313.166 1227.98 318.711 1227.1 320.409 1227.49 320.689 1229.16 320.679 1234.16 320.629 1239.16 320.689 1244.15 320.659 1252.29 320.599 1260.26 321.968 1268.29 323.137 1276.1 324.276 1283.48 326.554 1290.84 329.212 1293 329.991 1295.41 330.061 1297.72 330.401 1307.21 331.82 1315.6 336.226 1324.21 340.063 1327.51 341.531 1330.77 343.17 1334.19 344.239 1338.64 345.628 1341.35 349.554 1345.47 351.353 1346.25 351.693 1346.44 352.702 1346.67 353.631 1347.69 357.597 1348.47 361.634 1350.18 365.391 1350.85 366.86 1350.49 367.919 1348.72 368.049 1341.73 368.558 1334.71 369.397 1327.85 367.109 1326.42 366.63 1325.15 367.359 1323.88 367.589 1319.21 368.448 1314.51 367.649 1309.86 368.089 1302.53 368.788 1295.18 368.898 1287.86 368.528 1277.1 367.979 1266.35 367.509 1255.57 367.419 1248.01 367.359 1240.4 366.78 1232.9 365.771 1225.23 364.741 1217.58 364.711 1209.89 364.771 1205.27 364.801 1200.71 365.571 1196.07 365.401 1193.62 365.311 1192.13 364.472 1191.49 362.124 1191.32 361.514 1191.03 360.945 1190.9 360.325 1189.23 352.472 1185.28 350.933 1176.99 350.104 1171.43 349.554 1165.9 348.825 1160.35 348.385 1153.23 347.816 1146.01 347.876 1138.99 349.634 1136.73 350.194 1134.59 349.984 1132.21 349.664Z" stroke="#FFFFFF" stroke-width="11.9897"/></g></svg>