<svg width="881" height="490" xmlns="http://www.w3.org/2000/svg" xmlns:xlink="http://www.w3.org/1999/xlink" xml:space="preserve" overflow="hidden"><defs><clipPath id="clip0"><rect x="423" y="442" width="881" height="490"/></clipPath></defs><g clip-path="url(#clip0)" transform="translate(-423 -442)"><path d="M512.691 753.463C513.61 747.798 512.011 742.283 511.692 736.697 511.512 733.53 508.944 730.952 507.645 728.015 505.077 722.21 501.91 716.854 496.475 713.178 494.946 712.148 493.327 711.409 491.659 710.74 488.192 709.351 484.885 707.742 481.947 705.374 478.62 702.687 474.923 700.588 471.026 698.83 466.71 696.882 463.603 693.405 460.186 690.307 457.328 687.719 455.08 684.522 451.683 682.444 449.625 681.185 448.326 679.087 447.027 676.969 443.32 670.904 438.714 665.468 436.836 658.245 435.906 654.668 433.519 651.341 432.14 647.714 430.831 644.287 430.072 640.76 430.052 637.193 429.932 619.938 429.322 602.642 430.201 585.437 431.001 569.74 430.331 554.044 431.34 538.407 431.98 528.466 430.641 518.644 431.111 508.773 431.37 503.467 431.54 498.042 433.369 493.076 436.746 483.944 440.562 474.952 447.037 467.428 452.133 461.523 459.057 458.866 466.191 456.637 473.105 454.479 480.578 454.529 487.362 452.241 496.175 449.264 505.417 449.903 514.289 447.775 517.726 446.946 521.503 447.116 525.1 447.935 527.478 448.474 529.766 447.525 532.114 447.525 538.379 447.515 544.683 447.086 550.898 447.635 557.822 448.255 564.536 447.106 571.32 446.416 574.128 446.126 576.806 446.876 579.653 446.626 585.448 446.116 591.583 444.538 597.048 446.756 600.925 448.325 604.552 447.655 608.279 448.065 609.897 448.245 610.707 450.972 609.817 453.23 607.809 458.376 604.762 463.112 603.663 468.617 603.053 471.685 602.314 474.712 602.084 477.859 601.634 484.004 600.605 490.089 599.566 496.164 599.516 496.433 599.496 496.703 599.476 496.973 599.017 501.469 599.017 501.499 594.521 501.459 582.88 501.339 571.37 502.748 560.41 506.455 552.187 509.232 543.674 511.55 536.211 516.406 533.962 517.865 532.773 519.663 532.154 522.041 530.745 527.437 529.077 532.792 528.117 538.277 527.528 541.615 527.728 545.192 528.177 548.579 528.437 550.557 528.437 552.535 528.747 554.484 529.466 559.08 529.137 563.796 530.286 568.342 530.376 568.691 530.406 569.071 530.366 569.421 529.826 574.676 531.075 579.842 531.385 585.047 531.834 592.491 532.364 599.965 533.153 607.378 533.673 612.264 533.263 617.25 534.542 622.096 534.972 623.734 535.821 623.444 536.85 623.564 543.105 624.254 549.549 623.774 555.514 626.292 560.47 628.38 566.095 628.74 570.481 632.297 578.414 638.721 585.338 645.655 587.876 656.206 589.395 662.531 591.503 668.766 593.441 675.01 594.521 678.497 595.01 682.024 595.47 685.661 596.189 691.386 596.559 697.181 597.648 702.876 598.217 705.834 597.888 708.921 598.577 711.949 599.616 716.545 600.196 721.251 600.955 725.917 601.055 726.536 601.195 727.186 601.125 727.805 600.515 733.9 601.574 739.955 602.224 745.919 604.172 763.774 602.364 781.609 602.703 799.454 602.813 805.149 600.915 810.844 600.635 816.579 600.356 822.414 598.657 828.159 599.836 834.134 600.495 837.471 599.406 840.938 598.647 844.245 597.888 847.592 597.428 850.999 597.338 854.347 597.178 859.952 596.189 865.367 595.07 870.812 593.871 876.667 593.072 882.602 591.743 888.417 589.954 896.261 585.498 902.795 580.792 909.15 580.223 909.919 579.443 910.339 578.694 910.838 563.347 921.049 546.562 927.724 528.317 930.202 518.296 931.56 508.135 932.32 498.003 931.93 487.262 931.52 476.542 930.631 465.831 929.762 459.696 929.262 453.571 928.633 447.417 928.763 442.421 928.873 437.445 928.483 432.469 928.183 429.232 927.983 426.065 923.917 426.614 920.71 427.534 915.324 426.964 909.979 426.205 904.633 426.115 904.004 426.105 903.365 426.115 902.735 426.325 893.703 425.525 884.74 424.656 875.758 424.127 870.323 423.907 864.778 423.877 859.252 423.837 851.649 424.526 844.025 423.407 836.442 423.107 834.424 423.907 833.534 425.935 833.195 433.209 831.996 440.233 829.987 447.796 829.688 455.23 829.398 462.474 826.271 469.718 823.953 480.798 820.426 490.13 814.111 498.253 806.268 504.108 800.613 508.294 793.469 509.413 784.966 510.283 778.412 510.912 771.807 512.021 765.303 512.701 761.306 512.401 757.4 512.681 753.483Z" stroke="#FFFFFF" stroke-width="5.99486"/><path d="M613.734 715.595C614.144 705.454 611.776 695.493 611.766 685.351 611.766 680.875 610.707 676.219 610.567 671.743 610.407 666.378 609.887 661.062 609.088 655.827 608.059 649.023 608.299 642.178 607.749 635.374 607.469 631.867 607.939 628.17 608.309 624.583 608.439 623.335 608.718 622.086 608.648 620.827 608.249 613.933 609.967 607.168 609.747 600.294 609.598 595.598 609.078 590.892 609.278 586.216 609.608 578.523 607.669 570.969 608.149 563.326 608.638 555.603 608.988 547.859 610.077 540.176 610.517 537.039 610.257 533.861 610.647 530.684 611.166 526.478 610.966 522.181 611.306 517.945 611.726 512.749 612.675 507.574 612.885 502.378 613.224 494.175 614.853 486.222 616.532 478.239 617.321 474.482 617.93 470.675 619.299 467.089 622.956 457.467 628.891 450.453 639.922 449.204 644.128 448.724 648.344 448.215 652.391 446.716 653.93 446.146 655.828 446.246 657.517 446.456 667.188 447.655 676.9 446.856 686.572 446.796 696.523 446.736 706.495 446.226 716.446 445.727 723.45 445.377 730.404 444.058 737.468 444.138 745.341 444.228 753.185 444.418 761.048 445.137 765.374 445.527 769.77 445.847 774.246 445.537 780.941 445.077 787.755 445.647 794.499 446.256 796.707 446.456 799.155 447.275 801.223 445.517 801.343 445.417 801.593 445.367 801.733 445.427 806.379 447.535 811.465 445.537 816.161 447.026 817.24 447.365 818.379 447.725 818.539 449.244 818.998 453.72 819.648 458.176 819.418 462.712 819.328 464.391 819.108 466.119 820.017 467.758 820.457 468.557 820.277 469.606 819.178 470.006 816.5 470.985 814.032 472.704 810.985 472.484 807.398 472.234 803.991 472.614 800.814 474.602 798.586 475.991 795.848 475.371 793.38 475.681 785.986 476.62 778.653 477.809 771.309 479.068 762.886 480.517 754.473 481.986 746.31 484.534 737.458 487.291 728.386 489.439 720.113 493.826 714.308 496.893 708.523 499.98 702.728 503.068 702.408 503.238 702.118 503.557 701.789 503.597 695.824 504.287 695.104 509.602 693.146 513.649 690.358 519.424 689.569 525.838 688.1 532.013 687.501 534.541 687.291 537.318 687.161 539.986 686.881 545.751 685.583 551.286 684.134 556.812 683.185 560.428 682.545 564.095 682.016 567.802 681.396 572.099 680.477 576.355 679.698 580.631 679.618 581.071 679.498 581.53 679.528 581.98 680.077 589.693 679.088 597.377 678.489 605.02 678.009 611.165 677.959 617.27 677.799 623.405 677.679 627.931 679.518 632.377 678.858 636.853 678.129 641.799 678.858 646.784 677.969 651.7 677.4 654.848 678.978 657.865 678.958 661.022 678.948 662.801 679.308 664.499 679.847 666.248 680.727 669.155 681.336 672.193 681.216 675.32 680.966 681.834 681.726 688.259 682.675 694.713 683.224 698.42 683.634 702.137 684.513 705.794 685.932 711.669 686.712 717.684 687.661 723.629 688.69 730.053 690.239 736.398 690.598 742.982 690.948 749.257 691.557 755.571 692.317 761.806 693.416 770.858 696.663 779.471 699.98 787.964 702.428 794.218 703.757 800.832 706.395 807.037 708.643 812.333 710.431 817.818 712.509 823.193 713.019 824.502 713.638 825.811 715.457 825.931 716.086 825.971 716.976 826.51 717.215 827.06 719.493 832.096 724.209 834.094 728.785 835.812 736.948 838.89 744.952 842.557 753.664 843.975 760.758 845.134 767.702 847.003 774.686 848.641 779.112 849.681 783.279 851.779 787.895 852.128 793 852.518 797.616 854.796 802.522 855.895 807.668 857.054 812.943 857.754 818.189 858.383 828.28 859.592 838.451 860.102 848.483 861.76 852.819 862.48 857.105 863.499 861.512 863.928 865.718 864.338 869.905 865.007 874.101 865.477 879.966 866.136 879.866 867.315 881.574 872.171 885.731 884.001 887.619 896.51 892.056 908.26 892.815 910.259 893.834 912.157 894.833 914.055 895.483 915.284 895.143 915.674 893.854 915.634 886.89 915.404 880.036 916.813 873.062 916.893 868.296 916.943 863.45 917.622 858.724 917.143 852.469 916.513 846.225 916.553 840.02 916.823 830.988 917.213 821.946 917.672 813.043 919.771 804.68 921.749 795.998 922.558 787.505 921.469 776.345 920.04 765.384 921.899 754.344 922.218 745.401 922.478 736.449 923.977 727.507 923.128 722.071 922.608 716.996 924.906 711.74 924.287 703.357 923.297 695.024 924.776 686.672 924.427 682.595 924.257 678.638 923.507 674.652 922.658 670.725 921.829 666.669 921.629 662.742 920.59 661.183 920.17 659.635 919.76 658.146 919.121 657.736 918.941 657.107 918.492 656.947 918.621 654.099 920.93 653.78 917.852 652.671 916.613 649.973 913.616 646.786 910.888 645.886 906.742 645.457 904.773 644.658 903.155 643.229 901.896 641.3 900.187 641.011 897.729 639.952 895.621 636.315 888.337 634.606 880.424 632.458 872.711 630.859 866.966 628.901 861.131 628.372 855.236 627.792 848.681 626.403 842.217 626.353 835.593 626.333 832.126 625.614 828.639 625.024 825.192 624.745 823.553 624.725 821.944 624.725 820.316 624.735 816.869 623.755 813.572 623.286 810.194 622.826 806.887 622.806 803.54 622.237 800.223 620.778 791.69 621.338 782.898 619.499 774.475 618.06 767.911 617.531 761.256 616.492 754.662 615.952 751.265 615.493 747.738 615.353 744.211 615.093 737.657 614.184 731.132 613.704 724.578 613.484 721.6 613.664 718.593 613.664 715.605Z" stroke="#FFFFFF" stroke-width="5.99486"/><path d="M1179.19 442.579C1187.45 442.579 1195.74 442.919 1203.98 442.5 1217.4 441.82 1230.82 442.27 1244.23 442.02 1256.85 441.79 1269.44 443.099 1282.06 442.56 1283.1 442.51 1283.99 443.029 1284.97 443.109 1285.86 443.179 1285.91 444.168 1286.6 444.408 1284.55 447.985 1289.02 449.374 1289.28 452.401 1289.54 455.548 1291.09 458.576 1291.67 461.793 1292.39 465.78 1293.85 469.676 1294.17 473.673 1294.36 476.001 1296 478.229 1294.42 481.027 1293.57 482.535 1294.66 485.353 1295.32 487.451 1296.2 490.259 1294.86 492.956 1295.33 495.744 1295.54 497.003 1293.78 497.842 1292.76 498.691 1290.3 500.74 1287.27 500.15 1284.7 499.511 1275.63 497.263 1266.4 496.323 1257.15 495.464 1255.8 495.344 1254.46 495.654 1253.13 495.824 1243.09 497.093 1235.96 503.038 1229.37 510.042 1224.41 515.307 1219.85 520.792 1216.27 527.137 1214.58 530.124 1214.33 533.252 1213.72 536.349 1212.05 544.832 1212.08 553.484 1212.7 562.007 1213.16 568.312 1215.76 574.387 1218.7 579.962 1223.11 588.355 1224.92 597.677 1228.88 606.179 1234.21 617.629 1237.6 630.009 1244.97 640.5 1247.28 643.777 1249.95 646.804 1252.4 649.982 1253.63 651.58 1256.34 650.871 1258.37 651.261 1262.96 652.14 1267.58 652.809 1272.27 652.989 1273.82 653.049 1274.19 654.588 1274.32 655.697 1275.37 664.419 1276.74 673.102 1276.41 681.964 1276.31 684.622 1274.88 685.052 1273.15 684.992 1265.42 684.702 1258.14 686.83 1250.95 689.178 1248.7 689.907 1246.55 691.286 1245.1 693.584 1240.53 700.838 1235.15 707.682 1231.94 715.665 1227.5 726.746 1222.89 737.816 1222.77 750.166 1222.7 757.51 1222.77 764.853 1223.01 772.167 1223.2 778.102 1224.73 783.977 1226.13 789.802 1227.69 796.296 1228.27 803.1 1231.1 809.185 1234.5 816.459 1238.21 823.633 1243.85 829.548 1245.04 830.787 1246.28 832.036 1247.19 833.474 1248.81 836.052 1251.14 837.131 1254.03 837.501 1258.77 838.1 1263.05 840.279 1267.52 841.777 1269.43 842.417 1271.14 842.577 1272.95 842.037 1274.91 841.448 1276.76 841.528 1278.77 841.947 1280.76 842.367 1282.83 842.996 1284.93 842.607 1287.75 842.087 1289.34 844.575 1291.67 845.334 1292.58 845.634 1292.6 847.502 1292.66 848.801 1292.84 852.578 1291.8 856.515 1293.23 860.122 1294.84 864.158 1296.07 868.275 1297.13 872.461 1297.3 873.15 1297.29 873.89 1297.37 874.609 1298.15 881.793 1298.98 888.977 1299.85 896.141 1300.36 900.367 1302.11 904.454 1303.43 908.57 1304.11 910.708 1303.12 911.518 1301.25 911.817 1294.07 912.976 1286.85 913.606 1279.58 914.105 1275.35 914.395 1271.19 915.744 1266.96 916.423 1263.26 917.023 1259.5 917.802 1255.77 917.742 1244.89 917.562 1234.03 918.272 1223.17 918.522 1218.07 918.641 1212.98 920.29 1207.9 921.349 1200.43 922.908 1192.93 923.178 1185.33 922.318 1182.56 921.999 1179.71 922.248 1176.9 922.178 1167.86 921.939 1158.82 921.839 1149.78 922.718 1149.06 922.788 1148.39 922.818 1147.79 923.337 1146.1 924.806 1143.89 924.856 1142.13 924.197 1139.2 923.098 1136.24 923.008 1133.34 923.367 1129.5 923.847 1125.75 923.208 1121.95 923.267 1121.59 923.267 1121.03 923.367 1120.9 923.178 1118.82 920.25 1116.36 922.288 1114.29 922.908 1112.63 923.407 1111.89 922.928 1111.2 921.769 1108.67 917.532 1106.83 913.066 1105.53 908.26 1104.42 904.164 1102.42 900.297 1100.63 896.411 1098.49 891.765 1097.99 886.619 1095.98 881.923 1095.36 880.464 1094.62 879.035 1094.09 877.517 1093.53 875.908 1093.73 875.409 1095.52 874.649 1099.02 873.15 1102.41 874.359 1105.81 874.289 1110.72 874.2 1115.43 873.57 1119.97 871.622 1125.8 869.124 1131.46 866.336 1137.12 863.469 1139.19 862.42 1140.79 861.091 1142.4 859.592 1142.93 859.093 1143.26 858.283 1144.4 858.753 1145.04 859.013 1145.92 858.353 1146.43 857.724 1151.78 851.099 1157.78 844.935 1161.14 836.922 1164.98 827.799 1167.94 818.387 1170.56 808.846 1172.11 803.19 1174.41 797.755 1175.21 791.89 1175.86 787.064 1177.17 782.298 1176.55 777.343 1176.04 773.236 1177.51 769.339 1177.89 765.333 1177.98 764.364 1178.17 763.375 1178.17 762.395 1178.17 734.879 1178.37 707.353 1178.07 679.846 1177.96 669.855 1176.97 659.863 1176.38 649.882 1175.77 639.621 1174.25 629.409 1172.83 619.198 1171.89 612.364 1170.75 605.52 1170.96 598.516 1171.09 594.09 1170.02 589.633 1169.42 585.187 1168.21 576.255 1166.2 567.452 1163.9 558.77 1161.03 547.919 1158 537.019 1152.53 527.077 1148.53 519.783 1144.49 512.49 1139.31 505.895 1137.39 503.447 1135.82 500.69 1134.32 497.992 1132.22 494.195 1129.46 491.028 1126.41 488.13 1122.31 484.224 1117.96 480.557 1113.55 477 1110.48 474.522 1106.92 472.494 1103.08 471.754 1094.68 470.136 1091.91 463.631 1089.46 456.857 1088.34 453.78 1090.15 451.502 1093.31 450.742 1096.98 449.863 1100.79 449.773 1104.39 448.974 1110.36 447.655 1116.41 446.976 1122.37 445.697 1127.59 444.578 1132.92 443.998 1138.19 443.808 1148.5 443.429 1158.75 441.96 1169.09 442.57 1172.44 442.769 1175.8 442.599 1179.16 442.599Z" stroke="#FFFFFF" stroke-width="5.99486"/><path d="M774.876 633.206C790.852 633.206 806.839 633.596 822.795 633.116 846.395 632.407 869.974 633.446 893.564 633.496 903.436 633.516 913.297 634.365 923.169 634.855 923.678 634.885 924.348 634.655 924.618 635.264 924.967 636.044 924.508 636.423 923.758 636.573 923.349 636.653 923.249 636.723 923.608 637.193 924.807 638.771 924.378 640.73 924.098 642.358 923.439 646.255 923.778 650.222 922.709 654.098 921.81 657.385 923.409 660.653 923.738 663.95 924.188 668.406 925.996 672.722 924.698 677.378 924.028 679.766 921.46 682.154 918.952 682.414 911.749 683.153 904.565 684.102 897.371 684.922 894.683 685.232 891.986 685.621 889.288 685.601 884.212 685.561 879.346 686.93 874.361 687.52 873.202 687.659 872.033 687.879 870.894 687.799 866.617 687.49 862.471 688.419 858.274 688.888 857.185 689.008 857.065 689.578 857.295 690.337 858.105 692.925 857.755 695.573 857.685 698.18 857.455 706.343 858.744 714.427 858.804 722.56 858.844 728.025 858.664 733.48 857.805 738.896 857.275 742.253 857.945 745.61 858.354 748.897 858.974 753.933 859.084 758.978 859.433 764.014 859.813 769.609 860.163 775.214 860.523 780.81 860.552 781.259 860.463 781.709 860.473 782.158 860.573 784.916 858.234 787.814 860.942 790.441 861.132 790.621 861.072 791.171 860.982 791.5 860.063 794.828 860.612 798.145 861.602 801.262 864.01 808.806 863.66 817.248 868.985 823.853 869.615 824.632 870.184 825.441 871.034 825.961 875.53 828.699 880.385 830.967 884.432 834.244 887.3 836.572 890.407 838.011 893.564 839.629 895.662 840.708 894.184 842.956 894.054 844.555 893.894 846.433 891.786 846.923 890.297 846.933 888.089 846.953 885.791 847.472 883.603 846.523 883.313 846.393 882.793 846.393 882.564 846.563 879.496 848.871 875.959 847.872 872.592 848.042 862.431 848.532 852.26 846.843 842.148 847.672 835.604 848.212 829.619 846.943 823.394 845.484 814.202 843.326 804.89 841.727 796.048 838.29 794.389 837.651 792.771 836.882 791.202 836.042 784.008 832.196 775.955 829.977 769.381 824.982 765.064 821.695 761.098 817.968 758.26 813.242 756.771 810.774 755.133 808.446 753.224 806.268 748.439 800.822 746.58 793.898 743.972 787.364 740.915 779.681 737.798 772.017 734.98 764.254 733.312 759.668 731.313 755.222 729.725 750.615 727.656 744.631 725.778 738.576 725.288 732.191 725.059 729.204 723.53 726.566 722.741 723.719 721.792 720.281 721.292 716.784 720.742 713.277 720.103 709.141 719.244 705.025 718.784 700.858 718.444 697.811 718.544 694.703 718.554 691.616 718.574 687.57 718.185 687 714.338 687.969 711.28 688.739 708.413 688.089 705.505 687.669 703.307 687.36 701.369 686.301 700.729 683.903 700.03 681.305 697.472 680.136 696.283 677.818 695.084 675.48 694.315 673.032 694.375 670.634 694.465 666.578 692.696 662.961 692.347 659.044 691.937 654.418 691.038 649.892 692.277 645.146 692.946 642.588 692.477 639.601 691.977 636.903 691.647 635.134 692.267 635.104 693.516 635.075 696.143 635.015 698.781 634.935 701.409 634.825 725.888 633.766 750.387 633.436 774.886 633.885 774.886 633.656 774.886 633.426 774.886 633.196Z" stroke="#FFFFFF" stroke-width="5.99486"/><path d="M1049.44 649.522C1056.3 649.282 1066.16 650.331 1076.02 650.501 1081.44 650.591 1086.93 650.341 1092.21 651.391 1097.57 652.45 1102.94 651.301 1108.26 652.34 1109.6 652.599 1111.19 652.3 1112.5 651.81 1117 650.122 1121.36 651.111 1125.62 652.46 1128.47 653.359 1131.26 652.729 1133.89 652.3 1143.19 650.771 1150.8 654.997 1158.03 659.484 1163.51 662.891 1166.54 668.606 1166.73 675.37 1166.8 677.898 1167.45 680.356 1167.96 682.764 1169.06 687.969 1168.92 693.265 1169.8 698.48 1170.73 704.005 1169.68 709.601 1168.73 715.096 1167.95 719.592 1167.19 724.128 1163.94 727.715 1163.46 728.245 1163.17 728.964 1162.46 729.254 1158.41 730.912 1154.78 733.69 1150.46 734.559 1148.3 734.999 1145.95 736.408 1143.61 734.839 1143.47 734.749 1143.16 734.669 1143.1 734.739 1140.54 737.667 1136.65 735.908 1133.68 737.417 1133.09 737.717 1132.39 737.896 1132.56 738.666 1132.72 739.375 1133.47 738.955 1133.94 739.075 1141.34 740.804 1149.45 740.115 1155.9 745.13 1158.16 746.889 1161.24 748.078 1162.06 751.115 1162.84 754.033 1163.2 757.1 1163.36 760.117 1163.42 761.306 1163.43 762.565 1163.51 763.764 1163.94 769.759 1162.91 775.594 1161.73 781.419 1160.51 787.454 1159.46 793.529 1157.96 799.494 1156.77 804.22 1155.45 809.165 1152.02 812.762 1145.78 819.317 1138.72 824.812 1129.52 826.8 1120.94 828.659 1112.38 830.347 1103.55 830.777 1100.78 830.917 1098.01 830.387 1095.23 830.897 1093.64 831.186 1093.15 830.127 1093.44 828.689 1094.15 825.271 1094.63 821.784 1095.69 818.487 1096.33 816.519 1095.28 814.99 1095.25 813.222 1095.16 807.776 1095.73 802.361 1096.01 796.946 1096.4 789.392 1094.88 782.358 1092.46 775.274 1090.72 770.149 1086.88 766.582 1084.42 762.066 1082.82 759.118 1080.23 758.529 1077.43 757.809 1073.03 756.68 1068.66 755.421 1064.36 754.023 1062.27 753.343 1061.92 754.023 1062.32 755.851 1065 768.21 1068.81 780.28 1071.84 792.55 1074.22 802.201 1076.54 811.883 1076.14 821.934 1075.83 829.798 1073.3 833.405 1067.68 834.803 1061.98 836.212 1056.12 837.151 1050.31 838.17 1044.23 839.229 1038.03 839.699 1031.89 840.419 1031.53 840.458 1031.13 840.528 1030.8 840.419 1026.91 839.11 1023.27 841.208 1019.48 841.288 1017.46 841.328 1015.53 840.958 1013.55 840.848 1012.26 840.778 1011.42 839.689 1011.41 838.18 1011.4 836.932 1010.84 835.403 1011.07 834.514 1012.18 830.287 1010 825.661 1012.84 821.635 1013.74 820.366 1013.66 818.537 1013.67 816.899 1013.68 812.812 1013.73 808.726 1013.7 804.639 1013.66 799.404 1014.63 794.258 1015.01 789.083 1015.47 782.808 1014.32 776.543 1013.36 770.329 1013.18 769.16 1013.06 768.021 1013.02 766.862 1012.74 759.228 1011.32 751.675 1010.98 744.071 1010.66 736.927 1007.62 730.183 1008.23 722.959 1009.11 712.458 1008.5 701.927 1008.81 691.416 1008.88 688.888 1009.8 686.52 1010.24 684.062 1011.35 677.778 1011.91 671.413 1013.1 665.159 1013.89 661.002 1013.55 656.886 1013.68 652.749 1013.73 651.291 1014.17 650.751 1015.73 650.641 1025.96 649.912 1036.2 649.622 1049.47 649.522ZM1055.45 713.497C1055.45 715.855 1055.45 718.213 1055.45 720.571 1055.45 721.72 1055.64 722.2 1057.11 722.649 1061.37 723.958 1065.66 722.629 1069.86 723.309 1070.47 723.409 1070.91 722.989 1071.23 722.56 1072.8 720.501 1074.57 718.553 1075.82 716.315 1078.63 711.289 1079.25 705.564 1079.41 700.029 1079.69 691.186 1077.06 682.754 1074.61 674.311 1073.64 670.974 1070.95 669.475 1068.71 667.737 1066.19 665.778 1062.87 665.199 1059.43 665.359 1053.73 665.628 1053.73 665.448 1053.49 671.064 1053.46 671.773 1053.19 672.472 1053.14 673.182 1052.95 675.81 1051.37 678.168 1051.98 680.985 1054.3 691.696 1055.74 702.507 1055.44 713.497Z" stroke="#FFFFFF" stroke-width="5.99486"/><path d="M819.638 487.431C831.467 486.012 843.297 484.594 854.967 481.986 858.195 481.266 861.632 481.196 864.959 481.336 870.564 481.566 876.109 480.387 881.764 481.146 885.081 481.586 888.479 480.147 891.936 480.157 893.684 480.157 894.463 480.627 894.274 482.445 893.694 488.041 895.293 493.146 897.371 498.302 898.61 501.379 898.76 504.946 899.119 508.333 900.039 516.796 901.148 525.199 903.066 533.522 904.675 540.516 904.275 547.659 903.646 554.803 903.246 559.279 902.956 563.716 901.947 568.122 900.958 572.388 899.919 576.655 897.751 580.461 894.973 585.327 892.585 590.383 890.217 595.438 888.019 600.124 886.32 604.97 881.165 607.308 877.738 613.563 871.163 615.901 865.508 618.948 858.434 622.755 850.351 623.904 842.268 624.713 832.487 625.693 822.675 626.072 812.883 626.692 808.047 627.001 803.152 627.001 798.256 626.422 794.449 625.972 790.493 626.462 786.646 626.941 784.278 627.231 782.04 627.291 779.672 626.971 777.084 626.622 774.416 626.752 771.789 626.842 766.173 627.021 760.938 625.922 755.612 623.904 751.036 622.166 746.55 619.548 741.345 619.698 740.855 619.708 740.276 619.438 739.866 619.128 736.739 616.8 733.422 614.702 730.624 611.964 730.214 611.565 729.875 611.565 729.475 611.565 727.606 611.615 726.258 610.386 725.408 609.147 718.404 598.916 710.611 589.114 706.864 577.004 706.095 574.506 705.435 572.019 705.525 569.371 705.575 567.932 705.126 566.473 705.076 565.115 704.926 561.208 705.056 557.221 706.564 553.514 706.964 552.525 707.124 551.626 707.084 550.657 706.744 542.384 708.813 534.501 710.741 526.557 711.89 521.832 714.578 518.664 718.035 515.377 728.985 504.966 742.484 499.581 756.462 495.294 762.157 493.546 767.982 491.977 773.857 490.748 775.366 490.428 776.974 490.229 778.393 490.249 785.657 490.389 792.701 488.34 799.924 488.37 801.723 488.37 801.863 488.72 801.433 490.538 800.894 492.826 801.083 495.334 801.213 497.732 801.303 499.411 801.153 501.019 800.474 502.498 798.316 507.234 797.686 512.28 797.247 517.375 797.147 518.514 796.687 519.613 796.368 520.733 793.94 529.215 792.031 537.828 790.742 546.54 789.643 553.984 789.773 561.557 790.792 569.011 792.161 579.013 795.348 588.454 800.574 597.147 801.803 599.195 804.221 600.124 805.38 602.412 805.979 603.581 807.028 602.063 807.628 601.393 811.994 596.468 815.381 590.892 817.599 584.718 821.176 574.746 824.623 564.725 827.891 554.643 829.379 550.037 829.749 545.202 830.089 540.336 830.478 534.85 830.968 529.325 830.388 523.93 829.529 515.887 828.88 507.524 824.623 500.44 822.135 496.303 820.956 491.957 819.678 487.471Z" stroke="#FFFFFF" stroke-width="5.99486"/><path d="M1150.91 545.431C1151.11 548.848 1150.67 552.365 1147.17 553.554 1144.26 554.544 1141.56 556.062 1138.57 556.802 1131.36 558.59 1124.54 561.637 1117.27 563.246 1114.63 563.826 1111.86 563.866 1109.37 565.055 1108.18 565.624 1106.57 566.084 1106.99 567.872 1107.36 569.451 1108.13 570.999 1110.04 571.159 1111.29 571.259 1112.38 571.739 1113.3 572.388 1117.8 575.586 1123.26 577.234 1127.55 580.561 1132.54 584.418 1138.4 586.826 1143.18 590.862 1145.58 592.891 1148.02 595.099 1149.71 597.697 1153.32 603.242 1157.88 608.088 1160.62 614.322 1163.76 621.476 1166.69 628.47 1166.23 636.473 1166.13 638.242 1166.66 640.04 1166.71 641.829 1166.77 644.057 1163.71 646.884 1161.66 646.305 1152.39 643.657 1142.89 644.556 1133.46 644.147 1126.56 643.857 1119.67 643.867 1112.79 643.637 1111.11 643.577 1109.53 642.668 1107.72 642.998 1107.23 643.088 1106.4 642.558 1106.04 641.569 1104.31 636.793 1102.22 632.157 1101.27 627.111 1100.73 624.264 1098.85 622.395 1096.63 620.497 1090.99 615.671 1084.78 611.745 1078.42 608.028 1072.88 604.79 1066.96 602.383 1060.93 600.244 1052.48 597.247 1044.13 593.93 1035.41 591.712 1027.98 589.823 1020.41 589.174 1012.79 588.424 1007.47 587.905 1002.21 589.703 996.966 588.205 996.276 588.005 995.227 588.245 994.648 588.684 993.129 589.843 991.78 590.183 990.461 588.534 989.002 586.716 987.404 584.938 988.043 582.29 990.002 574.227 992.08 566.184 993.858 558.07 994.668 554.394 994.078 550.567 993.698 546.88 993.049 540.705 992.15 534.561 991.42 528.386 990.421 519.813 990.941 511.091 988.613 502.618 987.744 499.461 987.724 496.004 987.963 492.647 988.153 490.019 987.754 487.441 987.034 484.923 986.615 483.474 987.074 482.345 988.483 482.455 989.992 482.565 991.44 480.437 992.929 482.355 992.989 482.435 993.199 482.395 993.339 482.405 993.708 478.579 996.246 481.266 997.305 481.426 1006.01 482.785 1014.65 484.224 1023.51 482.955 1026.35 482.545 1029.26 482.715 1032.15 482.415 1043.7 481.186 1055.32 482.066 1066.9 481.796 1083.56 481.396 1099.53 485.183 1115.27 490.139 1118.25 491.078 1120.5 493.096 1122.47 495.544 1126.18 500.16 1129.92 504.776 1133.92 509.162 1137.79 513.419 1140.17 518.524 1142.61 523.58 1145.2 528.955 1147.38 534.521 1149.8 539.966 1150.59 541.734 1151.18 543.483 1150.88 545.411ZM1112.5 535.08C1112.91 533.641 1111.81 532.163 1111.77 530.584 1111.7 527.257 1109.67 524.839 1107.18 523.78 1102.65 521.832 1097.72 520.802 1092.94 519.414 1091.89 519.114 1091.18 519.384 1091.13 520.663 1090.95 525.468 1089.59 530.015 1088.15 534.571 1086.76 538.987 1089.26 543.833 1093.55 545.491 1097.45 546.99 1101.28 547.41 1104.87 544.632 1105.44 544.192 1106.11 543.853 1106.78 543.603 1110.95 542.014 1112.47 539.836 1112.49 535.09Z" stroke="#FFFFFF" stroke-width="5.99486"/><path d="M945.859 847.542C938.735 847.982 929.314 847.452 920.491 844.115 913.807 841.588 907.452 838.081 901.587 833.844 900.029 832.715 898.87 831.136 898.02 829.488 896.722 826.98 894.813 825.261 892.445 823.823 888.568 821.465 887.979 817.118 886.67 813.342 883.783 804.999 881.944 796.376 879.996 787.774 878.627 781.719 875.979 775.984 874.9 769.809 873.991 764.594 873.352 759.368 872.972 754.092 872.512 747.708 871.593 741.353 871.993 734.939 872.242 730.972 872.632 727.016 872.512 723.019 872.332 717.144 871.433 711.319 871.803 705.404 871.913 703.586 872.432 701.787 872.143 699.889 872.023 699.09 872.412 697.781 873.931 697.611 880.495 696.882 887.03 696.872 893.554 698.021 894.354 698.16 895.173 698.17 895.982 698.16 903.945 698.071 911.889 697.661 919.692 695.932 920.631 695.723 921.51 695.223 922.39 694.793 924.548 693.744 925.577 694.534 926.656 696.732 929.184 701.867 928.085 707.552 929.573 712.838 931.172 718.543 932.441 724.348 933.65 730.163 934.209 732.871 934.389 735.678 934.539 738.446 934.919 745.45 936.208 752.374 936.268 759.408 936.308 763.724 935.988 768.021 937.117 772.337 937.756 774.785 936.557 777.502 936.368 780.08 935.978 785.406 936.208 790.781 936.238 796.146 936.238 797.845 937.736 798.235 938.895 798.894 944.71 802.211 949.956 799.693 950.655 793.099 951.045 789.432 951.714 785.785 951.465 782.049 951.205 778.192 950.795 774.365 950.116 770.568 949.786 768.73 950.555 766.971 950.595 765.193 950.755 758.479 951.115 751.724 950.595 745.05 949.816 734.999 947.998 725.077 946.229 715.136 944.021 702.707 941.054 690.567 937.117 678.587 935.538 673.801 934.979 668.676 934.06 663.68 933.62 661.302 932.821 659.034 932.331 656.666 931.971 654.938 932.641 654.698 933.73 654.108 938.076 651.79 942.832 651.241 947.618 650.941 955.931 650.421 964.254 650.172 972.567 649.592 982.458 648.913 992.3 649.722 1002.17 650.072 1003.71 650.122 1003.74 650.921 1003.56 652.02 1002.46 658.754 1001.76 665.548 1000.92 672.303 999.803 681.345 996.596 689.938 995.807 698.94 995.337 704.335 994.588 709.84 995.906 715.286 996.686 718.533 995.497 721.76 995.557 725.017 995.667 730.713 997.255 736.208 997.345 741.953 997.525 752.953 998.175 763.954 998.964 774.935 999.393 780.87 1000.26 786.774 999.833 792.739 999.503 797.325 998.804 801.892 998.464 806.448 997.935 813.621 995.387 820.346 994.538 827.41 993.968 832.136 990.731 835.263 987.544 838.38 987.414 838.5 987.264 838.63 987.104 838.68 979.59 840.808 973.146 845.754 965.243 846.883 959.568 847.692 953.863 847.412 945.869 847.532Z" stroke="#FFFFFF" stroke-width="5.99486"/><path d="M878.207 623.634C882.953 620.387 887.539 617.05 891.186 612.664 896.372 606.419 900.898 599.705 904.215 592.281 905.124 590.233 904.705 587.835 905.124 585.597 907.412 573.317 909.65 561.028 911.599 548.689 912.788 541.155 912.018 533.502 912.268 525.908 912.598 516.286 910.54 507.014 908.711 497.692 908.012 494.115 907.832 490.309 906.123 487.091 905.124 485.213 904.415 483.574 904.505 481.456 904.565 480.017 905.064 479.608 906.443 479.618 924.608 479.658 942.772 479.518 960.936 479.788 964.054 479.838 967.331 479.927 970.518 481.146 974.345 482.605 975.344 485.343 975.654 488.83 975.714 489.549 975.614 490.289 976.094 490.918 978.442 493.975 978.551 497.722 978.571 501.199 978.591 506.055 979.89 510.581 980.849 515.217 981.928 520.483 981.839 525.908 983.027 531.174 984.356 537.078 984.426 543.173 984.576 549.178 984.716 554.633 983.947 560.149 983.317 565.574 982.938 568.821 981.129 571.929 980.989 575.436 980.719 581.98 976.833 587.166 973.975 592.711 973.096 594.409 973.486 594.689 975.164 594.679 980.16 594.629 985.156 594.689 990.151 594.659 998.294 594.599 1006.26 595.968 1014.29 597.137 1022.1 598.276 1029.48 600.554 1036.84 603.212 1039 603.991 1041.41 604.061 1043.72 604.401 1053.21 605.82 1061.6 610.226 1070.21 614.062 1073.51 615.531 1076.77 617.17 1080.19 618.239 1084.64 619.628 1087.35 623.554 1091.47 625.353 1092.25 625.693 1092.44 626.702 1092.67 627.631 1093.69 631.597 1094.47 635.634 1096.18 639.391 1096.85 640.86 1096.49 641.919 1094.72 642.049 1087.73 642.558 1080.71 643.397 1073.85 641.109 1072.42 640.63 1071.15 641.359 1069.88 641.589 1065.21 642.448 1060.51 641.649 1055.86 642.089 1048.53 642.788 1041.18 642.898 1033.86 642.528 1023.1 641.979 1012.35 641.509 1001.57 641.419 994.008 641.359 986.405 640.78 978.901 639.771 971.228 638.741 963.584 638.711 955.891 638.771 951.275 638.801 946.709 639.571 942.073 639.401 939.625 639.311 938.126 638.472 937.487 636.124 937.317 635.514 937.027 634.945 936.897 634.325 935.229 626.472 931.282 624.933 922.989 624.104 917.434 623.554 911.898 622.825 906.353 622.385 899.229 621.816 892.006 621.876 884.992 623.634 882.734 624.194 880.585 623.984 878.207 623.664Z" stroke="#FFFFFF" stroke-width="5.99486"/></g></svg>