<svg width="925" height="510" xmlns="http://www.w3.org/2000/svg" xmlns:xlink="http://www.w3.org/1999/xlink" xml:space="preserve" overflow="hidden"><defs><clipPath id="clip0"><rect x="612" y="89" width="925" height="510"/></clipPath></defs><g clip-path="url(#clip0)" transform="translate(-612 -89)"><path d="M675.306 581.436C675.596 579.367 675.406 577.028 674.086 574.789 673.407 573.619 673.437 572.12 674.136 570.89 674.966 569.43 675.076 568.071 674.336 566.551 672.587 562.963 673.926 559.314 674.576 555.825 676.815 543.809 679.434 531.874 681.774 519.868 682.343 516.949 681.704 513.94 681.824 510.941 682.273 500.235 683.503 489.629 684.603 478.992 685.852 466.927 687.232 454.851 687.801 442.745 688.361 430.959 689.871 419.293 690.87 407.558 691.76 397.081 692.51 386.615 693.15 376.119 693.789 365.622 694.079 355.116 694.859 344.63 695.579 334.973 696.198 325.297 697.438 315.68 698.498 307.423 699.027 299.096 699.747 290.799 700.507 282.142 701.447 273.495 701.896 264.828 702.546 252.262 703.336 239.697 701.347 227.111 700.307 220.554 699.357 213.846 700.497 207.108 700.897 204.769 700.757 203.13 697.368 202.56 685.412 200.561 673.447 199.911 661.411 201.09 655.573 201.66 649.755 202.56 643.957 203.49 642.128 203.779 640.438 204.909 638.459 204.579 637.929 204.489 637.209 204.689 636.869 204.399 634.32 202.24 631.531 202.87 628.682 203.48 623.714 204.549 622.215 203.15 620.795 198.351 618.616 191.014 619.186 183.567 619.366 176.179 619.476 171.531 617.396 167.292 617.976 162.564 618.536 157.996 618.646 153.227 617.926 148.709 617.416 145.51 616.717 142.001 617.016 139.122 617.606 133.504 614.477 129.336 613.228 124.497 612.508 121.728 611.968 119.029 612.238 116.21 612.468 113.761 613.598 113.141 615.917 114.001 617.786 114.691 619.675 115.131 621.715 115.021 627.483 114.701 633.251 115.351 639.059 114.381 642.138 113.871 645.516 114.691 648.695 115.301 651.824 115.901 655.013 116.16 658.102 116.15 666.919 116.1 675.726 116.44 684.503 116.93 696.159 117.59 707.864 117.53 719.47 118.59 729.117 119.479 738.843 119.609 748.42 121.549 753.308 122.538 758.437 123.088 763.515 122.778 769.723 122.388 775.531 124.667 781.578 125.267 791.485 126.247 801.121 129.366 811.218 128.836 817.566 128.496 823.614 130.565 829.771 131.655 841.557 133.754 853.133 136.893 864.999 138.682 872.116 139.762 879.334 140.032 886.411 141.352 896.248 143.191 906.024 145.34 915.821 147.399 923.228 148.959 930.746 150.118 938.173 151.668 941.842 152.428 945.401 153.497 948.959 154.627 950.419 155.087 951.828 155.716 953.398 155.517 955.187 155.297 955.547 156.236 955.447 157.796 954.697 169.232 955.037 180.688 955.267 192.124 955.347 195.992 954.417 199.881 955.547 203.809 956.267 206.289 954.367 207.928 952.098 207.148 946.64 205.279 941.142 203.48 935.854 201.2 930.466 198.881 924.868 197.282 919.15 196.512 910.403 195.332 901.576 194.303 892.709 194.813 887.601 195.113 882.523 195.792 877.425 196.292 877.065 196.332 876.705 196.392 876.345 196.382 864.299 195.892 852.483 198.371 840.548 199.181 839.008 199.291 837.459 199.341 835.919 199.291 828.842 199.081 821.854 200.571 814.777 200.411 813.507 200.381 812.937 200.781 812.617 202.18 810.878 209.717 810.068 217.315 810.318 225.052 810.518 231.13 809.429 237.058 808.089 242.946 808.029 243.206 807.989 243.495 808.009 243.755 808.459 248.484 807.439 253.142 807.169 257.83 806.749 265.188 805.62 272.505 805.06 279.863 804.72 284.291 804.99 288.76 804.84 293.208 804.58 301.245 803.97 309.262 802.631 317.209 802.181 319.869 802.091 322.628 801.961 325.297 801.621 332.344 800.512 339.312 800.062 346.349 799.562 354.346 798.892 362.364 797.823 370.311 796.613 379.308 795.833 388.294 795.923 397.371 796.013 406.998 794.784 416.524 793.764 426.071 792.914 433.998 792.505 441.985 790.895 449.803 789.296 457.54 787.936 465.317 787.276 473.174 786.437 483.101 785.507 493.027 784.727 502.954 784.008 512.131 783.978 521.377 782.008 530.464 781.348 533.513 780.929 536.672 780.999 539.891 781.169 546.958 780.089 553.956 779.669 560.983 779.379 565.902 777.86 570.63 777.93 575.548 777.95 577.208 776.86 577.358 775.66 577.548 770.182 578.427 764.724 579.557 759.216 580.167 752.589 580.896 746.281 582.976 739.803 584.315 735.065 585.295 730.326 586.005 725.478 586.384 719.77 586.834 714.092 587.824 708.374 588.324 705.945 588.534 703.526 588.884 701.097 588.974 694.879 589.223 688.651 589.363 682.423 589.543 682.333 589.543 682.243 589.543 682.153 589.543 680.224 589.583 678.065 591.193 676.515 588.704 675.416 586.934 675.356 584.955 675.396 582.956 675.396 582.596 675.366 582.226 675.326 581.476Z" stroke="#FFFFFF" stroke-width="5.99788"/><path d="M1312.43 467.087C1311.06 437.947 1312.38 408.797 1311.91 379.667 1311.8 372.65 1310.89 365.602 1310.47 358.555 1310.37 356.925 1310.19 355.286 1310.26 353.667 1310.64 345.849 1310.24 338.002 1309.53 330.275 1308.38 317.679 1307.81 305.074 1308.66 292.528 1309.41 281.392 1310.22 270.286 1309.94 259.14 1309.7 249.483 1308.84 239.867 1307.55 230.27 1306.57 223.023 1306.11 215.685 1305.51 208.388 1304.77 199.401 1305.49 190.404 1304.91 181.457 1304.32 172.361 1302.89 163.334 1300.76 154.437 1299.81 150.498 1299.32 146.44 1298.73 142.411 1298.47 140.642 1299.28 139.312 1301.16 139.172 1303.43 139.012 1305.5 138.213 1307.6 137.483 1318.51 133.694 1329.8 131.585 1341.07 129.236 1348.15 127.756 1355.3 126.637 1362.35 125.077 1364.36 124.637 1366.54 125.367 1368.53 124.138 1369.74 123.388 1369.81 125.007 1369.93 125.467 1371.51 131.425 1373.06 137.403 1373.81 143.521 1375.04 153.577 1375.86 163.684 1377.19 173.72 1378.22 181.497 1378.55 189.315 1379.38 197.092 1379.89 201.86 1380.88 206.618 1382.17 211.247 1383.44 215.785 1383.51 220.444 1384.11 225.022 1384.78 230.09 1385.94 235.068 1386.52 240.147 1386.84 242.906 1387.35 245.665 1387.43 248.434 1387.67 256.901 1388.91 265.228 1390.04 273.605 1390.94 280.263 1391.7 286.97 1392.55 293.628 1393.55 301.475 1393.54 309.402 1394.95 317.199 1395.33 319.279 1394.71 321.508 1394.42 323.607 1394.12 325.776 1394.03 327.906 1394.03 330.055 1394 339.622 1392.56 348.988 1390.18 358.225 1388.99 362.833 1388.63 367.552 1387.99 372.24 1387.09 378.788 1386.45 385.365 1385.51 391.913 1383.93 402.859 1381.41 413.625 1380.15 424.632 1379.11 433.758 1377.81 442.875 1376.83 451.992 1375.95 460.199 1374.41 468.296 1373.68 476.533 1373.11 482.911 1371.12 489.159 1369.72 495.457 1368.27 501.964 1367.56 508.542 1367.26 515.2 1367.08 519.248 1367.64 523.837 1365.93 527.185 1363.3 532.314 1365.65 538.361 1361.97 542.97 1361.63 550.847 1355.84 555.805 1351.72 561.563 1349.64 564.472 1346.26 566.032 1342.3 566.132 1336.94 566.262 1331.61 565.842 1326.32 565.352 1319.37 564.712 1312.46 563.513 1305.6 562.203 1300.18 561.173 1294.85 559.584 1289.46 558.324 1278.67 555.795 1267.92 553.136 1257.63 548.988 1249.67 545.779 1242.04 541.83 1234.43 537.842 1231.63 536.372 1231 534.083 1231.03 531.524 1231.13 522.847 1229.81 514.27 1229.17 505.663 1228.85 501.344 1228.55 497.036 1228.41 492.708 1228.35 490.768 1229.91 488.899 1229.06 487.12 1227.99 484.89 1227.91 482.641 1227.72 480.302 1227.25 474.534 1226.81 468.756 1226.03 463.018 1224.59 452.422 1224.53 441.736 1223.55 431.109 1223.52 430.839 1223.51 430.569 1223.51 430.29 1223.46 415.675 1222.43 401.06 1223.14 386.445 1223.35 382.137 1222.8 377.718 1224.17 373.48 1224.53 372.35 1223.45 371.41 1223.44 370.401 1223.38 364.053 1222.78 357.655 1223.67 351.357 1224.47 345.679 1224.5 340.101 1223.51 334.493 1222.11 326.596 1222.1 318.639 1222.28 310.662 1222.38 306.303 1222.35 301.935 1222.41 297.576 1222.44 295.457 1222.2 293.318 1221.06 291.599 1220.14 290.209 1221.4 289.339 1221.29 288.11 1220.66 280.912 1220.73 273.655 1219.97 266.477 1219.31 260.23 1219.62 253.882 1218.38 247.714 1216.72 239.457 1217.02 231.05 1216.2 222.733 1215.65 217.035 1214.91 211.357 1213.79 205.699 1212.87 201.07 1212.89 196.192 1212.5 191.434 1212.22 187.915 1211.14 184.596 1210.54 181.167 1209.27 173.95 1208.01 166.733 1207.07 159.465 1206.87 157.886 1207.39 156.906 1209.09 156.546 1216.75 154.887 1224.41 153.187 1232.07 151.448 1237.51 150.218 1243.01 149.359 1248.55 149.009 1253.09 148.719 1257.23 146.92 1261.63 146.1 1265.94 145.3 1270.24 144.35 1274.47 143.231 1275.9 142.851 1275.96 143.361 1276.16 144.39 1276.94 148.409 1277.31 152.498 1277.27 156.546 1277.17 166.083 1277.37 175.619 1277.91 185.136 1278.38 193.343 1279.5 201.5 1280.29 209.687 1280.96 216.625 1281.52 223.563 1282.2 230.5 1282.73 235.988 1283.46 241.456 1283.93 246.954 1284.32 251.563 1284.67 256.181 1284.69 260.799 1284.73 276.154 1284.93 291.519 1284.46 306.863 1284.04 320.738 1283.21 334.593 1282.98 348.478 1282.88 354.586 1284.01 360.594 1283.77 366.702 1283.02 386.035 1282.34 405.388 1282.9 424.732 1283.23 436.128 1283.14 447.563 1284.58 458.929 1285.4 465.477 1285.56 472.115 1285.81 478.722 1285.89 480.762 1286.49 482.151 1288.18 483.251 1290.68 484.87 1292.87 486.96 1295.64 488.169 1296.3 488.459 1297.04 488.939 1297.66 488.839 1302.73 487.959 1307.67 486.71 1311.28 482.591 1312.18 481.561 1312.42 480.402 1312.41 479.072 1312.37 475.074 1312.39 471.075 1312.39 467.077Z" stroke="#FFFFFF" stroke-width="5.99788"/><path d="M1469.09 477.383C1467.91 477.913 1467.76 479.152 1467.86 479.762 1468.61 484.49 1465.98 488.399 1464.79 492.608 1462.36 501.215 1460.63 509.981 1459.04 518.738 1456.11 534.873 1454.03 551.167 1448.58 566.741 1447.01 571.23 1445.12 575.608 1443.45 580.067 1443 581.266 1442.28 581.466 1441.19 581.266 1430.11 579.287 1419.08 576.768 1407.93 575.498 1395.53 574.079 1383.49 571.04 1371.27 568.821 1368.03 568.231 1368.02 568.201 1369.27 565.082 1371.57 559.374 1374.31 553.806 1376.09 547.948 1377.98 541.7 1380.4 535.572 1381.05 528.935 1381.53 524.016 1383.51 519.388 1385.05 514.7 1386.65 509.781 1387.08 504.643 1388.19 499.635 1389.16 495.247 1389.88 490.808 1390.92 486.43 1391.5 483.961 1391.71 481.432 1392.02 478.952 1392.84 472.625 1393.76 466.297 1394.37 459.949 1394.96 453.851 1395.64 447.793 1396.84 441.785 1398.25 434.748 1399.66 427.71 1401.15 420.683 1402.05 416.454 1402.65 412.206 1403.2 407.917 1403.82 403.119 1405.06 398.401 1405.75 393.602 1406.71 386.935 1409.54 380.737 1409.58 373.77 1409.62 367.742 1411.41 361.764 1412.84 355.836 1414.92 347.209 1416.84 338.552 1418.73 329.885 1418.97 328.785 1418.7 327.526 1418.45 326.386 1417.21 320.848 1416.13 315.31 1415.62 309.622 1414.67 299.106 1412.26 288.839 1409.34 278.703 1405.72 266.137 1401.83 253.632 1398.62 240.956 1396.42 232.249 1395.2 223.303 1393.5 214.466 1391.88 206.029 1391.48 197.432 1390.01 188.935 1388.88 182.467 1388.25 175.799 1387.44 169.212 1386.71 163.234 1387.41 157.256 1386.92 151.318 1386.27 143.341 1386.09 135.314 1384.87 127.376 1384.57 125.437 1384.75 123.428 1384.29 121.479 1384 120.239 1384.5 119.629 1385.99 119.429 1399.4 117.7 1412.79 115.791 1425.95 112.722 1427.72 112.312 1427.97 112.832 1428.61 114.191 1432.19 121.728 1434.13 129.806 1436.65 137.693 1437.7 140.972 1439.48 144.021 1440.96 147.159 1443.45 152.468 1443.93 158.336 1445.64 163.874 1447.74 170.671 1450.04 177.379 1452.74 183.956 1454.32 187.815 1454.65 192.074 1456.63 195.822 1457.03 196.582 1457.56 196.982 1458.12 197.572 1459.01 190.614 1459.81 183.707 1460.53 176.789 1461.5 167.452 1464.05 158.406 1466.34 149.309 1468.94 138.932 1472.34 128.736 1474.06 118.16 1474.94 112.782 1476.18 107.384 1475.82 101.865 1475.72 100.376 1476.24 100.046 1477.69 99.7262 1486.31 97.8169 1494.81 95.3378 1503.48 93.7783 1509.04 92.7787 1514.44 91.0493 1520.1 90.5295 1521.45 90.4095 1522.7 89.2199 1524.06 89.05 1526.23 88.7801 1528.35 89.6098 1530.66 89.1699 1532.43 88.8301 1532.98 91.0493 1531.64 93.2885 1531.11 94.1682 1530.87 94.668 1531.29 95.8776 1532.04 98.0468 1530.72 100.236 1529.31 101.756 1526.82 104.465 1526.79 107.843 1526.2 111.032 1525.39 115.451 1525.27 120.009 1524.45 124.427 1523.43 129.926 1521.94 135.324 1520.37 140.702 1519.24 144.58 1518.48 148.499 1518.24 152.628 1517.95 157.586 1517.69 162.664 1515.41 167.392 1514.43 169.422 1514.29 171.991 1514.29 174.31 1514.27 181.307 1513.6 188.255 1512.82 195.183 1512.06 201.87 1510.8 208.498 1509.61 215.135 1508.36 222.093 1507.31 229.071 1506.3 236.068 1505.13 244.215 1503.24 252.242 1501.24 260.23 1499.75 266.207 1499.45 272.355 1498.7 278.433 1498.07 283.451 1496.68 288.3 1495.43 293.178 1493.58 300.415 1491.45 307.643 1491.42 315.17 1491.42 317.749 1492.38 320.448 1493.37 322.907 1496.44 330.535 1497.8 338.722 1500.65 346.309 1504.28 355.926 1506.92 365.832 1510.34 375.499 1514.91 388.444 1518.71 401.67 1522.23 414.965 1524.48 423.462 1525.69 432.129 1526.97 440.766 1527.7 445.724 1527.57 450.822 1528.17 455.841 1529.06 463.128 1529.47 470.475 1531.04 477.683 1531.63 480.392 1531.73 483.211 1531.98 485.98 1532.72 494.037 1533.49 502.104 1534.11 510.171 1534.42 514.22 1534.14 518.279 1534.67 522.347 1535.93 532.114 1536.11 541.96 1536.54 551.797 1536.97 561.693 1536.82 571.57 1536.77 581.436 1536.76 584.645 1536.49 587.914 1536.33 591.163 1536.22 593.442 1534.98 595.381 1534.09 597.411 1533.71 598.28 1532.68 598.54 1531.98 598.15 1529.69 596.871 1527.67 597.161 1525.57 598.57 1524.83 599.07 1523.79 599.12 1522.96 598.75 1515.15 595.211 1506.43 595.201 1498.46 592.462 1493.93 590.913 1489.1 590.023 1485 587.304 1484.36 586.884 1483.81 586.864 1483.02 587.124 1480.41 587.994 1478.32 586.864 1476.92 584.765 1475.04 581.936 1473.76 579.177 1475.23 575.338 1476.54 571.91 1476.58 567.951 1476.88 564.202 1477.68 554.336 1476.91 544.449 1476.78 534.583 1476.67 526.206 1475.46 517.839 1474.73 509.462 1474 500.965 1472.82 492.528 1470.9 484.211 1470.38 481.951 1469.7 479.732 1469.06 477.373Z" stroke="#FFFFFF" stroke-width="5.99788"/><path d="M955.107 235.298C955.967 245.265 955.587 255.381 956.986 265.228 958.316 274.585 957.006 283.871 958.086 293.138 958.866 299.886 959.646 306.633 960.415 313.381 960.625 315.18 960.875 316.98 960.955 318.789 961.215 325.037 961.355 331.284 961.635 337.522 962.285 351.567 962.205 365.662 962.994 379.667 963.704 392.243 964.034 404.789 964.134 417.364 964.174 422.632 965.373 427.8 965.893 433.029 966.043 434.558 966.353 436.098 966.333 437.627 966.243 443.805 967.123 449.923 967.433 456.08 967.893 465.187 968.362 474.294 968.872 483.401 969.212 489.409 969.752 495.477 970.942 501.364 972.431 508.722 972.081 516.099 972.561 523.477 973.071 531.334 973.151 539.211 973.84 547.048 974.06 549.577 972.771 550.187 970.702 550.217 961.035 550.377 951.428 551.427 941.842 552.496 936.604 553.076 931.435 554.256 926.227 555.105 924.288 555.425 923.078 555.315 922.879 552.516 922.229 543.16 921.639 533.783 920.729 524.456 920.089 517.939 919.5 511.381 918.13 504.933 917.63 502.594 917.36 500.075 917.38 497.686 917.42 491.758 916.411 486.03 915.131 480.292 913.812 474.324 912.672 468.316 911.422 462.328 910.783 459.249 908.783 457.73 905.705 457.5 905.345 457.47 904.945 457.47 904.645 457.3 898.927 454.051 892.369 454.851 886.271 453.471 882.913 452.712 879.444 452.592 876.065 452.062 873.886 451.722 873.276 452.452 872.966 454.221 871.387 463.148 869.747 472.055 868.548 481.042 867.608 488.039 865.669 494.887 865.599 502.014 865.549 506.713 866.069 511.371 865.959 516.089 865.759 524.016 864.129 531.654 862.51 539.341 861.62 543.57 860.391 547.748 860.57 552.147 860.7 555.435 858.501 558.314 858.881 561.703 858.961 562.403 857.602 562.803 856.652 562.783 847.545 562.603 839.028 565.772 830.241 567.411 824.343 568.511 818.435 569.54 812.497 570.36 806.63 571.18 801.042 573.209 795.174 573.979 793.034 574.259 790.895 574.499 788.766 574.799 787.166 575.018 786.547 574.529 786.587 572.769 786.687 568.441 787.696 564.252 788.346 560.024 789.306 553.856 789.576 547.548 791.545 541.57 794.344 533.083 795.174 524.296 795.953 515.469 796.293 511.581 798.392 508.042 798.792 504.113 799.582 496.316 803.061 489.149 804.32 481.511 805.62 473.584 807.309 465.727 808.449 457.78 809.489 450.542 810.828 443.345 811.608 436.078 812.108 431.359 812.657 426.631 812.897 421.853 813.337 412.966 813.847 404.109 816.166 395.352 818.275 387.405 820.085 379.318 821.174 371.11 821.454 369.001 821.534 367.122 821.144 365.043 820.545 361.794 821.634 358.575 822.144 355.396 823.134 349.168 824.163 342.96 824.863 336.693 825.503 330.965 826.483 325.267 826.952 319.529 827.512 312.761 829.002 306.163 830.131 299.506 831.681 290.429 833.73 281.452 835.719 272.465 837.139 266.057 838.238 259.56 839.958 253.232 842.177 245.025 844.226 236.828 844.276 228.281 844.296 225.782 844.906 223.493 846.086 221.353 846.965 219.754 847.445 218.064 847.675 216.285 848.135 212.816 849.204 211.757 852.633 211.837 855.022 211.887 857.192 210.887 859.411 210.387 863.659 209.427 867.988 208.638 872.236 208.578 880.963 208.448 889.72 207.598 898.467 208.828 901.926 209.308 905.405 209.937 908.973 209.228 912.002 208.618 915.001 209.597 918.02 209.947 926.117 210.877 933.545 213.936 941.072 216.635 945.091 218.074 948.799 220.334 952.048 223.143 954.727 225.452 954.487 228.951 955.057 232.07 955.247 233.129 955.087 234.249 955.087 235.338ZM908.724 311.861C909.423 303.714 907.424 296.887 906.124 290.019 905.465 286.57 905.065 283.102 904.585 279.653 903.925 274.944 900.996 271.686 898.037 268.407 896.998 267.257 895.758 267.677 895.178 268.996 894.269 271.066 892.959 272.985 892.619 275.264 891.809 280.602 891.18 285.94 889.1 291.039 888.281 293.048 887.841 295.357 887.361 297.566 885.802 304.744 886.281 312.131 885.042 319.329 883.932 325.766 884.992 332.364 883.482 338.732 882.673 342.131 883.232 345.649 882.533 348.978 881.223 355.166 880.084 361.384 879.144 367.622 878.724 370.411 877.065 373.41 879.404 376.239 881.313 378.548 883.213 381.697 886.271 381.387 891.899 380.827 897.268 381.787 902.726 382.536 908.444 383.316 914.212 378.898 914.651 373.16 915.261 365.183 914.222 357.315 912.842 349.468 912.152 345.559 910.453 341.711 910.493 337.872 910.593 328.795 909.453 319.839 908.724 311.851Z" stroke="#FFFFFF" stroke-width="5.99788"/><path d="M970.932 311.891C970.932 305.204 971.171 299.926 970.882 294.667 970.412 286.1 969.592 277.553 968.932 268.996 968.862 268.097 968.762 267.177 968.842 266.277 969.672 256.471 969.232 246.644 968.672 236.868 968.073 226.481 967.763 216.075 966.643 205.719 966.033 200.061 965.823 194.363 966.023 188.645 966.213 183.137 965.573 177.679 965.044 172.191 964.634 167.892 965.443 163.544 965.673 159.225 965.833 156.286 968.762 154.537 971.111 153.377 982.088 147.979 992.004 140.662 1003.26 135.783 1004.32 135.324 1005.32 134.644 1006.5 134.864 1008.72 135.294 1009.54 133.094 1011.26 132.465 1016.75 130.465 1022.58 129.976 1028.09 128.176 1038.21 124.867 1048.53 123.458 1059.17 123.778 1062.56 123.878 1066 123.258 1069.39 122.788 1071.44 122.508 1073.39 122.998 1075.28 123.388 1078.18 123.998 1081.07 123.968 1083.93 123.798 1087.56 123.578 1090.49 125.227 1092.94 127.266 1094.33 128.416 1094.85 130.985 1095.13 133.004 1095.78 137.703 1096.55 142.381 1097.02 147.119 1097.68 153.737 1097.7 160.365 1097.28 166.922 1096.99 171.391 1097.59 175.959 1096.37 180.358 1095.63 183.047 1094.51 185.546 1092.74 187.755 1090.38 190.704 1088.93 194.223 1086.96 197.422 1086.21 198.641 1085.57 199.941 1084.76 201.12 1082.45 204.509 1082.81 206.009 1086.64 207.708 1089.88 209.138 1093.17 210.447 1096.47 211.737 1097.86 212.276 1098.89 213.266 1100.07 214.096 1103.06 216.215 1103.28 219.434 1103.38 222.463 1103.75 233.939 1105.36 245.415 1104.44 256.891 1103.82 264.568 1103.61 272.275 1102.62 279.963 1101.83 286.16 1100.84 292.358 1100.17 298.586 1100.08 299.456 1099.95 300.395 1099.55 301.155 1095.47 309.092 1092.61 317.619 1088.05 325.327 1087.6 326.096 1086.96 326.796 1086.28 327.366 1083.94 329.315 1082.02 331.644 1080.84 334.393 1078.8 339.132 1075.14 340.681 1070.3 340.911 1065.45 341.141 1060.63 341.871 1055.79 342.391 1055.61 342.411 1055.42 342.481 1055.25 342.451 1049.71 341.601 1044.12 343.05 1038.56 342.021 1036.63 341.661 1034.57 341.871 1032.57 341.951 1024.05 342.321 1015.55 340.751 1007.05 341.481 999.072 342.171 991.084 341.501 983.137 342.011 976.07 342.461 972.661 336.982 971.561 331.634 970.132 324.647 971.361 317.519 970.962 311.871ZM1031.51 289.859C1030.98 294.418 1031.45 298.856 1031.92 303.264 1032.42 308.023 1032.83 312.831 1034.19 317.469 1035.04 320.378 1035.1 320.438 1037.82 318.829 1040.32 317.349 1042.7 315.66 1045.26 314.3 1048.33 312.661 1050.13 310.142 1051.44 307.013 1053.85 301.235 1055.75 295.257 1058.66 289.679 1060.59 285.99 1061.05 281.892 1061.13 277.793 1061.27 270.996 1061.23 264.198 1060.73 257.401 1060.29 251.423 1057.95 246.045 1055.72 240.616 1055.09 239.067 1053.93 238.397 1052.17 238.187 1046.89 237.538 1041.66 238.477 1036.4 238.347 1034.52 238.297 1032.24 237.098 1030.86 238.327 1029.28 239.727 1030.71 242.086 1030.72 244.015 1030.77 255.541 1029.98 267.077 1030.97 278.583 1031.3 282.382 1031.45 286.18 1031.51 289.879ZM1024.96 160.545C1024.8 165.533 1024.77 170.521 1025.39 175.469 1026.02 180.488 1026.87 185.486 1027.65 190.484 1027.71 190.894 1027.94 191.394 1028.26 191.624 1028.72 191.954 1029.06 191.474 1029.34 191.134 1033.89 185.586 1037.34 179.438 1039.63 172.64 1040.92 168.812 1041.14 164.773 1041.75 160.815 1042.28 157.366 1041.83 153.877 1041.81 150.408 1041.81 149.009 1040.89 148.559 1039.72 148.419 1035.43 147.909 1031.13 147.379 1026.83 146.95 1025.56 146.82 1024.43 147.129 1024.68 148.879 1025.24 152.757 1024.77 156.666 1024.95 160.555Z" stroke="#FFFFFF" stroke-width="5.99788"/><path d="M1048.12 415.705C1048.12 418.794 1048.16 421.883 1048.1 424.971 1048.07 426.441 1048.39 427.191 1050.1 426.831 1059.17 424.901 1068.47 425.261 1077.62 424.142 1083.74 423.392 1084.51 424.092 1084.12 430.26 1083.54 439.386 1082.64 448.493 1082.91 457.65 1082.93 458.29 1082.91 458.919 1082.91 459.559 1082.91 464.457 1082.93 464.527 1078.18 465.697 1069.3 467.876 1060.46 470.475 1051.14 469.846 1049.46 469.736 1049.51 470.705 1049.39 471.875 1048.3 482.981 1049.71 493.747 1052.79 504.493 1054.58 510.751 1057.18 516.719 1058.72 523.037 1059.42 525.916 1061.54 527.515 1064.3 528.335 1071.79 530.554 1079.45 531.524 1087.19 532.533 1092.99 533.293 1098.75 533.663 1104.42 533.233 1115.21 532.414 1126.05 531.914 1136.69 529.375 1142.23 528.055 1147.8 526.845 1153.26 525.206 1155.07 524.666 1156.85 524.076 1158.36 522.937 1160.18 521.557 1162.17 521.807 1163.97 522.567 1165.86 523.377 1165.23 525.576 1165.5 527.095 1166.81 534.403 1166.72 541.9 1168.26 549.188 1168.49 550.257 1168.22 551.067 1166.89 551.377 1161.96 552.526 1157.15 554.136 1152.07 554.666 1146.98 555.195 1142.15 556.895 1137.27 558.304 1131.65 559.924 1125.88 560.614 1120.18 561.753 1110.65 563.672 1101.06 563.712 1091.42 564.052 1084.71 564.292 1077.89 563.962 1071.22 565.422 1069.46 565.812 1067.49 565.642 1065.58 565.092 1063.53 564.492 1061.35 564.302 1059.16 564.392 1049.65 564.792 1040.55 562.683 1031.3 560.684 1020.7 558.394 1010.58 554.726 1000.15 552.037 996.722 551.147 993.034 551.377 989.545 550.317 985.736 549.158 985.156 548.678 984.577 543.709 983.797 537.022 983.457 530.284 982.847 523.587 982.088 515.14 981.108 506.673 981.438 498.226 981.738 490.588 981.298 483.021 980.648 475.494 979.409 461.169 978.179 446.864 977.979 432.469 977.899 426.861 978.499 421.223 977.479 415.635 975.74 406.108 975.54 396.382 975.09 386.795 974.63 377.218 972.911 367.812 972.481 358.255 972.171 351.337 978.029 350.348 982.627 351.867 983.837 352.267 984.927 352.197 986.076 352.137 989.145 351.957 992.194 351.157 995.263 352.157 995.593 352.267 996.053 352.297 996.333 352.157 1001.42 349.478 1006.76 350.888 1012.05 351.048 1018.94 351.257 1025.89 350.768 1032.75 351.377 1038.33 351.877 1043.94 351.377 1049.49 352.267 1053.8 352.957 1058.17 352.047 1062.47 351.657 1070.19 350.948 1077.89 351.108 1085.57 351.517 1090.75 351.797 1095.92 351.587 1101.08 351.947 1106.3 352.317 1111.55 352.077 1116.78 352.147 1121.18 352.207 1125.6 352.587 1130 352.327 1131.3 352.247 1132.5 352.547 1133.68 353.077 1134.33 353.367 1134.85 353.727 1134.45 354.496 1132.6 358.125 1132.23 362.244 1130.25 365.892 1125.34 374.909 1118.4 381.557 1108.95 385.565 1106.12 386.765 1103.04 386.165 1100.11 386.455 1092.89 387.155 1085.64 387.485 1078.36 387.565 1073.27 387.625 1068.19 388.934 1063.08 389.604 1059.66 390.044 1056.22 390.554 1052.78 390.614 1050.41 390.664 1049.54 391.643 1049.37 393.762 1048.8 401.07 1047.86 408.347 1048.13 415.705Z" stroke="#FFFFFF" stroke-width="5.99788"/><path d="M1120.22 524.616C1117.05 524.486 1113.96 525.036 1110.85 525.606 1107.43 526.236 1103.99 525.486 1100.62 524.996 1099.15 524.786 1097.81 524.716 1096.39 524.956 1093.04 525.516 1089.68 525.236 1086.42 524.506 1084.23 524.016 1083.29 522.077 1083.28 519.998 1083.26 512.191 1083.09 504.353 1085.37 496.736 1086.1 494.307 1086.17 491.628 1086.1 489.219 1085.89 481.751 1087.76 474.484 1087.61 467.027 1087.49 461.219 1088.38 455.391 1089.67 449.663 1090.14 447.563 1090.36 445.364 1090.38 443.205 1090.45 436.477 1091.54 430.03 1093.66 423.562 1095.08 419.243 1096.04 414.535 1095.94 409.817 1095.84 405.178 1096.45 400.59 1096.79 395.982 1096.98 393.453 1099.07 392.573 1102.66 392.793 1110.21 393.263 1117.08 391.293 1123.28 386.785 1129.52 382.257 1134.16 376.629 1138 369.881 1140.28 365.862 1140.71 361.654 1142.09 357.565 1142.4 356.656 1141.64 355.186 1142.65 354.806 1144.1 354.246 1145.85 353.887 1147.34 354.156 1148.88 354.436 1150.04 354.546 1151.34 353.527 1151.97 353.027 1153.02 352.927 1153.89 352.897 1159.94 352.667 1166.02 352.167 1172.06 352.427 1177.81 352.667 1183.68 352.757 1189.27 353.697 1193.8 354.466 1197.88 352.957 1202.21 353.297 1205.13 353.527 1207.53 354.596 1209.78 356.076 1210.85 356.775 1211.48 358.125 1211.44 359.774 1211.3 366.432 1211.29 373.1 1211.41 379.757 1211.52 386.055 1212.38 392.303 1212.95 398.571 1213.3 402.339 1213.24 406.148 1213.47 409.937 1214.18 421.972 1214.35 434.048 1214.08 446.104 1213.85 456.52 1215.16 466.837 1215.85 477.183 1216.48 486.73 1217.97 496.226 1219.01 505.743 1220.08 515.549 1221.94 525.286 1221.27 535.242 1221.13 537.292 1220.52 538.141 1218.62 538.891 1214.74 540.431 1210.84 542.26 1206.88 543.3 1201.2 544.799 1195.6 546.549 1189.94 548.078 1186.25 549.078 1182.65 550.387 1178.88 551.157 1175.95 551.757 1175.27 551.357 1174.85 548.428 1173.58 539.591 1171.73 530.784 1171.23 521.897 1170.78 513.98 1169.02 506.253 1168.75 498.326 1168.6 494.097 1168.43 489.689 1166.43 485.72 1165.64 484.151 1166.7 482.541 1166.2 480.922 1165.88 479.872 1165.4 479.022 1164.43 479.402 1161.17 480.682 1158.39 478.423 1155.32 478.413 1154.69 478.413 1153.98 478.103 1153.45 478.303 1150.27 479.482 1146.9 478.573 1143.69 479.332 1142.2 479.682 1140.88 480.182 1140.82 481.971 1140.72 484.58 1138.9 487.069 1140.44 489.809 1140.99 490.788 1140.31 491.928 1140.16 492.997 1139.25 499.495 1138.31 505.953 1138.35 512.581 1138.35 514.3 1137.23 516.699 1136.34 518.708 1135.26 521.128 1133.8 522.467 1131.1 523.107 1127.51 523.966 1123.97 524.846 1120.24 524.596ZM1152.34 405.208C1145.81 405.358 1142.91 407.508 1143.31 413.855 1143.52 417.094 1143.89 420.393 1143.53 423.592 1143.1 427.491 1142.84 431.329 1143.11 435.248 1143.31 438.137 1143.59 441.126 1143.11 443.945 1142.54 447.324 1142.72 450.582 1143.22 453.891 1143.59 456.32 1144.75 457.87 1147.48 457.57 1152.56 457.01 1157.59 457.87 1162.59 458.39 1164.61 458.6 1166.21 457.67 1167.97 457.37 1170.95 456.86 1168.49 454.291 1168.81 452.672 1169.05 451.442 1168.74 450.133 1169.17 448.903 1169.41 448.213 1169.29 447.523 1169.23 446.794 1168.81 441.446 1167.85 436.157 1167.29 430.829 1166.58 424.062 1166.07 417.274 1164.39 410.666 1164.16 409.757 1164.05 408.667 1162.88 407.987 1159.52 406.038 1155.93 405.298 1152.33 405.208Z" stroke="#FFFFFF" stroke-width="5.99788"/><path d="M1211.93 295.707C1211.43 302.765 1212.38 311.092 1212.62 319.419 1212.83 326.896 1213.67 334.373 1213.61 341.881 1213.6 343.32 1213.53 344.12 1211.74 344.3 1205.14 344.95 1198.64 346.369 1191.89 345.4 1188.81 344.96 1185.62 344.84 1182.46 344.65 1173.82 344.14 1165.24 342.82 1156.58 342.69 1155.86 342.68 1155.13 342.531 1154.41 342.511 1145.27 342.321 1136.12 342.291 1127 341.871 1123.75 341.721 1120.52 341.371 1117.26 341.501 1113.09 341.661 1108.91 342.021 1104.74 341.881 1100.1 341.731 1095.44 341.471 1090.85 340.521 1088.64 340.061 1088.96 339.112 1089.96 337.782 1093.8 332.694 1097.63 327.536 1099.97 321.598 1103.72 312.081 1107.67 302.585 1108.92 292.268 1109.93 283.941 1110.73 275.614 1110.53 267.217 1110.45 263.778 1110.83 260.37 1110.99 256.951 1111.27 250.853 1111.02 244.725 1111.08 238.607 1111.13 233.729 1110.03 228.981 1109.58 224.162 1109.3 221.193 1109.2 218.194 1108.97 215.205 1108.49 209.028 1107.94 202.86 1107.32 196.692 1107.18 195.302 1107.76 193.863 1107.77 192.443 1107.86 185.556 1107.35 178.688 1107.08 171.811 1106.9 167.022 1106.67 162.234 1106.75 157.456 1106.83 152.718 1105.44 148.229 1104.86 143.621 1104.11 137.753 1104.7 131.845 1104.53 125.967 1104.51 125.107 1104.94 124.847 1105.73 125.057 1109.63 126.107 1113.66 125.607 1117.61 125.877 1125.11 126.377 1132.49 127.197 1139.77 129.006 1151.37 131.895 1162.6 135.684 1173.37 141.092 1177.37 143.101 1181.31 145.25 1185.15 147.479 1188.11 149.199 1190.79 151.548 1193.74 153.407 1195.5 154.517 1195.48 156.476 1194.92 157.776 1193.42 161.255 1193.75 164.973 1193.01 168.542 1191.48 175.879 1189.04 182.967 1187.68 190.334 1186.63 195.952 1185.67 201.59 1184.58 207.188 1183.46 212.946 1181.62 218.564 1180.01 224.222 1175.88 238.707 1172.7 253.422 1169.23 268.057 1168.95 269.256 1169.08 270.316 1169.31 271.496 1169.71 273.635 1169.28 275.734 1168.59 277.843 1167.74 280.422 1169.34 282.072 1171.92 281.222 1175.37 280.093 1178.77 280.632 1182.27 280.722 1188.18 280.872 1194.18 281.722 1200.09 280.093 1201.81 279.623 1203.67 279.333 1205.56 280.562 1206.61 281.242 1208.38 280.942 1209.81 280.852 1211.44 280.742 1212.04 281.202 1211.98 282.942 1211.85 286.75 1211.94 290.569 1211.94 295.687Z" stroke="#FFFFFF" stroke-width="5.99788"/></g></svg>