<svg width="925" height="510" xmlns="http://www.w3.org/2000/svg" xmlns:xlink="http://www.w3.org/1999/xlink" xml:space="preserve" overflow="hidden"><defs><clipPath id="clip0"><rect x="768" y="-155" width="925" height="510"/></clipPath></defs><g clip-path="url(#clip0)" transform="translate(-768 155)"><path d="M831.306 337.436C831.596 335.367 831.406 333.028 830.086 330.789 829.407 329.619 829.437 328.12 830.136 326.89 830.966 325.43 831.076 324.071 830.336 322.551 828.587 318.963 829.926 315.314 830.576 311.825 832.815 299.809 835.434 287.874 837.774 275.868 838.343 272.949 837.704 269.94 837.824 266.941 838.273 256.235 839.503 245.629 840.603 234.992 841.852 222.927 843.232 210.851 843.801 198.745 844.361 186.959 845.871 175.293 846.87 163.558 847.76 153.081 848.51 142.615 849.15 132.119 849.789 121.622 850.079 111.116 850.859 100.63 851.579 90.9732 852.198 81.2966 853.438 71.68 854.498 63.4229 855.027 55.0959 855.747 46.7988 856.507 38.1418 857.447 29.4949 857.896 20.8279 858.546 8.26239 859.336-4.30319 857.347-16.8887 856.307-23.4464 855.357-30.1541 856.497-36.8917 856.897-39.2309 856.757-40.8703 853.368-41.4401 841.412-43.4394 829.447-44.0891 817.411-42.9096 811.573-42.3398 805.755-41.4401 799.957-40.5104 798.128-40.2205 796.438-39.0909 794.459-39.4208 793.929-39.5108 793.209-39.3108 792.869-39.6007 790.32-41.76 787.531-41.1302 784.682-40.5204 779.714-39.4508 778.215-40.8503 776.795-45.6486 774.616-52.986 775.186-60.4334 775.366-67.8208 775.476-72.4691 773.396-76.7076 773.976-81.436 774.536-86.0044 774.646-90.7727 773.926-95.2911 773.416-98.4899 772.717-101.999 773.016-104.878 773.606-110.496 770.477-114.664 769.228-119.503 768.508-122.272 767.968-124.971 768.238-127.79 768.468-130.239 769.598-130.859 771.917-129.999 773.786-129.309 775.675-128.869 777.715-128.979 783.483-129.299 789.251-128.649 795.059-129.619 798.138-130.129 801.516-129.309 804.695-128.699 807.824-128.099 811.013-127.84 814.102-127.85 822.919-127.9 831.726-127.56 840.503-127.07 852.159-126.41 863.864-126.47 875.47-125.41 885.117-124.521 894.843-124.391 904.42-122.451 909.308-121.462 914.437-120.912 919.515-121.222 925.723-121.612 931.531-119.333 937.578-118.733 947.485-117.753 957.121-114.634 967.218-115.164 973.566-115.504 979.614-113.435 985.771-112.345 997.557-110.246 1009.13-107.107 1021-105.318 1028.12-104.238 1035.33-103.968 1042.41-102.648 1052.25-100.809 1062.02-98.6599 1071.82-96.6006 1079.23-95.0412 1086.75-93.8816 1094.17-92.3321 1097.84-91.5724 1101.4-90.5028 1104.96-89.3732 1106.42-88.9133 1107.83-88.2835 1109.4-88.4835 1111.19-88.7034 1111.55-87.7637 1111.45-86.2043 1110.7-74.7683 1111.04-63.3124 1111.27-51.8764 1111.35-48.0078 1110.42-44.1191 1111.55-40.1905 1112.27-37.7114 1110.37-36.072 1108.1-36.8517 1102.64-38.721 1097.14-40.5204 1091.85-42.7996 1086.47-45.1188 1080.87-46.7182 1075.15-47.4879 1066.4-48.6675 1057.58-49.6972 1048.71-49.1873 1043.6-48.8875 1038.52-48.2077 1033.42-47.7079 1033.06-47.6679 1032.7-47.6079 1032.34-47.6179 1020.3-48.1077 1008.48-45.6286 996.548-44.8189 995.008-44.7089 993.459-44.6589 991.919-44.7089 984.842-44.9188 977.854-43.4294 970.777-43.5893 969.507-43.6193 968.937-43.2195 968.617-41.8199 966.878-34.2826 966.068-26.6853 966.318-18.948 966.518-12.8702 965.429-6.94225 964.089-1.05434 964.029-0.794434 963.989-0.504517 964.009-0.244614 964.459 4.4837 963.439 9.14207 963.169 13.8304 962.749 21.1878 961.62 28.5052 961.06 35.8626 960.72 40.2911 960.99 44.7595 960.84 49.2079 960.58 57.2451 959.97 65.2623 958.631 73.2095 958.181 75.8685 958.091 78.6275 957.961 81.2966 957.621 88.3441 956.512 95.3116 956.062 102.349 955.562 110.346 954.892 118.364 953.823 126.311 952.613 135.308 951.833 144.294 951.923 153.371 952.013 162.998 950.784 172.524 949.764 182.071 948.914 189.998 948.505 197.985 946.895 205.803 945.296 213.54 943.936 221.317 943.276 229.174 942.437 239.101 941.507 249.027 940.727 258.954 940.008 268.131 939.978 277.377 938.008 286.464 937.348 289.513 936.929 292.672 936.999 295.891 937.169 302.958 936.089 309.956 935.669 316.983 935.379 321.902 933.86 326.63 933.93 331.548 933.95 333.208 932.86 333.358 931.66 333.548 926.182 334.427 920.724 335.557 915.216 336.167 908.589 336.896 902.281 338.976 895.803 340.315 891.065 341.295 886.326 342.005 881.478 342.384 875.77 342.834 870.092 343.824 864.374 344.324 861.945 344.534 859.526 344.884 857.097 344.974 850.879 345.223 844.651 345.363 838.423 345.543 838.333 345.543 838.243 345.543 838.153 345.543 836.224 345.583 834.065 347.193 832.515 344.704 831.416 342.934 831.356 340.955 831.396 338.956 831.396 338.596 831.366 338.226 831.326 337.476Z" stroke="#FFFFFF" stroke-width="11.9958"/><path d="M1468.43 223.087C1467.06 193.947 1468.38 164.797 1467.91 135.667 1467.8 128.65 1466.89 121.602 1466.47 114.555 1466.37 112.925 1466.19 111.286 1466.26 109.667 1466.64 101.849 1466.24 94.0021 1465.53 86.2748 1464.38 73.6793 1463.81 61.0737 1464.66 48.5282 1465.41 37.3921 1466.22 26.286 1465.94 15.14 1465.7 5.48335 1464.84-4.13324 1463.55-13.7298 1462.57-20.9773 1462.11-28.3147 1461.51-35.6121 1460.77-44.599 1461.49-53.5958 1460.91-62.5426 1460.32-71.6394 1458.89-80.6662 1456.76-89.5631 1455.81-93.5017 1455.32-97.5603 1454.73-101.589 1454.47-103.358 1455.28-104.688 1457.16-104.828 1459.43-104.988 1461.5-105.787 1463.6-106.517 1474.51-110.306 1485.8-112.415 1497.07-114.764 1504.15-116.244 1511.3-117.363 1518.35-118.923 1520.36-119.363 1522.54-118.633 1524.53-119.862 1525.74-120.612 1525.81-118.993 1525.93-118.533 1527.51-112.575 1529.06-106.597 1529.81-100.479 1531.04-90.4228 1531.86-80.3164 1533.19-70.2799 1534.22-62.5026 1534.55-54.6854 1535.38-46.9081 1535.89-42.1398 1536.88-37.3815 1538.17-32.7531 1539.44-28.2147 1539.51-23.5564 1540.11-18.978 1540.78-13.9098 1541.94-8.93155 1542.52-3.85335 1542.84-1.09431 1543.35 1.6647 1543.43 4.43373 1543.67 12.9008 1544.91 21.2278 1546.04 29.6048 1546.94 36.2625 1547.7 42.9701 1548.55 49.6278 1549.55 57.475 1549.54 65.4022 1550.95 73.1995 1551.33 75.2787 1550.71 77.5079 1550.42 79.6072 1550.12 81.7764 1550.03 83.9057 1550.03 86.0549 1550 95.6216 1548.56 104.988 1546.18 114.225 1544.99 118.833 1544.63 123.552 1543.99 128.24 1543.09 134.788 1542.45 141.365 1541.51 147.913 1539.93 158.859 1537.41 169.625 1536.15 180.632 1535.11 189.758 1533.81 198.875 1532.83 207.992 1531.95 216.199 1530.41 224.296 1529.68 232.533 1529.11 238.911 1527.12 245.159 1525.72 251.457 1524.27 257.964 1523.56 264.542 1523.26 271.2 1523.08 275.248 1523.64 279.837 1521.93 283.185 1519.3 288.314 1521.65 294.361 1517.97 298.97 1517.63 306.847 1511.84 311.805 1507.72 317.563 1505.64 320.472 1502.26 322.032 1498.3 322.132 1492.94 322.262 1487.61 321.842 1482.32 321.352 1475.37 320.712 1468.46 319.513 1461.6 318.203 1456.18 317.173 1450.85 315.584 1445.46 314.324 1434.67 311.795 1423.92 309.136 1413.63 304.988 1405.67 301.779 1398.04 297.83 1390.43 293.842 1387.63 292.372 1387 290.083 1387.03 287.524 1387.13 278.847 1385.81 270.27 1385.17 261.663 1384.85 257.344 1384.55 253.036 1384.41 248.708 1384.35 246.768 1385.91 244.899 1385.06 243.12 1383.99 240.89 1383.91 238.641 1383.72 236.302 1383.25 230.534 1382.81 224.756 1382.03 219.018 1380.59 208.422 1380.53 197.736 1379.55 187.109 1379.52 186.839 1379.51 186.569 1379.51 186.29 1379.46 171.675 1378.43 157.06 1379.14 142.445 1379.35 138.137 1378.8 133.718 1380.17 129.48 1380.53 128.35 1379.45 127.41 1379.44 126.401 1379.38 120.053 1378.78 113.655 1379.67 107.357 1380.47 101.679 1380.5 96.1014 1379.51 90.4934 1378.11 82.5961 1378.1 74.639 1378.28 66.6618 1378.38 62.3033 1378.35 57.9348 1378.41 53.5764 1378.44 51.4571 1378.2 49.3179 1377.06 47.5985 1376.14 46.209 1377.4 45.3393 1377.29 44.1097 1376.66 36.9123 1376.73 29.6548 1375.97 22.4774 1375.31 16.2296 1375.62 9.88181 1374.38 3.71399 1372.72-4.54311 1373.02-12.9501 1372.2-21.2672 1371.65-26.9652 1370.91-32.6432 1369.79-38.3012 1368.87-42.9296 1368.89-47.8078 1368.5-52.5661 1368.22-56.0849 1367.14-59.4037 1366.54-62.8325 1365.27-70.05 1364.01-77.2674 1363.07-84.5349 1362.87-86.1143 1363.39-87.094 1365.09-87.4538 1372.75-89.1133 1380.41-90.8127 1388.07-92.552 1393.51-93.7816 1399.01-94.6413 1404.55-94.9912 1409.09-95.2811 1413.23-97.0804 1417.63-97.9002 1421.94-98.6999 1426.24-99.6495 1430.47-100.769 1431.9-101.149 1431.96-100.639 1432.16-99.6096 1432.94-95.591 1433.31-91.5024 1433.27-87.4538 1433.17-77.9172 1433.37-68.3806 1433.91-58.8639 1434.38-50.6568 1435.5-42.4997 1436.29-34.3126 1436.96-27.375 1437.52-20.4375 1438.2-13.4999 1438.73-8.01189 1439.46-2.54381 1439.93 2.95425 1440.32 7.56262 1440.67 12.181 1440.69 16.7994 1440.73 32.1539 1440.93 47.5185 1440.46 62.8631 1440.04 76.7382 1439.21 90.5933 1438.98 104.478 1438.88 110.586 1440.01 116.594 1439.77 122.702 1439.02 142.035 1438.34 161.388 1438.9 180.732 1439.23 192.128 1439.14 203.563 1440.58 214.929 1441.4 221.477 1441.56 228.115 1441.81 234.722 1441.89 236.762 1442.49 238.151 1444.18 239.251 1446.68 240.87 1448.87 242.96 1451.64 244.169 1452.3 244.459 1453.04 244.939 1453.66 244.839 1458.73 243.959 1463.67 242.71 1467.28 238.591 1468.18 237.561 1468.42 236.402 1468.41 235.072 1468.37 231.074 1468.39 227.075 1468.39 223.077Z" stroke="#FFFFFF" stroke-width="11.9958"/><path d="M1625.09 233.383C1623.91 233.913 1623.76 235.152 1623.86 235.762 1624.61 240.49 1621.98 244.399 1620.79 248.608 1618.36 257.215 1616.63 265.981 1615.04 274.738 1612.11 290.873 1610.03 307.167 1604.58 322.741 1603.01 327.23 1601.12 331.608 1599.45 336.067 1599 337.266 1598.28 337.466 1597.19 337.266 1586.11 335.287 1575.08 332.768 1563.93 331.498 1551.53 330.079 1539.49 327.04 1527.27 324.821 1524.03 324.231 1524.02 324.201 1525.27 321.082 1527.57 315.374 1530.31 309.806 1532.09 303.948 1533.98 297.7 1536.4 291.572 1537.05 284.935 1537.53 280.016 1539.51 275.388 1541.05 270.7 1542.65 265.781 1543.08 260.643 1544.19 255.635 1545.16 251.247 1545.88 246.808 1546.92 242.43 1547.5 239.961 1547.71 237.432 1548.02 234.952 1548.84 228.625 1549.76 222.297 1550.37 215.949 1550.96 209.851 1551.64 203.793 1552.84 197.785 1554.25 190.748 1555.66 183.71 1557.15 176.683 1558.05 172.454 1558.65 168.206 1559.2 163.917 1559.82 159.119 1561.06 154.401 1561.75 149.602 1562.71 142.935 1565.54 136.737 1565.58 129.77 1565.62 123.742 1567.41 117.764 1568.84 111.836 1570.92 103.209 1572.84 94.5519 1574.73 85.885 1574.97 84.7854 1574.7 83.5258 1574.45 82.3862 1573.21 76.8482 1572.13 71.3101 1571.62 65.6221 1570.67 55.1058 1568.26 44.8395 1565.34 34.703 1561.72 22.1375 1557.83 9.6319 1554.62-3.04364 1552.42-11.7505 1551.2-20.6974 1549.5-29.5343 1547.88-37.9713 1547.48-46.5683 1546.01-55.0653 1544.88-61.533 1544.25-68.2006 1543.44-74.7883 1542.71-80.7662 1543.41-86.7441 1542.92-92.682 1542.27-100.659 1542.09-108.686 1540.87-116.624 1540.57-118.563 1540.75-120.572 1540.29-122.521 1540-123.761 1540.5-124.371 1541.99-124.571 1555.4-126.3 1568.79-128.209 1581.95-131.278 1583.72-131.688 1583.97-131.168 1584.61-129.809 1588.19-122.272 1590.13-114.194 1592.65-106.307 1593.7-103.028 1595.48-99.9794 1596.96-96.8405 1599.45-91.5324 1599.93-85.6645 1601.64-80.1264 1603.74-73.3288 1606.04-66.6212 1608.74-60.0435 1610.32-56.1849 1610.65-51.9264 1612.63-48.1777 1613.03-47.418 1613.56-47.0181 1614.12-46.4283 1615.01-53.3859 1615.81-60.2934 1616.53-67.211 1617.5-76.5477 1620.05-85.5945 1622.34-94.6913 1624.94-105.068 1628.34-115.264 1630.06-125.84 1630.94-131.218 1632.18-136.616 1631.82-142.135 1631.72-143.624 1632.24-143.954 1633.69-144.274 1642.31-146.183 1650.81-148.662 1659.48-150.222 1665.04-151.221 1670.44-152.951 1676.1-153.471 1677.45-153.59 1678.7-154.78 1680.06-154.95 1682.23-155.22 1684.35-154.39 1686.66-154.83 1688.43-155.17 1688.98-152.951 1687.64-150.712 1687.11-149.832 1686.87-149.332 1687.29-148.122 1688.04-145.953 1686.72-143.764 1685.31-142.245 1682.82-139.535 1682.79-136.157 1682.2-132.968 1681.39-128.549 1681.27-123.991 1680.45-119.573 1679.43-114.074 1677.94-108.676 1676.37-103.298 1675.24-99.4196 1674.48-95.501 1674.24-91.3725 1673.95-86.4142 1673.69-81.336 1671.41-76.6077 1670.43-74.5784 1670.29-72.0093 1670.29-69.6901 1670.27-62.6926 1669.6-55.745 1668.82-48.8175 1668.06-42.1298 1666.8-35.5022 1665.61-28.8645 1664.36-21.907 1663.31-14.9294 1662.3-7.93192 1661.13 0.215225 1659.24 8.24239 1657.24 16.2296 1655.75 22.2075 1655.45 28.3553 1654.7 34.4332 1654.07 39.4514 1652.68 44.2997 1651.43 49.1779 1649.58 56.4154 1647.45 63.6428 1647.42 71.1702 1647.42 73.7493 1648.38 76.4483 1649.37 78.9075 1652.44 86.5347 1653.8 94.7219 1656.65 102.309 1660.28 111.926 1662.92 121.832 1666.34 131.499 1670.91 144.444 1674.71 157.67 1678.23 170.965 1680.48 179.462 1681.69 188.129 1682.97 196.766 1683.7 201.724 1683.57 206.822 1684.17 211.841 1685.06 219.128 1685.47 226.475 1687.04 233.683 1687.63 236.392 1687.73 239.211 1687.98 241.98 1688.72 250.037 1689.49 258.104 1690.11 266.171 1690.42 270.22 1690.14 274.279 1690.67 278.347 1691.93 288.114 1692.11 297.96 1692.54 307.797 1692.97 317.693 1692.82 327.57 1692.77 337.436 1692.76 340.645 1692.49 343.914 1692.33 347.163 1692.22 349.442 1690.98 351.381 1690.09 353.411 1689.71 354.28 1688.68 354.54 1687.98 354.15 1685.69 352.871 1683.67 353.161 1681.57 354.57 1680.83 355.07 1679.79 355.12 1678.96 354.75 1671.15 351.211 1662.43 351.201 1654.46 348.462 1649.93 346.913 1645.1 346.023 1641 343.304 1640.36 342.884 1639.81 342.864 1639.02 343.124 1636.41 343.994 1634.32 342.864 1632.92 340.765 1631.04 337.936 1629.76 335.177 1631.23 331.338 1632.54 327.91 1632.58 323.951 1632.88 320.202 1633.68 310.336 1632.91 300.449 1632.78 290.583 1632.67 282.206 1631.46 273.839 1630.73 265.462 1630 256.965 1628.82 248.528 1626.9 240.211 1626.38 237.951 1625.7 235.732 1625.06 233.373Z" stroke="#FFFFFF" stroke-width="11.9958"/><path d="M1111.11-8.70163C1111.97 1.26486 1111.59 11.3813 1112.99 21.2278 1114.32 30.5845 1113.01 39.8712 1114.09 49.138 1114.87 55.8856 1115.65 62.6332 1116.42 69.3808 1116.63 71.1802 1116.88 72.9795 1116.96 74.7889 1117.21 81.0367 1117.35 87.2845 1117.63 93.5223 1118.28 107.567 1118.2 121.662 1118.99 135.667 1119.7 148.243 1120.03 160.789 1120.13 173.364 1120.17 178.632 1121.37 183.8 1121.89 189.029 1122.04 190.558 1122.35 192.098 1122.33 193.627 1122.24 199.805 1123.12 205.923 1123.43 212.08 1123.89 221.187 1124.36 230.294 1124.87 239.401 1125.21 245.409 1125.75 251.477 1126.94 257.364 1128.43 264.722 1128.08 272.099 1128.56 279.477 1129.07 287.334 1129.15 295.211 1129.84 303.048 1130.06 305.577 1128.77 306.187 1126.7 306.217 1117.04 306.377 1107.43 307.427 1097.84 308.496 1092.6 309.076 1087.44 310.256 1082.23 311.105 1080.29 311.425 1079.08 311.315 1078.88 308.516 1078.23 299.16 1077.64 289.783 1076.73 280.456 1076.09 273.939 1075.5 267.381 1074.13 260.933 1073.63 258.594 1073.36 256.075 1073.38 253.686 1073.42 247.758 1072.41 242.03 1071.13 236.292 1069.81 230.324 1068.67 224.316 1067.42 218.328 1066.78 215.249 1064.78 213.73 1061.7 213.5 1061.34 213.47 1060.94 213.47 1060.64 213.3 1054.93 210.051 1048.37 210.851 1042.27 209.471 1038.91 208.712 1035.44 208.592 1032.06 208.062 1029.89 207.722 1029.28 208.452 1028.97 210.221 1027.39 219.148 1025.75 228.055 1024.55 237.042 1023.61 244.039 1021.67 250.887 1021.6 258.014 1021.55 262.713 1022.07 267.371 1021.96 272.089 1021.76 280.016 1020.13 287.654 1018.51 295.341 1017.62 299.57 1016.39 303.748 1016.57 308.147 1016.7 311.435 1014.5 314.314 1014.88 317.703 1014.96 318.403 1013.6 318.803 1012.65 318.783 1003.55 318.603 995.028 321.772 986.241 323.411 980.343 324.511 974.435 325.54 968.497 326.36 962.63 327.18 957.042 329.209 951.174 329.979 949.034 330.259 946.895 330.499 944.766 330.799 943.166 331.018 942.547 330.529 942.587 328.769 942.687 324.441 943.696 320.252 944.346 316.024 945.306 309.856 945.576 303.548 947.545 297.57 950.344 289.083 951.174 280.296 951.953 271.469 952.293 267.581 954.392 264.042 954.792 260.113 955.582 252.316 959.061 245.149 960.32 237.511 961.62 229.584 963.309 221.727 964.449 213.78 965.489 206.542 966.828 199.345 967.608 192.078 968.108 187.359 968.657 182.631 968.897 177.853 969.337 168.966 969.847 160.109 972.166 151.352 974.275 143.405 976.085 135.318 977.174 127.11 977.454 125.001 977.534 123.122 977.144 121.043 976.545 117.794 977.634 114.575 978.144 111.396 979.134 105.168 980.163 98.9604 980.863 92.6926 981.503 86.9646 982.483 81.2666 982.952 75.5286 983.512 68.761 985.002 62.1634 986.131 55.5057 987.681 46.4289 989.73 37.4521 991.719 28.4653 993.139 22.0575 994.238 15.5598 995.958 9.23203 998.177 1.02493 1000.23-7.17216 1000.28-15.7191 1000.3-18.2183 1000.91-20.5075 1002.09-22.6467 1002.97-24.2461 1003.45-25.9355 1003.68-27.7149 1004.13-31.1837 1005.2-32.2433 1008.63-32.1634 1011.02-32.1134 1013.19-33.113 1015.41-33.6128 1019.66-34.5725 1023.99-35.3622 1028.24-35.4222 1036.96-35.5522 1045.72-36.4019 1054.47-35.1723 1057.93-34.6925 1061.4-34.0627 1064.97-34.7724 1068-35.3822 1071-34.4026 1074.02-34.0527 1082.12-33.123 1089.54-30.0641 1097.07-27.365 1101.09-25.9256 1104.8-23.6664 1108.05-20.8573 1110.73-18.5482 1110.49-15.0494 1111.06-11.9305 1111.25-10.8709 1111.09-9.75125 1111.09-8.66165ZM1064.72 67.8613C1065.42 59.7142 1063.42 52.8866 1062.12 46.0191 1061.46 42.5703 1061.06 39.1015 1060.58 35.6527 1059.93 30.9444 1057 27.6855 1054.04 24.4067 1053 23.2571 1051.76 23.6769 1051.18 24.9965 1050.27 27.0658 1048.96 28.9851 1048.62 31.2643 1047.81 36.6024 1047.18 41.9405 1045.1 47.0387 1044.28 49.048 1043.84 51.3572 1043.36 53.5664 1041.8 60.7439 1042.28 68.1313 1041.04 75.3287 1039.93 81.7664 1040.99 88.3641 1039.48 94.7319 1038.67 98.1307 1039.23 101.649 1038.53 104.978 1037.22 111.166 1036.08 117.384 1035.14 123.622 1034.72 126.411 1033.06 129.41 1035.4 132.239 1037.31 134.548 1039.21 137.697 1042.27 137.387 1047.9 136.827 1053.27 137.787 1058.73 138.536 1064.44 139.316 1070.21 134.898 1070.65 129.16 1071.26 121.183 1070.22 113.315 1068.84 105.468 1068.15 101.559 1066.45 97.7108 1066.49 93.8722 1066.59 84.7954 1065.45 75.8385 1064.72 67.8513Z" stroke="#FFFFFF" stroke-width="11.9958"/><path d="M1126.93 67.8913C1126.93 61.2037 1127.17 55.9256 1126.88 50.6674 1126.41 42.1004 1125.59 33.5535 1124.93 24.9965 1124.86 24.0968 1124.76 23.1771 1124.84 22.2774 1125.67 12.4709 1125.23 2.64436 1124.67-7.13219 1124.07-17.5185 1123.76-27.9248 1122.64-38.2812 1122.03-43.9392 1121.82-49.6372 1122.02-55.3552 1122.21-60.8632 1121.57-66.3213 1121.04-71.8094 1120.63-76.1078 1121.44-80.4563 1121.67-84.7748 1121.83-87.7138 1124.76-89.4631 1127.11-90.6227 1138.09-96.0208 1148-103.338 1159.26-108.217 1160.32-108.676 1161.32-109.356 1162.5-109.136 1164.72-108.706 1165.54-110.906 1167.26-111.535 1172.75-113.535 1178.58-114.024 1184.09-115.824 1194.21-119.133 1204.53-120.542 1215.17-120.222 1218.56-120.122 1222-120.742 1225.39-121.212 1227.44-121.492 1229.39-121.002 1231.28-120.612 1234.18-120.002 1237.07-120.032 1239.93-120.202 1243.56-120.422 1246.49-118.773 1248.94-116.734 1250.33-115.584 1250.85-113.015 1251.13-110.996 1251.78-106.297 1252.55-101.619 1253.02-96.8805 1253.68-90.2628 1253.7-83.6352 1253.28-77.0775 1252.99-72.6091 1253.59-68.0407 1252.37-63.6422 1251.63-60.9532 1250.51-58.4541 1248.74-56.2449 1246.38-53.2959 1244.93-49.7771 1242.96-46.5783 1242.21-45.3587 1241.57-44.0592 1240.76-42.8796 1238.45-39.4908 1238.81-37.9913 1242.64-36.2919 1245.88-34.8624 1249.17-33.5529 1252.47-32.2633 1253.86-31.7235 1254.89-30.7339 1256.07-29.9042 1259.06-27.7849 1259.28-24.566 1259.38-21.5371 1259.75-10.0611 1261.36 1.41479 1260.44 12.8907 1259.82 20.568 1259.61 28.2753 1258.62 35.9626 1257.83 42.1604 1256.84 48.3582 1256.17 54.586 1256.08 55.4557 1255.95 56.3954 1255.55 57.1551 1251.47 65.0923 1248.61 73.6193 1244.05 81.3266 1243.6 82.0963 1242.96 82.7961 1242.28 83.3659 1239.94 85.3152 1238.02 87.6444 1236.84 90.3934 1234.8 95.1317 1231.14 96.6812 1226.3 96.9111 1221.45 97.141 1216.63 97.8708 1211.79 98.3906 1211.61 98.4106 1211.42 98.4805 1211.25 98.4505 1205.71 97.6009 1200.12 99.0503 1194.56 98.0207 1192.63 97.6608 1190.57 97.8708 1188.57 97.9507 1180.05 98.3206 1171.55 96.7511 1163.05 97.4809 1155.07 98.1706 1147.08 97.5009 1139.14 98.0107 1132.07 98.4606 1128.66 92.9825 1127.56 87.6344 1126.13 80.6468 1127.36 73.5194 1126.96 67.8713ZM1187.51 45.8591C1186.98 50.4175 1187.45 54.8559 1187.92 59.2644 1188.42 64.0227 1188.83 68.831 1190.19 73.4694 1191.04 76.3783 1191.1 76.4383 1193.82 74.8289 1196.32 73.3494 1198.7 71.66 1201.26 70.3005 1204.33 68.6611 1206.13 66.142 1207.44 63.0131 1209.85 57.2351 1211.75 51.2572 1214.66 45.6792 1216.59 41.9905 1217.05 37.8919 1217.13 33.7934 1217.27 26.9958 1217.23 20.1982 1216.73 13.4006 1216.29 7.42267 1213.95 2.04459 1211.72-3.38351 1211.09-4.93297 1209.93-5.60272 1208.17-5.81265 1202.89-6.46243 1197.66-5.52275 1192.4-5.65271 1190.52-5.70268 1188.24-6.90227 1186.86-5.6727 1185.28-4.27319 1186.71-1.91403 1186.72 0.0153046 1186.77 11.5412 1185.98 23.0771 1186.97 34.5831 1187.3 38.3817 1187.45 42.1804 1187.51 45.8791ZM1180.96-83.4553C1180.8-78.467 1180.77-73.4788 1181.39-68.5305 1182.02-63.5123 1182.87-58.5141 1183.65-53.5158 1183.71-53.106 1183.94-52.6061 1184.26-52.3762 1184.72-52.0463 1185.06-52.5262 1185.34-52.8661 1189.89-58.4141 1193.34-64.5619 1195.63-71.3595 1196.92-75.1882 1197.14-79.2267 1197.75-83.1853 1198.28-86.6341 1197.83-90.1229 1197.81-93.5917 1197.81-94.9912 1196.89-95.441 1195.72-95.581 1191.43-96.0908 1187.13-96.6206 1182.83-97.0504 1181.56-97.1804 1180.43-96.8705 1180.68-95.1211 1181.24-91.2425 1180.77-87.3339 1180.95-83.4453Z" stroke="#FFFFFF" stroke-width="11.9958"/><path d="M1204.12 171.705C1204.12 174.794 1204.16 177.883 1204.1 180.971 1204.07 182.441 1204.39 183.191 1206.1 182.831 1215.17 180.901 1224.47 181.261 1233.62 180.142 1239.74 179.392 1240.51 180.092 1240.12 186.26 1239.54 195.386 1238.64 204.493 1238.91 213.65 1238.93 214.29 1238.91 214.919 1238.91 215.559 1238.91 220.457 1238.93 220.527 1234.18 221.697 1225.3 223.876 1216.46 226.475 1207.14 225.846 1205.46 225.736 1205.51 226.705 1205.39 227.875 1204.3 238.981 1205.71 249.747 1208.79 260.493 1210.58 266.751 1213.18 272.719 1214.72 279.037 1215.42 281.916 1217.54 283.515 1220.3 284.335 1227.79 286.554 1235.45 287.524 1243.19 288.533 1248.99 289.293 1254.75 289.663 1260.42 289.233 1271.21 288.414 1282.05 287.914 1292.69 285.375 1298.23 284.055 1303.8 282.845 1309.26 281.206 1311.07 280.666 1312.85 280.076 1314.36 278.937 1316.18 277.557 1318.17 277.807 1319.97 278.567 1321.86 279.377 1321.23 281.576 1321.5 283.095 1322.81 290.403 1322.72 297.9 1324.26 305.188 1324.49 306.257 1324.22 307.067 1322.89 307.377 1317.96 308.526 1313.15 310.136 1308.07 310.666 1302.98 311.195 1298.15 312.895 1293.27 314.304 1287.65 315.924 1281.88 316.614 1276.18 317.753 1266.65 319.672 1257.06 319.712 1247.42 320.052 1240.71 320.292 1233.89 319.962 1227.22 321.422 1225.46 321.812 1223.49 321.642 1221.58 321.092 1219.53 320.492 1217.35 320.302 1215.16 320.392 1205.65 320.792 1196.55 318.683 1187.3 316.684 1176.7 314.394 1166.58 310.726 1156.15 308.037 1152.72 307.147 1149.03 307.377 1145.54 306.317 1141.74 305.158 1141.16 304.678 1140.58 299.71 1139.8 293.022 1139.46 286.284 1138.85 279.587 1138.09 271.14 1137.11 262.673 1137.44 254.226 1137.74 246.588 1137.3 239.021 1136.65 231.494 1135.41 217.169 1134.18 202.864 1133.98 188.469 1133.9 182.861 1134.5 177.223 1133.48 171.635 1131.74 162.108 1131.54 152.382 1131.09 142.795 1130.63 133.218 1128.91 123.812 1128.48 114.255 1128.17 107.337 1134.03 106.348 1138.63 107.867 1139.84 108.267 1140.93 108.197 1142.08 108.137 1145.15 107.957 1148.19 107.157 1151.26 108.157 1151.59 108.267 1152.05 108.297 1152.33 108.157 1157.42 105.478 1162.76 106.888 1168.05 107.048 1174.94 107.257 1181.89 106.768 1188.75 107.377 1194.33 107.877 1199.94 107.377 1205.49 108.267 1209.8 108.957 1214.17 108.047 1218.47 107.657 1226.19 106.948 1233.89 107.108 1241.57 107.517 1246.75 107.797 1251.92 107.587 1257.08 107.947 1262.3 108.317 1267.55 108.077 1272.78 108.147 1277.18 108.207 1281.6 108.587 1286 108.327 1287.3 108.247 1288.5 108.547 1289.68 109.077 1290.33 109.367 1290.85 109.727 1290.45 110.496 1288.6 114.125 1288.23 118.244 1286.25 121.892 1281.34 130.909 1274.4 137.557 1264.95 141.565 1262.12 142.765 1259.04 142.165 1256.11 142.455 1248.89 143.155 1241.64 143.485 1234.36 143.565 1229.27 143.625 1224.19 144.934 1219.08 145.604 1215.66 146.044 1212.22 146.554 1208.78 146.614 1206.41 146.664 1205.54 147.643 1205.37 149.762 1204.8 157.07 1203.86 164.347 1204.13 171.705Z" stroke="#FFFFFF" stroke-width="11.9958"/><path d="M1276.22 280.616C1273.05 280.486 1269.96 281.036 1266.85 281.606 1263.43 282.236 1259.99 281.486 1256.62 280.996 1255.15 280.786 1253.81 280.716 1252.39 280.956 1249.04 281.516 1245.68 281.236 1242.42 280.506 1240.23 280.016 1239.29 278.077 1239.28 275.998 1239.26 268.191 1239.09 260.353 1241.37 252.736 1242.1 250.307 1242.17 247.628 1242.1 245.219 1241.89 237.751 1243.76 230.484 1243.61 223.027 1243.49 217.219 1244.38 211.391 1245.67 205.663 1246.14 203.563 1246.36 201.364 1246.38 199.205 1246.45 192.477 1247.54 186.03 1249.66 179.562 1251.08 175.243 1252.04 170.535 1251.94 165.817 1251.84 161.178 1252.45 156.59 1252.79 151.982 1252.98 149.453 1255.07 148.573 1258.66 148.793 1266.21 149.263 1273.08 147.293 1279.28 142.785 1285.52 138.257 1290.16 132.629 1294 125.881 1296.28 121.862 1296.71 117.654 1298.09 113.565 1298.4 112.656 1297.64 111.186 1298.65 110.806 1300.1 110.246 1301.85 109.887 1303.34 110.156 1304.88 110.436 1306.04 110.546 1307.34 109.527 1307.97 109.027 1309.02 108.927 1309.89 108.897 1315.94 108.667 1322.02 108.167 1328.06 108.427 1333.81 108.667 1339.68 108.757 1345.27 109.697 1349.8 110.466 1353.88 108.957 1358.21 109.297 1361.13 109.527 1363.53 110.596 1365.78 112.076 1366.85 112.775 1367.48 114.125 1367.44 115.774 1367.3 122.432 1367.29 129.1 1367.41 135.757 1367.52 142.055 1368.38 148.303 1368.95 154.571 1369.3 158.339 1369.24 162.148 1369.47 165.937 1370.18 177.972 1370.35 190.048 1370.08 202.104 1369.85 212.52 1371.16 222.837 1371.85 233.183 1372.48 242.73 1373.97 252.226 1375.01 261.743 1376.08 271.549 1377.94 281.286 1377.27 291.242 1377.13 293.292 1376.52 294.141 1374.62 294.891 1370.74 296.431 1366.84 298.26 1362.88 299.3 1357.2 300.799 1351.6 302.549 1345.94 304.078 1342.25 305.078 1338.65 306.387 1334.88 307.157 1331.95 307.757 1331.27 307.357 1330.85 304.428 1329.58 295.591 1327.73 286.784 1327.23 277.897 1326.78 269.98 1325.02 262.253 1324.75 254.326 1324.6 250.097 1324.43 245.689 1322.43 241.72 1321.64 240.151 1322.7 238.541 1322.2 236.922 1321.88 235.872 1321.4 235.022 1320.43 235.402 1317.17 236.682 1314.39 234.423 1311.32 234.413 1310.69 234.413 1309.98 234.103 1309.45 234.303 1306.27 235.482 1302.9 234.573 1299.69 235.332 1298.2 235.682 1296.88 236.182 1296.82 237.971 1296.72 240.58 1294.9 243.069 1296.44 245.809 1296.99 246.788 1296.31 247.928 1296.16 248.997 1295.25 255.495 1294.31 261.953 1294.35 268.581 1294.35 270.3 1293.23 272.699 1292.34 274.708 1291.26 277.128 1289.8 278.467 1287.1 279.107 1283.51 279.966 1279.97 280.846 1276.24 280.596ZM1308.34 161.208C1301.81 161.358 1298.91 163.508 1299.31 169.855 1299.52 173.094 1299.89 176.393 1299.53 179.592 1299.1 183.491 1298.84 187.329 1299.11 191.248 1299.31 194.137 1299.59 197.126 1299.11 199.945 1298.54 203.324 1298.72 206.582 1299.22 209.891 1299.59 212.32 1300.75 213.87 1303.48 213.57 1308.56 213.01 1313.59 213.87 1318.59 214.39 1320.61 214.6 1322.21 213.67 1323.97 213.37 1326.95 212.86 1324.49 210.291 1324.81 208.672 1325.05 207.442 1324.74 206.133 1325.17 204.903 1325.41 204.213 1325.29 203.523 1325.23 202.794 1324.81 197.446 1323.85 192.157 1323.29 186.829 1322.58 180.062 1322.07 173.274 1320.39 166.666 1320.16 165.757 1320.05 164.667 1318.88 163.987 1315.52 162.038 1311.93 161.298 1308.33 161.208Z" stroke="#FFFFFF" stroke-width="11.9958"/><path d="M1367.93 51.707C1367.43 58.7646 1368.38 67.0916 1368.62 75.4187 1368.83 82.896 1369.67 90.3734 1369.61 97.8808 1369.6 99.3203 1369.53 100.12 1367.74 100.3 1361.14 100.95 1354.64 102.369 1347.89 101.4 1344.81 100.96 1341.62 100.84 1338.46 100.65 1329.82 100.14 1321.24 98.8204 1312.58 98.6905 1311.86 98.6805 1311.13 98.5305 1310.41 98.5105 1301.27 98.3206 1292.12 98.2906 1283 97.8708 1279.75 97.7208 1276.52 97.3709 1273.26 97.5009 1269.09 97.6608 1264.91 98.0207 1260.74 97.8808 1256.1 97.7308 1251.44 97.4709 1246.85 96.5212 1244.64 96.0614 1244.96 95.1117 1245.96 93.7822 1249.8 88.694 1253.63 83.5358 1255.97 77.5979 1259.72 68.0813 1263.67 58.5846 1264.92 48.2683 1265.93 39.9412 1266.73 31.6141 1266.53 23.2171 1266.45 19.7783 1266.83 16.3695 1266.99 12.9507 1267.27 6.85287 1267.02 0.725037 1267.08-5.39279 1267.13-10.2711 1266.03-15.0194 1265.58-19.8377 1265.3-22.8067 1265.2-25.8056 1264.97-28.7945 1264.49-34.9724 1263.94-41.1402 1263.32-47.308 1263.18-48.6975 1263.76-50.137 1263.77-51.5565 1263.86-58.4441 1263.35-65.3117 1263.08-72.1892 1262.9-76.9775 1262.67-81.7658 1262.75-86.5442 1262.83-91.2825 1261.44-95.7709 1260.86-100.379 1260.11-106.247 1260.7-112.155 1260.53-118.033 1260.51-118.893 1260.94-119.153 1261.73-118.943 1265.63-117.893 1269.66-118.393 1273.61-118.123 1281.11-117.623 1288.49-116.803 1295.77-114.994 1307.37-112.105 1318.6-108.316 1329.37-102.908 1333.37-100.899 1337.31-98.7498 1341.15-96.5206 1344.11-94.8012 1346.79-92.4521 1349.74-90.5927 1351.5-89.4831 1351.48-87.5238 1350.92-86.2243 1349.42-82.7455 1349.75-79.0268 1349.01-75.4581 1347.48-68.1207 1345.04-61.0332 1343.68-53.6658 1342.63-48.0477 1341.67-42.4097 1340.58-36.8117 1339.46-31.0537 1337.62-25.4357 1336.01-19.7777 1331.88-5.29285 1328.7 9.42197 1325.23 24.0568 1324.95 25.2564 1325.08 26.316 1325.31 27.4956 1325.71 29.6348 1325.28 31.7341 1324.59 33.8434 1323.74 36.4225 1325.34 38.0719 1327.92 37.2222 1331.37 36.0926 1334.77 36.6324 1338.27 36.7223 1344.18 36.8723 1350.18 37.722 1356.09 36.0926 1357.81 35.6227 1359.67 35.3328 1361.56 36.5624 1362.61 37.2422 1364.38 36.9423 1365.81 36.8523 1367.44 36.7423 1368.04 37.2022 1367.98 38.9415 1367.85 42.7502 1367.94 46.5689 1367.94 51.687Z" stroke="#FFFFFF" stroke-width="11.9958"/></g></svg>