<svg width="875" height="488" xmlns="http://www.w3.org/2000/svg" xmlns:xlink="http://www.w3.org/1999/xlink" xml:space="preserve" overflow="hidden"><defs><clipPath id="clip0"><rect x="202" y="116" width="875" height="488"/></clipPath></defs><g clip-path="url(#clip0)" transform="translate(-202 -116)"><path d="M1077 587.291C1074.09 588.551 1071.15 587.381 1068.55 588.471 1068.32 588.571 1067.9 588.381 1067.75 588.521 1064.49 591.641 1060.79 589.921 1057.17 589.601 1051.76 589.121 1046.33 588.911 1040.89 588.961 1033.08 589.031 1025.26 588.811 1017.45 589.081 1010.43 589.321 1003.42 590.061 996.41 590.581 993.44 590.801 990.431 591.051 987.501 591.071 980.062 591.101 972.653 591.871 965.204 591.831 961.025 591.811 956.715 591.641 952.686 593.321 952.526 593.391 952.326 593.381 952.146 593.381 944.167 593.121 936.188 595.09 928.299 594.281 921.59 593.591 914.92 592.661 908.181 592.911 903.062 593.101 897.962 593.781 892.873 594.391 891.193 594.591 889.724 593.651 888.054 593.911 886.904 594.091 885.564 593.611 884.534 594.001 880.625 595.51 879.085 592.991 877.145 590.371 871.966 583.372 867.056 576.183 862.157 568.994 861.237 567.644 860.737 567.934 860.077 568.884 854.988 576.123 847.839 580.712 840.05 584.462 837.69 585.602 835.46 586.881 833.371 588.471 830.061 590.981 826.352 592.141 822.092 592.561 817.963 592.961 813.883 594.201 809.684 594.61 802.934 595.26 796.195 595.68 789.516 594.211 788.606 594.011 787.726 593.951 786.836 593.951 776.198 593.941 765.569 593.901 754.93 593.971 751.751 593.991 748.541 594.661 745.402 594.411 740.672 594.041 735.863 594.361 731.223 593.141 728.984 592.551 726.724 593.211 724.304 592.661 725.014 591.101 726.584 590.591 727.634 589.581 734.613 582.842 740.562 575.453 744.882 566.634 747.461 561.365 751.261 556.715 754.621 551.856 759.49 544.807 763.409 537.008 764.369 528.189 765.029 522.22 767.069 516.52 767.799 510.561 768.439 505.402 769.139 500.252 769.839 495.093 770.419 490.834 770.958 486.554 771.718 482.325 771.908 481.235 771.968 480.185 772.008 479.105 772.488 468.196 773.218 457.298 773.808 446.399 774.178 439.68 774.328 432.891 775.358 426.232 776.738 417.293 776.448 408.264 777.438 399.315 777.538 398.415 777.488 397.495 777.468 396.585 777.158 374.448 779.257 352.381 779.257 330.244 779.257 323.425 779.487 316.525 780.217 309.706 780.957 302.787 780.907 295.818 781.407 288.899 782.177 278.28 781.897 267.672 781.707 257.083 781.587 250.214 780.857 243.325 779.857 236.466 779.017 230.726 778.498 224.917 777.478 219.178 776.198 211.969 774.698 204.76 771.288 198.24 768.439 192.801 767.749 186.642 764.959 181.242 760.77 173.133 757.51 164.595 750.881 157.775 745.362 152.096 740.242 145.967 733.683 141.537 728.194 137.828 723.694 132.729 717.485 130.049 714.876 128.929 711.896 128.719 709.416 126.729 710.666 125.579 712.206 125.779 713.586 125.869 715.755 126.009 717.705 125.859 719.845 125.04 722.984 123.84 726.424 123.39 729.754 122.75 738.343 121.1 747.111 121.59 755.78 120.19 766.759 118.42 777.748 116.531 789.006 116.531 794.406 116.531 799.875 116.361 805.304 116.211 806.814 116.171 808.324 116.641 809.844 116.701 817.683 117.011 825.442 118.09 833.141 119.5 838.94 120.57 844.779 121.66 850.498 122.98 856.028 124.26 861.557 125.769 867.116 127.019 873.916 128.539 880.785 129.769 887.674 130.799 889.984 131.149 890.783 132.949 891.823 134.218 894.763 137.778 897.263 141.707 899.822 145.567 901.002 147.357 902.032 149.266 902.912 151.216 903.532 152.596 905.052 154.186 902.732 155.556 902.142 155.906 902.732 156.346 902.872 156.706 904.962 161.985 906.201 167.534 907.791 172.964 910.261 181.372 911.271 190.101 912.611 198.73 913.011 201.28 913.191 203.94 913.281 206.569 913.57 215.468 915.08 224.207 916.7 232.946 917.79 238.835 918.44 244.804 919.29 250.744 920 255.703 920.27 260.702 921.28 265.642 922.009 269.211 922.079 272.951 922.469 276.61 922.939 281.07 924.219 285.529 923.589 290.019 923.149 293.188 923.809 296.528 922.239 299.528 921.959 300.058 922.109 300.527 922.259 301.067 924.169 308.137 924.319 315.416 924.839 322.665 925.209 327.734 924.489 332.733 924.719 337.773 924.819 339.903 924.769 341.962 923.859 344.122 922.849 346.552 923.949 349.301 924.369 351.861 924.829 354.671 924.669 357.37 924.419 360.17 924.079 364.049 924.179 367.969 924.159 371.869 924.139 375.868 924.069 379.867 924.229 383.867 924.439 389.326 923.079 394.566 922.359 399.905 921.99 402.665 921.56 405.434 921.51 408.204 921.39 415.383 921.54 422.562 921.45 429.741 921.38 434.961 920.79 440.13 919.98 445.299 919.58 447.859 919.76 450.519 920.09 453.148 920.56 456.898 920.89 460.717 919.83 464.447 918.64 468.646 919.16 473.066 918.16 477.255 916.81 482.885 917.01 488.784 915.16 494.323 914.85 495.233 914.76 496.353 914.98 497.273 915.74 500.442 916.3 503.612 916.05 506.892 916.03 507.201 916.19 507.671 916.42 507.841 920.75 511.001 923.669 515.57 928.019 518.82 932.898 522.47 938.597 524.499 943.497 527.959 945.327 529.259 947.346 530.339 948.796 532.098 951.116 534.908 954.005 536.748 957.555 537.498 961.964 538.428 965.364 541.357 969.154 543.457 973.453 545.837 977.093 549.526 981.532 551.486 988.131 554.406 994.21 558.435 1001.21 560.495 1009.08 562.815 1016.63 566.004 1024.18 569.234 1032.86 572.943 1041.58 576.553 1051.05 578.263 1059.55 579.802 1068.03 582.002 1075.69 586.372 1076.06 586.581 1076.41 586.852 1077.02 587.271ZM872.466 326.564C872.466 318.145 871.726 309.766 871.416 301.377 871.196 295.418 870.746 289.459 870.676 283.48 870.616 278.36 870.406 273.171 869.526 268.142 868.046 259.663 868.186 251.104 867.436 242.595 866.966 237.235 866.336 231.876 865.547 226.547 864.597 220.168 863.387 213.838 862.437 207.449 861.947 204.16 862.137 200.86 860.137 197.51 855.828 190.291 849.849 185.732 842.329 182.532 839.81 181.462 837.37 180.723 834.77 181.142 832.321 181.542 829.851 182.062 827.411 182.452 824.472 182.922 824.772 184.522 825.112 186.492 825.972 191.501 826.711 196.541 827.691 201.53 828.871 207.579 828.651 213.728 829.201 219.818 829.931 227.827 830.261 235.886 830.321 243.925 830.381 252.074 830.401 260.213 830.001 268.382 829.571 276.95 829.701 285.579 830.281 294.208 831.001 304.967 830.071 315.786 830.841 326.584 831.351 333.773 831.331 340.992 831.851 348.201 832.541 357.73 833.161 367.309 832.121 376.938 831.141 386.077 830.691 395.296 830.471 404.494 830.331 410.644 829.281 416.673 828.641 422.742 827.761 430.991 826.002 439.15 826.571 447.519 827.011 453.978 824.592 460.067 824.282 466.457 823.962 473.096 823.082 479.645 823.702 486.384 824.612 496.163 824.692 506.012 825.372 515.82 825.682 520.23 827.731 524.339 827.191 528.829 827.131 529.319 827.511 529.929 828.111 530.009 828.741 530.099 829.231 529.589 829.221 529.069 829.221 527.699 830.401 527.449 831.071 526.679 833.031 524.439 835.71 523.399 838.08 521.82 843.909 517.95 848.379 512.531 852.698 507.052 853.978 505.422 854.078 503.712 853.468 501.732 852.438 498.403 850.299 495.373 850.309 491.813 850.309 489.524 848.209 488.574 847.859 486.654 845.919 476.135 842.529 465.927 841.07 455.288 840.89 454.018 840.27 452.588 841.29 451.728 842.349 450.839 842.889 452.758 843.919 452.858 844.069 452.878 844.209 453.058 844.359 453.168 847.669 455.648 852.268 456.098 854.798 459.837 855.318 460.597 856.348 460.567 856.998 460.057 857.938 459.318 858.438 459.737 859.017 460.427 859.997 461.617 861.097 462.727 861.967 463.987 862.687 465.037 863.317 466.447 864.697 466.197 866.136 465.937 867.016 464.747 867.686 463.267 869.976 458.198 869.946 452.638 870.966 447.349 871.396 445.139 871.416 442.3 871.096 439.77 870.776 437.19 870.176 434.651 870.196 432.031 870.236 427.382 870.056 422.732 870.236 418.083 870.676 406.904 871.156 395.725 871.636 384.557 872.466 365.249 871.466 345.882 872.476 326.554Z" stroke="#FFFFFF" stroke-width="5.99925"/><path d="M324.795 201.69C324.465 204.39 325.484 207.349 326.134 210.339 326.784 213.368 327.134 216.448 327.154 219.488 327.274 235.486 327.484 251.494 327.104 267.482 326.484 293.648 325.814 319.805 325.984 345.982 326.034 354.431 326.234 362.87 325.984 371.329 325.664 382.017 324.715 392.676 324.215 403.345 323.735 413.373 322.355 423.322 321.735 433.341 321.155 442.71 319.995 452.048 318.965 461.387 316.896 480.265 316.316 499.193 316.666 518.17 316.806 525.959 316.986 533.708 318.795 541.387 319.895 546.067 318.655 550.906 317.865 555.585 317.126 560.015 316.506 564.474 316.196 568.914 315.626 577.153 315.336 585.392 312.866 593.371 312.306 595.19 311.666 596.88 310.116 598.12 309.396 598.7 308.457 599.11 308.847 600.48 309.217 601.79 308.007 601.62 307.267 601.56 304.207 601.32 301.088 601.31 298.098 600.9 294.688 600.43 291.239 600.31 287.879 600.17 282.87 599.95 277.88 598.71 272.761 599.78 270.161 600.32 267.372 600.09 264.642 599.62 260.033 598.82 255.443 599.63 251.014 600.81 248.594 601.45 247.854 600.21 247.804 598.61 247.604 592.471 246.384 586.352 248.144 580.162 249.154 576.593 249.154 572.733 249.614 569.004 250.154 564.574 250.624 560.145 251.434 555.745 252.104 552.146 252.424 548.476 252.864 544.837 253.404 540.307 253.993 535.788 254.703 531.278 255.243 527.839 255.273 524.319 256.003 520.89 256.903 516.68 258.333 512.571 257.723 508.141 257.083 503.472 257.813 498.733 257.073 494.063 257.013 493.703 256.863 493.393 257.193 493.113 258.563 491.933 258.583 491.923 257.793 490.394 256.693 488.264 257.893 486.144 257.883 484.014 257.883 482.795 258.143 481.505 258.143 480.245 258.143 460.977 258.253 441.7 258.113 422.432 258.023 410.364 257.713 398.285 257.223 386.227 256.783 375.348 256.553 364.459 256.283 353.571 255.553 324.584 255.973 295.598 255.413 266.622 255.213 256.363 255.173 246.094 254.473 235.866 254.003 228.956 254.053 222.067 254.123 215.178 254.173 210.029 254.593 204.85 255.363 199.76 255.743 197.23 254.673 196.561 252.814 196.391 245.265 195.681 237.696 194.551 230.126 195.351 225.097 195.881 220.358 195.491 215.668 193.691 215.078 193.461 214.288 193.281 213.599 193.831 211.249 195.701 209.759 193.871 208.829 192.251 206.809 188.732 205.16 185.242 205.06 180.763 204.92 173.923 204.21 167.014 202.75 160.255 202.32 158.285 203.06 156.306 203.12 154.346 203.34 146.577 202.82 138.818 202.14 131.069 202 129.439 202.01 127.799 202 126.169 202 125.629 202.04 124.94 202.6 124.74 205.81 123.64 208.289 120.99 212.109 121.01 219.768 121.05 227.307 119.29 234.946 119.04 242.285 118.81 249.644 118.54 256.993 119.23 258.073 119.33 259.163 119.44 260.243 119.44 273.331 119.45 286.429 119.75 299.508 119.34 307.677 119.09 315.846 118.25 323.995 117.381 332.704 116.451 341.462 116.381 350.231 117.011 352.151 117.151 354.151 117.201 356.111 117.251 365.189 117.45 374.268 117.64 383.347 117.81 385.157 117.84 386.947 117.7 388.767 117.43 390.766 117.131 392.796 116.881 394.686 118.5 395.866 119.51 397.735 118.56 399.075 118.2 404.285 116.781 409.544 117.151 414.763 117.41 423.482 117.84 432.161 117.76 440.89 117.46 447.899 117.221 454.968 118.23 461.997 118.75 469.586 119.31 477.165 119.95 484.784 119.11 486.724 118.9 488.884 118.07 490.674 119.86 490.924 120.11 491.544 119.99 491.994 120.01 499.663 120.38 507.322 120.74 514.991 121.11 515.081 121.11 515.181 121.1 515.261 121.11 517.41 121.58 520.28 121.45 520.96 123.87 521.59 126.109 518.79 126.699 517.33 127.599 505.272 135.018 495.703 145.017 488.144 156.776 483.755 163.615 477.665 169.124 473.866 176.323 471.996 179.863 469.446 182.942 467.557 186.502 466.027 189.391 463.987 192.701 459.368 190.981 456.618 189.951 453.638 190.981 450.769 190.911 437.52 190.591 424.322 191.841 411.094 191.991 403.385 192.081 395.686 192.171 387.977 192.151 381.817 192.131 375.668 193.391 369.509 194.071 367.179 194.321 364.84 194.711 362.51 194.701 354.901 194.661 347.372 195.571 339.823 196.301 335.773 196.691 331.694 196.351 327.614 196.761 325.095 197.01 324.485 197.71 324.805 199.91 324.865 200.36 324.805 200.82 324.805 201.71Z" stroke="#FFFFFF" stroke-width="5.99925"/><path d="M523.17 597.15C518.57 597.32 514.241 597.35 509.921 597.66 499.083 598.46 488.324 599.5 477.665 601.82 472.566 602.929 467.267 602.969 461.987 602.38 457.688 601.9 453.168 601.21 449.069 602.729 444.28 604.509 439.74 602.839 435.091 602.769 434.281 602.759 433.441 602.549 432.651 602.659 426.772 603.509 420.892 602.709 415.023 602.599 408.944 602.479 402.885 602.959 396.826 603.159 393.646 603.259 390.486 603.139 387.377 602.609 384.027 602.04 380.848 603.209 377.578 603.379 374.138 603.559 370.789 603.689 367.339 603.329 363.91 602.979 360.37 603.319 356.901 603.649 352.511 604.059 348.192 603.409 343.862 603.099 339.933 602.819 336.033 602.04 332.104 601.58 328.414 601.15 326.844 599.91 326.244 596.98 326.114 596.36 326.214 595.97 326.424 595.49 329.454 588.761 330.234 581.322 332.914 574.473 333.663 572.553 332.674 570.564 332.884 568.474 334.013 557.315 336.653 546.437 338.263 535.378 338.653 532.698 339.073 529.969 338.973 527.289 338.583 516.56 339.933 505.922 340.383 495.233 340.903 482.675 342.692 470.226 344.092 457.738 344.802 451.359 345.002 444.879 344.962 438.46 344.842 420.652 345.462 402.855 345.722 385.057 345.892 373.168 346.182 361.28 346.022 349.391 345.832 335.163 345.082 320.955 344.322 306.747 343.932 299.368 343.282 291.989 343.282 284.569 343.302 263.452 341.712 242.365 342.142 221.227 342.212 217.948 341.802 214.568 341.682 211.229 341.632 209.759 342.182 209.469 343.552 209.389 348.402 209.089 353.241 209.609 358.07 209.399 367.429 208.989 376.778 208.499 386.057 206.869 391.286 205.949 396.676 206.019 401.995 205.609 416.563 204.48 431.151 204.21 445.749 203.84 450.349 203.73 454.968 203.6 459.788 203.39 458.708 207.239 457.668 210.909 456.648 214.568 455.188 219.778 454.918 225.197 454.178 230.516 453.358 236.386 452.518 242.255 451.699 248.124 450.929 253.653 450.359 259.213 449.679 264.752 449.539 265.912 449.269 267.052 449.049 268.282 447.749 267.752 447.239 264.982 445.169 266.952 445.099 267.022 444.609 266.692 444.34 266.502 436.57 260.842 428.432 255.943 418.843 253.913 415.033 253.103 414.933 253.193 414.753 256.883 413.843 275.151 413.103 293.428 412.744 311.716 412.734 312.256 412.674 312.806 412.664 313.346 412.454 324.045 412.284 334.753 412.034 345.452 411.924 350.471 411.634 355.401 412.294 360.51 412.823 364.629 411.024 369.089 410.834 373.518 410.714 376.398 413.153 377.348 413.963 379.418 414.013 379.548 414.463 379.588 414.723 379.578 418.993 379.378 423.342 379.588 427.512 378.818 431.481 378.088 435.221 379.508 439.09 379.128 440.28 379.018 440.46 380.147 440.4 381.097 439.91 389.086 441.75 396.895 442.2 404.824 442.57 411.364 443.4 417.903 443.71 424.462 443.79 426.122 443.59 426.882 441.51 426.572 438.76 426.162 436.021 427.042 433.101 426.662 428.112 426.002 423.012 425.592 417.933 425.942 417.173 425.992 416.053 425.552 415.803 426.602 415.383 428.371 414.713 429.621 412.694 429.831 411.884 429.911 412.554 430.541 412.604 430.871 413.573 437.14 412.863 443.5 413.733 449.769 414.933 458.468 414.233 467.156 413.643 475.815 412.933 486.214 412.424 496.603 412.624 507.021 412.754 513.741 413.013 520.45 413.123 527.169 413.143 528.549 413.473 529.079 414.943 529.049 420.003 528.939 424.952 528.519 430.001 527.689 436.261 526.659 442.41 524.539 448.889 524.819 449.839 524.859 450.829 524.419 451.759 524.089 455.948 522.63 458.508 523.439 460.737 527.169 464.057 532.708 466.727 538.598 470.616 543.837 478.395 554.326 486.254 564.764 495.303 574.173 500.612 579.692 507.032 583.992 513.261 588.451 516.72 590.931 520.76 592.791 523.17 597.13Z" stroke="#FFFFFF" stroke-width="5.99925"/><path d="M606.299 437.89C606.029 435.74 605.649 433.961 605.919 432.071 606.499 427.961 603.699 424.702 602.83 420.942 602.69 420.352 602.29 419.802 602.35 419.153 602.61 416.223 601.95 413.543 600.62 410.904 599.61 408.894 599.53 406.594 599.58 404.294 599.66 400.525 598.5 396.895 598.05 393.196 597.68 390.156 597.89 387.037 597.85 383.957 597.84 383.137 598.35 382.877 599.08 382.887 599.72 382.887 600.35 382.887 600.99 382.887 620.797 382.887 640.605 382.927 660.412 382.847 662.992 382.837 665.602 384.197 668.411 382.457 668.131 387.617 668.261 392.456 668.081 397.315 667.841 403.834 666.492 410.214 666.312 416.693 666.012 428.041 665.412 439.4 665.832 450.729 666.112 458.308 666.132 465.907 666.422 473.496 666.582 477.805 665.722 482.225 665.602 486.624 665.392 494.253 665.422 501.922 666.152 509.471 666.902 517.2 667.161 524.969 668.231 532.678 668.881 537.388 668.911 542.267 670.101 546.846 671.401 551.846 671.111 557.035 672.571 561.955 672.761 562.605 672.691 563.154 672.491 563.784 671.921 565.584 672.191 567.254 673.051 568.984 674.131 571.143 674.481 573.513 673.621 575.863 673.181 577.063 674.131 578.043 673.871 579.232 673.151 582.532 670.581 585.042 667.031 585.762 658.213 587.561 649.294 588.421 640.335 589.081 634.486 589.511 628.636 590.011 622.777 590.161 621.997 590.181 621.177 590.411 620.467 590.741 618.888 591.481 617.508 591.971 615.788 590.741 613.928 589.411 611.688 590.511 609.779 590.821 602.81 591.941 604.559 591.161 602.43 585.522 601.31 582.562 601.01 579.312 600.34 576.213 599.84 573.923 598.54 571.703 597.95 569.294 597.08 565.694 596.74 562.025 596.22 558.375 595.601 554.046 592.951 550.446 591.681 546.317 589.331 538.608 586.452 531.118 585.932 522.88 585.512 516.29 585.572 509.521 583.762 503.132 582.302 498.003 582.092 492.163 577.363 488.374 576.983 488.064 576.553 487.354 576.653 486.964 578.083 481.365 574.393 477.345 572.363 472.826 570.744 469.196 567.664 466.397 566.414 462.557 565.814 460.707 565.344 458.798 563.964 457.348 563.265 456.618 562.375 456.038 561.285 456.398 560.065 456.798 560.535 457.908 560.505 458.738 560.455 460.067 560.505 461.297 561.275 462.587 562.305 464.327 562.935 466.357 562.305 468.496 561.795 470.216 562.875 471.656 563.285 473.166 564.744 478.615 563.995 484.254 565.004 489.734 566.534 498.043 566.924 506.482 567.724 514.871 568.404 521.99 568.304 529.219 567.634 536.378 567.034 542.807 567.044 549.166 567.714 555.625 568.304 561.255 568.824 566.954 569.964 572.423 570.604 575.513 571.224 578.533 571.444 581.682 571.634 584.432 570.134 586.911 570.474 589.681 570.634 590.931 569.424 590.741 568.684 590.661 561.215 589.811 553.686 589.151 546.747 585.982 540.137 582.962 533.288 580.222 527.189 576.353 519.17 571.263 510.721 566.474 504.372 559.245 495.593 549.236 487.174 538.938 479.775 527.779 476.306 522.55 472.926 517.28 469.866 511.821 467.407 507.431 466.487 502.462 465.597 497.573 465.097 494.833 464.477 492.123 463.697 489.484 462.247 484.564 462.127 479.445 461.167 474.456 459.688 466.757 459.938 458.888 459.068 451.129 458.788 448.639 458.488 446.099 458.468 443.589 458.408 432.931 457.728 422.282 456.638 411.703 455.928 404.824 457.288 398.285 457.868 391.596 458.128 388.586 457.458 385.657 457.368 382.687 457.258 379.498 458.398 378.478 461.437 379.118 474.146 381.787 487.014 382.377 499.933 382.337 515.631 382.287 531.299 383.677 547.007 383.517 549.406 383.497 551.996 383.727 554.176 384.637 556.125 385.457 557.935 387.117 559.245 388.836 563.405 394.276 568.944 398.205 574.093 402.495 581.222 408.434 587.891 414.643 592.181 423.032 593.971 426.522 596.73 429.421 598.41 432.981 598.56 433.301 598.81 433.801 599.05 433.821 602 434.071 603.54 436.82 606.309 437.9Z" stroke="#FFFFFF" stroke-width="5.99925"/><path d="M689.639 353.291C691.558 350.731 689.679 348.341 689.689 345.912 689.729 339.323 689.289 332.733 690.879 326.194 691.568 323.345 690.839 320.335 691.229 317.305 692.508 307.457 693.768 297.558 693.168 287.569 693.088 286.319 693.448 285.049 693.588 283.79 693.728 282.44 694.018 281.08 692.878 279.94 692.148 279.21 692.428 278.22 692.408 277.34 692.288 272.441 692.448 267.542 692.948 262.662 693.128 260.862 692.328 260.243 690.599 259.773 685.369 258.353 680.2 259.433 675.01 259.823 673.681 259.923 672.801 260.582 672.271 262.032 670.911 265.782 670.191 269.581 669.791 273.561 668.461 286.639 667.991 299.738 668.171 312.866 668.191 314.146 667.801 314.946 666.442 315.146 665.922 315.226 665.302 315.386 664.952 315.726 657.723 322.865 648.234 325.514 639.005 328.354 629.486 331.284 619.867 334.093 609.909 335.313 603.799 336.063 597.68 336.773 591.561 337.473 590.131 337.633 588.791 337.263 587.812 336.213 582.922 330.934 579.183 324.944 577.223 317.975 575.273 311.056 574.693 304.047 575.553 296.838 576.633 287.739 576.083 278.56 576.263 269.411 576.503 257.463 576.623 245.504 577.433 233.586 578.163 222.807 580.072 212.109 580.872 201.34 581.542 192.361 583.862 183.832 586.022 175.193 586.822 171.984 588.251 170.994 590.931 169.824 593.471 168.724 595.531 166.504 598.1 165.184 603 162.665 608.119 161.355 613.658 160.705 621.187 159.835 628.666 160.465 636.135 160.555 643.115 160.635 650.074 159.775 657.033 160.315 661.992 160.695 667.002 160.475 671.901 161.045 674.331 161.325 676.86 162.515 679.39 163.155 680.39 163.415 680.1 164.175 679.71 164.895 676.7 170.444 675.88 176.433 675.35 182.672 674.861 188.552 674.911 194.471 674.061 200.31 673.141 206.659 672.471 213.008 672.421 219.428 672.361 227.517 674.921 229.586 682.45 231.226 683.509 231.456 684.459 231.466 685.279 232.496 686.149 233.586 692.868 233.276 693.578 232.196 694.368 230.996 694.308 229.396 693.808 228.247 692.528 225.317 692.638 222.097 692.488 219.198 691.988 209.419 691.918 199.58 693.188 189.821 694.138 182.502 696.558 175.553 698.738 168.534 699.867 164.905 699.837 160.885 701.767 157.465 703.887 153.706 705.447 149.566 708.826 146.627 709.426 146.107 709.866 145.457 710.916 145.877 715.955 147.917 721.285 149.336 725.014 153.846 726.414 155.546 728.654 156.536 730.224 158.125 740.092 168.154 748.321 179.293 752.981 192.751 753.831 195.211 754.74 197.62 756.12 199.83 760.09 206.169 761.04 213.368 762.22 220.528 762.899 224.667 762.27 228.856 762.69 232.936 763.679 242.565 763.189 252.294 765.299 261.862 766.259 266.232 765.929 270.901 765.999 275.441 766.099 281.8 766.299 288.179 765.959 294.518 765.429 304.547 764.959 314.556 764.809 324.604 764.769 327.274 764.589 330.014 764.319 332.693 764.189 333.943 765.629 335.813 762.909 336.553 762.28 336.723 762.33 339.703 762.22 341.402 761.98 344.912 761.48 348.391 761.61 351.931 761.7 354.311 760.98 354.611 759 353.371 754.701 350.671 750.371 348.002 746.102 345.262 741.172 342.102 735.443 341.922 729.944 340.842 724.914 339.853 719.975 340.292 714.966 341.342 707.896 342.822 701.327 345.452 695.138 349.081 693.218 350.211 691.469 351.631 689.639 353.271Z" stroke="#FFFFFF" stroke-width="5.99925"/><path d="M670.571 327.194C670.571 336.563 670.391 345.552 670.641 354.541 670.781 359.68 670.701 364.759 670.081 369.859 669.901 371.339 669.431 371.819 668.031 372.089 664.362 372.798 660.742 373.298 656.963 372.758 654.183 372.358 651.484 373.928 648.614 373.618 638.235 372.468 627.786 374.298 617.418 373.038 608.639 371.969 599.79 373.298 591.071 372.368 584.222 371.639 577.503 372.458 570.754 372.658 559.145 372.998 547.597 372.108 536.028 371.849 526.639 371.639 517.27 370.519 507.852 370.269 499.723 370.049 491.604 369.409 483.505 368.639 478.795 368.189 474.126 367.209 469.476 366.299 466.537 365.719 463.527 366.249 460.608 365.479 459.668 365.229 458.668 365.319 458.988 364.019 459.528 361.87 458.608 359.86 458.548 357.85 458.088 343.212 455.838 328.614 456.878 313.966 457.558 304.387 458.018 294.778 459.348 285.219 460.608 276.171 462.247 267.192 463.377 258.133 464.177 251.754 465.717 245.474 466.457 239.095 467.147 233.136 467.767 227.147 469.626 221.467 472.436 212.908 475.446 204.41 478.875 196.051 480.995 190.881 483.135 185.632 486.514 181.442 490.874 176.043 493.823 169.724 498.543 164.615 502.472 160.355 506.642 156.346 511.141 152.756 516.01 148.857 520.71 144.627 526.589 142.137 536.638 137.888 546.857 134.168 557.595 131.979 567.684 129.919 577.893 129.329 588.141 128.579 603.55 127.439 618.938 127.749 634.336 127.719 641.525 127.709 648.634 129.049 655.693 130.439 669.021 133.059 681.88 137.508 695.068 140.658 696.988 141.118 697.688 141.577 696.098 143.317 695.448 144.027 695.208 145.097 694.648 145.917 693.578 147.497 692.208 148.367 690.139 148.467 678.24 149.047 666.322 148.487 654.443 149.037 635.416 149.906 616.368 150.826 597.41 152.866 593.171 153.326 588.911 153.726 584.662 153.976 582.542 154.106 580.782 154.756 579.243 156.166 578.913 156.476 578.553 156.796 578.153 156.966 572.143 159.475 569.464 164.725 567.774 170.404 566.594 174.343 566.294 178.553 565.814 182.672 565.434 185.932 563.905 188.862 563.515 192.121 562.745 198.51 563.145 204.979 561.935 211.339 560.895 216.838 559.985 222.367 559.705 227.967 559.635 229.326 559.425 230.676 559.405 232.026 559.215 244.115 559.535 256.193 559.945 268.272 560.215 276.261 558.855 284.14 558.325 292.079 557.955 297.688 558.515 303.367 558.145 308.976 557.445 319.705 560.815 329.434 564.874 339.053 565.014 339.383 565.294 339.693 565.304 340.023 565.504 344.692 569.134 344.782 572.363 345.182 574.183 345.412 575.923 345.762 577.653 346.342 585.472 348.931 593.371 347.692 601.06 346.082 618.208 342.512 635.396 338.983 652.093 333.573 653.383 333.153 654.653 332.593 655.813 331.904 659.003 329.994 662.342 328.784 666.132 328.994 667.631 329.074 668.821 328.064 670.531 327.214Z" stroke="#FFFFFF" stroke-width="5.99925"/><path d="M1074.16 241.185C1074.16 248.274 1074.4 255.373 1074.1 262.452 1073.64 273.301 1073.25 284.14 1072.92 294.988 1072.81 298.518 1072.7 301.997 1072.96 305.517 1073.1 307.467 1073.19 309.416 1072.66 311.426 1072.28 312.856 1072.11 314.556 1073.24 316.106 1074.13 317.325 1071.74 321.795 1070.15 322.315 1060.44 325.524 1050.39 327.044 1040.3 328.314 1032.94 329.244 1025.81 331.224 1018.59 332.843 1012.58 334.193 1006.39 334.873 1000.23 333.323 998.97 333.003 997.92 333.923 996.79 333.753 993.68 333.293 990.571 334.573 987.311 332.443 985.492 331.254 982.112 331.144 979.402 331.624 971.773 332.983 964.704 330.344 957.565 328.514 954.205 327.654 950.966 326.214 947.796 324.774 945.087 323.545 944.057 320.585 942.237 318.455 938.317 313.856 937.747 308.077 937.268 302.337 936.568 293.838 935.618 285.349 935.198 276.83 934.918 271.241 934.448 265.682 933.388 260.223 931.928 252.723 932.008 245.194 931.678 237.635 931.488 233.226 930.078 228.856 929.029 224.517 927.909 219.878 927.589 215.138 926.989 210.439 925.999 202.62 924.259 194.951 923.009 187.192 922 180.923 920.19 174.853 918.89 168.664 916.94 159.355 912.801 150.746 908.551 142.257 907.261 139.688 905.942 137.128 904.632 134.568 903.502 132.369 903.942 131.049 906.261 130.549 910.371 129.649 914.46 128.849 918.72 128.609 923.879 128.319 929.029 128.289 934.178 128.179 936.898 128.119 939.517 128.959 942.267 128.789 945.147 128.619 947.976 128.259 950.806 127.759 952.216 127.509 953.805 127.329 955.135 127.709 961.285 129.479 967.544 128.459 973.743 128.729 974.103 128.749 974.473 128.729 974.833 128.729 977.443 128.729 979.322 129.019 980.252 132.369 982.132 139.108 984.992 145.577 987.141 152.256 988.891 157.715 989.591 163.395 990.251 169.104 991.241 177.593 991.581 186.122 992.711 194.601 993.5 200.45 994.39 206.309 994.61 212.259 994.85 218.778 995.54 225.347 996.82 231.736 997.83 236.775 999.23 237.775 1004.53 238.375 1007 238.655 1009.47 239.095 1011.88 239.735 1013.52 240.165 1014.19 240.065 1014.18 238.155 1014.12 229.426 1014.66 220.668 1014.03 211.989 1013.23 201.04 1013.11 190.031 1011.41 179.163 1010.26 171.844 1009.39 164.485 1007.8 157.215 1007.24 154.656 1007.13 151.856 1007.12 149.186 1007.12 141.228 1005.75 133.458 1004.25 125.709 1003.92 124.01 1004.29 123.3 1005.79 123.33 1008.68 123.38 1011.57 122.95 1014.45 123.68 1016.76 124.26 1019.11 123.36 1021.42 123.34 1032.92 123.23 1044.42 123.27 1055.92 123.34 1057.92 123.35 1059.39 123.85 1060.23 126.359 1063.08 134.878 1064.35 143.697 1066.03 152.456 1067.9 162.225 1068.39 172.164 1070.26 181.932 1071.79 189.941 1072.57 198.05 1073.2 206.209 1074.1 217.888 1074.05 229.536 1074.13 241.205Z" stroke="#FFFFFF" stroke-width="5.99925"/><path d="M1074.69 496.653C1074.14 505.632 1074.94 514.611 1075.4 523.549 1075.95 534.398 1076.42 545.237 1076.33 556.095 1076.31 559.165 1075.79 562.195 1075.7 565.264 1075.61 568.374 1073.11 569.584 1069.78 569.084 1066.66 568.614 1063.88 567.174 1060.83 566.464 1053.63 564.764 1046.55 562.585 1039.8 559.365 1027.79 553.636 1015.71 548.016 1003.26 543.297 996.45 540.707 989.971 537.758 983.882 533.688 979.932 531.049 975.263 529.449 970.853 527.529 965.764 525.319 961.674 521.83 957.435 518.33 951.256 513.231 944.487 508.841 937.977 504.142 935.488 502.352 934.068 499.902 933.978 496.863 933.858 492.803 934.658 488.854 935.268 484.844 935.988 480.155 936.978 475.365 936.308 470.426 935.708 465.987 936.228 461.447 937.028 456.968 937.468 454.498 937.188 451.908 937.288 449.369 937.747 437.44 938.157 425.512 938.607 413.593 938.967 404.244 939.747 394.826 941.377 385.477 942.637 378.248 941.547 370.619 941.687 363.17 941.747 359.7 941.257 356.35 940.457 353.021 939.777 350.161 939.927 347.342 940.347 344.452 940.667 342.222 940.497 339.933 940.567 337.673 940.587 336.903 940.317 336.023 941.627 335.933 942.457 335.873 943.197 335.143 943.957 336.303 946.336 339.933 950.216 340.193 954.055 341.002 959.865 342.232 965.834 343.002 971.353 345.372 972.893 346.032 974.423 345.932 975.863 345.742 982.242 344.882 988.581 345.462 994.97 345.642 999.03 345.752 1003.27 345.662 1007.32 344.672 1011.71 343.602 1016.21 343.592 1020.64 343.572 1024.38 343.562 1027.92 342.722 1031.56 342.322 1039.65 341.432 1047.38 338.603 1055.43 337.743 1057.6 337.513 1060.05 336.553 1062.43 337.543 1063.27 337.893 1064.37 337.803 1065.28 337.143 1066.69 336.113 1068.39 336.093 1070.03 336.043 1071.63 335.993 1072.5 336.723 1072.49 338.513 1072.45 344.682 1073.27 350.971 1072.35 357 1071.12 364.979 1073.32 372.638 1073.17 380.477 1073.1 384.227 1071.08 386.797 1069.2 389.556 1068.8 390.146 1067.95 390.546 1067.06 390.526 1060.26 390.346 1053.54 392.196 1046.77 391.546 1040.58 390.946 1034.39 390.916 1028.31 391.746 1022.59 392.526 1016.85 392.496 1011.14 393.036 1008.52 393.286 1007.49 394.526 1007.25 396.885 1007.21 397.245 1007.13 397.595 1007.1 397.955 1006.78 401.668 1008.47 403.542 1012.16 403.575 1013.44 403.575 1014.87 403.485 1015.72 404.444 1016.85 405.724 1017.28 404.084 1018.12 404.074 1020.14 404.054 1022.06 404.694 1024.04 404.704 1027.29 404.734 1030.53 404.504 1033.78 404.234 1039.54 403.754 1041.71 406.634 1041.92 411.844 1042.17 418.123 1042.07 424.442 1041.38 430.711 1041.22 432.171 1040.38 433.571 1039.75 434.951 1039.41 435.68 1038.7 435.92 1037.9 435.61 1036.33 435.001 1034.65 435.121 1033.05 435.281 1027.6 435.81 1022.26 434.221 1016.8 434.591 1013.34 434.821 1010.35 436.62 1006.95 437.03 1005.61 437.19 1005.35 439.24 1005.7 439.89 1007.39 443.05 1005.49 445.809 1005.11 448.719 1004.98 449.719 1004.86 450.679 1005.06 451.668 1005.42 453.508 1005.85 454.268 1008.38 454.008 1012.5 453.578 1016.76 453.978 1020.98 454.428 1028.08 455.198 1034.49 458.368 1041.43 459.497 1044.88 460.057 1048.38 460.527 1051.83 460.717 1055.37 460.907 1058.82 461.467 1062.26 462.047 1065.67 462.617 1067.94 465.687 1071.58 466.477 1074.34 467.067 1074.01 470.886 1074.09 473.326 1074.34 481.105 1075.29 488.874 1074.72 496.673Z" stroke="#FFFFFF" stroke-width="5.99925"/><path d="M684.839 397.175C693.328 406.694 703.047 413.773 715.276 415.953 728.124 418.233 739.982 415.173 749.981 406.284 752.421 404.114 755.46 402.585 756.95 399.415 757.39 398.485 758.53 398.555 759.42 398.745 760.52 398.985 760.98 399.835 761.1 400.935 762.07 409.914 762.01 418.933 761.53 427.901 761.09 436.06 759.79 444.159 759.32 452.338 759.07 456.768 759.29 461.207 758.88 465.607 758.12 473.836 758.1 482.105 756.95 490.344 755.74 498.992 753.331 507.261 751.041 515.58 749.701 520.43 747.421 525.059 745.042 529.569 744.002 531.538 742.872 533.548 742.352 535.678 741.122 540.687 738.503 544.847 735.583 549.006 733.213 552.376 731.313 556.095 729.484 559.805 727.734 563.334 725.194 565.814 721.715 567.614 715.765 570.703 709.986 574.173 703.677 576.473 699.697 577.923 695.548 579.102 691.169 578.103 690.619 577.973 689.959 578.323 689.359 578.503 688.569 578.732 688.109 578.723 687.779 577.713 686.829 574.823 686.659 571.793 686.049 568.844 685.209 564.774 684.119 560.745 683.819 556.535 683.649 554.186 683.439 551.826 683.529 549.496 683.869 540.507 682.6 531.598 681.76 522.72 681.12 515.97 680.91 509.231 680.37 502.492 679.78 495.093 681.02 487.754 680.89 480.395 680.73 470.726 679.82 461.047 679.97 451.388 680.09 443.419 681.29 435.471 682 427.522 682.38 423.232 682.73 418.943 683.13 414.653 683.669 408.904 684.249 403.145 684.839 397.205Z" stroke="#FFFFFF" stroke-width="5.99925"/><path d="M725.154 350.041C729.884 349.791 736.143 351.891 741.392 355.551 746.612 359.19 749.741 364.869 751.311 371.229 752.051 374.208 752.761 377.178 752.351 380.237 751.511 386.637 749.381 392.066 743.162 395.546 739.042 397.855 735.213 400.475 730.514 401.615 724.124 403.165 717.765 404.074 711.466 401.635 705.187 399.205 700.487 394.766 696.538 389.376 694.558 386.677 692.778 383.817 691.828 380.747 691.089 378.368 691.588 375.508 691.938 372.918 692.568 368.209 694.788 363.99 697.388 360.2 699.927 356.5 703.867 354.041 708.106 352.461 712.936 350.661 718.035 350.201 725.154 350.041Z" stroke="#FFFFFF" stroke-width="5.99925"/></g></svg>