<?xml version="1.0" encoding="UTF-8"?><svg id="Layer_2" xmlns="http://www.w3.org/2000/svg" viewBox="0 0 875.11 487.64"><g id="Layer_1-2"><path d="m875.11,471.14c-2.91,1.26-5.85.09-8.45,1.18-.23.1-.65-.09-.8.05-3.26,3.12-6.96,1.4-10.58,1.08-5.41-.48-10.84-.69-16.28-.64-7.82.07-15.64-.15-23.45.12-7.02.24-14.03.98-21.04,1.5-2.97.22-5.98.47-8.91.49-7.44.03-14.85.8-22.3.76-4.18-.02-8.49-.19-12.52,1.49-.16.07-.36.06-.54.06-7.98-.26-15.96,1.71-23.85.9-6.71-.69-13.38-1.62-20.12-1.37-5.12.19-10.22.87-15.31,1.48-1.68.2-3.15-.74-4.82-.48-1.15.18-2.49-.3-3.52.09-3.91,1.51-5.45-1.01-7.39-3.63-5.18-7-10.09-14.19-14.99-21.38-.92-1.35-1.42-1.06-2.08-.11-5.09,7.24-12.24,11.83-20.03,15.58-2.36,1.14-4.59,2.42-6.68,4.01-3.31,2.51-7.02,3.67-11.28,4.09-4.13.4-8.21,1.64-12.41,2.05-6.75.65-13.49,1.07-20.17-.4-.91-.2-1.79-.26-2.68-.26-10.64-.01-21.27-.05-31.91.02-3.18.02-6.39.69-9.53.44-4.73-.37-9.54-.05-14.18-1.27-2.24-.59-4.5.07-6.92-.48.71-1.56,2.28-2.07,3.33-3.08,6.98-6.74,12.93-14.13,17.25-22.95,2.58-5.27,6.38-9.92,9.74-14.78,4.87-7.05,8.79-14.85,9.75-23.67.66-5.97,2.7-11.67,3.43-17.63.64-5.16,1.34-10.31,2.04-15.47.58-4.26,1.12-8.54,1.88-12.77.19-1.09.25-2.14.29-3.22.48-10.91,1.21-21.81,1.8-32.71.37-6.72.52-13.51,1.55-20.17,1.38-8.94,1.09-17.97,2.08-26.92.1-.9.05-1.82.03-2.73-.31-22.14,1.79-44.21,1.79-66.35,0-6.82.23-13.72.96-20.54.74-6.92.69-13.89,1.19-20.81.77-10.62.49-21.23.3-31.82-.12-6.87-.85-13.76-1.85-20.62-.84-5.74-1.36-11.55-2.38-17.29-1.28-7.21-2.78-14.42-6.19-20.94-2.85-5.44-3.54-11.6-6.33-17-4.19-8.11-7.45-16.65-14.08-23.47-5.52-5.68-10.64-11.81-17.2-16.24-5.49-3.71-9.99-8.81-16.2-11.49-2.61-1.12-5.59-1.33-8.07-3.32,1.25-1.15,2.79-.95,4.17-.86,2.17.14,4.12-.01,6.26-.83,3.14-1.2,6.58-1.65,9.91-2.29,8.59-1.65,17.36-1.16,26.03-2.56,10.98-1.77,21.97-3.66,33.23-3.66,5.4,0,10.87-.17,16.3-.32,1.51-.04,3.02.43,4.54.49,7.84.31,15.6,1.39,23.3,2.8,5.8,1.07,11.64,2.16,17.36,3.48,5.53,1.28,11.06,2.79,16.62,4.04,6.8,1.52,13.67,2.75,20.56,3.78,2.31.35,3.11,2.15,4.15,3.42,2.94,3.56,5.44,7.49,8,11.35,1.18,1.79,2.21,3.7,3.09,5.65.62,1.38,2.14,2.97-.18,4.34-.59.35,0,.79.14,1.15,2.09,5.28,3.33,10.83,4.92,16.26,2.47,8.41,3.48,17.14,4.82,25.77.4,2.55.58,5.21.67,7.84.29,8.9,1.8,17.64,3.42,26.38,1.09,5.89,1.74,11.86,2.59,17.8.71,4.96.98,9.96,1.99,14.9.73,3.57.8,7.31,1.19,10.97.47,4.46,1.75,8.92,1.12,13.41-.44,3.17.22,6.51-1.35,9.51-.28.53-.13,1,.02,1.54,1.91,7.07,2.06,14.35,2.58,21.6.37,5.07-.35,10.07-.12,15.11.1,2.13.05,4.19-.86,6.35-1.01,2.43.09,5.18.51,7.74.46,2.81.3,5.51.05,8.31-.34,3.88-.24,7.8-.26,11.7-.02,4-.09,8,.07,12,.21,5.46-1.15,10.7-1.87,16.04-.37,2.76-.8,5.53-.85,8.3-.12,7.18.03,14.36-.06,21.54-.07,5.22-.66,10.39-1.47,15.56-.4,2.56-.22,5.22.11,7.85.47,3.75.8,7.57-.26,11.3-1.19,4.2-.67,8.62-1.67,12.81-1.35,5.63-1.15,11.53-3,17.07-.31.91-.4,2.03-.18,2.95.76,3.17,1.32,6.34,1.07,9.62-.02.31.14.78.37.95,4.33,3.16,7.25,7.73,11.6,10.98,4.88,3.65,10.58,5.68,15.48,9.14,1.83,1.3,3.85,2.38,5.3,4.14,2.32,2.81,5.21,4.65,8.76,5.4,4.41.93,7.81,3.86,11.6,5.96,4.3,2.38,7.94,6.07,12.38,8.03,6.6,2.92,12.68,6.95,19.68,9.01,7.87,2.32,15.42,5.51,22.97,8.74,8.68,3.71,17.41,7.32,26.88,9.03,8.5,1.54,16.98,3.74,24.64,8.11.37.21.72.48,1.33.9Zm-204.56-260.76c0-8.42-.74-16.8-1.05-25.19-.22-5.96-.67-11.92-.74-17.9-.06-5.12-.27-10.31-1.15-15.34-1.48-8.48-1.34-17.04-2.09-25.55-.47-5.36-1.1-10.72-1.89-16.05-.95-6.38-2.16-12.71-3.11-19.1-.49-3.29-.3-6.59-2.3-9.94-4.31-7.22-10.29-11.78-17.81-14.98-2.52-1.07-4.96-1.81-7.56-1.39-2.45.4-4.92.92-7.36,1.31-2.94.47-2.64,2.07-2.3,4.04.86,5.01,1.6,10.05,2.58,15.04,1.18,6.05.96,12.2,1.51,18.29.73,8.01,1.06,16.07,1.12,24.11.06,8.15.08,16.29-.32,24.46-.43,8.57-.3,17.2.28,25.83.72,10.76-.21,21.58.56,32.38.51,7.19.49,14.41,1.01,21.62.69,9.53,1.31,19.11.27,28.74-.98,9.14-1.43,18.36-1.65,27.56-.14,6.15-1.19,12.18-1.83,18.25-.88,8.25-2.64,16.41-2.07,24.78.44,6.46-1.98,12.55-2.29,18.94-.32,6.64-1.2,13.19-.58,19.93.91,9.78.99,19.63,1.67,29.44.31,4.41,2.36,8.52,1.82,13.01-.06.49.32,1.1.92,1.18.63.09,1.12-.42,1.11-.94,0-1.37,1.18-1.62,1.85-2.39,1.96-2.24,4.64-3.28,7.01-4.86,5.83-3.87,10.3-9.29,14.62-14.77,1.28-1.63,1.38-3.34.77-5.32-1.03-3.33-3.17-6.36-3.16-9.92,0-2.29-2.1-3.24-2.45-5.16-1.94-10.52-5.33-20.73-6.79-31.37-.18-1.27-.8-2.7.22-3.56,1.06-.89,1.6,1.03,2.63,1.13.15.02.29.2.44.31,3.31,2.48,7.91,2.93,10.44,6.67.52.76,1.55.73,2.2.22.94-.74,1.44-.32,2.02.37.98,1.19,2.08,2.3,2.95,3.56.72,1.05,1.35,2.46,2.73,2.21,1.44-.26,2.32-1.45,2.99-2.93,2.29-5.07,2.26-10.63,3.28-15.92.43-2.21.45-5.05.13-7.58-.32-2.58-.92-5.12-.9-7.74.04-4.65-.14-9.3.04-13.95.44-11.18.92-22.36,1.4-33.53.83-19.31-.17-38.68.84-58.01Z"/><path d="m122.81,85.49c-.33,2.7.69,5.66,1.34,8.65.65,3.03,1,6.11,1.02,9.15.12,16,.33,32.01-.05,48-.62,26.17-1.29,52.33-1.12,78.51.05,8.45.25,16.89,0,25.35-.32,10.69-1.27,21.35-1.77,32.02-.48,10.03-1.86,19.98-2.48,30-.58,9.37-1.74,18.71-2.77,28.05-2.07,18.88-2.65,37.81-2.3,56.79.14,7.79.32,15.54,2.13,23.22,1.1,4.68-.14,9.52-.93,14.2-.74,4.43-1.36,8.89-1.67,13.33-.57,8.24-.86,16.48-3.33,24.46-.56,1.82-1.2,3.51-2.75,4.75-.72.58-1.66.99-1.27,2.36.37,1.31-.84,1.14-1.58,1.08-3.06-.24-6.18-.25-9.17-.66-3.41-.47-6.86-.59-10.22-.73-5.01-.22-10-1.46-15.12-.39-2.6.54-5.39.31-8.12-.16-4.61-.8-9.2.01-13.63,1.19-2.42.64-3.16-.6-3.21-2.2-.2-6.14-1.42-12.26.34-18.45,1.01-3.57,1.01-7.43,1.47-11.16.54-4.43,1.01-8.86,1.82-13.26.67-3.6.99-7.27,1.43-10.91.54-4.53,1.13-9.05,1.84-13.56.54-3.44.57-6.96,1.3-10.39.9-4.21,2.33-8.32,1.72-12.75-.64-4.67.09-9.41-.65-14.08-.06-.36-.21-.67.12-.95,1.37-1.18,1.39-1.19.6-2.72-1.1-2.13.1-4.25.09-6.38,0-1.22.26-2.51.26-3.77,0-19.27.11-38.55-.03-57.82-.09-12.07-.4-24.15-.89-36.21-.44-10.88-.67-21.77-.94-32.66-.73-28.99-.31-57.98-.87-86.96-.2-10.26-.24-20.53-.94-30.76-.47-6.91-.42-13.8-.35-20.69.05-5.15.47-10.33,1.24-15.42.38-2.53-.69-3.2-2.55-3.37-7.55-.71-15.12-1.84-22.69-1.04-5.03.53-9.77.14-14.46-1.66-.59-.23-1.38-.41-2.07.14-2.35,1.87-3.84.04-4.77-1.58-2.02-3.52-3.67-7.01-3.77-11.49-.14-6.84-.85-13.75-2.31-20.51-.43-1.97.31-3.95.37-5.91.22-7.77-.3-15.53-.98-23.28C0,13.23.01,11.59,0,9.96c0-.54.04-1.23.6-1.43,3.21-1.1,5.69-3.75,9.51-3.73,7.66.04,15.2-1.72,22.84-1.97,7.34-.23,14.7-.5,22.05.19,1.08.1,2.17.21,3.25.21,13.09.01,26.19.31,39.27-.1,8.17-.25,16.34-1.09,24.49-1.96,8.71-.93,17.47-1,26.24-.37,1.92.14,3.92.19,5.88.24,9.08.2,18.16.39,27.24.56,1.81.03,3.6-.11,5.42-.38,2-.3,4.03-.55,5.92,1.07,1.18,1.01,3.05.06,4.39-.3,5.21-1.42,10.47-1.05,15.69-.79,8.72.43,17.4.35,26.13.05,7.01-.24,14.08.77,21.11,1.29,7.59.56,15.17,1.2,22.79.36,1.94-.21,4.1-1.04,5.89.75.25.25.87.13,1.32.15,7.67.37,15.33.73,23,1.1.09,0,.19-.01.27,0,2.15.47,5.02.34,5.7,2.76.63,2.24-2.17,2.83-3.63,3.73-12.06,7.42-21.63,17.42-29.19,29.18-4.39,6.84-10.48,12.35-14.28,19.55-1.87,3.54-4.42,6.62-6.31,10.18-1.53,2.89-3.57,6.2-8.19,4.48-2.75-1.03-5.73,0-8.6-.07-13.25-.32-26.45.93-39.68,1.08-7.71.09-15.41.18-23.12.16-6.16-.02-12.31,1.24-18.47,1.92-2.33.25-4.67.64-7,.63-7.61-.04-15.14.87-22.69,1.6-4.05.39-8.13.05-12.21.46-2.52.25-3.13.95-2.81,3.15.06.45,0,.91,0,1.8Z"/><path d="m321.21,481c-4.6.17-8.93.2-13.25.51-10.84.8-21.6,1.84-32.26,4.16-5.1,1.11-10.4,1.15-15.68.56-4.3-.48-8.82-1.17-12.92.35-4.79,1.78-9.33.11-13.98.04-.81-.01-1.65-.22-2.44-.11-5.88.85-11.76.05-17.63-.06-6.08-.12-12.14.36-18.2.56-3.18.1-6.34-.02-9.45-.55-3.35-.57-6.53.6-9.8.77-3.44.18-6.79.31-10.24-.05-3.43-.35-6.97-.01-10.44.32-4.39.41-8.71-.24-13.04-.55-3.93-.28-7.83-1.06-11.76-1.52-3.69-.43-5.26-1.67-5.86-4.6-.13-.62-.03-1.01.18-1.49,3.03-6.73,3.81-14.17,6.49-21.02.75-1.92-.24-3.91-.03-6,1.13-11.16,3.77-22.04,5.38-33.1.39-2.68.81-5.41.71-8.09-.39-10.73.96-21.37,1.41-32.06.52-12.56,2.31-25.01,3.71-37.5.71-6.38.91-12.86.87-19.28-.12-17.81.5-35.61.76-53.41.17-11.89.46-23.78.3-35.67-.19-14.23-.94-28.44-1.7-42.65-.39-7.38-1.04-14.76-1.04-22.18.02-21.12-1.57-42.21-1.14-63.35.07-3.28-.34-6.66-.46-10-.05-1.47.5-1.76,1.87-1.84,4.85-.3,9.69.22,14.52.01,9.36-.41,18.71-.9,27.99-2.53,5.23-.92,10.62-.85,15.94-1.26,14.57-1.13,29.16-1.4,43.76-1.77,4.6-.11,9.22-.24,14.04-.45-1.08,3.85-2.12,7.52-3.14,11.18-1.46,5.21-1.73,10.63-2.47,15.95-.82,5.87-1.66,11.74-2.48,17.61-.77,5.53-1.34,11.09-2.02,16.63-.14,1.16-.41,2.3-.63,3.53-1.3-.53-1.81-3.3-3.88-1.33-.07.07-.56-.26-.83-.45-7.77-5.66-15.91-10.56-25.5-12.59-3.81-.81-3.91-.72-4.09,2.97-.91,18.27-1.65,36.55-2.01,54.84-.01.54-.07,1.09-.08,1.63-.21,10.7-.38,21.41-.63,32.11-.11,5.02-.4,9.95.26,15.06.53,4.12-1.27,8.58-1.46,13.01-.12,2.88,2.32,3.83,3.13,5.9.05.13.5.17.76.16,4.27-.2,8.62.01,12.79-.76,3.97-.73,7.71.69,11.58.31,1.19-.11,1.37,1.02,1.31,1.97-.49,7.99,1.35,15.8,1.8,23.73.37,6.54,1.2,13.08,1.51,19.64.08,1.66-.12,2.42-2.2,2.11-2.75-.41-5.49.47-8.41.09-4.99-.66-10.09-1.07-15.17-.72-.76.05-1.88-.39-2.13.66-.42,1.77-1.09,3.02-3.11,3.23-.81.08-.14.71-.09,1.04.97,6.27.26,12.63,1.13,18.9,1.2,8.7.5,17.39-.09,26.05-.71,10.4-1.22,20.79-1.02,31.21.13,6.72.39,13.43.5,20.15.02,1.38.35,1.91,1.82,1.88,5.06-.11,10.01-.53,15.06-1.36,6.26-1.03,12.41-3.15,18.89-2.87.95.04,1.94-.4,2.87-.73,4.19-1.46,6.75-.65,8.98,3.08,3.32,5.54,5.99,11.43,9.88,16.67,7.78,10.49,15.64,20.93,24.69,30.34,5.31,5.52,11.73,9.82,17.96,14.28,3.46,2.48,7.5,4.34,9.91,8.68Z"/><path d="m404.35,321.72c-.27-2.15-.65-3.93-.38-5.82.58-4.11-2.22-7.37-3.09-11.13-.14-.59-.54-1.14-.48-1.79.26-2.93-.4-5.61-1.73-8.25-1.01-2.01-1.09-4.31-1.04-6.61.08-3.77-1.08-7.4-1.53-11.1-.37-3.04-.16-6.16-.2-9.24-.01-.82.5-1.08,1.23-1.07.64,0,1.27,0,1.91,0,19.81,0,39.62.04,59.43-.04,2.58-.01,5.19,1.35,8-.39-.28,5.16-.15,10-.33,14.86-.24,6.52-1.59,12.9-1.77,19.38-.3,11.35-.9,22.71-.48,34.04.28,7.58.3,15.18.59,22.77.16,4.31-.7,8.73-.82,13.13-.21,7.63-.18,15.3.55,22.85.75,7.73,1.01,15.5,2.08,23.21.65,4.71.68,9.59,1.87,14.17,1.3,5,1.01,10.19,2.47,15.11.19.65.12,1.2-.08,1.83-.57,1.8-.3,3.47.56,5.2,1.08,2.16,1.43,4.53.57,6.88-.44,1.2.51,2.18.25,3.37-.72,3.3-3.29,5.81-6.84,6.53-8.82,1.8-17.74,2.66-26.7,3.32-5.85.43-11.7.93-17.56,1.08-.78.02-1.6.25-2.31.58-1.58.74-2.96,1.23-4.68,0-1.86-1.33-4.1-.23-6.01.08-6.97,1.12-5.22.34-7.35-5.3-1.12-2.96-1.42-6.21-2.09-9.31-.5-2.29-1.8-4.51-2.39-6.92-.87-3.6-1.21-7.27-1.73-10.92-.62-4.33-3.27-7.93-4.54-12.06-2.35-7.71-5.23-15.2-5.75-23.44-.42-6.59-.36-13.36-2.17-19.75-1.46-5.13-1.67-10.97-6.4-14.76-.38-.31-.81-1.02-.71-1.41,1.43-5.6-2.26-9.62-4.29-14.14-1.62-3.63-4.7-6.43-5.95-10.27-.6-1.85-1.07-3.76-2.45-5.21-.7-.73-1.59-1.31-2.68-.95-1.22.4-.75,1.51-.78,2.34-.05,1.33,0,2.56.77,3.85,1.03,1.74,1.66,3.77,1.03,5.91-.51,1.72.57,3.16.98,4.67,1.46,5.45.71,11.09,1.72,16.57,1.53,8.31,1.92,16.75,2.72,25.14.68,7.12.58,14.35-.09,21.51-.6,6.43-.59,12.79.08,19.25.59,5.63,1.11,11.33,2.25,16.8.64,3.09,1.26,6.11,1.48,9.26.19,2.75-1.31,5.23-.97,8,.16,1.25-1.05,1.06-1.79.98-7.47-.85-15-1.51-21.94-4.68-6.61-3.02-13.46-5.76-19.56-9.63-8.02-5.09-16.47-9.88-22.82-17.11-8.78-10.01-17.2-20.31-24.6-31.47-3.47-5.23-6.85-10.5-9.91-15.96-2.46-4.39-3.38-9.36-4.27-14.25-.5-2.74-1.12-5.45-1.9-8.09-1.45-4.92-1.57-10.04-2.53-15.03-1.48-7.7-1.23-15.57-2.1-23.33-.28-2.49-.58-5.03-.6-7.54-.06-10.66-.74-21.31-1.83-31.89-.71-6.88.65-13.42,1.23-20.11.26-3.01-.41-5.94-.5-8.91-.11-3.19,1.03-4.21,4.07-3.57,12.71,2.67,25.58,3.26,38.5,3.22,15.7-.05,31.37,1.34,47.08,1.18,2.4-.02,4.99.21,7.17,1.12,1.95.82,3.76,2.48,5.07,4.2,4.16,5.44,9.7,9.37,14.85,13.66,7.13,5.94,13.8,12.15,18.09,20.54,1.79,3.49,4.55,6.39,6.23,9.95.15.32.4.82.64.84,2.95.25,4.49,3,7.26,4.08Z"/><path d="m487.7,237.11c1.92-2.56.04-4.95.05-7.38.04-6.59-.4-13.18,1.19-19.72.69-2.85-.04-5.86.35-8.89,1.28-9.85,2.54-19.75,1.94-29.74-.08-1.25.28-2.52.42-3.78.14-1.35.43-2.71-.71-3.85-.73-.73-.45-1.72-.47-2.6-.12-4.9.04-9.8.54-14.68.18-1.8-.62-2.42-2.35-2.89-5.23-1.42-10.4-.34-15.59.05-1.33.1-2.21.76-2.74,2.21-1.36,3.75-2.08,7.55-2.48,11.53-1.33,13.08-1.8,26.18-1.62,39.31.02,1.28-.37,2.08-1.73,2.28-.52.08-1.14.24-1.49.58-7.23,7.14-16.72,9.79-25.95,12.63-9.52,2.93-19.14,5.74-29.1,6.96-6.11.75-12.23,1.46-18.35,2.16-1.43.16-2.77-.21-3.75-1.26-4.89-5.28-8.63-11.27-10.59-18.24-1.95-6.92-2.53-13.93-1.67-21.14,1.08-9.1.53-18.28.71-27.43.24-11.95.36-23.91,1.17-35.83.73-10.78,2.64-21.48,3.44-32.25.67-8.98,2.99-17.51,5.15-26.15.8-3.21,2.23-4.2,4.91-5.37,2.54-1.1,4.6-3.32,7.17-4.64,4.9-2.52,10.02-3.83,15.56-4.48,7.53-.87,15.01-.24,22.48-.15,6.98.08,13.94-.78,20.9-.24,4.96.38,9.97.16,14.87.73,2.43.28,4.96,1.47,7.49,2.11,1,.26.71,1.02.32,1.74-3.01,5.55-3.83,11.54-4.36,17.78-.49,5.88-.44,11.8-1.29,17.64-.92,6.35-1.59,12.7-1.64,19.12-.06,8.09,2.5,10.16,10.03,11.8,1.06.23,2.01.24,2.83,1.27.87,1.09,7.59.78,8.3-.3.79-1.2.73-2.8.23-3.95-1.28-2.93-1.17-6.15-1.32-9.05-.5-9.78-.57-19.62.7-29.38.95-7.32,3.37-14.27,5.55-21.29,1.13-3.63,1.1-7.65,3.03-11.07,2.12-3.76,3.68-7.9,7.06-10.84.6-.52,1.04-1.17,2.09-.75,5.04,2.04,10.37,3.46,14.1,7.97,1.4,1.7,3.64,2.69,5.21,4.28,9.87,10.03,18.1,21.17,22.76,34.63.85,2.46,1.76,4.87,3.14,7.08,3.97,6.34,4.92,13.54,6.1,20.7.68,4.14.05,8.33.47,12.41.99,9.63.5,19.36,2.61,28.93.96,4.37.63,9.04.7,13.58.1,6.36.3,12.74-.04,19.08-.53,10.03-1,20.04-1.15,30.09-.04,2.67-.22,5.41-.49,8.09-.13,1.25,1.31,3.12-1.41,3.86-.63.17-.58,3.15-.69,4.85-.24,3.51-.74,6.99-.61,10.53.09,2.38-.63,2.68-2.61,1.44-4.3-2.7-8.63-5.37-12.9-8.11-4.93-3.16-10.66-3.34-16.16-4.42-5.03-.99-9.97-.55-14.98.5-7.07,1.48-13.64,4.11-19.83,7.74-1.92,1.13-3.67,2.55-5.5,4.19Z"/><path d="m468.63,211.01c0,9.37-.18,18.36.07,27.35.14,5.14.06,10.22-.56,15.32-.18,1.48-.65,1.96-2.05,2.23-3.67.71-7.29,1.21-11.07.67-2.78-.4-5.48,1.17-8.35.86-10.38-1.15-20.83.68-31.2-.58-8.78-1.07-17.63.26-26.35-.67-6.85-.73-13.57.09-20.32.29-11.61.34-23.16-.55-34.73-.81-9.39-.21-18.76-1.33-28.18-1.58-8.13-.22-16.25-.86-24.35-1.63-4.71-.45-9.38-1.43-14.03-2.34-2.94-.58-5.95-.05-8.87-.82-.94-.25-1.94-.16-1.62-1.46.54-2.15-.38-4.16-.44-6.17-.46-14.64-2.71-29.24-1.67-43.89.68-9.58,1.14-19.19,2.47-28.75,1.26-9.05,2.9-18.03,4.03-27.09.8-6.38,2.34-12.66,3.08-19.04.69-5.96,1.31-11.95,3.17-17.63,2.81-8.56,5.82-17.06,9.25-25.42,2.12-5.17,4.26-10.42,7.64-14.61,4.36-5.4,7.31-11.72,12.03-16.83,3.93-4.26,8.1-8.27,12.6-11.86,4.87-3.9,9.57-8.13,15.45-10.62,10.05-4.25,20.27-7.97,31.01-10.16,10.09-2.06,20.3-2.65,30.55-3.4,15.41-1.14,30.8-.83,46.2-.86,7.19-.01,14.3,1.33,21.36,2.72,13.33,2.62,26.19,7.07,39.38,10.22,1.92.46,2.62.92,1.03,2.66-.65.71-.89,1.78-1.45,2.6-1.07,1.58-2.44,2.45-4.51,2.55-11.9.58-23.82.02-35.7.57-19.03.87-38.08,1.79-57.04,3.83-4.24.46-8.5.86-12.75,1.11-2.12.13-3.88.78-5.42,2.19-.33.31-.69.63-1.09.8-6.01,2.51-8.69,7.76-10.38,13.44-1.18,3.94-1.48,8.15-1.96,12.27-.38,3.26-1.91,6.19-2.3,9.45-.77,6.39-.37,12.86-1.58,19.22-1.04,5.5-1.95,11.03-2.23,16.63-.07,1.36-.28,2.71-.3,4.06-.19,12.09.13,24.17.54,36.25.27,7.99-1.09,15.87-1.62,23.81-.37,5.61.19,11.29-.18,16.9-.7,10.73,2.67,20.46,6.73,30.08.14.33.42.64.43.97.2,4.67,3.83,4.76,7.06,5.16,1.82.23,3.56.58,5.29,1.16,7.82,2.59,15.72,1.35,23.41-.26,17.15-3.57,34.34-7.1,51.04-12.51,1.29-.42,2.56-.98,3.72-1.67,3.19-1.91,6.53-3.12,10.32-2.91,1.5.08,2.69-.93,4.4-1.78Z"/><path d="m872.27,124.99c0,7.09.24,14.19-.06,21.27-.46,10.85-.85,21.69-1.18,32.54-.11,3.53-.22,7.01.04,10.53.14,1.95.23,3.9-.3,5.91-.38,1.43-.55,3.13.58,4.68.89,1.22-1.5,5.69-3.09,6.21-9.71,3.21-19.76,4.73-29.85,6-7.37.93-14.5,2.91-21.72,4.53-6.01,1.35-12.2,2.03-18.36.48-1.26-.32-2.31.6-3.44.43-3.11-.46-6.22.82-9.48-1.31-1.82-1.19-5.2-1.3-7.91-.82-7.63,1.36-14.7-1.28-21.84-3.11-3.36-.86-6.6-2.3-9.77-3.74-2.71-1.23-3.74-4.19-5.56-6.32-3.92-4.6-4.49-10.38-4.97-16.12-.7-8.5-1.65-16.99-2.07-25.51-.28-5.59-.75-11.15-1.81-16.61-1.46-7.5-1.38-15.03-1.71-22.59-.19-4.41-1.6-8.78-2.65-13.12-1.12-4.64-1.44-9.38-2.04-14.08-.99-7.82-2.73-15.49-3.98-23.25-1.01-6.27-2.82-12.34-4.12-18.53-1.95-9.31-6.09-17.92-10.34-26.41-1.29-2.57-2.61-5.13-3.92-7.69-1.13-2.2-.69-3.52,1.63-4.02,4.11-.9,8.2-1.7,12.46-1.94,5.16-.29,10.31-.32,15.46-.43,2.72-.06,5.34.78,8.09.61,2.88-.17,5.71-.53,8.54-1.03,1.41-.25,3-.43,4.33-.05,6.15,1.77,12.41.75,18.61,1.02.36.02.73,0,1.09,0,2.61,0,4.49.29,5.42,3.64,1.88,6.74,4.74,13.21,6.89,19.89,1.75,5.46,2.45,11.14,3.11,16.85.99,8.49,1.33,17.02,2.46,25.5.79,5.85,1.68,11.71,1.9,17.66.24,6.52.93,13.09,2.21,19.48,1.01,5.04,2.41,6.04,7.71,6.64,2.47.28,4.94.72,7.35,1.36,1.64.43,2.31.33,2.3-1.58-.06-8.73.48-17.49-.15-26.17-.8-10.95-.92-21.96-2.62-32.83-1.15-7.32-2.02-14.68-3.61-21.95-.56-2.56-.67-5.36-.68-8.03,0-7.96-1.37-15.73-2.87-23.48-.33-1.7.04-2.41,1.54-2.38,2.89.05,5.78-.38,8.66.35,2.31.58,4.66-.32,6.97-.34,11.5-.11,23.01-.07,34.51,0,2,.01,3.47.51,4.31,3.02,2.85,8.52,4.12,17.34,5.8,26.1,1.87,9.77,2.36,19.71,4.23,29.48,1.53,8.01,2.31,16.12,2.94,24.28.9,11.68.85,23.33.93,35Z"/><path d="m872.8,380.49c-.55,8.98.25,17.96.71,26.9.55,10.85,1.02,21.69.93,32.55-.02,3.07-.54,6.1-.63,9.17-.09,3.11-2.59,4.32-5.92,3.82-3.12-.47-5.9-1.91-8.95-2.62-7.2-1.7-14.28-3.88-21.03-7.1-12.02-5.73-24.1-11.35-36.55-16.07-6.81-2.59-13.29-5.54-19.38-9.61-3.95-2.64-8.62-4.24-13.03-6.16-5.09-2.21-9.18-5.7-13.42-9.2-6.18-5.1-12.95-9.49-19.46-14.19-2.49-1.79-3.91-4.24-4-7.28-.12-4.06.68-8.01,1.29-12.02.72-4.69,1.71-9.48,1.04-14.42-.6-4.44-.08-8.98.72-13.46.44-2.47.16-5.06.26-7.6.46-11.93.87-23.86,1.32-35.78.36-9.35,1.14-18.77,2.77-28.12,1.26-7.23.17-14.86.31-22.31.06-3.47-.43-6.82-1.23-10.15-.68-2.86-.53-5.68-.11-8.57.32-2.23.15-4.52.22-6.78.02-.77-.25-1.65,1.06-1.74.83-.06,1.57-.79,2.33.37,2.38,3.63,6.26,3.89,10.1,4.7,5.81,1.23,11.78,2,17.3,4.37,1.54.66,3.07.56,4.51.37,6.38-.86,12.72-.28,19.11-.1,4.06.11,8.3.02,12.35-.97,4.39-1.07,8.89-1.08,13.32-1.1,3.74-.01,7.28-.85,10.92-1.25,8.1-.89,15.83-3.72,23.88-4.58,2.17-.23,4.62-1.19,7-.2.84.35,1.94.26,2.85-.4,1.41-1.03,3.11-1.05,4.75-1.1,1.6-.05,2.47.68,2.46,2.47-.04,6.17.78,12.46-.14,18.49-1.23,7.98.97,15.64.82,23.48-.07,3.75-2.09,6.32-3.97,9.08-.4.59-1.25.99-2.14.97-6.8-.18-13.52,1.67-20.29,1.02-6.19-.6-12.39-.63-18.47.2-5.72.78-11.46.75-17.17,1.29-2.62.25-3.65,1.49-3.89,3.85-.04.36-.12.71-.15,1.07q-.48,5.57,5.06,5.62c1.28,0,2.71-.09,3.56.87,1.13,1.28,1.56-.36,2.4-.37,2.02-.02,3.94.62,5.92.63,3.25.03,6.49-.2,9.74-.47,5.77-.48,7.94,2.4,8.15,7.61.25,6.28.15,12.6-.54,18.87-.16,1.46-1,2.86-1.63,4.24-.34.73-1.05.97-1.85.66-1.58-.61-3.26-.49-4.86-.33-5.45.53-10.79-1.06-16.25-.69-3.46.23-6.45,2.03-9.85,2.44-1.34.16-1.6,2.21-1.25,2.86,1.69,3.16-.21,5.92-.59,8.83-.13,1-.25,1.96-.05,2.95.36,1.84.79,2.6,3.32,2.34,4.12-.43,8.38-.03,12.6.42,7.1.77,13.51,3.94,20.46,5.07,3.45.56,6.95,1.03,10.4,1.22,3.54.19,6.99.75,10.43,1.33,3.41.57,5.68,3.64,9.32,4.43,2.76.59,2.43,4.41,2.51,6.85.25,7.78,1.2,15.55.63,23.35Z"/><path d="m482.9,281c8.49,9.52,18.21,16.6,30.44,18.78,12.85,2.28,24.71-.78,34.71-9.67,2.44-2.17,5.48-3.7,6.97-6.87.44-.93,1.58-.86,2.47-.67,1.1.24,1.56,1.09,1.68,2.19.97,8.98.91,18,.43,26.97-.44,8.16-1.74,16.26-2.21,24.44-.25,4.43-.03,8.87-.44,13.27-.76,8.23-.78,16.5-1.93,24.74-1.21,8.65-3.62,16.92-5.91,25.24-1.34,4.85-3.62,9.48-6,13.99-1.04,1.97-2.17,3.98-2.69,6.11-1.23,5.01-3.85,9.17-6.77,13.33-2.37,3.37-4.27,7.09-6.1,10.8-1.75,3.53-4.29,6.01-7.77,7.81-5.95,3.09-11.73,6.56-18.04,8.86-3.98,1.45-8.13,2.63-12.51,1.63-.55-.13-1.21.22-1.81.4-.79.23-1.25.22-1.58-.79-.95-2.89-1.12-5.92-1.73-8.87-.84-4.07-1.93-8.1-2.23-12.31-.17-2.35-.38-4.71-.29-7.04.34-8.99-.93-17.9-1.77-26.78-.64-6.75-.85-13.49-1.39-20.23-.59-7.4.65-14.74.52-22.1-.16-9.67-1.07-19.35-.92-29.01.12-7.97,1.32-15.92,2.03-23.87.38-4.29.73-8.58,1.13-12.87.54-5.75,1.12-11.51,1.71-17.45Z"/><path d="m523.22,233.86c4.73-.25,10.99,1.85,16.24,5.51,5.22,3.64,8.35,9.32,9.92,15.68.74,2.98,1.45,5.95,1.04,9.01-.84,6.4-2.97,11.83-9.19,15.31-4.12,2.31-7.95,4.93-12.65,6.07-6.39,1.55-12.75,2.46-19.05.02-6.28-2.43-10.98-6.87-14.93-12.26-1.98-2.7-3.76-5.56-4.71-8.63-.74-2.38-.24-5.24.11-7.83.63-4.71,2.85-8.93,5.45-12.72,2.54-3.7,6.48-6.16,10.72-7.74,4.83-1.8,9.93-2.26,17.05-2.42Z"/></g></svg>