<svg width="875" height="488" xmlns="http://www.w3.org/2000/svg" xmlns:xlink="http://www.w3.org/1999/xlink" xml:space="preserve" overflow="hidden"><defs><clipPath id="clip0"><rect x="210" y="248" width="875" height="488"/></clipPath></defs><g clip-path="url(#clip0)" transform="translate(-210 -248)"><path d="M1085 719.291C1082.09 720.551 1079.15 719.381 1076.55 720.471 1076.32 720.571 1075.9 720.381 1075.75 720.521 1072.49 723.641 1068.79 721.921 1065.17 721.601 1059.76 721.121 1054.33 720.911 1048.89 720.961 1041.08 721.031 1033.26 720.811 1025.45 721.081 1018.43 721.321 1011.42 722.061 1004.41 722.581 1001.44 722.801 998.431 723.051 995.501 723.071 988.062 723.101 980.653 723.871 973.204 723.831 969.025 723.811 964.715 723.641 960.686 725.321 960.526 725.391 960.326 725.381 960.146 725.381 952.167 725.121 944.188 727.09 936.299 726.281 929.59 725.591 922.92 724.661 916.181 724.911 911.062 725.101 905.962 725.781 900.873 726.391 899.193 726.591 897.724 725.651 896.054 725.911 894.904 726.091 893.564 725.611 892.534 726.001 888.625 727.51 887.085 724.991 885.145 722.371 879.966 715.372 875.056 708.183 870.157 700.994 869.237 699.644 868.737 699.934 868.077 700.884 862.988 708.123 855.839 712.712 848.05 716.462 845.69 717.602 843.46 718.881 841.371 720.471 838.061 722.981 834.352 724.141 830.092 724.561 825.963 724.961 821.883 726.201 817.684 726.61 810.934 727.26 804.195 727.68 797.516 726.211 796.606 726.011 795.726 725.951 794.836 725.951 784.198 725.941 773.569 725.901 762.93 725.971 759.751 725.991 756.541 726.661 753.402 726.411 748.672 726.041 743.863 726.361 739.223 725.141 736.984 724.551 734.724 725.211 732.304 724.661 733.014 723.101 734.584 722.591 735.634 721.581 742.613 714.842 748.562 707.453 752.882 698.634 755.461 693.365 759.261 688.715 762.621 683.856 767.49 676.807 771.409 669.008 772.369 660.189 773.029 654.22 775.069 648.52 775.799 642.561 776.439 637.402 777.139 632.252 777.839 627.093 778.419 622.834 778.958 618.554 779.718 614.325 779.908 613.235 779.968 612.185 780.008 611.105 780.488 600.196 781.218 589.298 781.808 578.399 782.178 571.68 782.328 564.891 783.358 558.232 784.738 549.293 784.448 540.264 785.438 531.315 785.538 530.415 785.488 529.495 785.468 528.585 785.158 506.448 787.257 484.381 787.257 462.244 787.257 455.425 787.487 448.525 788.217 441.706 788.957 434.787 788.907 427.818 789.407 420.899 790.177 410.28 789.897 399.672 789.707 389.083 789.587 382.214 788.857 375.325 787.857 368.466 787.017 362.726 786.498 356.917 785.478 351.178 784.198 343.969 782.698 336.76 779.288 330.24 776.439 324.801 775.749 318.642 772.959 313.242 768.77 305.133 765.51 296.595 758.881 289.775 753.362 284.096 748.242 277.967 741.683 273.537 736.194 269.828 731.694 264.729 725.485 262.049 722.876 260.929 719.896 260.719 717.416 258.729 718.666 257.579 720.206 257.779 721.586 257.869 723.755 258.009 725.705 257.859 727.845 257.04 730.984 255.84 734.424 255.39 737.754 254.75 746.343 253.1 755.111 253.59 763.78 252.19 774.759 250.42 785.748 248.531 797.006 248.531 802.406 248.531 807.875 248.361 813.304 248.211 814.814 248.171 816.324 248.641 817.844 248.701 825.683 249.011 833.442 250.09 841.141 251.5 846.94 252.57 852.779 253.66 858.498 254.98 864.028 256.26 869.557 257.769 875.116 259.019 881.916 260.539 888.785 261.769 895.674 262.799 897.984 263.149 898.783 264.949 899.823 266.218 902.763 269.778 905.263 273.707 907.822 277.567 909.002 279.357 910.032 281.266 910.912 283.216 911.532 284.596 913.052 286.186 910.732 287.556 910.142 287.906 910.732 288.346 910.872 288.706 912.962 293.985 914.201 299.534 915.791 304.964 918.261 313.372 919.271 322.101 920.611 330.73 921.011 333.28 921.191 335.94 921.281 338.569 921.57 347.468 923.08 356.207 924.7 364.946 925.79 370.835 926.44 376.804 927.29 382.744 928 387.703 928.27 392.702 929.28 397.642 930.009 401.211 930.079 404.951 930.469 408.61 930.939 413.07 932.219 417.529 931.589 422.019 931.149 425.188 931.809 428.528 930.239 431.528 929.959 432.058 930.109 432.527 930.259 433.067 932.169 440.137 932.319 447.416 932.839 454.665 933.209 459.734 932.489 464.733 932.719 469.773 932.819 471.903 932.769 473.962 931.859 476.122 930.849 478.552 931.949 481.301 932.369 483.861 932.829 486.671 932.669 489.37 932.419 492.17 932.079 496.049 932.179 499.969 932.159 503.869 932.139 507.868 932.069 511.867 932.229 515.867 932.439 521.326 931.079 526.566 930.359 531.905 929.99 534.665 929.56 537.434 929.51 540.204 929.39 547.383 929.54 554.562 929.45 561.741 929.38 566.961 928.79 572.13 927.98 577.299 927.58 579.859 927.76 582.519 928.09 585.148 928.56 588.898 928.89 592.717 927.83 596.447 926.64 600.646 927.16 605.066 926.16 609.255 924.81 614.885 925.01 620.784 923.16 626.323 922.85 627.233 922.76 628.353 922.98 629.273 923.74 632.442 924.3 635.612 924.05 638.892 924.03 639.201 924.19 639.671 924.42 639.841 928.75 643.001 931.669 647.57 936.019 650.82 940.898 654.47 946.597 656.499 951.497 659.959 953.327 661.259 955.346 662.339 956.796 664.098 959.116 666.908 962.005 668.748 965.555 669.498 969.964 670.428 973.364 673.357 977.154 675.457 981.453 677.837 985.093 681.526 989.532 683.486 996.131 686.406 1002.21 690.435 1009.21 692.495 1017.08 694.815 1024.63 698.004 1032.18 701.234 1040.86 704.943 1049.58 708.553 1059.05 710.263 1067.55 711.802 1076.03 714.002 1083.69 718.372 1084.06 718.581 1084.41 718.852 1085.02 719.271ZM880.466 458.564C880.466 450.145 879.726 441.766 879.416 433.377 879.196 427.418 878.746 421.459 878.676 415.48 878.616 410.36 878.406 405.171 877.526 400.142 876.046 391.663 876.186 383.104 875.436 374.595 874.966 369.235 874.336 363.876 873.547 358.547 872.597 352.168 871.387 345.838 870.437 339.449 869.947 336.16 870.137 332.86 868.137 329.51 863.828 322.291 857.849 317.732 850.329 314.532 847.81 313.462 845.37 312.723 842.77 313.142 840.321 313.542 837.851 314.062 835.411 314.452 832.472 314.922 832.772 316.522 833.112 318.492 833.972 323.501 834.711 328.541 835.691 333.53 836.871 339.579 836.651 345.728 837.201 351.818 837.931 359.827 838.261 367.886 838.321 375.925 838.381 384.074 838.401 392.213 838.001 400.382 837.571 408.95 837.701 417.579 838.281 426.208 839.001 436.967 838.071 447.786 838.841 458.584 839.351 465.773 839.331 472.992 839.851 480.201 840.541 489.73 841.161 499.309 840.121 508.938 839.141 518.077 838.691 527.296 838.471 536.494 838.331 542.644 837.281 548.673 836.641 554.742 835.761 562.991 834.002 571.15 834.571 579.519 835.011 585.978 832.592 592.067 832.282 598.457 831.962 605.096 831.082 611.645 831.702 618.384 832.612 628.163 832.692 638.012 833.372 647.82 833.682 652.23 835.731 656.339 835.191 660.829 835.131 661.319 835.511 661.929 836.111 662.009 836.741 662.099 837.231 661.589 837.221 661.069 837.221 659.699 838.401 659.449 839.071 658.679 841.031 656.439 843.71 655.399 846.08 653.82 851.909 649.95 856.379 644.531 860.698 639.052 861.978 637.422 862.078 635.712 861.468 633.732 860.438 630.403 858.299 627.373 858.309 623.813 858.309 621.524 856.209 620.574 855.859 618.654 853.919 608.135 850.529 597.927 849.07 587.288 848.89 586.018 848.27 584.588 849.29 583.728 850.349 582.839 850.889 584.758 851.919 584.858 852.069 584.878 852.209 585.058 852.359 585.168 855.669 587.648 860.268 588.098 862.798 591.837 863.318 592.597 864.348 592.567 864.998 592.057 865.938 591.318 866.438 591.737 867.017 592.427 867.997 593.617 869.097 594.727 869.967 595.987 870.687 597.037 871.317 598.447 872.697 598.197 874.136 597.937 875.016 596.747 875.686 595.267 877.976 590.198 877.946 584.638 878.966 579.349 879.396 577.139 879.416 574.3 879.096 571.77 878.776 569.19 878.176 566.651 878.196 564.031 878.236 559.382 878.056 554.732 878.236 550.083 878.676 538.904 879.156 527.725 879.636 516.557 880.466 497.249 879.466 477.882 880.476 458.554Z" stroke="#FFFFFF" stroke-width="11.9985"/><path d="M332.795 333.69C332.465 336.39 333.484 339.349 334.134 342.339 334.784 345.368 335.134 348.448 335.154 351.488 335.274 367.486 335.484 383.494 335.104 399.482 334.484 425.648 333.814 451.805 333.984 477.982 334.034 486.431 334.234 494.87 333.984 503.329 333.664 514.017 332.715 524.676 332.215 535.345 331.735 545.373 330.355 555.322 329.735 565.341 329.155 574.71 327.995 584.048 326.965 593.387 324.896 612.265 324.316 631.193 324.666 650.17 324.806 657.959 324.986 665.708 326.795 673.387 327.895 678.067 326.655 682.906 325.865 687.585 325.126 692.015 324.506 696.474 324.196 700.914 323.626 709.153 323.336 717.392 320.866 725.371 320.306 727.19 319.666 728.88 318.116 730.12 317.396 730.7 316.457 731.11 316.847 732.48 317.217 733.79 316.007 733.62 315.267 733.56 312.207 733.32 309.088 733.31 306.098 732.9 302.688 732.43 299.239 732.31 295.879 732.17 290.87 731.95 285.88 730.71 280.761 731.78 278.161 732.32 275.372 732.09 272.642 731.62 268.033 730.82 263.443 731.63 259.014 732.81 256.594 733.45 255.854 732.21 255.804 730.61 255.604 724.471 254.384 718.352 256.144 712.162 257.154 708.593 257.154 704.733 257.614 701.004 258.154 696.574 258.624 692.145 259.434 687.745 260.104 684.146 260.424 680.476 260.864 676.837 261.404 672.307 261.993 667.788 262.703 663.278 263.243 659.839 263.273 656.319 264.003 652.89 264.903 648.68 266.333 644.571 265.723 640.141 265.083 635.472 265.813 630.733 265.073 626.063 265.013 625.703 264.863 625.393 265.193 625.113 266.563 623.933 266.583 623.923 265.793 622.394 264.693 620.264 265.893 618.144 265.883 616.014 265.883 614.795 266.143 613.505 266.143 612.245 266.143 592.977 266.253 573.7 266.113 554.432 266.023 542.364 265.713 530.285 265.223 518.227 264.783 507.348 264.553 496.459 264.283 485.571 263.553 456.584 263.973 427.598 263.413 398.622 263.213 388.363 263.173 378.094 262.473 367.866 262.003 360.956 262.053 354.067 262.123 347.178 262.173 342.029 262.593 336.849 263.363 331.76 263.743 329.23 262.673 328.561 260.814 328.391 253.265 327.681 245.696 326.551 238.126 327.351 233.097 327.881 228.358 327.491 223.668 325.691 223.078 325.461 222.288 325.281 221.599 325.831 219.249 327.701 217.759 325.871 216.829 324.251 214.809 320.732 213.16 317.242 213.06 312.763 212.92 305.923 212.21 299.014 210.75 292.255 210.32 290.285 211.06 288.306 211.12 286.346 211.34 278.577 210.82 270.818 210.14 263.069 210 261.439 210.01 259.799 210 258.169 210 257.629 210.04 256.94 210.6 256.74 213.81 255.64 216.289 252.99 220.109 253.01 227.768 253.05 235.307 251.29 242.946 251.04 250.285 250.81 257.644 250.54 264.993 251.23 266.073 251.33 267.163 251.44 268.243 251.44 281.331 251.45 294.429 251.75 307.508 251.34 315.677 251.09 323.846 250.25 331.995 249.38 340.704 248.451 349.462 248.381 358.231 249.011 360.151 249.151 362.151 249.201 364.111 249.251 373.189 249.45 382.268 249.64 391.347 249.81 393.157 249.84 394.947 249.7 396.767 249.43 398.766 249.131 400.796 248.881 402.686 250.5 403.866 251.51 405.735 250.56 407.075 250.2 412.285 248.781 417.544 249.151 422.763 249.41 431.482 249.84 440.161 249.76 448.89 249.46 455.899 249.221 462.968 250.23 469.997 250.75 477.586 251.31 485.165 251.95 492.784 251.11 494.724 250.9 496.884 250.07 498.674 251.86 498.924 252.11 499.544 251.99 499.994 252.01 507.663 252.38 515.322 252.74 522.991 253.11 523.081 253.11 523.181 253.1 523.261 253.11 525.41 253.58 528.28 253.45 528.96 255.87 529.59 258.109 526.79 258.699 525.33 259.599 513.272 267.018 503.703 277.017 496.144 288.776 491.755 295.615 485.665 301.124 481.866 308.323 479.996 311.863 477.446 314.942 475.557 318.502 474.027 321.391 471.987 324.701 467.368 322.981 464.618 321.951 461.638 322.981 458.769 322.911 445.52 322.591 432.322 323.841 419.094 323.991 411.385 324.081 403.686 324.171 395.977 324.151 389.817 324.131 383.668 325.391 377.509 326.071 375.179 326.321 372.84 326.711 370.51 326.701 362.901 326.661 355.372 327.571 347.823 328.301 343.773 328.691 339.694 328.351 335.614 328.761 333.095 329.01 332.485 329.71 332.805 331.91 332.865 332.36 332.805 332.82 332.805 333.71Z" stroke="#FFFFFF" stroke-width="11.9985"/><path d="M531.17 729.15C526.57 729.32 522.241 729.35 517.921 729.66 507.083 730.46 496.324 731.5 485.665 733.82 480.566 734.929 475.267 734.969 469.987 734.38 465.688 733.9 461.168 733.21 457.069 734.729 452.28 736.509 447.74 734.839 443.091 734.769 442.281 734.759 441.441 734.549 440.651 734.659 434.772 735.509 428.892 734.709 423.023 734.599 416.944 734.479 410.885 734.959 404.826 735.159 401.646 735.259 398.486 735.139 395.377 734.609 392.027 734.04 388.848 735.209 385.578 735.379 382.138 735.559 378.789 735.689 375.339 735.329 371.91 734.979 368.37 735.319 364.901 735.649 360.511 736.059 356.192 735.409 351.862 735.099 347.933 734.819 344.033 734.04 340.104 733.58 336.414 733.15 334.844 731.91 334.244 728.98 334.114 728.36 334.214 727.97 334.424 727.49 337.454 720.761 338.234 713.322 340.914 706.473 341.663 704.553 340.674 702.564 340.884 700.474 342.013 689.315 344.653 678.437 346.263 667.378 346.653 664.698 347.073 661.969 346.973 659.289 346.583 648.56 347.933 637.922 348.383 627.233 348.903 614.675 350.692 602.226 352.092 589.738 352.802 583.359 353.002 576.879 352.962 570.46 352.842 552.652 353.462 534.855 353.722 517.057 353.892 505.168 354.182 493.28 354.022 481.391 353.832 467.163 353.082 452.955 352.322 438.747 351.932 431.368 351.282 423.989 351.282 416.569 351.302 395.452 349.712 374.365 350.142 353.227 350.212 349.948 349.802 346.568 349.682 343.229 349.632 341.759 350.182 341.469 351.552 341.389 356.402 341.089 361.241 341.609 366.07 341.399 375.429 340.989 384.778 340.499 394.057 338.869 399.286 337.949 404.676 338.019 409.995 337.609 424.563 336.48 439.151 336.21 453.749 335.84 458.349 335.73 462.968 335.6 467.788 335.39 466.708 339.239 465.668 342.909 464.648 346.568 463.188 351.778 462.918 357.197 462.178 362.516 461.358 368.386 460.518 374.255 459.699 380.124 458.929 385.653 458.359 391.213 457.679 396.752 457.539 397.912 457.269 399.052 457.049 400.282 455.749 399.752 455.239 396.982 453.169 398.952 453.099 399.022 452.609 398.692 452.34 398.502 444.57 392.842 436.432 387.943 426.843 385.913 423.033 385.103 422.933 385.193 422.753 388.883 421.843 407.151 421.103 425.428 420.744 443.716 420.734 444.256 420.674 444.806 420.664 445.346 420.454 456.045 420.284 466.753 420.034 477.452 419.924 482.471 419.634 487.401 420.294 492.51 420.823 496.629 419.024 501.089 418.834 505.518 418.714 508.398 421.153 509.348 421.963 511.418 422.013 511.548 422.463 511.588 422.723 511.578 426.993 511.378 431.342 511.588 435.512 510.818 439.481 510.088 443.221 511.508 447.09 511.128 448.28 511.018 448.46 512.147 448.4 513.097 447.91 521.086 449.75 528.895 450.2 536.824 450.57 543.364 451.4 549.903 451.71 556.462 451.79 558.122 451.59 558.882 449.51 558.572 446.76 558.162 444.021 559.042 441.101 558.662 436.112 558.002 431.012 557.592 425.933 557.942 425.173 557.992 424.053 557.552 423.803 558.602 423.383 560.371 422.713 561.621 420.694 561.831 419.884 561.911 420.554 562.541 420.604 562.871 421.573 569.14 420.863 575.5 421.733 581.769 422.933 590.468 422.233 599.156 421.643 607.815 420.933 618.214 420.424 628.603 420.624 639.021 420.754 645.741 421.013 652.45 421.123 659.169 421.143 660.549 421.473 661.079 422.943 661.049 428.003 660.939 432.952 660.519 438.001 659.689 444.261 658.659 450.41 656.539 456.889 656.819 457.839 656.859 458.829 656.419 459.759 656.089 463.948 654.63 466.508 655.439 468.737 659.169 472.057 664.708 474.727 670.598 478.616 675.837 486.395 686.326 494.254 696.764 503.303 706.173 508.612 711.692 515.032 715.992 521.261 720.451 524.72 722.931 528.76 724.791 531.17 729.13Z" stroke="#FFFFFF" stroke-width="11.9985"/><path d="M614.299 569.89C614.029 567.74 613.649 565.961 613.919 564.071 614.499 559.961 611.699 556.702 610.83 552.942 610.69 552.352 610.29 551.802 610.35 551.153 610.61 548.223 609.95 545.543 608.62 542.904 607.61 540.894 607.53 538.594 607.58 536.294 607.66 532.525 606.5 528.895 606.05 525.196 605.68 522.156 605.89 519.037 605.85 515.957 605.84 515.137 606.35 514.877 607.08 514.887 607.72 514.887 608.35 514.887 608.99 514.887 628.797 514.887 648.605 514.927 668.412 514.847 670.992 514.837 673.602 516.197 676.411 514.457 676.131 519.617 676.261 524.456 676.081 529.315 675.841 535.834 674.492 542.214 674.312 548.693 674.012 560.041 673.412 571.4 673.832 582.729 674.112 590.308 674.132 597.907 674.422 605.496 674.582 609.805 673.722 614.225 673.602 618.624 673.392 626.253 673.422 633.922 674.152 641.471 674.902 649.2 675.161 656.969 676.231 664.678 676.881 669.388 676.911 674.267 678.101 678.846 679.401 683.846 679.111 689.035 680.571 693.955 680.761 694.605 680.691 695.154 680.491 695.784 679.921 697.584 680.191 699.254 681.051 700.984 682.131 703.143 682.481 705.513 681.621 707.863 681.181 709.063 682.131 710.043 681.871 711.232 681.151 714.532 678.581 717.042 675.031 717.762 666.213 719.561 657.294 720.421 648.335 721.081 642.486 721.511 636.636 722.011 630.777 722.161 629.997 722.181 629.177 722.411 628.467 722.741 626.888 723.481 625.508 723.971 623.788 722.741 621.928 721.411 619.688 722.511 617.779 722.821 610.81 723.941 612.559 723.161 610.43 717.522 609.31 714.562 609.01 711.312 608.34 708.213 607.84 705.923 606.54 703.703 605.95 701.294 605.08 697.694 604.74 694.025 604.22 690.375 603.601 686.046 600.951 682.446 599.681 678.317 597.331 670.608 594.452 663.118 593.932 654.88 593.512 648.29 593.572 641.521 591.762 635.132 590.302 630.003 590.092 624.163 585.363 620.374 584.983 620.064 584.553 619.354 584.653 618.964 586.083 613.365 582.393 609.345 580.363 604.826 578.744 601.196 575.664 598.397 574.414 594.557 573.814 592.707 573.344 590.798 571.964 589.348 571.265 588.618 570.375 588.038 569.285 588.398 568.065 588.798 568.535 589.908 568.505 590.738 568.455 592.067 568.505 593.297 569.275 594.587 570.305 596.327 570.935 598.357 570.305 600.496 569.795 602.216 570.875 603.656 571.285 605.166 572.744 610.615 571.995 616.254 573.004 621.734 574.534 630.043 574.924 638.482 575.724 646.871 576.404 653.99 576.304 661.219 575.634 668.378 575.034 674.807 575.044 681.166 575.714 687.625 576.304 693.255 576.824 698.954 577.964 704.423 578.604 707.513 579.224 710.533 579.444 713.682 579.634 716.432 578.134 718.911 578.474 721.681 578.634 722.931 577.424 722.741 576.684 722.661 569.215 721.811 561.686 721.151 554.747 717.982 548.137 714.962 541.288 712.222 535.189 708.353 527.17 703.263 518.721 698.474 512.372 691.245 503.593 681.236 495.174 670.938 487.775 659.779 484.306 654.55 480.926 649.28 477.866 643.821 475.407 639.431 474.487 634.462 473.597 629.573 473.097 626.833 472.477 624.123 471.697 621.484 470.247 616.564 470.127 611.445 469.167 606.456 467.688 598.757 467.938 590.888 467.068 583.129 466.788 580.639 466.488 578.099 466.468 575.589 466.408 564.931 465.728 554.282 464.638 543.703 463.928 536.824 465.288 530.285 465.868 523.596 466.128 520.586 465.458 517.657 465.368 514.687 465.258 511.498 466.398 510.478 469.437 511.118 482.146 513.787 495.014 514.377 507.933 514.337 523.631 514.287 539.299 515.677 555.007 515.517 557.406 515.497 559.996 515.727 562.176 516.637 564.125 517.457 565.935 519.117 567.245 520.836 571.405 526.276 576.944 530.205 582.093 534.495 589.222 540.434 595.891 546.643 600.181 555.032 601.971 558.522 604.73 561.421 606.41 564.981 606.56 565.301 606.81 565.801 607.05 565.821 610 566.071 611.54 568.82 614.309 569.9Z" stroke="#FFFFFF" stroke-width="11.9985"/><path d="M697.639 485.291C699.558 482.731 697.679 480.341 697.689 477.912 697.729 471.323 697.289 464.733 698.879 458.194 699.568 455.345 698.839 452.335 699.229 449.305 700.508 439.457 701.768 429.558 701.168 419.569 701.088 418.319 701.448 417.049 701.588 415.79 701.728 414.44 702.018 413.08 700.878 411.94 700.148 411.21 700.428 410.22 700.408 409.34 700.288 404.441 700.448 399.542 700.948 394.662 701.128 392.862 700.328 392.243 698.599 391.773 693.369 390.353 688.2 391.433 683.01 391.823 681.681 391.923 680.801 392.582 680.271 394.032 678.911 397.782 678.191 401.581 677.791 405.561 676.461 418.639 675.991 431.738 676.171 444.866 676.191 446.146 675.801 446.946 674.442 447.146 673.922 447.226 673.302 447.386 672.952 447.726 665.723 454.865 656.234 457.514 647.005 460.354 637.486 463.284 627.867 466.093 617.909 467.313 611.799 468.063 605.68 468.773 599.561 469.473 598.131 469.633 596.791 469.263 595.812 468.213 590.922 462.934 587.183 456.944 585.223 449.975 583.273 443.056 582.693 436.047 583.553 428.838 584.633 419.739 584.083 410.56 584.263 401.411 584.503 389.463 584.623 377.504 585.433 365.586 586.163 354.807 588.072 344.109 588.872 333.34 589.542 324.361 591.862 315.832 594.022 307.193 594.822 303.984 596.251 302.994 598.931 301.824 601.471 300.724 603.531 298.504 606.1 297.184 611 294.665 616.119 293.355 621.658 292.705 629.187 291.835 636.666 292.465 644.135 292.555 651.115 292.635 658.074 291.775 665.033 292.315 669.992 292.695 675.002 292.475 679.901 293.045 682.331 293.325 684.86 294.515 687.39 295.155 688.39 295.415 688.1 296.175 687.71 296.895 684.7 302.444 683.88 308.433 683.35 314.672 682.861 320.552 682.911 326.471 682.061 332.31 681.141 338.659 680.471 345.008 680.421 351.428 680.361 359.517 682.921 361.586 690.45 363.226 691.509 363.456 692.459 363.466 693.279 364.496 694.149 365.586 700.868 365.276 701.578 364.196 702.368 362.996 702.308 361.396 701.808 360.247 700.528 357.317 700.638 354.097 700.488 351.198 699.988 341.419 699.918 331.58 701.188 321.821 702.138 314.502 704.558 307.553 706.738 300.534 707.867 296.905 707.837 292.885 709.767 289.465 711.887 285.706 713.447 281.566 716.826 278.627 717.426 278.107 717.866 277.457 718.916 277.877 723.955 279.917 729.285 281.336 733.014 285.846 734.414 287.546 736.654 288.536 738.224 290.125 748.092 300.154 756.321 311.293 760.981 324.751 761.831 327.211 762.74 329.62 764.12 331.83 768.09 338.169 769.04 345.368 770.22 352.528 770.899 356.667 770.27 360.857 770.69 364.936 771.679 374.565 771.189 384.294 773.299 393.862 774.259 398.232 773.929 402.901 773.999 407.441 774.099 413.8 774.299 420.179 773.959 426.518 773.429 436.547 772.959 446.556 772.809 456.604 772.769 459.274 772.589 462.014 772.319 464.693 772.189 465.943 773.629 467.813 770.909 468.553 770.28 468.723 770.33 471.703 770.22 473.402 769.98 476.912 769.48 480.391 769.61 483.931 769.7 486.311 768.98 486.611 767 485.371 762.701 482.671 758.371 480.002 754.102 477.262 749.172 474.102 743.443 473.922 737.944 472.842 732.914 471.853 727.975 472.292 722.966 473.342 715.896 474.822 709.327 477.452 703.138 481.081 701.218 482.211 699.469 483.631 697.639 485.271Z" stroke="#FFFFFF" stroke-width="11.9985"/><path d="M678.571 459.194C678.571 468.563 678.391 477.552 678.641 486.541 678.781 491.68 678.701 496.759 678.081 501.859 677.901 503.339 677.431 503.819 676.031 504.089 672.362 504.798 668.742 505.298 664.963 504.758 662.183 504.358 659.484 505.928 656.614 505.618 646.235 504.468 635.786 506.298 625.418 505.038 616.639 503.969 607.79 505.298 599.071 504.368 592.222 503.639 585.503 504.458 578.754 504.658 567.145 504.998 555.597 504.108 544.028 503.849 534.639 503.639 525.27 502.519 515.852 502.269 507.723 502.049 499.604 501.409 491.505 500.639 486.795 500.189 482.126 499.209 477.476 498.299 474.537 497.719 471.527 498.249 468.608 497.479 467.668 497.229 466.668 497.319 466.988 496.019 467.528 493.87 466.608 491.86 466.548 489.85 466.088 475.212 463.838 460.614 464.878 445.966 465.558 436.387 466.018 426.778 467.348 417.219 468.608 408.171 470.247 399.192 471.377 390.133 472.177 383.754 473.717 377.474 474.457 371.095 475.147 365.136 475.767 359.147 477.626 353.467 480.436 344.909 483.446 336.41 486.875 328.051 488.995 322.881 491.135 317.632 494.514 313.442 498.874 308.043 501.823 301.724 506.543 296.615 510.472 292.355 514.642 288.346 519.141 284.756 524.01 280.857 528.71 276.627 534.589 274.137 544.638 269.888 554.857 266.168 565.595 263.979 575.684 261.919 585.893 261.329 596.141 260.579 611.55 259.439 626.938 259.749 642.336 259.719 649.525 259.709 656.634 261.049 663.693 262.439 677.021 265.059 689.88 269.508 703.068 272.658 704.988 273.118 705.688 273.577 704.098 275.317 703.448 276.027 703.208 277.097 702.648 277.917 701.578 279.497 700.208 280.367 698.139 280.467 686.24 281.047 674.322 280.487 662.443 281.037 643.416 281.906 624.368 282.826 605.41 284.866 601.171 285.326 596.911 285.726 592.662 285.976 590.542 286.106 588.782 286.756 587.243 288.166 586.913 288.476 586.553 288.796 586.153 288.966 580.143 291.475 577.464 296.725 575.774 302.404 574.594 306.343 574.294 310.553 573.814 314.672 573.434 317.932 571.905 320.862 571.515 324.121 570.745 330.51 571.145 336.979 569.935 343.339 568.895 348.838 567.985 354.367 567.705 359.967 567.635 361.326 567.425 362.676 567.405 364.026 567.215 376.115 567.535 388.193 567.945 400.272 568.215 408.261 566.855 416.14 566.325 424.079 565.955 429.688 566.515 435.367 566.145 440.976 565.445 451.705 568.815 461.434 572.874 471.053 573.014 471.383 573.294 471.693 573.304 472.023 573.504 476.692 577.134 476.782 580.363 477.182 582.183 477.412 583.923 477.762 585.653 478.342 593.472 480.931 601.371 479.692 609.06 478.082 626.208 474.512 643.396 470.983 660.093 465.573 661.383 465.153 662.653 464.593 663.813 463.904 667.003 461.994 670.342 460.784 674.132 460.994 675.631 461.074 676.821 460.064 678.531 459.214Z" stroke="#FFFFFF" stroke-width="11.9985"/><path d="M1082.16 373.185C1082.16 380.274 1082.4 387.373 1082.1 394.452 1081.64 405.301 1081.25 416.14 1080.92 426.988 1080.81 430.518 1080.7 433.997 1080.96 437.517 1081.1 439.467 1081.19 441.416 1080.66 443.426 1080.28 444.856 1080.11 446.556 1081.24 448.106 1082.13 449.325 1079.74 453.795 1078.15 454.315 1068.44 457.524 1058.39 459.044 1048.3 460.314 1040.94 461.244 1033.81 463.224 1026.59 464.843 1020.58 466.193 1014.39 466.873 1008.23 465.323 1006.97 465.003 1005.92 465.923 1004.79 465.753 1001.68 465.293 998.571 466.573 995.311 464.443 993.492 463.254 990.112 463.144 987.402 463.624 979.773 464.983 972.704 462.344 965.565 460.514 962.205 459.654 958.966 458.214 955.796 456.774 953.087 455.545 952.057 452.585 950.237 450.455 946.317 445.856 945.747 440.077 945.268 434.337 944.568 425.838 943.618 417.349 943.198 408.83 942.918 403.241 942.448 397.682 941.388 392.223 939.928 384.723 940.008 377.194 939.678 369.635 939.488 365.226 938.078 360.857 937.029 356.517 935.909 351.878 935.589 347.138 934.989 342.439 933.999 334.62 932.259 326.951 931.009 319.192 930 312.923 928.19 306.853 926.89 300.664 924.94 291.355 920.801 282.746 916.551 274.257 915.261 271.688 913.942 269.128 912.632 266.568 911.502 264.369 911.942 263.049 914.261 262.549 918.371 261.649 922.46 260.849 926.72 260.609 931.879 260.319 937.029 260.289 942.178 260.179 944.898 260.119 947.517 260.959 950.267 260.789 953.147 260.619 955.976 260.259 958.806 259.759 960.216 259.509 961.805 259.329 963.135 259.709 969.285 261.479 975.544 260.459 981.743 260.729 982.103 260.749 982.473 260.729 982.833 260.729 985.443 260.729 987.322 261.019 988.252 264.369 990.132 271.108 992.992 277.577 995.141 284.256 996.891 289.715 997.591 295.395 998.251 301.104 999.241 309.593 999.581 318.122 1000.71 326.601 1001.5 332.45 1002.39 338.309 1002.61 344.259 1002.85 350.778 1003.54 357.347 1004.82 363.736 1005.83 368.775 1007.23 369.775 1012.53 370.375 1015 370.655 1017.47 371.095 1019.88 371.735 1021.52 372.165 1022.19 372.065 1022.18 370.155 1022.12 361.426 1022.66 352.668 1022.03 343.989 1021.23 333.04 1021.11 322.031 1019.41 311.163 1018.26 303.844 1017.39 296.485 1015.8 289.215 1015.24 286.656 1015.13 283.856 1015.12 281.186 1015.12 273.228 1013.75 265.458 1012.25 257.709 1011.92 256.01 1012.29 255.3 1013.79 255.33 1016.68 255.38 1019.57 254.95 1022.45 255.68 1024.76 256.26 1027.11 255.36 1029.42 255.34 1040.92 255.23 1052.42 255.27 1063.92 255.34 1065.92 255.35 1067.39 255.85 1068.23 258.359 1071.08 266.878 1072.35 275.697 1074.03 284.456 1075.9 294.225 1076.39 304.164 1078.26 313.932 1079.79 321.941 1080.57 330.05 1081.2 338.209 1082.1 349.888 1082.05 361.536 1082.13 373.205Z" stroke="#FFFFFF" stroke-width="11.9985"/><path d="M1082.69 628.653C1082.14 637.632 1082.94 646.611 1083.4 655.549 1083.95 666.398 1084.42 677.237 1084.33 688.095 1084.31 691.165 1083.79 694.195 1083.7 697.264 1083.61 700.374 1081.11 701.584 1077.78 701.084 1074.66 700.614 1071.88 699.174 1068.83 698.464 1061.63 696.764 1054.55 694.585 1047.8 691.365 1035.79 685.636 1023.71 680.016 1011.26 675.297 1004.45 672.707 997.971 669.758 991.882 665.688 987.932 663.049 983.263 661.449 978.853 659.529 973.764 657.319 969.674 653.83 965.435 650.33 959.256 645.231 952.487 640.841 945.977 636.142 943.488 634.352 942.068 631.902 941.978 628.863 941.858 624.803 942.658 620.854 943.268 616.844 943.988 612.155 944.978 607.365 944.308 602.426 943.708 597.987 944.228 593.447 945.028 588.968 945.468 586.498 945.188 583.908 945.288 581.369 945.747 569.44 946.157 557.512 946.607 545.593 946.967 536.244 947.747 526.826 949.377 517.477 950.637 510.248 949.547 502.619 949.687 495.17 949.747 491.7 949.257 488.35 948.457 485.021 947.777 482.161 947.927 479.342 948.347 476.452 948.667 474.222 948.497 471.933 948.567 469.673 948.587 468.903 948.317 468.023 949.627 467.933 950.457 467.873 951.197 467.143 951.957 468.303 954.336 471.933 958.216 472.193 962.055 473.002 967.865 474.232 973.834 475.002 979.353 477.372 980.893 478.032 982.423 477.932 983.863 477.742 990.242 476.882 996.581 477.462 1002.97 477.642 1007.03 477.752 1011.27 477.662 1015.32 476.672 1019.71 475.602 1024.21 475.592 1028.64 475.572 1032.38 475.562 1035.92 474.722 1039.56 474.322 1047.65 473.432 1055.38 470.603 1063.43 469.743 1065.6 469.513 1068.05 468.553 1070.43 469.543 1071.27 469.893 1072.37 469.803 1073.28 469.143 1074.69 468.113 1076.39 468.093 1078.03 468.043 1079.63 467.993 1080.5 468.723 1080.49 470.513 1080.45 476.682 1081.27 482.971 1080.35 489 1079.12 496.979 1081.32 504.638 1081.17 512.477 1081.1 516.227 1079.08 518.797 1077.2 521.556 1076.8 522.146 1075.95 522.546 1075.06 522.526 1068.26 522.346 1061.54 524.196 1054.77 523.546 1048.58 522.946 1042.39 522.916 1036.31 523.746 1030.59 524.526 1024.85 524.496 1019.14 525.036 1016.52 525.286 1015.49 526.526 1015.25 528.885 1015.21 529.245 1015.13 529.595 1015.1 529.955 1014.78 533.668 1016.47 535.542 1020.16 535.575 1021.44 535.575 1022.87 535.485 1023.72 536.444 1024.85 537.724 1025.28 536.084 1026.12 536.074 1028.14 536.054 1030.06 536.694 1032.04 536.704 1035.29 536.734 1038.53 536.504 1041.78 536.234 1047.54 535.754 1049.71 538.634 1049.92 543.844 1050.17 550.123 1050.07 556.442 1049.38 562.711 1049.22 564.171 1048.38 565.571 1047.75 566.951 1047.41 567.68 1046.7 567.92 1045.9 567.61 1044.33 567.001 1042.65 567.121 1041.05 567.281 1035.6 567.81 1030.26 566.221 1024.8 566.591 1021.34 566.821 1018.35 568.62 1014.95 569.03 1013.61 569.19 1013.35 571.24 1013.7 571.89 1015.39 575.05 1013.49 577.809 1013.11 580.719 1012.98 581.719 1012.86 582.679 1013.06 583.668 1013.42 585.508 1013.85 586.268 1016.38 586.008 1020.5 585.578 1024.76 585.978 1028.98 586.428 1036.08 587.198 1042.49 590.368 1049.43 591.497 1052.88 592.057 1056.38 592.527 1059.83 592.717 1063.37 592.907 1066.82 593.467 1070.26 594.047 1073.67 594.617 1075.94 597.687 1079.58 598.477 1082.34 599.067 1082.01 602.886 1082.09 605.326 1082.34 613.105 1083.29 620.874 1082.72 628.673Z" stroke="#FFFFFF" stroke-width="11.9985"/><path d="M692.839 529.175C701.328 538.694 711.047 545.773 723.276 547.953 736.124 550.233 747.982 547.173 757.981 538.284 760.421 536.114 763.46 534.585 764.95 531.415 765.39 530.485 766.53 530.555 767.42 530.745 768.52 530.985 768.98 531.835 769.1 532.935 770.07 541.914 770.01 550.933 769.53 559.901 769.09 568.06 767.79 576.159 767.32 584.338 767.07 588.768 767.29 593.207 766.88 597.607 766.12 605.836 766.1 614.105 764.95 622.344 763.74 630.992 761.331 639.261 759.041 647.58 757.701 652.43 755.421 657.059 753.042 661.569 752.002 663.538 750.872 665.548 750.352 667.678 749.122 672.687 746.503 676.847 743.583 681.006 741.213 684.376 739.313 688.095 737.484 691.805 735.734 695.334 733.194 697.814 729.715 699.614 723.765 702.703 717.986 706.173 711.677 708.473 707.697 709.923 703.548 711.102 699.169 710.103 698.619 709.973 697.959 710.323 697.359 710.503 696.569 710.732 696.109 710.723 695.779 709.713 694.829 706.823 694.659 703.793 694.049 700.844 693.209 696.774 692.119 692.745 691.819 688.535 691.649 686.186 691.439 683.826 691.529 681.496 691.869 672.507 690.6 663.598 689.76 654.72 689.12 647.97 688.91 641.231 688.37 634.492 687.78 627.093 689.02 619.754 688.89 612.395 688.73 602.726 687.82 593.047 687.97 583.388 688.09 575.419 689.29 567.471 690 559.522 690.38 555.232 690.73 550.943 691.13 546.653 691.669 540.904 692.249 535.145 692.839 529.205Z" stroke="#FFFFFF" stroke-width="11.9985"/><path d="M733.154 482.041C737.884 481.791 744.143 483.891 749.392 487.551 754.612 491.19 757.741 496.869 759.311 503.229 760.051 506.208 760.761 509.178 760.351 512.237 759.511 518.637 757.381 524.066 751.162 527.546 747.042 529.855 743.213 532.475 738.514 533.615 732.124 535.165 725.765 536.074 719.466 533.635 713.187 531.205 708.487 526.766 704.538 521.376 702.558 518.677 700.778 515.817 699.828 512.747 699.089 510.368 699.588 507.508 699.938 504.918 700.568 500.209 702.788 495.99 705.388 492.2 707.927 488.5 711.867 486.041 716.106 484.461 720.936 482.661 726.035 482.201 733.154 482.041Z" stroke="#FFFFFF" stroke-width="11.9985"/></g></svg>